<svg width="73" height="70" viewBox="0 0 73 70" fill="none" xmlns="http://www.w3.org/2000/svg">
<mask id="path-1-inside-1_528_447" fill="white">
<path d="M60.7283 13.6282H47.8803V4.52717C47.8803 2.03023 45.7672 0 43.1622 0H29.8532C27.2559 0 25.1351 2.03023 25.1351 4.52717V13.6282H12.2871C5.51726 13.6282 0 18.9177 0 25.4206V50.1645C0 51.6657 0.945158 52.9492 2.2899 53.5171V62.867C2.2899 66.803 5.89379 70 10.3199 70H62.6801C67.1062 70 70.7101 66.803 70.7101 62.867V53.5171C72.0548 52.9492 73 51.6657 73 50.1645V25.4206C73 18.9177 67.4904 13.6282 60.7129 13.6282H60.7283ZM28.1934 4.52717C28.1934 3.64818 28.9387 2.93255 29.8608 2.93255H43.1699C44.0843 2.93255 44.8374 3.64818 44.8374 4.52717V13.6282H28.2011V4.52717H28.1934ZM3.05832 25.4206C3.05832 20.5356 7.2001 16.5529 12.2871 16.5529H60.7206C65.8076 16.5529 69.9494 20.5278 69.9494 25.4206V50.1645C69.9494 50.569 69.6036 50.8957 69.1886 50.8957H57.1628V49.0677C57.1628 47.0686 55.4723 45.4506 53.3899 45.4506H48.5796C46.5048 45.4506 44.8143 47.0763 44.8143 49.0677V50.8957H28.178V49.0677C28.178 47.0686 26.4875 45.4506 24.4127 45.4506H19.6024C17.52 45.4506 15.8295 47.0763 15.8295 49.0677V50.8957H3.80368C3.38105 50.8957 3.04295 50.569 3.04295 50.1645V25.4206H3.05832ZM47.8726 49.0677C47.8726 48.6865 48.1954 48.3832 48.5873 48.3832H53.3976C53.7895 48.3832 54.1122 48.6943 54.1122 49.0677V57.0641C54.1122 57.4453 53.7895 57.7564 53.3976 57.7564H48.5873C48.1954 57.7564 47.8726 57.4453 47.8726 57.0641V49.0677ZM18.8955 49.0677C18.8955 48.6865 19.2182 48.3832 19.6101 48.3832H24.4204C24.8123 48.3832 25.1351 48.6943 25.1351 49.0677V57.0641C25.1351 57.4453 24.8123 57.7564 24.4204 57.7564H19.6101C19.2182 57.7564 18.8955 57.4453 18.8955 57.0641V49.0677ZM62.6801 67.0752H10.3353C7.592 67.0752 5.3559 65.185 5.3559 62.867V53.8282H15.8525V57.0641C15.8525 59.0632 17.5431 60.6812 19.6255 60.6812H24.4358C26.5105 60.6812 28.2011 59.0555 28.2011 57.0641V53.8282H44.8374V57.0641C44.8374 59.0632 46.5279 60.6812 48.6026 60.6812H53.4129C55.4954 60.6812 57.1859 59.0555 57.1859 57.0641V53.8282H67.6825V62.867C67.6825 65.185 65.4464 67.0752 62.7032 67.0752H62.6801ZM36.5 43.7626C42.2632 43.7626 46.9505 39.2588 46.9505 33.7282C46.9505 28.1976 42.2632 23.6937 36.5 23.6937C30.7368 23.6937 26.0495 28.1976 26.0495 33.7282C26.0495 39.2588 30.7368 43.7626 36.5 43.7626ZM36.5 26.6185C40.5803 26.6185 43.8999 29.8078 43.8999 33.7282C43.8999 37.6486 40.5803 40.8301 36.5 40.8301C32.4197 40.8301 29.1001 37.6409 29.1001 33.7282C29.1001 29.8155 32.4197 26.6185 36.5 26.6185ZM34.9708 35.1906H31.2209C30.3757 35.1906 29.6918 34.5372 29.6918 33.7282C29.6918 32.9192 30.3757 32.2658 31.2209 32.2658H34.9708V28.6643C34.9708 27.8553 35.6547 27.2019 36.5 27.2019C37.3453 27.2019 38.0292 27.8553 38.0292 28.6643V32.2658H41.7791C42.6243 32.2658 43.3082 32.9192 43.3082 33.7282C43.3082 34.5372 42.6243 35.1906 41.7791 35.1906H38.0292V38.7921C38.0292 39.6011 37.3453 40.2545 36.5 40.2545C35.6547 40.2545 34.9708 39.6011 34.9708 38.7921V35.1906Z"/>
</mask>
<path d="M60.7283 13.6282H47.8803V4.52717C47.8803 2.03023 45.7672 0 43.1622 0H29.8532C27.2559 0 25.1351 2.03023 25.1351 4.52717V13.6282H12.2871C5.51726 13.6282 0 18.9177 0 25.4206V50.1645C0 51.6657 0.945158 52.9492 2.2899 53.5171V62.867C2.2899 66.803 5.89379 70 10.3199 70H62.6801C67.1062 70 70.7101 66.803 70.7101 62.867V53.5171C72.0548 52.9492 73 51.6657 73 50.1645V25.4206C73 18.9177 67.4904 13.6282 60.7129 13.6282H60.7283ZM28.1934 4.52717C28.1934 3.64818 28.9387 2.93255 29.8608 2.93255H43.1699C44.0843 2.93255 44.8374 3.64818 44.8374 4.52717V13.6282H28.2011V4.52717H28.1934ZM3.05832 25.4206C3.05832 20.5356 7.2001 16.5529 12.2871 16.5529H60.7206C65.8076 16.5529 69.9494 20.5278 69.9494 25.4206V50.1645C69.9494 50.569 69.6036 50.8957 69.1886 50.8957H57.1628V49.0677C57.1628 47.0686 55.4723 45.4506 53.3899 45.4506H48.5796C46.5048 45.4506 44.8143 47.0763 44.8143 49.0677V50.8957H28.178V49.0677C28.178 47.0686 26.4875 45.4506 24.4127 45.4506H19.6024C17.52 45.4506 15.8295 47.0763 15.8295 49.0677V50.8957H3.80368C3.38105 50.8957 3.04295 50.569 3.04295 50.1645V25.4206H3.05832ZM47.8726 49.0677C47.8726 48.6865 48.1954 48.3832 48.5873 48.3832H53.3976C53.7895 48.3832 54.1122 48.6943 54.1122 49.0677V57.0641C54.1122 57.4453 53.7895 57.7564 53.3976 57.7564H48.5873C48.1954 57.7564 47.8726 57.4453 47.8726 57.0641V49.0677ZM18.8955 49.0677C18.8955 48.6865 19.2182 48.3832 19.6101 48.3832H24.4204C24.8123 48.3832 25.1351 48.6943 25.1351 49.0677V57.0641C25.1351 57.4453 24.8123 57.7564 24.4204 57.7564H19.6101C19.2182 57.7564 18.8955 57.4453 18.8955 57.0641V49.0677ZM62.6801 67.0752H10.3353C7.592 67.0752 5.3559 65.185 5.3559 62.867V53.8282H15.8525V57.0641C15.8525 59.0632 17.5431 60.6812 19.6255 60.6812H24.4358C26.5105 60.6812 28.2011 59.0555 28.2011 57.0641V53.8282H44.8374V57.0641C44.8374 59.0632 46.5279 60.6812 48.6026 60.6812H53.4129C55.4954 60.6812 57.1859 59.0555 57.1859 57.0641V53.8282H67.6825V62.867C67.6825 65.185 65.4464 67.0752 62.7032 67.0752H62.6801ZM36.5 43.7626C42.2632 43.7626 46.9505 39.2588 46.9505 33.7282C46.9505 28.1976 42.2632 23.6937 36.5 23.6937C30.7368 23.6937 26.0495 28.1976 26.0495 33.7282C26.0495 39.2588 30.7368 43.7626 36.5 43.7626ZM36.5 26.6185C40.5803 26.6185 43.8999 29.8078 43.8999 33.7282C43.8999 37.6486 40.5803 40.8301 36.5 40.8301C32.4197 40.8301 29.1001 37.6409 29.1001 33.7282C29.1001 29.8155 32.4197 26.6185 36.5 26.6185ZM34.9708 35.1906H31.2209C30.3757 35.1906 29.6918 34.5372 29.6918 33.7282C29.6918 32.9192 30.3757 32.2658 31.2209 32.2658H34.9708V28.6643C34.9708 27.8553 35.6547 27.2019 36.5 27.2019C37.3453 27.2019 38.0292 27.8553 38.0292 28.6643V32.2658H41.7791C42.6243 32.2658 43.3082 32.9192 43.3082 33.7282C43.3082 34.5372 42.6243 35.1906 41.7791 35.1906H38.0292V38.7921C38.0292 39.6011 37.3453 40.2545 36.5 40.2545C35.6547 40.2545 34.9708 39.6011 34.9708 38.7921V35.1906Z" fill="black" stroke="black" stroke-width="0.2" mask="url(#path-1-inside-1_528_447)"/>
</svg>
