<svg width="72" height="73" viewBox="0 0 72 73" fill="none" xmlns="http://www.w3.org/2000/svg">
<path d="M65.3718 22.3833L64.8037 22.9109L65.5752 22.9881C68.9954 23.3301 71.65 26.2388 71.65 29.7498V59.4498C71.65 60.2465 70.9967 60.8998 70.2 60.8998C69.4033 60.8998 68.75 60.2465 68.75 59.4498V29.7498C68.75 27.5765 66.9733 25.7998 64.8 25.7998H48.6C46.4267 25.7998 44.65 27.5765 44.65 29.7498V32.4498V32.5398V32.7057L44.7784 32.8107C47.6747 35.1804 49.6 38.7742 49.6 42.7998C49.6 46.4789 48.0232 49.8071 45.5718 52.0833L45.0037 52.6109L45.7752 52.6881C49.1954 53.0301 51.85 55.9388 51.85 59.4498V71.1498C51.85 71.9465 51.1967 72.5998 50.4 72.5998C49.6033 72.5998 48.95 71.9465 48.95 71.1498V59.4498C48.95 57.2765 47.1733 55.4998 45 55.4998H28.8C26.6267 55.4998 24.85 57.2765 24.85 59.4498V71.1498C24.85 71.9465 24.1967 72.5998 23.4 72.5998C22.6033 72.5998 21.95 71.9465 21.95 71.1498V59.4498C21.95 55.9459 24.5989 53.1164 28.0334 52.6871L28.7602 52.5963L28.2329 52.0879C25.7743 49.717 24.2 46.4753 24.2 42.7998C24.2 39.7359 25.3385 36.8448 27.178 34.6549L27.2892 34.5226L27.2517 34.3539C26.8588 32.5858 25.2861 31.1998 23.4 31.1998H7.2C5.0267 31.1998 3.25 32.9765 3.25 35.1498V64.8498C3.25 65.6465 2.5967 66.2998 1.8 66.2998C1.0033 66.2998 0.35 65.6465 0.35 64.8498V35.1498C0.35 31.6459 2.99892 28.8164 6.43341 28.3871L7.16017 28.2963L6.63295 27.7879C4.17426 25.417 2.6 22.1753 2.6 18.4998C2.6 11.4931 8.2933 5.7998 15.3 5.7998C22.3067 5.7998 28 11.4931 28 18.4998C28 22.1789 26.4232 25.5071 23.9718 27.7833L23.4119 28.3033L24.1714 28.3877C26.478 28.644 28.4501 30.0982 29.4797 32.0717L29.6581 32.4137L29.9812 32.203C31.9997 30.8866 34.364 30.0998 36.9 30.0998C38.4778 30.0998 39.8762 30.3622 41.2771 30.8875L41.75 31.0649V30.5598V29.7498C41.75 26.2459 44.3989 23.4164 47.8334 22.9871L48.5602 22.8963L48.0329 22.3879C45.5743 20.017 44 16.7753 44 13.0998C44 6.0931 49.6933 0.399805 56.7 0.399805C63.7067 0.399805 69.4 6.0931 69.4 13.0998C69.4 16.7789 67.8232 20.1071 65.3718 22.3833ZM29.5059 36.3886L29.4644 36.4162L29.4323 36.4544C27.9416 38.2245 27.1 40.3736 27.1 42.7998C27.1 48.2131 31.4867 52.5998 36.9 52.5998C42.3133 52.5998 46.7 48.2131 46.7 42.7998C46.7 37.3865 42.3133 32.9998 36.9 32.9998C34.2845 32.9998 31.9499 34.0283 30.1793 35.7057L30.1507 35.7328L30.1288 35.7657C29.9744 35.9972 29.7374 36.2342 29.5059 36.3886ZM15.3 8.6998C9.8867 8.6998 5.5 13.0865 5.5 18.4998C5.5 23.9131 9.8867 28.2998 15.3 28.2998C20.7133 28.2998 25.1 23.9131 25.1 18.4998C25.1 13.0865 20.7133 8.6998 15.3 8.6998ZM56.7 3.2998C51.2867 3.2998 46.9 7.6865 46.9 13.0998C46.9 18.5131 51.2867 22.8998 56.7 22.8998C62.1133 22.8998 66.5 18.5131 66.5 13.0998C66.5 7.6865 62.1133 3.2998 56.7 3.2998Z" fill="black" stroke="white" stroke-width="0.7"/>
</svg>
