<svg width="72" height="72" viewBox="0 0 72 72" fill="none" xmlns="http://www.w3.org/2000/svg">
<path d="M71.7583 56.6887C71.5032 55.9926 71.0453 55.389 70.4436 54.9558C69.842 54.5227 69.1243 54.2798 68.3833 54.2587H68.3045C67.8647 54.2615 67.4281 54.3336 67.0108 54.4725L65.2108 54.9843L53.8651 34.7343C53.459 33.9471 52.8433 33.2873 52.086 32.8277C51.3286 32.3682 50.4591 32.1267 49.5733 32.13L44.4376 32.0625V20.1487C44.4376 19.52 44.3773 18.8928 44.2576 18.2756C43.5834 18.4627 42.8873 18.5592 42.1876 18.5625H42.0189C42.1323 19.0874 42.1888 19.623 42.1876 20.16V32.0625H39.3751C39.0768 32.0625 38.7906 32.181 38.5796 32.392C38.3687 32.6029 38.2501 32.8891 38.2501 33.1875C38.2501 33.4858 38.3687 33.772 38.5796 33.983C38.7906 34.1939 39.0768 34.3125 39.3751 34.3125H43.3408L49.5733 34.3575C50.0545 34.3552 50.5269 34.4871 50.9373 34.7385C51.3477 34.9899 51.6798 35.3508 51.8964 35.7806L64.1251 57.6281L67.6858 56.6156C67.8974 56.5418 68.1198 56.5038 68.3439 56.5031C68.6317 56.5157 68.9091 56.614 69.1406 56.7854C69.3721 56.9568 69.5471 57.1934 69.6433 57.465C69.7099 57.6451 69.7441 57.8355 69.7445 58.0275C69.7195 58.3238 69.6148 58.6078 69.4415 58.8494C69.2682 59.091 69.0328 59.2813 68.7601 59.4C68.3101 59.5575 64.727 60.8231 63.2251 61.2562C63.0874 61.3013 62.9417 61.3167 62.7976 61.3012C62.3693 61.2578 61.9586 61.1079 61.603 60.8652C61.2473 60.6226 60.958 60.2948 60.7614 59.9119L52.4645 44.4375H38.3176C36.5064 44.4768 35.1732 43.9987 34.2282 42.9581C32.3326 40.8881 32.6251 37.2712 32.6251 37.2375V21.375C32.6251 18.0618 34.1833 16.3125 36.0001 15.5868C35.534 14.9952 35.1551 14.3398 34.8751 13.6406C32.3832 14.7656 30.3751 17.2856 30.3751 21.375V36H28.1251V31.5C28.1206 30.5802 27.8398 29.6831 27.3193 28.9248C26.7987 28.1666 26.0624 27.5822 25.2057 27.2475C25.3709 26.41 25.2126 25.5412 24.7628 24.8158C24.3129 24.0904 23.6049 23.5624 22.7814 23.3381L18.0001 22.0331V17.8875C17.9951 16.2104 17.4221 14.5846 16.3745 13.275C15.7185 13.6994 15.0067 14.0307 14.2595 14.2593C15.2076 15.2299 15.742 16.5306 15.7501 17.8875V21.4087L9.66949 19.7212C9.52693 19.6817 9.37797 19.6706 9.23113 19.6887C9.0843 19.7067 8.94245 19.7535 8.8137 19.8264C8.55367 19.9735 8.36274 20.218 8.28293 20.5059C8.20312 20.7938 8.24095 21.1017 8.38811 21.3617C8.53526 21.6217 8.77969 21.8126 9.06762 21.8925L22.2076 25.5318C22.4873 25.6039 22.7286 25.7807 22.8814 26.0258C23.0343 26.2708 23.0871 26.5652 23.0289 26.8481C22.9977 26.9659 22.9433 27.0764 22.869 27.173C22.7946 27.2695 22.7017 27.3503 22.5957 27.4106C22.4692 27.481 22.3295 27.5248 22.1854 27.5393C22.0413 27.5538 21.8957 27.5387 21.7576 27.495L7.59387 23.895C7.30445 23.8204 6.99725 23.8638 6.73986 24.0157C6.48247 24.1676 6.29596 24.4155 6.22137 24.705C6.14677 24.9944 6.19021 25.3016 6.34211 25.559C6.49402 25.8164 6.74195 26.0029 7.03137 26.0775L15.7501 28.3275V40.4662C15.7426 40.4784 15.7316 40.4881 15.7186 40.4941C15.7056 40.5001 15.6911 40.5021 15.677 40.5H2.32324C2.25011 40.5 2.25011 40.4662 2.25011 40.4606V17.8875C2.2856 16.6847 2.70817 15.5254 3.45504 14.582C4.20191 13.6385 5.23322 12.9612 6.39574 12.6506C5.77663 12.1301 5.23493 11.524 4.78699 10.8506C3.38923 11.4281 2.19112 12.4022 1.34048 13.6527C0.489842 14.9031 0.0238898 16.3753 0.000114052 17.8875V69.6881C-0.00591423 70.2924 0.227242 70.8746 0.648737 71.3077C1.07023 71.7408 1.64587 71.9896 2.25011 72H8.40949C9.79324 72 12.3751 72 12.3751 69.2944C12.3751 67.2919 10.5357 66.2512 8.60074 66.0431L10.7889 42.75H15.3676L17.8426 67.455L19.5301 67.1287C19.7468 67.0852 19.9672 67.0626 20.1882 67.0612C21.2007 67.0612 21.3132 67.6237 21.3695 67.8656C21.3832 67.957 21.3832 68.0499 21.3695 68.1412C20.8974 68.3809 20.3874 68.5369 19.862 68.6025L14.6251 69.6375C14.5916 70.4745 14.3416 71.2885 13.8995 72H14.0514C14.1911 72.0003 14.3305 71.9871 14.4676 71.9606L20.3007 70.8356C21.3301 70.6331 22.607 70.38 23.2539 69.4012C23.4362 69.107 23.5562 68.7784 23.6065 68.4359C23.6568 68.0934 23.6364 67.7442 23.5464 67.41C23.1864 65.7225 21.8589 64.7662 19.9689 64.8394L19.817 64.6087L17.5332 41.8218C17.8337 41.4314 17.9977 40.9532 18.0001 40.4606V28.8731L21.1839 29.6887C21.4803 29.7733 21.7869 29.8168 22.0951 29.8181C22.6705 29.8179 23.2355 29.6646 23.732 29.3737C23.7939 29.34 23.8445 29.2893 23.9007 29.25H24.0807C24.5926 29.3677 25.0505 29.653 25.3817 30.0606C25.7129 30.4683 25.8984 30.9749 25.9089 31.5V45.4275C23.8908 45.9435 22.0194 46.9196 20.4414 48.2793L20.762 51.48L26.567 57.375H21.3751L21.6001 59.625H26.5839L23.0232 63.2475C23.6964 63.5966 24.2857 64.088 24.7501 64.6875L28.1251 61.2394V69.6769C27.316 69.5946 26.5182 69.4249 25.7457 69.1706C25.6264 69.6808 25.4189 70.1662 25.1326 70.605C24.9955 70.804 24.8432 70.992 24.677 71.1675C26.6237 71.8641 28.7045 72.1042 30.7587 71.8693C32.813 71.6345 34.7858 70.9309 36.5251 69.8129C38.2644 68.6948 39.7236 67.1922 40.7902 65.421C41.8569 63.6497 42.5024 61.6571 42.677 59.5968H51.1876V64.26C50.2813 64.5302 49.5024 65.1177 48.9936 65.9149C48.4847 66.7121 48.2798 67.6659 48.4164 68.6018C48.5529 69.5377 49.0218 70.3932 49.7372 71.0118C50.4526 71.6304 51.3668 71.9708 52.3126 71.9708C53.2584 71.9708 54.1726 71.6304 54.8881 71.0118C55.6035 70.3932 56.0723 69.5377 56.2089 68.6018C56.3454 67.6659 56.1405 66.7121 55.6317 65.9149C55.1228 65.1177 54.344 64.5302 53.4376 64.26V51.0131L58.7758 60.9637C59.1437 61.6733 59.6823 62.2803 60.3432 62.73C61.004 63.1797 61.7663 63.4581 62.5614 63.54C62.6757 63.5461 62.7902 63.5461 62.9045 63.54C63.2265 63.5392 63.5467 63.4918 63.8551 63.3994C65.2558 62.9944 69.4801 61.5431 69.6489 61.4475C70.5568 61.086 71.2862 60.3821 71.6797 59.4876C72.0733 58.5931 72.0995 57.5798 71.7526 56.6662L71.7583 56.6887ZM7.84699 68.2537C8.94387 68.2537 10.1251 68.6531 10.1251 69.3C10.1313 69.3918 10.1179 69.4838 10.0857 69.57C9.90012 69.75 8.81449 69.75 8.39824 69.75H2.25011C2.24559 69.7403 2.24325 69.7297 2.24325 69.719C2.24325 69.7084 2.24559 69.6978 2.25011 69.6881V42.75H8.52762L6.13699 68.2481L7.84699 68.2537ZM51.1876 47.25V57.375H42.6995C42.5149 55.1624 41.7874 53.0296 40.5816 51.1653C39.3757 49.3011 37.7287 47.7631 35.7864 46.6875H50.6251C50.7743 46.6875 50.9174 46.7467 51.0229 46.8522C51.1284 46.9577 51.1876 47.1008 51.1876 47.25ZM30.3751 55.755V47.3175C32.5421 47.5343 34.5987 48.3788 36.2926 49.7475L30.3751 55.755ZM28.1251 55.755L22.2132 49.7418C23.9043 48.371 25.9592 47.5244 28.1251 47.3062V55.755ZM36.2926 67.2637C34.5987 68.6324 32.5421 69.4769 30.3751 69.6937V61.2562L36.2926 67.2637ZM31.9332 57.375L37.8958 51.3168C39.3322 53.0358 40.2198 55.1461 40.4439 57.375H31.9332ZM30.3751 38.25C30.4201 39.7968 30.7801 42.4912 32.5239 44.4375H28.1589V38.25H30.3751ZM37.8901 65.6831L31.9332 59.625H40.4439C40.2195 61.8537 39.3319 63.964 37.8958 65.6831H37.8901ZM54.0001 68.0625C54.0001 68.3962 53.9012 68.7225 53.7157 69C53.5303 69.2775 53.2668 69.4938 52.9584 69.6215C52.6501 69.7492 52.3108 69.7827 51.9834 69.7176C51.6561 69.6524 51.3554 69.4917 51.1194 69.2557C50.8834 69.0197 50.7227 68.719 50.6576 68.3917C50.5924 68.0644 50.6259 67.7251 50.7536 67.4167C50.8813 67.1084 51.0976 66.8448 51.3751 66.6594C51.6526 66.4739 51.9789 66.375 52.3126 66.375C52.7602 66.375 53.1894 66.5528 53.5059 66.8692C53.8223 67.1857 54.0001 67.6149 54.0001 68.0625Z" fill="black"/>
<path d="M42.1875 16.3125C43.3 16.3125 44.3876 15.9826 45.3126 15.3645C46.2376 14.7464 46.9586 13.8679 47.3843 12.8401C47.8101 11.8123 47.9215 10.6813 47.7044 9.59012C47.4874 8.49898 46.9516 7.4967 46.165 6.71003C45.3783 5.92336 44.376 5.38763 43.2849 5.17059C42.1937 4.95354 41.0627 5.06494 40.0349 5.49068C39.0071 5.91642 38.1286 6.63739 37.5105 7.56242C36.8924 8.48745 36.5625 9.57498 36.5625 10.6875C36.5625 12.1793 37.1551 13.6101 38.21 14.665C39.2649 15.7199 40.6957 16.3125 42.1875 16.3125ZM42.1875 7.3125C42.855 7.3125 43.5075 7.51044 44.0626 7.88129C44.6176 8.25214 45.0501 8.77925 45.3056 9.39595C45.561 10.0126 45.6279 10.6912 45.4977 11.3459C45.3674 12.0006 45.046 12.602 44.574 13.074C44.102 13.546 43.5006 13.8674 42.8459 13.9977C42.1912 14.1279 41.5126 14.061 40.8959 13.8056C40.2792 13.5502 39.7521 13.1176 39.3813 12.5626C39.0104 12.0075 38.8125 11.355 38.8125 10.6875C38.8125 9.7924 39.1681 8.93395 39.801 8.30102C40.434 7.66808 41.2924 7.3125 42.1875 7.3125Z" fill="black"/>
<path d="M11.8125 12.375C13.0363 12.375 14.2326 12.0121 15.2501 11.3322C16.2676 10.6523 17.0607 9.68598 17.529 8.55536C17.9973 7.42474 18.1199 6.18064 17.8811 4.98038C17.6424 3.78013 17.0531 2.67762 16.1877 1.81228C15.3224 0.946942 14.2199 0.35764 13.0196 0.118894C11.8194 -0.119852 10.5753 0.00268097 9.44465 0.470998C8.31403 0.939316 7.34767 1.73238 6.66778 2.74991C5.98789 3.76744 5.625 4.96373 5.625 6.1875C5.625 7.82853 6.2769 9.40235 7.43728 10.5627C8.59766 11.7231 10.1715 12.375 11.8125 12.375ZM11.8125 2.25C12.5913 2.25 13.3525 2.48093 14.0001 2.91359C14.6476 3.34625 15.1523 3.9612 15.4503 4.68069C15.7483 5.40017 15.8263 6.19187 15.6743 6.95567C15.5224 7.71947 15.1474 8.42107 14.5967 8.97174C14.0461 9.52241 13.3445 9.89742 12.5807 10.0493C11.8169 10.2013 11.0252 10.1233 10.3057 9.82528C9.5862 9.52726 8.97125 9.02258 8.53859 8.37506C8.10593 7.72754 7.875 6.96627 7.875 6.1875C7.875 5.14321 8.28984 4.1417 9.02827 3.40327C9.76669 2.66485 10.7682 2.25 11.8125 2.25Z" fill="black"/>
<path d="M13.2969 65.8798L11.6769 57.3467L11.0244 64.3329C11.8883 64.6716 12.665 65.2003 13.2969 65.8798Z" fill="black"/>
</svg>
