<svg width="77" height="71" viewBox="0 0 77 71" fill="none" xmlns="http://www.w3.org/2000/svg">
<mask id="path-1-inside-1_528_441" fill="white">
<path fill-rule="evenodd" clip-rule="evenodd" d="M26.3475 0C17.393 0 10.1041 7.30743 10.1041 16.282C10.1041 22.7263 13.8628 28.3062 19.2978 30.9406C8.15933 34.0158 0 44.2007 0 56.3316V69.1335C3.48991e-05 69.4818 0.138382 69.8157 0.384614 70.062C0.630847 70.3082 0.9648 70.4465 1.31302 70.4466H51.3744C51.7226 70.4465 52.0566 70.3082 52.3028 70.062C52.5491 69.8157 52.6874 69.4818 52.6875 69.1335V56.706C52.6875 56.5336 52.6535 56.3628 52.5875 56.2035C52.5215 56.0442 52.4248 55.8995 52.3029 55.7776C52.1809 55.6556 52.0362 55.5589 51.8769 55.4929C51.7176 55.427 51.5468 55.393 51.3744 55.393C51.0262 55.393 50.6922 55.5314 50.446 55.7776C50.1997 56.0238 50.0614 56.3578 50.0614 56.706V67.8205H2.626V56.3316C2.626 43.1675 13.1809 32.6101 26.3424 32.6101C36.4072 32.6101 44.9431 38.7992 48.4099 47.5841C48.5379 47.9078 48.7891 48.1674 49.1084 48.3059C49.4277 48.4444 49.789 48.4504 50.1127 48.3227C50.4364 48.1947 50.696 47.9435 50.8344 47.6242C50.9729 47.3049 50.979 46.9436 50.8513 46.6199C47.8443 39.0003 41.3921 33.1413 33.4076 30.9355C38.8341 28.2989 42.5833 22.7221 42.5834 16.282C42.5834 7.30743 35.3021 0 26.3475 0ZM26.3475 2.62604C33.8786 2.62604 39.9547 8.72249 39.9547 16.282C39.9547 23.8414 33.8786 29.9302 26.3475 29.9302C18.8165 29.9302 12.7301 23.8414 12.7301 16.282C12.7301 8.72249 18.8165 2.62604 26.3475 2.62604ZM52.8465 6.77282C52.4996 6.77417 52.1673 6.91275 51.9222 7.15829C51.6772 7.40383 51.5392 7.73637 51.5386 8.08327V8.20893H49.5408C49.4425 8.20822 49.3445 8.21854 49.2485 8.2397C49.2452 8.24055 49.2419 8.2414 49.2386 8.24227C49.1502 8.26323 49.0642 8.29331 48.982 8.33202C48.9737 8.3362 48.9654 8.34047 48.9572 8.34483C48.8821 8.38237 48.8109 8.42702 48.7443 8.47818C48.7309 8.48733 48.7177 8.49673 48.7046 8.50637C48.5578 8.62647 48.4388 8.77696 48.3557 8.94746C48.3541 8.95172 48.3524 8.95599 48.3508 8.96026C48.3109 9.04395 48.2799 9.13163 48.2585 9.22184C48.2576 9.22782 48.2567 9.23381 48.2559 9.2398C48.2338 9.33397 48.2221 9.4303 48.2212 9.52703V17.8821C48.2212 25.1711 53.779 31.1625 60.8795 31.8253V45.235C60.8795 48.2252 58.5156 50.5948 55.5402 50.5948H44.7283C44.112 47.308 41.2168 44.799 37.7632 44.799C33.864 44.799 30.6775 47.9983 30.6775 51.9027C30.6775 55.807 33.864 59.0063 37.7632 59.0063C41.2126 59.0063 44.1047 56.5017 44.7257 53.2208H55.5402C59.9291 53.2208 63.4978 49.6305 63.4978 45.235V31.8253C70.5996 31.1637 76.1561 25.1721 76.1561 17.8822V9.52708C76.1564 9.5117 76.1564 9.49631 76.1561 9.48093C76.1557 9.46125 76.1549 9.44159 76.1536 9.42195C76.1529 9.41168 76.152 9.40143 76.151 9.39118C76.1484 9.36716 76.1451 9.34321 76.1411 9.31938C76.1403 9.31338 76.1395 9.30739 76.1386 9.30141C76.1328 9.27385 76.1262 9.24648 76.1187 9.21935C76.1187 9.21764 76.1187 9.21594 76.1187 9.21424C76.1024 9.14857 76.081 9.08427 76.0547 9.0219C76.0515 9.01504 76.0481 9.00821 76.0448 9.0014C76.034 8.97626 76.0224 8.95145 76.01 8.92703C76.0084 8.92446 76.0067 8.9219 76.0051 8.91934C75.9912 8.89146 75.9763 8.86409 75.9604 8.83728C75.9523 8.82516 75.9441 8.81319 75.9356 8.80135C75.9244 8.78398 75.9128 8.76688 75.9009 8.75006C75.896 8.74318 75.891 8.73635 75.886 8.72956C75.87 8.70855 75.8535 8.68803 75.8363 8.66802C75.8331 8.66457 75.8298 8.66115 75.8264 8.65774C75.8066 8.63568 75.7861 8.6143 75.7649 8.59363C75.7535 8.58317 75.7419 8.57291 75.7301 8.56286C75.7156 8.54884 75.7007 8.53515 75.6855 8.52182C75.6773 8.51489 75.669 8.50805 75.6607 8.50132C75.6422 8.48627 75.6233 8.47173 75.6041 8.4577C75.5992 8.45424 75.5942 8.45082 75.5892 8.44743C75.5657 8.43127 75.5417 8.41588 75.5173 8.40128C75.5164 8.40042 75.5181 8.40213 75.5173 8.40128C75.4888 8.38393 75.457 8.36511 75.4273 8.34998C75.4158 8.34468 75.4042 8.33955 75.3926 8.33459C75.3917 8.33374 75.3934 8.33545 75.3926 8.33459C75.3731 8.32556 75.3509 8.31444 75.331 8.30637C75.3244 8.30375 75.3178 8.30119 75.3111 8.29868C75.1889 8.25066 75.06 8.22127 74.929 8.21149C74.8948 8.20929 74.8606 8.20844 74.8263 8.20892H72.8285V8.08326C72.8279 7.73636 72.6899 7.40383 72.4449 7.15829C72.1998 6.91275 71.8676 6.77417 71.5207 6.77281C71.348 6.77213 71.1769 6.8055 71.0172 6.87102C70.8575 6.93654 70.7122 7.03292 70.5898 7.15464C70.4673 7.27637 70.3701 7.42104 70.3036 7.58038C70.2372 7.73973 70.2028 7.91061 70.2025 8.08326V9.52707V10.9606C70.2018 11.1339 70.2354 11.3056 70.3014 11.4659C70.3674 11.6261 70.4645 11.7717 70.5871 11.8942C70.7096 12.0168 70.8552 12.1138 71.0154 12.1798C71.1756 12.2458 71.3474 12.2795 71.5207 12.2788C71.8689 12.2774 72.2023 12.1378 72.4476 11.8906C72.6929 11.6434 72.8299 11.3089 72.8285 10.9606V10.835H73.5184V17.8822C73.5184 24.2089 68.4801 29.2608 62.1782 29.2608C55.8762 29.2608 50.838 24.2089 50.838 17.8822V10.835H51.5253V10.9606C51.5246 11.1331 51.5579 11.3039 51.6233 11.4635C51.6886 11.6231 51.7848 11.7682 51.9063 11.8906C52.0277 12.013 52.1721 12.1103 52.3311 12.1769C52.4902 12.2435 52.6608 12.2781 52.8332 12.2788C53.0065 12.2795 53.1782 12.2458 53.3384 12.1798C53.4987 12.1138 53.6442 12.0167 53.7668 11.8942C53.8893 11.7717 53.9864 11.6261 54.0523 11.4659C54.1183 11.3056 54.152 11.1339 54.1513 10.9606V9.52708C54.1516 9.5117 54.1516 9.49631 54.1513 9.48093V8.08327C54.151 7.91063 54.1166 7.73975 54.0501 7.58042C53.9837 7.42108 53.8865 7.27641 53.764 7.15469C53.6416 7.03297 53.4964 6.93659 53.3367 6.87106C53.1769 6.80554 53.0059 6.77215 52.8332 6.77282L52.8465 6.77282ZM37.6493 47.4251C37.689 47.4242 37.7262 47.4251 37.7649 47.4251C40.2407 47.4251 42.2245 49.4134 42.2245 51.9027C42.2245 54.392 40.2407 56.3803 37.7649 56.3803C35.2891 56.3803 33.3078 54.392 33.3078 51.9027C33.3078 49.4523 35.2277 47.4859 37.6493 47.4251Z"/>
</mask>
<path fill-rule="evenodd" clip-rule="evenodd" d="M26.3475 0C17.393 0 10.1041 7.30743 10.1041 16.282C10.1041 22.7263 13.8628 28.3062 19.2978 30.9406C8.15933 34.0158 0 44.2007 0 56.3316V69.1335C3.48991e-05 69.4818 0.138382 69.8157 0.384614 70.062C0.630847 70.3082 0.9648 70.4465 1.31302 70.4466H51.3744C51.7226 70.4465 52.0566 70.3082 52.3028 70.062C52.5491 69.8157 52.6874 69.4818 52.6875 69.1335V56.706C52.6875 56.5336 52.6535 56.3628 52.5875 56.2035C52.5215 56.0442 52.4248 55.8995 52.3029 55.7776C52.1809 55.6556 52.0362 55.5589 51.8769 55.4929C51.7176 55.427 51.5468 55.393 51.3744 55.393C51.0262 55.393 50.6922 55.5314 50.446 55.7776C50.1997 56.0238 50.0614 56.3578 50.0614 56.706V67.8205H2.626V56.3316C2.626 43.1675 13.1809 32.6101 26.3424 32.6101C36.4072 32.6101 44.9431 38.7992 48.4099 47.5841C48.5379 47.9078 48.7891 48.1674 49.1084 48.3059C49.4277 48.4444 49.789 48.4504 50.1127 48.3227C50.4364 48.1947 50.696 47.9435 50.8344 47.6242C50.9729 47.3049 50.979 46.9436 50.8513 46.6199C47.8443 39.0003 41.3921 33.1413 33.4076 30.9355C38.8341 28.2989 42.5833 22.7221 42.5834 16.282C42.5834 7.30743 35.3021 0 26.3475 0ZM26.3475 2.62604C33.8786 2.62604 39.9547 8.72249 39.9547 16.282C39.9547 23.8414 33.8786 29.9302 26.3475 29.9302C18.8165 29.9302 12.7301 23.8414 12.7301 16.282C12.7301 8.72249 18.8165 2.62604 26.3475 2.62604ZM52.8465 6.77282C52.4996 6.77417 52.1673 6.91275 51.9222 7.15829C51.6772 7.40383 51.5392 7.73637 51.5386 8.08327V8.20893H49.5408C49.4425 8.20822 49.3445 8.21854 49.2485 8.2397C49.2452 8.24055 49.2419 8.2414 49.2386 8.24227C49.1502 8.26323 49.0642 8.29331 48.982 8.33202C48.9737 8.3362 48.9654 8.34047 48.9572 8.34483C48.8821 8.38237 48.8109 8.42702 48.7443 8.47818C48.7309 8.48733 48.7177 8.49673 48.7046 8.50637C48.5578 8.62647 48.4388 8.77696 48.3557 8.94746C48.3541 8.95172 48.3524 8.95599 48.3508 8.96026C48.3109 9.04395 48.2799 9.13163 48.2585 9.22184C48.2576 9.22782 48.2567 9.23381 48.2559 9.2398C48.2338 9.33397 48.2221 9.4303 48.2212 9.52703V17.8821C48.2212 25.1711 53.779 31.1625 60.8795 31.8253V45.235C60.8795 48.2252 58.5156 50.5948 55.5402 50.5948H44.7283C44.112 47.308 41.2168 44.799 37.7632 44.799C33.864 44.799 30.6775 47.9983 30.6775 51.9027C30.6775 55.807 33.864 59.0063 37.7632 59.0063C41.2126 59.0063 44.1047 56.5017 44.7257 53.2208H55.5402C59.9291 53.2208 63.4978 49.6305 63.4978 45.235V31.8253C70.5996 31.1637 76.1561 25.1721 76.1561 17.8822V9.52708C76.1564 9.5117 76.1564 9.49631 76.1561 9.48093C76.1557 9.46125 76.1549 9.44159 76.1536 9.42195C76.1529 9.41168 76.152 9.40143 76.151 9.39118C76.1484 9.36716 76.1451 9.34321 76.1411 9.31938C76.1403 9.31338 76.1395 9.30739 76.1386 9.30141C76.1328 9.27385 76.1262 9.24648 76.1187 9.21935C76.1187 9.21764 76.1187 9.21594 76.1187 9.21424C76.1024 9.14857 76.081 9.08427 76.0547 9.0219C76.0515 9.01504 76.0481 9.00821 76.0448 9.0014C76.034 8.97626 76.0224 8.95145 76.01 8.92703C76.0084 8.92446 76.0067 8.9219 76.0051 8.91934C75.9912 8.89146 75.9763 8.86409 75.9604 8.83728C75.9523 8.82516 75.9441 8.81319 75.9356 8.80135C75.9244 8.78398 75.9128 8.76688 75.9009 8.75006C75.896 8.74318 75.891 8.73635 75.886 8.72956C75.87 8.70855 75.8535 8.68803 75.8363 8.66802C75.8331 8.66457 75.8298 8.66115 75.8264 8.65774C75.8066 8.63568 75.7861 8.6143 75.7649 8.59363C75.7535 8.58317 75.7419 8.57291 75.7301 8.56286C75.7156 8.54884 75.7007 8.53515 75.6855 8.52182C75.6773 8.51489 75.669 8.50805 75.6607 8.50132C75.6422 8.48627 75.6233 8.47173 75.6041 8.4577C75.5992 8.45424 75.5942 8.45082 75.5892 8.44743C75.5657 8.43127 75.5417 8.41588 75.5173 8.40128C75.5164 8.40042 75.5181 8.40213 75.5173 8.40128C75.4888 8.38393 75.457 8.36511 75.4273 8.34998C75.4158 8.34468 75.4042 8.33955 75.3926 8.33459C75.3917 8.33374 75.3934 8.33545 75.3926 8.33459C75.3731 8.32556 75.3509 8.31444 75.331 8.30637C75.3244 8.30375 75.3178 8.30119 75.3111 8.29868C75.1889 8.25066 75.06 8.22127 74.929 8.21149C74.8948 8.20929 74.8606 8.20844 74.8263 8.20892H72.8285V8.08326C72.8279 7.73636 72.6899 7.40383 72.4449 7.15829C72.1998 6.91275 71.8676 6.77417 71.5207 6.77281C71.348 6.77213 71.1769 6.8055 71.0172 6.87102C70.8575 6.93654 70.7122 7.03292 70.5898 7.15464C70.4673 7.27637 70.3701 7.42104 70.3036 7.58038C70.2372 7.73973 70.2028 7.91061 70.2025 8.08326V9.52707V10.9606C70.2018 11.1339 70.2354 11.3056 70.3014 11.4659C70.3674 11.6261 70.4645 11.7717 70.5871 11.8942C70.7096 12.0168 70.8552 12.1138 71.0154 12.1798C71.1756 12.2458 71.3474 12.2795 71.5207 12.2788C71.8689 12.2774 72.2023 12.1378 72.4476 11.8906C72.6929 11.6434 72.8299 11.3089 72.8285 10.9606V10.835H73.5184V17.8822C73.5184 24.2089 68.4801 29.2608 62.1782 29.2608C55.8762 29.2608 50.838 24.2089 50.838 17.8822V10.835H51.5253V10.9606C51.5246 11.1331 51.5579 11.3039 51.6233 11.4635C51.6886 11.6231 51.7848 11.7682 51.9063 11.8906C52.0277 12.013 52.1721 12.1103 52.3311 12.1769C52.4902 12.2435 52.6608 12.2781 52.8332 12.2788C53.0065 12.2795 53.1782 12.2458 53.3384 12.1798C53.4987 12.1138 53.6442 12.0167 53.7668 11.8942C53.8893 11.7717 53.9864 11.6261 54.0523 11.4659C54.1183 11.3056 54.152 11.1339 54.1513 10.9606V9.52708C54.1516 9.5117 54.1516 9.49631 54.1513 9.48093V8.08327C54.151 7.91063 54.1166 7.73975 54.0501 7.58042C53.9837 7.42108 53.8865 7.27641 53.764 7.15469C53.6416 7.03297 53.4964 6.93659 53.3367 6.87106C53.1769 6.80554 53.0059 6.77215 52.8332 6.77282L52.8465 6.77282ZM37.6493 47.4251C37.689 47.4242 37.7262 47.4251 37.7649 47.4251C40.2407 47.4251 42.2245 49.4134 42.2245 51.9027C42.2245 54.392 40.2407 56.3803 37.7649 56.3803C35.2891 56.3803 33.3078 54.392 33.3078 51.9027C33.3078 49.4523 35.2277 47.4859 37.6493 47.4251Z" fill="black"/>
<path d="M19.2978 30.9406L19.3776 31.2298L20.1451 31.0179L19.4287 30.6706L19.2978 30.9406ZM0 69.1335H-0.3V69.1336L0 69.1335ZM1.31302 70.4466L1.313 70.7466H1.31302V70.4466ZM51.3744 70.4466V70.7466H51.3744L51.3744 70.4466ZM52.6875 69.1335L52.9875 69.1336V69.1335H52.6875ZM52.6875 56.706H52.9875H52.6875ZM51.3744 55.393L51.3744 55.693H51.3744L51.3744 55.393ZM50.0614 56.706H49.7614H50.0614ZM50.0614 67.8205V68.1205H50.3614V67.8205H50.0614ZM2.626 67.8205H2.326V68.1205H2.626V67.8205ZM26.3424 32.6101V32.3101V32.6101ZM48.4099 47.5841L48.1308 47.6942L48.1309 47.6944L48.4099 47.5841ZM50.1127 48.3227L50.2228 48.6018L50.223 48.6017L50.1127 48.3227ZM50.8513 46.6199L51.1303 46.5098L51.1303 46.5098L50.8513 46.6199ZM33.4076 30.9355L33.2765 30.6656L32.5616 31.013L33.3277 31.2246L33.4076 30.9355ZM42.5834 16.282L42.8834 16.282V16.282H42.5834ZM52.8465 6.77282L52.8476 7.07282L52.8465 6.47282L52.8465 6.77282ZM51.5386 8.08327L51.2386 8.08269V8.08327H51.5386ZM51.5386 8.20893V8.50893H51.8386V8.20893H51.5386ZM49.5408 8.20893L49.5386 8.50893H49.5408V8.20893ZM49.2485 8.2397L49.1839 7.94659L49.1746 7.94895L49.2485 8.2397ZM49.2386 8.24227L49.3078 8.53426L49.3148 8.53243L49.2386 8.24227ZM48.982 8.33202L48.8542 8.06054L48.8473 8.06398L48.982 8.33202ZM48.9572 8.34483L49.0914 8.61321L49.0976 8.60995L48.9572 8.34483ZM48.7443 8.47818L48.9134 8.72597L48.9204 8.72119L48.9272 8.71602L48.7443 8.47818ZM48.7046 8.50637L48.5264 8.26501L48.5204 8.26945L48.5146 8.27419L48.7046 8.50637ZM48.3557 8.94746L48.086 8.81606L48.0809 8.82663L48.0766 8.83758L48.3557 8.94746ZM48.3508 8.96026L48.6216 9.08942L48.6268 9.07851L48.6311 9.06722L48.3508 8.96026ZM48.2585 9.22184L47.9666 9.15245L47.9637 9.16469L47.9618 9.17713L48.2585 9.22184ZM48.2559 9.2398L48.5479 9.30842L48.5512 9.29454L48.5531 9.28041L48.2559 9.2398ZM48.2212 9.52703L47.9212 9.52404V9.52703H48.2212ZM60.8795 31.8253H61.1795V31.552L60.9074 31.5266L60.8795 31.8253ZM44.7283 50.5948L44.4335 50.6501L44.4794 50.8948H44.7283V50.5948ZM44.7257 53.2208V52.9208H44.4772L44.431 53.165L44.7257 53.2208ZM63.4978 31.8253L63.47 31.5266L63.1978 31.552V31.8253H63.4978ZM76.1561 9.52708L75.8561 9.52181V9.52708H76.1561ZM76.1561 9.48093L76.4561 9.47566L76.4561 9.47481L76.1561 9.48093ZM76.1536 9.42195L76.453 9.40235L76.4528 9.40039L76.1536 9.42195ZM76.151 9.39118L76.4497 9.36259L76.4492 9.35832L76.151 9.39118ZM76.1411 9.31938L75.8436 9.35919L75.8452 9.36864L76.1411 9.31938ZM76.1386 9.30141L76.4353 9.25751L76.4341 9.24885L76.4323 9.24029L76.1386 9.30141ZM76.1187 9.21935L75.8187 9.21876L75.8186 9.25973L75.8296 9.29922L76.1187 9.21935ZM76.1187 9.21424L76.4187 9.21365L76.4187 9.17716L76.4098 9.14175L76.1187 9.21424ZM76.0547 9.0219L76.3315 8.90535L76.3258 8.89349L76.0547 9.0219ZM76.0448 9.0014L75.7691 9.11981L75.7723 9.12724L75.7759 9.13449L76.0448 9.0014ZM76.01 8.92703L76.2778 8.79163L76.2709 8.77807L76.2627 8.76527L76.01 8.92703ZM76.0051 8.91934L75.7366 9.05329L75.7443 9.06855L75.7536 9.08286L76.0051 8.91934ZM75.9604 8.83728L76.2187 8.68458L76.2145 8.67764L76.2101 8.67093L75.9604 8.83728ZM75.9356 8.80135L75.6833 8.96368L75.6873 8.96989L75.6916 8.97591L75.9356 8.80135ZM75.9009 8.75006L75.6564 8.92402L75.6565 8.92411L75.9009 8.75006ZM75.886 8.72956L76.127 8.55091L76.1251 8.54837L75.886 8.72956ZM75.8363 8.66802L76.0641 8.47276L76.0588 8.4666L76.0532 8.46074L75.8363 8.66802ZM75.8264 8.65774L75.6029 8.85822L75.6118 8.86736L75.8264 8.65774ZM75.7649 8.59363L75.9743 8.37859L75.9677 8.3726L75.7649 8.59363ZM75.7301 8.56286L75.5221 8.77901L75.5285 8.78516L75.5352 8.79092L75.7301 8.56286ZM75.6855 8.52182L75.8833 8.29626L75.8794 8.29288L75.6855 8.52182ZM75.6607 8.50132L75.4711 8.73383L75.4725 8.73495L75.6607 8.50132ZM75.6041 8.4577L75.7808 8.21519L75.7762 8.21196L75.6041 8.4577ZM75.5892 8.44743L75.4191 8.69455L75.4205 8.69552L75.5892 8.44743ZM75.4273 8.34998L75.5635 8.08241L75.5527 8.07746L75.4273 8.34998ZM75.331 8.30637L75.4438 8.02836L75.4417 8.02753L75.331 8.30637ZM75.3111 8.29868L75.2015 8.57795L75.205 8.57928L75.3111 8.29868ZM74.929 8.21149L74.9514 7.9123L74.9482 7.9121L74.929 8.21149ZM74.8263 8.20892V8.50895L74.8305 8.50889L74.8263 8.20892ZM72.8285 8.20892H72.5285V8.50892H72.8285V8.20892ZM72.8285 8.08326H73.1285V8.08268L72.8285 8.08326ZM71.5207 6.77281L71.5195 7.0728L71.5207 6.77281ZM70.2025 8.08326L69.9025 8.08268V8.08326H70.2025ZM70.2025 10.9606L70.5025 10.9618V10.9606H70.2025ZM71.5207 12.2788L71.5195 11.9788H71.5195L71.5207 12.2788ZM72.8285 10.9606H72.5285L72.5285 10.9618L72.8285 10.9606ZM72.8285 10.835V10.535H72.5285V10.835H72.8285ZM73.5184 10.835H73.8184V10.535H73.5184V10.835ZM50.838 10.835V10.535H50.538V10.835H50.838ZM51.5253 10.835H51.8253V10.535H51.5253V10.835ZM51.5253 10.9606L51.8253 10.9618V10.9606H51.5253ZM52.8332 12.2788L52.8321 12.5788H52.8321L52.8332 12.2788ZM54.1513 10.9606H53.8513L53.8513 10.9618L54.1513 10.9606ZM54.1513 9.52708L53.8513 9.52181V9.52708H54.1513ZM54.1513 9.48093H53.8513L53.8513 9.4862L54.1513 9.48093ZM54.1513 8.08327H54.4513V8.08269L54.1513 8.08327ZM52.8332 6.77282L52.8321 6.47282L52.8332 7.07282L52.8332 6.77282ZM37.6493 47.4251L37.642 47.1252L37.6417 47.1252L37.6493 47.4251ZM26.3475 -0.3C17.2267 -0.3 9.8041 7.14243 9.8041 16.282H10.4041C10.4041 7.47243 17.5594 0.3 26.3475 0.3V-0.3ZM9.8041 16.282C9.8041 22.8457 13.6326 28.528 19.1669 31.2105L19.4287 30.6706C14.093 28.0844 10.4041 22.6068 10.4041 16.282H9.8041ZM19.218 30.6514C7.95263 33.7617 -0.3 44.0625 -0.3 56.3316H0.3C0.3 44.339 8.36603 34.27 19.3776 31.2298L19.218 30.6514ZM-0.3 56.3316V69.1335H0.3V56.3316H-0.3ZM-0.3 69.1336C-0.299957 69.5614 -0.130003 69.9716 0.172483 70.2741L0.596746 69.8498C0.406767 69.6598 0.300027 69.4022 0.3 69.1335L-0.3 69.1336ZM0.172483 70.2741C0.474968 70.5766 0.885215 70.7465 1.313 70.7466L1.31305 70.1466C1.04438 70.1465 0.786726 70.0398 0.596746 69.8498L0.172483 70.2741ZM1.31302 70.7466H51.3744V70.1466H1.31302V70.7466ZM51.3744 70.7466C51.8022 70.7465 52.2125 70.5766 52.515 70.2741L52.0907 69.8498C51.9007 70.0398 51.643 70.1465 51.3744 70.1466L51.3744 70.7466ZM52.515 70.2741C52.8175 69.9716 52.9874 69.5614 52.9875 69.1336L52.3875 69.1335C52.3874 69.4022 52.2807 69.6599 52.0907 69.8498L52.515 70.2741ZM52.9875 69.1335V56.706H52.3875V69.1335H52.9875ZM52.9875 56.706C52.9875 56.4942 52.9457 56.2844 52.8647 56.0887L52.3103 56.3183C52.3613 56.4412 52.3875 56.573 52.3875 56.706H52.9875ZM52.8647 56.0887C52.7836 55.893 52.6648 55.7152 52.515 55.5654L52.0907 55.9897C52.1848 56.0838 52.2594 56.1954 52.3103 56.3183L52.8647 56.0887ZM52.515 55.5654C52.3652 55.4156 52.1874 55.2968 51.9917 55.2158L51.7621 55.7701C51.885 55.821 51.9967 55.8956 52.0907 55.9897L52.515 55.5654ZM51.9917 55.2158C51.796 55.1347 51.5862 55.093 51.3744 55.093L51.3744 55.693C51.5074 55.693 51.6392 55.7192 51.7621 55.7701L51.9917 55.2158ZM51.3744 55.093C50.9466 55.093 50.5363 55.263 50.2338 55.5655L50.6581 55.9897C50.8481 55.7997 51.1057 55.693 51.3744 55.693L51.3744 55.093ZM50.2338 55.5655C49.9313 55.868 49.7614 56.2782 49.7614 56.706H50.3614C50.3614 56.4374 50.4681 56.1797 50.6581 55.9897L50.2338 55.5655ZM49.7614 56.706V67.8205H50.3614V56.706H49.7614ZM50.0614 67.5205H2.626V68.1205H50.0614V67.5205ZM2.926 67.8205V56.3316H2.326V67.8205H2.926ZM2.926 56.3316C2.926 43.3331 13.3466 32.9101 26.3424 32.9101V32.3101C13.0151 32.3101 2.326 43.0019 2.326 56.3316H2.926ZM26.3424 32.9101C36.2804 32.9101 44.7079 39.0205 48.1308 47.6942L48.6889 47.474C45.1783 38.578 36.534 32.3101 26.3424 32.3101V32.9101ZM48.1309 47.6944C48.2881 48.0921 48.5968 48.411 48.9891 48.5811L49.2278 48.0306C48.9815 47.9238 48.7876 47.7235 48.6889 47.4738L48.1309 47.6944ZM48.9891 48.5811C49.3813 48.7512 49.8251 48.7587 50.2228 48.6018L50.0026 48.0436C49.7528 48.1422 49.4742 48.1375 49.2278 48.0306L48.9891 48.5811ZM50.223 48.6017C50.6206 48.4444 50.9395 48.1358 51.1097 47.7435L50.5592 47.5048C50.4524 47.7511 50.2521 47.945 50.0024 48.0437L50.223 48.6017ZM51.1097 47.7435C51.2798 47.3513 51.2872 46.9075 51.1303 46.5098L50.5722 46.73C50.6707 46.9798 50.6661 47.2584 50.5592 47.5048L51.1097 47.7435ZM51.1303 46.5098C48.089 38.8031 41.5634 32.8774 33.4875 30.6463L33.3277 31.2246C41.2208 33.4053 47.5996 39.1975 50.5722 46.73L51.1303 46.5098ZM33.5387 31.2053C39.0646 28.5205 42.8833 22.8413 42.8834 16.282L42.2834 16.2819C42.2833 22.6029 38.6037 28.0774 33.2765 30.6656L33.5387 31.2053ZM42.8834 16.282C42.8834 7.14261 35.4686 -0.3 26.3475 -0.3V0.3C35.1355 0.3 42.2834 7.47225 42.2834 16.282H42.8834ZM26.3475 2.92604C33.712 2.92604 39.6547 8.88719 39.6547 16.282H40.2547C40.2547 8.5578 34.0453 2.32604 26.3475 2.32604V2.92604ZM39.6547 16.282C39.6547 23.6765 33.7122 29.6302 26.3475 29.6302V30.2302C34.0451 30.2302 40.2547 24.0063 40.2547 16.282H39.6547ZM26.3475 29.6302C18.9826 29.6302 13.0301 23.6762 13.0301 16.282H12.4301C12.4301 24.0066 18.6503 30.2302 26.3475 30.2302V29.6302ZM13.0301 16.282C13.0301 8.88748 18.9829 2.92604 26.3475 2.92604V2.32604C18.6501 2.32604 12.4301 8.5575 12.4301 16.282H13.0301ZM52.8453 6.47282C52.4191 6.47448 52.0109 6.64472 51.7099 6.94636L52.1346 7.37021C52.3236 7.18078 52.58 7.07386 52.8476 7.07282L52.8453 6.47282ZM51.7099 6.94636C51.4088 7.248 51.2394 7.65652 51.2386 8.08269L51.8386 8.08386C51.8391 7.81621 51.9455 7.55965 52.1346 7.37021L51.7099 6.94636ZM51.2386 8.08327V8.20893H51.8386V8.08327H51.2386ZM51.5386 7.90893H49.5408V8.50893H51.5386V7.90893ZM49.543 7.90894C49.4223 7.90806 49.3018 7.92074 49.1839 7.94674L49.3131 8.53267C49.3872 8.51634 49.4628 8.50837 49.5386 8.50893L49.543 7.90894ZM49.1746 7.94895C49.1706 7.94998 49.1665 7.95103 49.1624 7.9521L49.3148 8.53243C49.3173 8.53177 49.3199 8.53111 49.3224 8.53045L49.1746 7.94895ZM49.1694 7.95036C49.0608 7.97611 48.9552 8.01307 48.8542 8.06063L49.1099 8.60342C49.1733 8.57355 49.2396 8.55034 49.3078 8.53417L49.1694 7.95036ZM48.8473 8.06398C48.8371 8.06908 48.827 8.07433 48.8168 8.0797L49.0976 8.60995C49.1039 8.60662 49.1103 8.60332 49.1168 8.60007L48.8473 8.06398ZM48.823 8.07651C48.7308 8.12264 48.6432 8.17749 48.5615 8.24033L48.9272 8.71602C48.9785 8.67656 49.0335 8.6421 49.0914 8.61314L48.823 8.07651ZM48.5752 8.23038C48.5587 8.24164 48.5425 8.25319 48.5264 8.26501L48.8828 8.74772C48.8929 8.74027 48.9031 8.73302 48.9134 8.72597L48.5752 8.23038ZM48.5146 8.27419C48.3343 8.42174 48.1881 8.6066 48.086 8.81606L48.6254 9.07886C48.6895 8.94731 48.7813 8.83121 48.8946 8.73854L48.5146 8.27419ZM48.0766 8.83758C48.0745 8.84291 48.0725 8.84815 48.0705 8.85331L48.6311 9.06722C48.6324 9.06382 48.6336 9.06053 48.6349 9.05734L48.0766 8.83758ZM48.08 8.83111C48.031 8.93391 47.993 9.04163 47.9666 9.15245L48.5503 9.29123C48.5669 9.22164 48.5908 9.15399 48.6216 9.08942L48.08 8.83111ZM47.9618 9.17713C47.9607 9.18467 47.9596 9.19204 47.9587 9.1992L48.5531 9.28041C48.5538 9.27558 48.5545 9.27098 48.5551 9.26655L47.9618 9.17713ZM47.9638 9.17119C47.9367 9.28688 47.9224 9.40521 47.9212 9.52404L48.5211 9.53002C48.5219 9.45539 48.5309 9.38107 48.5479 9.30842L47.9638 9.17119ZM47.9212 9.52703V17.8821H48.5212V9.52703H47.9212ZM47.9212 17.8821C47.9212 25.3269 53.5977 31.4469 60.8516 32.124L60.9074 31.5266C53.9603 30.8781 48.5212 25.0154 48.5212 17.8821H47.9212ZM60.5795 31.8253V45.235H61.1795V31.8253H60.5795ZM60.5795 45.235C60.5795 48.0605 58.349 50.2948 55.5402 50.2948V50.8948C58.6823 50.8948 61.1795 48.3899 61.1795 45.235H60.5795ZM55.5402 50.2948H44.7283V50.8948H55.5402V50.2948ZM45.0232 50.5395C44.381 47.1145 41.365 44.499 37.7632 44.499V45.099C41.0687 45.099 43.8431 47.5014 44.4335 50.6501L45.0232 50.5395ZM37.7632 44.499C33.6975 44.499 30.3775 47.8335 30.3775 51.9027H30.9775C30.9775 48.1632 34.0306 45.099 37.7632 45.099V44.499ZM30.3775 51.9027C30.3775 55.9719 33.6975 59.3063 37.7632 59.3063V58.7063C34.0306 58.7063 30.9775 55.6422 30.9775 51.9027H30.3775ZM37.7632 59.3063C41.3607 59.3063 44.3733 56.6953 45.0205 53.2766L44.431 53.165C43.836 56.3082 41.0646 58.7063 37.7632 58.7063V59.3063ZM44.7257 53.5208H55.5402V52.9208H44.7257V53.5208ZM55.5402 53.5208C60.096 53.5208 63.7978 49.7949 63.7978 45.235H63.1978C63.1978 49.466 59.7622 52.9208 55.5402 52.9208V53.5208ZM63.7978 45.235V31.8253H63.1978V45.235H63.7978ZM63.5257 32.124C70.7809 31.4481 76.4561 25.3277 76.4561 17.8822H75.8561C75.8561 25.0164 70.4183 30.8793 63.47 31.5266L63.5257 32.124ZM76.4561 17.8822V9.52708H75.8561V17.8822H76.4561ZM76.4561 9.53236C76.4564 9.51346 76.4564 9.49456 76.4561 9.47566L75.8562 9.4862C75.8564 9.49807 75.8564 9.50994 75.8562 9.52181L76.4561 9.53236ZM76.4561 9.47481C76.4556 9.45058 76.4545 9.42642 76.453 9.40235L75.8542 9.44155C75.8552 9.45676 75.8559 9.47193 75.8562 9.48705L76.4561 9.47481ZM76.4528 9.40039C76.4519 9.3879 76.4509 9.37529 76.4497 9.36259L75.8524 9.41977C75.8531 9.42756 75.8538 9.43547 75.8544 9.44351L76.4528 9.40039ZM76.4492 9.35832C76.446 9.32878 76.4419 9.29937 76.437 9.27011L75.8452 9.36864C75.8482 9.38706 75.8508 9.40554 75.8528 9.42404L76.4492 9.35832ZM76.4385 9.27958C76.4375 9.27233 76.4365 9.26497 76.4353 9.25751L75.8418 9.34531C75.8425 9.34982 75.8431 9.35443 75.8438 9.35917L76.4385 9.27958ZM76.4323 9.24029C76.4252 9.20644 76.4171 9.17282 76.4079 9.13947L75.8296 9.29922C75.8353 9.32015 75.8404 9.34126 75.8449 9.36253L76.4323 9.24029ZM76.4187 9.21993C76.4187 9.21784 76.4187 9.21575 76.4187 9.21365L75.8187 9.21482C75.8187 9.21614 75.8187 9.21745 75.8187 9.21876L76.4187 9.21993ZM76.4098 9.14175C76.3897 9.06106 76.3634 8.98207 76.3312 8.90547L75.7782 9.13833C75.7985 9.18647 75.815 9.23608 75.8276 9.28672L76.4098 9.14175ZM76.3258 8.89349C76.3219 8.88518 76.3178 8.87678 76.3136 8.86831L75.7759 9.13449C75.7785 9.13963 75.781 9.1449 75.7836 9.15031L76.3258 8.89349ZM76.3204 8.883C76.3072 8.85211 76.2929 8.82164 76.2778 8.79163L75.7423 9.06243C75.7519 9.08127 75.7608 9.10041 75.7691 9.11981L76.3204 8.883ZM76.2627 8.76527C76.2605 8.76184 76.2584 8.75861 76.2566 8.75582L75.7536 9.08286C75.7551 9.08519 75.7563 9.08708 75.7574 9.08879L76.2627 8.76527ZM76.2735 8.78539C76.2564 8.75117 76.2381 8.71755 76.2187 8.68458L75.7022 8.98998C75.7144 9.01064 75.7259 9.03175 75.7366 9.05329L76.2735 8.78539ZM76.2101 8.67093C76.2001 8.656 76.19 8.64128 76.1796 8.62679L75.6916 8.97591C75.6982 8.98509 75.7046 8.99433 75.7108 9.00363L76.2101 8.67093ZM76.1879 8.63902C76.1742 8.61768 76.1599 8.59667 76.1452 8.57601L75.6565 8.92411C75.6657 8.93708 75.6747 8.95028 75.6833 8.96368L76.1879 8.63902ZM76.1453 8.5761C76.1392 8.56763 76.1331 8.55924 76.127 8.55092L75.645 8.90821C75.6488 8.91345 75.6527 8.91873 75.6564 8.92402L76.1453 8.5761ZM76.1251 8.54837C76.1055 8.5226 76.0852 8.49738 76.0641 8.47276L75.6086 8.86327C75.6218 8.87867 75.6346 8.89451 75.6469 8.91075L76.1251 8.54837ZM76.0532 8.46074C76.0491 8.45644 76.0451 8.45223 76.041 8.44812L75.6118 8.86736C75.6144 8.87006 75.617 8.8727 75.6195 8.87529L76.0532 8.46074ZM76.0498 8.45745C76.0255 8.43035 76.0003 8.40408 75.9742 8.37868L75.5556 8.80857C75.572 8.82452 75.5878 8.84101 75.6031 8.85804L76.0498 8.45745ZM75.9677 8.3726C75.9537 8.35976 75.9395 8.34715 75.9251 8.3348L75.5352 8.79092C75.5443 8.79867 75.5532 8.80658 75.562 8.81466L75.9677 8.3726ZM75.9382 8.34671C75.9203 8.32946 75.902 8.31265 75.8833 8.29629L75.4877 8.74735C75.4994 8.75766 75.5109 8.76822 75.5221 8.77901L75.9382 8.34671ZM75.8794 8.29288C75.8693 8.2844 75.8592 8.27601 75.8489 8.2677L75.4725 8.73495C75.4789 8.7401 75.4852 8.74537 75.4916 8.75076L75.8794 8.29288ZM75.8503 8.26882C75.8276 8.25032 75.8044 8.23245 75.7807 8.21523L75.4274 8.70018C75.4423 8.711 75.4569 8.72222 75.4711 8.73383L75.8503 8.26882ZM75.7762 8.21196C75.7701 8.20769 75.764 8.20348 75.7579 8.19934L75.4205 8.69552C75.4244 8.69815 75.4282 8.7008 75.432 8.70345L75.7762 8.21196ZM75.7593 8.20031C75.7305 8.18046 75.701 8.16155 75.6709 8.14361L75.3636 8.65894C75.3825 8.6702 75.401 8.68207 75.4191 8.69455L75.7593 8.20031ZM75.729 8.18878C75.7289 8.18868 75.729 8.18877 75.7292 8.18892C75.7292 8.18897 75.7293 8.18908 75.7295 8.18922C75.7295 8.18924 75.73 8.18975 75.7306 8.19039C75.7308 8.19058 75.7312 8.19094 75.7316 8.1914C75.7318 8.19165 75.733 8.19283 75.7345 8.19437C75.735 8.19488 75.7371 8.1971 75.7397 8.2C75.7413 8.20176 75.7457 8.20681 75.7484 8.21013C75.7549 8.21829 75.789 8.27449 75.8076 8.32662C75.7116 8.62938 75.3671 8.6609 75.3387 8.64232C75.3321 8.63725 75.3227 8.62957 75.3198 8.62713C75.3182 8.62572 75.3156 8.62338 75.3146 8.62246C75.3139 8.62181 75.3127 8.62068 75.3121 8.6202C75.3103 8.61849 75.3089 8.61712 75.3087 8.61691C75.3082 8.61642 75.3078 8.61603 75.3076 8.61584C75.3072 8.61543 75.3068 8.61511 75.3067 8.61499C75.3064 8.61471 75.3062 8.6145 75.3062 8.61444C75.3061 8.61434 75.306 8.61427 75.3059 8.61423C75.3059 8.61416 75.3058 8.61411 75.3058 8.61409C75.3058 8.61406 75.3058 8.61405 75.3058 8.61406C75.3058 8.61407 75.3058 8.61406 75.3057 8.61403C75.3057 8.61402 75.3057 8.61396 75.3056 8.61389C75.3056 8.61385 75.3055 8.61378 75.3054 8.61369C75.3053 8.61362 75.3051 8.61341 75.3048 8.61313C75.3047 8.613 75.3044 8.61268 75.304 8.61227C75.3038 8.61207 75.3034 8.61167 75.3029 8.61117C75.3027 8.61095 75.3013 8.60954 75.2996 8.60772C75.2991 8.60721 75.298 8.60599 75.2973 8.60529C75.2964 8.60429 75.294 8.60169 75.2926 8.60009C75.2902 8.59727 75.2824 8.58792 75.2773 8.58127C75.2586 8.55302 75.2879 8.20837 75.5901 8.11044C75.6424 8.12874 75.6988 8.16248 75.707 8.16893C75.7103 8.17168 75.7154 8.17604 75.7172 8.17761C75.7201 8.18021 75.7223 8.1823 75.7228 8.18279C75.7244 8.18424 75.7255 8.18539 75.7258 8.18563C75.7263 8.18607 75.7266 8.18643 75.7268 8.18661C75.7275 8.18724 75.728 8.18775 75.728 8.18776C75.7281 8.18791 75.7282 8.18802 75.7283 8.18806C75.7284 8.18822 75.7285 8.1883 75.7284 8.1882L75.3061 8.61436C75.3062 8.61446 75.3064 8.61468 75.3066 8.61491C75.3067 8.61497 75.3068 8.6151 75.307 8.61526C75.307 8.61528 75.3075 8.61579 75.3082 8.61643C75.3084 8.61661 75.3087 8.61697 75.3092 8.61742C75.3094 8.61766 75.3106 8.61881 75.3122 8.62026C75.3127 8.62074 75.3149 8.62284 75.3178 8.62544C75.3196 8.62701 75.3247 8.63136 75.328 8.63412C75.3362 8.64057 75.3926 8.67431 75.4449 8.6926C75.747 8.59467 75.7764 8.25003 75.7577 8.22177C75.7526 8.21513 75.7448 8.20578 75.7424 8.20295C75.741 8.20136 75.7386 8.19876 75.7377 8.19775C75.737 8.19705 75.7359 8.19584 75.7354 8.19532C75.7337 8.19351 75.7323 8.1921 75.7321 8.19188C75.7316 8.19137 75.7312 8.19098 75.731 8.19077C75.7306 8.19036 75.7303 8.19003 75.7301 8.18991C75.7299 8.18962 75.7296 8.18939 75.7296 8.18932C75.7295 8.18922 75.7294 8.18913 75.7293 8.18908C75.7292 8.18897 75.7291 8.18888 75.7291 8.18882C75.7289 8.1887 75.7288 8.18858 75.7287 8.18849C75.7286 8.1884 75.7285 8.18828 75.7284 8.18816C75.7283 8.1881 75.7282 8.18801 75.7281 8.1879C75.7281 8.18785 75.728 8.18777 75.7279 8.18766C75.7278 8.18759 75.7276 8.18737 75.7273 8.18708C75.7272 8.18696 75.7268 8.18663 75.7264 8.18622C75.7262 8.18603 75.7258 8.18564 75.7253 8.18515C75.7251 8.18494 75.7237 8.18357 75.7218 8.18186C75.7213 8.18138 75.7201 8.18025 75.7194 8.1796C75.7184 8.17868 75.7158 8.17634 75.7142 8.17493C75.7113 8.17249 75.7019 8.16481 75.6953 8.15974C75.6669 8.14116 75.3224 8.17268 75.2264 8.47544C75.245 8.52757 75.2791 8.58377 75.2856 8.59193C75.2884 8.59525 75.2927 8.6003 75.2943 8.60206C75.2969 8.60496 75.299 8.60718 75.2995 8.60769C75.301 8.60923 75.3022 8.61041 75.3024 8.61066C75.3028 8.61112 75.3032 8.61148 75.3034 8.61168C75.304 8.61232 75.3045 8.61284 75.3046 8.61286C75.3047 8.61302 75.3049 8.61315 75.3049 8.61321C75.3051 8.61344 75.3054 8.61366 75.3055 8.61377L75.729 8.18878ZM75.6733 8.14505C75.6439 8.12717 75.604 8.10327 75.5634 8.08262L75.2912 8.61734C75.3101 8.62694 75.3336 8.64068 75.3612 8.6575L75.6733 8.14505ZM75.5527 8.07746C75.5386 8.07095 75.5244 8.06465 75.5101 8.05856L75.2751 8.61063C75.2841 8.61446 75.293 8.61841 75.3019 8.6225L75.5527 8.07746ZM75.6064 8.12414C75.6063 8.12404 75.6064 8.12413 75.6065 8.12428C75.6066 8.12433 75.6067 8.12444 75.6068 8.12458C75.6068 8.1246 75.6073 8.12511 75.6079 8.12575C75.6081 8.12594 75.6085 8.1263 75.6089 8.12676C75.6092 8.127 75.6103 8.12819 75.6117 8.12972C75.6122 8.13024 75.6143 8.13245 75.6168 8.13534C75.6184 8.13711 75.6227 8.14215 75.6254 8.14545C75.6318 8.15359 75.6652 8.20963 75.6833 8.26149C75.5848 8.56446 75.2393 8.5924 75.2114 8.57366C75.2049 8.56856 75.1956 8.56086 75.1928 8.55841C75.1913 8.557 75.1887 8.55466 75.1877 8.55374C75.187 8.55309 75.1858 8.55196 75.1853 8.55148C75.1835 8.54977 75.1821 8.5484 75.1819 8.54819C75.1814 8.5477 75.181 8.54731 75.1808 8.54711C75.1804 8.54671 75.1801 8.54639 75.18 8.54626C75.1797 8.54599 75.1795 8.54577 75.1794 8.54571C75.1793 8.54562 75.1793 8.54555 75.1792 8.54551C75.1792 8.54543 75.1791 8.54538 75.1791 8.54537C75.1791 8.54533 75.1791 8.54532 75.1791 8.54534C75.1791 8.54535 75.1791 8.54534 75.179 8.54531C75.179 8.54529 75.179 8.54524 75.1789 8.54516C75.1789 8.54513 75.1788 8.54505 75.1787 8.54496C75.1786 8.5449 75.1784 8.54468 75.1782 8.5444C75.178 8.54428 75.1777 8.54396 75.1773 8.54354C75.1771 8.54334 75.1767 8.54294 75.1763 8.54244C75.176 8.54222 75.1747 8.54082 75.173 8.539C75.1725 8.53849 75.1714 8.53728 75.1708 8.53657C75.1699 8.53557 75.1676 8.53298 75.1662 8.53138C75.1638 8.52856 75.1562 8.51923 75.1512 8.51261C75.1328 8.48445 75.1652 8.13938 75.4695 8.0448C75.5211 8.06365 75.5767 8.09778 75.5847 8.10426C75.588 8.10702 75.593 8.11139 75.5947 8.11296C75.5976 8.11556 75.5998 8.11766 75.6003 8.11815C75.6018 8.1196 75.603 8.12075 75.6032 8.12099C75.6037 8.12143 75.604 8.12179 75.6042 8.12197C75.6049 8.1226 75.6054 8.12311 75.6054 8.12312C75.6055 8.12327 75.6056 8.12338 75.6057 8.12342C75.6058 8.12358 75.6059 8.12366 75.6058 8.12356L75.1794 8.54563C75.1795 8.54574 75.1797 8.54596 75.1799 8.54619C75.18 8.54625 75.1801 8.54638 75.1803 8.54653C75.1803 8.54656 75.1808 8.54707 75.1814 8.5477C75.1816 8.54789 75.182 8.54825 75.1824 8.54869C75.1827 8.54893 75.1838 8.55008 75.1853 8.55153C75.1859 8.55202 75.188 8.55412 75.1909 8.55672C75.1926 8.55829 75.1976 8.56266 75.2009 8.56542C75.209 8.57189 75.2645 8.60604 75.3162 8.62488C75.6204 8.5303 75.6529 8.18523 75.6345 8.15707C75.6295 8.15045 75.6219 8.14112 75.6195 8.1383C75.6181 8.1367 75.6158 8.13411 75.6149 8.13311C75.6142 8.1324 75.6131 8.13119 75.6126 8.13068C75.611 8.12886 75.6096 8.12745 75.6094 8.12724C75.6089 8.12673 75.6085 8.12634 75.6083 8.12613C75.6079 8.12572 75.6076 8.12539 75.6075 8.12527C75.6072 8.12498 75.607 8.12475 75.6069 8.12468C75.6068 8.12458 75.6067 8.12449 75.6067 8.12444C75.6066 8.12433 75.6065 8.12424 75.6064 8.12418C75.6063 8.12406 75.6062 8.12394 75.6061 8.12385C75.606 8.12376 75.6059 8.12364 75.6058 8.12352C75.6057 8.12346 75.6056 8.12337 75.6055 8.12326C75.6055 8.12321 75.6054 8.12313 75.6053 8.12302C75.6052 8.12295 75.605 8.12273 75.6047 8.12244C75.6046 8.12232 75.6042 8.12199 75.6038 8.12158C75.6036 8.12139 75.6032 8.121 75.6027 8.12051C75.6025 8.1203 75.6011 8.11893 75.5993 8.11721C75.5988 8.11673 75.5976 8.1156 75.5969 8.11495C75.596 8.11403 75.5934 8.11169 75.5918 8.11028C75.589 8.10783 75.5798 8.10013 75.5732 8.09503C75.5453 8.07629 75.1999 8.10423 75.1013 8.40721C75.1195 8.45907 75.1529 8.5151 75.1593 8.52324C75.162 8.52654 75.1663 8.53159 75.1678 8.53335C75.1704 8.53624 75.1725 8.53846 75.173 8.53897C75.1744 8.5405 75.1755 8.54169 75.1758 8.54194C75.1762 8.5424 75.1765 8.54276 75.1767 8.54295C75.1774 8.5436 75.1779 8.54411 75.1779 8.54414C75.178 8.5443 75.1782 8.54442 75.1782 8.54449C75.1785 8.54471 75.1787 8.54494 75.1788 8.54504L75.6064 8.12414ZM75.5188 8.06245C75.5117 8.05915 75.4726 8.04006 75.4438 8.02837L75.2182 8.58438C75.2292 8.58882 75.2345 8.59197 75.2663 8.60673L75.5188 8.06245ZM75.4417 8.02753C75.4336 8.02432 75.4254 8.02117 75.4173 8.01808L75.205 8.57928C75.2101 8.58122 75.2152 8.58319 75.2203 8.58522L75.4417 8.02753ZM75.4208 8.01944C75.2706 7.96044 75.1123 7.92434 74.9514 7.91232L74.9067 8.51065C75.0078 8.5182 75.1071 8.54088 75.2015 8.57793L75.4208 8.01944ZM74.9482 7.9121C74.9062 7.90941 74.8641 7.90835 74.822 7.90895L74.8305 8.50889C74.857 8.50852 74.8834 8.50918 74.9098 8.51087L74.9482 7.9121ZM74.8263 7.90892H72.8285V8.50892H74.8263V7.90892ZM73.1285 8.20892V8.08326H72.5285V8.20892H73.1285ZM73.1285 8.08268C73.1277 7.65652 72.9582 7.24801 72.6572 6.94637L72.2325 7.37021C72.4216 7.55965 72.528 7.81621 72.5285 8.08385L73.1285 8.08268ZM72.6572 6.94637C72.3562 6.64473 71.948 6.47448 71.5218 6.47281L71.5195 7.0728C71.7871 7.07386 72.0435 7.18078 72.2325 7.37021L72.6572 6.94637ZM71.5218 6.47281C71.3097 6.47197 71.0996 6.51298 70.9033 6.59347L71.131 7.14858C71.2543 7.09803 71.3863 7.07228 71.5195 7.0728L71.5218 6.47281ZM70.9033 6.59347C70.7071 6.67396 70.5287 6.79236 70.3783 6.94189L70.8013 7.3674C70.8957 7.27349 71.0078 7.19913 71.131 7.14858L70.9033 6.59347ZM70.3783 6.94189C70.2279 7.09142 70.1084 7.26915 70.0268 7.4649L70.5805 7.69586C70.6318 7.57293 70.7068 7.46131 70.8013 7.3674L70.3783 6.94189ZM70.0268 7.4649C69.9451 7.66065 69.9029 7.87058 69.9025 8.08268L70.5025 8.08385C70.5027 7.95064 70.5293 7.8188 70.5805 7.69586L70.0268 7.4649ZM69.9025 8.08326V9.52707H70.5025V8.08326H69.9025ZM69.9025 9.52707V10.9606H70.5025V9.52707H69.9025ZM69.9025 10.9594C69.9016 11.1723 69.943 11.3833 70.024 11.5801L70.5788 11.3516C70.5279 11.228 70.5019 11.0955 70.5025 10.9618L69.9025 10.9594ZM70.024 11.5801C70.1051 11.777 70.2244 11.9558 70.3749 12.1064L70.7992 11.6821C70.7046 11.5875 70.6297 11.4752 70.5788 11.3516L70.024 11.5801ZM70.3749 12.1064C70.5255 12.2569 70.7043 12.3761 70.9011 12.4572L71.1297 11.9024C71.006 11.8515 70.8937 11.7766 70.7992 11.6821L70.3749 12.1064ZM70.9011 12.4572C71.098 12.5383 71.309 12.5796 71.5218 12.5788L71.5195 11.9788C71.3858 11.9793 71.2533 11.9534 71.1297 11.9024L70.9011 12.4572ZM71.5218 12.5788C71.9496 12.5771 72.3592 12.4055 72.6605 12.1019L72.2346 11.6793C72.0454 11.87 71.7881 11.9777 71.5195 11.9788L71.5218 12.5788ZM72.6605 12.1019C72.9619 11.7982 73.1302 11.3872 73.1285 10.9594L72.5285 10.9618C72.5296 11.2305 72.4239 11.4885 72.2346 11.6793L72.6605 12.1019ZM73.1285 10.9606V10.835H72.5285V10.9606H73.1285ZM72.8285 11.135H73.5184V10.535H72.8285V11.135ZM73.2184 10.835V17.8822H73.8184V10.835H73.2184ZM73.2184 17.8822C73.2184 24.0441 68.3135 28.9608 62.1782 28.9608V29.5608C68.6467 29.5608 73.8184 24.3737 73.8184 17.8822H73.2184ZM62.1782 28.9608C56.0428 28.9608 51.138 24.0441 51.138 17.8822H50.538C50.538 24.3737 55.7096 29.5608 62.1782 29.5608V28.9608ZM51.138 17.8822V10.835H50.538V17.8822H51.138ZM50.838 11.135H51.5253V10.535H50.838V11.135ZM51.2253 10.835V10.9606H51.8253V10.835H51.2253ZM51.2253 10.9595C51.2245 11.1713 51.2654 11.3812 51.3457 11.5772L51.9009 11.3498C51.8505 11.2267 51.8248 11.0948 51.8253 10.9618L51.2253 10.9595ZM51.3457 11.5772C51.426 11.7732 51.5441 11.9515 51.6933 12.1019L52.1192 11.6793C52.0255 11.5848 51.9513 11.4729 51.9009 11.3498L51.3457 11.5772ZM51.6933 12.1019C51.8425 12.2523 52.0199 12.3718 52.2152 12.4536L52.447 11.9002C52.3243 11.8488 52.2129 11.7737 52.1192 11.6793L51.6933 12.1019ZM52.2152 12.4536C52.4106 12.5354 52.6202 12.578 52.8321 12.5788L52.8344 11.9788C52.7013 11.9783 52.5697 11.9516 52.447 11.9002L52.2152 12.4536ZM52.8321 12.5788C53.0449 12.5796 53.2559 12.5383 53.4527 12.4572L53.2242 11.9024C53.1005 11.9533 52.9681 11.9793 52.8344 11.9788L52.8321 12.5788ZM53.4527 12.4572C53.6495 12.3761 53.8284 12.2569 53.9789 12.1063L53.5546 11.6821C53.4601 11.7766 53.3478 11.8515 53.2242 11.9024L53.4527 12.4572ZM53.9789 12.1063C54.1294 11.9558 54.2487 11.777 54.3297 11.5801L53.775 11.3516C53.724 11.4752 53.6492 11.5875 53.5546 11.6821L53.9789 12.1063ZM54.3297 11.5801C54.4108 11.3833 54.4521 11.1723 54.4513 10.9595L53.8513 10.9618C53.8518 11.0955 53.8259 11.228 53.775 11.3516L54.3297 11.5801ZM54.4513 10.9606V9.52708H53.8513V10.9606H54.4513ZM54.4513 9.53236C54.4516 9.51346 54.4516 9.49456 54.4513 9.47566L53.8513 9.4862C53.8516 9.49807 53.8516 9.50994 53.8513 9.52181L54.4513 9.53236ZM54.4513 9.48093V8.08327H53.8513V9.48093H54.4513ZM54.4513 8.08269C54.4509 7.8706 54.4087 7.66068 54.327 7.46494L53.7733 7.69589C53.8245 7.81883 53.851 7.95066 53.8513 8.08386L54.4513 8.08269ZM54.327 7.46494C54.2454 7.2692 54.1259 7.09147 53.9755 6.94194L53.5525 7.36744C53.647 7.46135 53.722 7.57296 53.7733 7.69589L54.327 7.46494ZM53.9755 6.94194C53.8251 6.79241 53.6467 6.67401 53.4505 6.59351L53.2228 7.14861C53.346 7.19917 53.4581 7.27353 53.5525 7.36744L53.9755 6.94194ZM53.4505 6.59351C53.2543 6.51301 53.0441 6.472 52.8321 6.47282L52.8344 7.07282C52.9676 7.0723 53.0996 7.09806 53.2228 7.14861L53.4505 6.59351ZM52.8332 7.07282L52.8464 7.07282L52.8465 6.47282L52.8333 6.47282L52.8332 7.07282ZM37.6566 47.725C37.6921 47.7242 37.7156 47.7251 37.7649 47.7251V47.1251C37.7368 47.1251 37.6859 47.1241 37.642 47.1252L37.6566 47.725ZM37.7649 47.7251C40.074 47.7251 41.9245 49.5781 41.9245 51.9027H42.5245C42.5245 49.2487 40.4073 47.1251 37.7649 47.1251V47.7251ZM41.9245 51.9027C41.9245 54.2273 40.074 56.0803 37.7649 56.0803V56.6803C40.4073 56.6803 42.5245 54.5567 42.5245 51.9027H41.9245ZM37.7649 56.0803C35.456 56.0803 33.6078 54.2276 33.6078 51.9027H33.0078C33.0078 54.5565 35.1222 56.6803 37.7649 56.6803V56.0803ZM33.6078 51.9027C33.6078 49.6141 35.3989 47.7817 37.6568 47.725L37.6417 47.1252C35.0564 47.1902 33.0078 49.2906 33.0078 51.9027H33.6078Z" fill="white" mask="url(#path-1-inside-1_528_441)"/>
</svg>
