<svg width="267" height="71" viewBox="0 0 267 71" fill="none" xmlns="http://www.w3.org/2000/svg">
<path fill-rule="evenodd" clip-rule="evenodd" d="M121.479 70.2075V44.4783L114.325 70.2075H107.414L100.642 44.4783V70.2075H93.1753V38.2283H104.879L110.887 60.6241L116.825 38.2283H128.91V70.2075H121.479ZM160.027 65.5547C158.985 66.7352 156.623 68.8186 152.734 69.7214C150.963 70.138 149.4 70.2075 147.594 70.2075H135.057V38.2283H145.233C146.24 38.2283 147.212 38.2283 148.15 38.263C149.504 38.3672 154.852 38.5061 158.742 41.7352C159.332 42.1866 160.305 43.02 161.277 44.6172C162.423 46.388 163.673 49.2352 163.673 53.9575C163.673 59.9644 161.728 63.5408 160.027 65.5547ZM153.845 47.6033C153.394 47.0825 152.456 45.9714 150.72 45.4505C149.226 44.9297 147.872 44.9991 146.344 44.9991H143.114V63.7839H145.58C147.907 63.7839 150.65 63.645 152.734 62.1172C154.366 60.8672 155.686 58.5755 155.686 54.2352C155.686 51.77 155.408 49.5477 153.845 47.6033ZM148.393 33.1588L142.177 21.8741H139.225V33.1588H129.084V1.17969H146.379C147.282 1.17969 148.254 1.21441 149.157 1.31857C150.546 1.42274 154.644 1.80469 156.936 5.65885C157.492 6.59635 158.429 8.61024 158.429 11.4227C158.429 14.4436 157.249 17.2214 154.679 18.9227C153.984 19.3741 153.394 19.6519 151.866 20.2422L159.714 33.1588H148.393ZM147.698 9.33941C147.386 8.8533 146.934 8.61024 146.761 8.50607C145.719 7.9158 144.538 7.88108 143.357 7.88108H139.225V15.3116H143.461C145.302 15.3116 147.386 15.0686 148.115 12.9852C148.15 12.8116 148.323 12.2214 148.323 11.5964C148.323 10.8325 148.115 9.96441 147.698 9.33941Z" fill="#68B2E7"/>
<path fill-rule="evenodd" clip-rule="evenodd" d="M191.351 20.3472V1.18056H181.176V21.1458C181.176 22.0833 181.176 22.8125 180.864 23.6458C179.926 26.0417 177.391 26.1806 176.731 26.1806C176.002 26.1806 173.467 26.0417 172.633 23.5764C172.286 22.6042 172.321 21.4583 172.321 21.1458V1.18056H162.18V20.1389C162.18 23.5069 162.423 24.8264 163.013 26.3889C164.507 30.3472 167.736 31.9444 169.126 32.5347C172.286 33.9236 175.446 34.0278 176.627 34.0278C182.357 34.0278 188.156 31.8056 190.379 26.0069C191.074 24.0972 191.351 22.3611 191.351 20.3472ZM227.33 33.1597V1.18056H217.918V19.7917L207.153 1.18056H196.422V33.1597H205.798V14.5833L216.425 33.1597H227.33ZM266.017 16.875C266.017 10.1736 262.961 6.25 261.085 4.375C256.64 0.0347217 250.979 0 248.896 0C242.228 0 238.408 2.67361 236.428 4.61805C232.018 8.99305 231.671 15.0347 231.671 17.1528C231.671 21.8403 233.199 26.4931 236.324 29.6181C240.735 34.0972 246.673 34.2014 248.687 34.2014C250.736 34.2014 256.571 34.0972 261.12 29.5833C265.704 25 266.017 18.8194 266.017 16.875ZM255.807 16.8403C255.807 20.6944 254.765 22.7778 253.549 24.0972C252.264 25.5556 250.771 26.0764 248.896 26.0764C247.333 26.0764 246.361 25.7292 245.701 25.4514C244.833 25.0347 244.173 24.5139 243.582 23.7847C241.777 21.4583 241.811 17.7431 241.811 17.1528C241.811 13.4028 242.992 11.1458 244.138 9.96528C245.805 8.19445 248.097 8.05556 248.896 8.05556C249.486 8.05556 250.979 8.15972 252.403 8.99306C255.946 11.1458 255.807 15.9722 255.807 16.8403ZM115.193 33.2292C119.326 33.2292 122.243 31.6667 123.771 28.6111C124.639 27.0139 125.056 25.2083 125.056 23.2292C125.056 21.0069 124.569 19.1667 123.632 17.7083C122.984 16.7361 122.231 15.9491 121.374 15.3472C122.798 13.9236 123.528 12.0139 123.528 9.65278C123.528 6.80555 122.694 4.65278 121.027 3.19444C119.43 1.80555 117.311 1.11111 114.707 1.11111H93.1753V33.2292H115.193ZM103.281 26.3194V20.0347H111.824C112.658 20.0347 113.318 20.2778 113.908 20.7639C114.429 21.25 114.707 22.0486 114.707 23.2292C114.707 24.375 114.429 25.1736 113.908 25.5903C113.352 26.0764 112.519 26.3194 111.442 26.3194H103.281ZM103.281 13.2639V7.88195H110.192C112.31 7.88195 113.213 8.68055 113.213 10.5208C113.213 12.4653 112.345 13.2639 110.262 13.2639H103.281ZM80.2218 36.8403C78.8674 34.7569 77.2351 33.0556 75.3598 31.7361C78.4506 28.6806 80.0134 24.5833 80.0134 19.5139C80.0134 13.4028 78.2075 8.71528 74.6653 5.625C71.1925 2.63889 66.6084 1.11111 61.0519 1.11111H0L3.7159 7.1875H54.1063L51.3975 11.5972H6.42469L10.1406 17.7083H47.6816L45.0075 22.1181H12.8146L21.0799 35.6597L12.8146 49.2014H44.9728L47.6816 53.6111H10.1059L6.38996 59.7222H51.3975L54.0715 64.1319H3.7159L0 70.2083H62.059C70.9841 70.2083 77.2351 66.875 80.569 60.3125C82.4096 56.875 83.3125 52.9861 83.3125 48.75C83.3125 43.9583 82.2707 39.9653 80.2218 36.8403ZM21.9134 43.125L26.4628 35.6597L21.9481 28.1944H35.8741L31.3247 35.6597L35.8741 43.125H21.9134Z" fill="#68B2E7"/>
<path fill-rule="evenodd" clip-rule="evenodd" d="M190.587 43.577C189.43 43.577 188.666 43.7391 188.295 44.0632C187.902 44.4104 187.705 45.0238 187.705 45.9034V51.9451H187.809C187.971 51.6442 188.133 51.378 188.295 51.1465C188.434 50.915 188.573 50.7182 188.712 50.5562C189.013 50.1858 189.337 49.9428 189.684 49.827C190.032 49.6881 190.483 49.6187 191.039 49.6187H201.179C203.379 49.6187 205.231 50.2206 206.736 51.4243C208.264 52.628 209.028 54.2715 209.028 56.3548V63.4034C209.028 65.4636 208.264 67.1071 206.736 68.334C205.231 69.5377 203.379 70.1395 201.179 70.1395H183.468C181.292 70.1395 179.44 69.5377 177.912 68.334C176.384 67.1071 175.62 65.4636 175.62 63.4034V45.0701C175.62 42.9868 176.384 41.3432 177.912 40.1395C179.44 38.9358 181.292 38.334 183.468 38.334H207.396L208.472 44.7229C207.87 44.3988 207.141 44.121 206.284 43.8895C205.428 43.6812 203.981 43.577 201.943 43.577H190.587ZM189.684 54.8618C188.92 54.8618 188.4 55.0007 188.122 55.2784C187.844 55.5331 187.705 55.996 187.705 56.6673V63.0909C187.705 63.7622 187.844 64.2252 188.122 64.4798C188.4 64.7344 188.92 64.8618 189.684 64.8618H194.859C195.6 64.8618 196.109 64.7344 196.387 64.4798C196.688 64.2252 196.838 63.7622 196.838 63.0909V56.6673C196.838 55.996 196.688 55.5331 196.387 55.2784C196.109 55.0007 195.6 54.8618 194.859 54.8618H189.684ZM216.703 43.5423V43.5076C216.703 40.6951 218.995 38.334 221.877 38.334C224.795 38.334 227.052 40.6604 227.052 43.5076C227.052 46.3548 224.76 48.7159 221.877 48.7159C218.96 48.7159 216.703 46.3548 216.703 43.5423ZM226.461 43.5076C226.461 40.9729 224.482 38.8895 221.877 38.8895C219.307 38.8895 217.328 41.0076 217.328 43.5076V43.5423C217.328 46.077 219.273 48.1604 221.877 48.1604C224.482 48.1604 226.461 46.0423 226.461 43.5076ZM219.481 40.6604H222.155C223.683 40.6604 224.656 41.3201 224.656 42.5701C224.656 43.4381 224.239 43.959 223.544 44.2715L224.829 46.1465H222.746L221.704 44.584H221.322V46.1465H219.481V40.6604ZM222.086 43.2298C222.537 43.2298 222.815 43.0562 222.815 42.709C222.815 42.327 222.572 42.1534 222.12 42.1534H221.322V43.2298H222.086Z" fill="#68B2E7"/>
</svg>
