<svg width="34" height="34" viewBox="0 0 34 34" fill="none" xmlns="http://www.w3.org/2000/svg">
<path d="M20.9477 7.29158C22.3721 7.56949 23.6812 8.26613 24.7074 9.29232C25.7336 10.3185 26.4302 11.6276 26.7081 13.052M20.9477 1.45825C23.907 1.78701 26.6667 3.11226 28.7734 5.21639C30.8802 7.32052 32.2089 10.0785 32.5414 13.0374M31.0831 24.6749V29.0499C31.0847 29.4561 31.0015 29.8581 30.8388 30.2302C30.6761 30.6023 30.4375 30.9364 30.1382 31.211C29.8389 31.4855 29.4856 31.6946 29.1009 31.8247C28.7161 31.9548 28.3084 32.0031 27.9039 31.9666C23.4164 31.479 19.1058 29.9455 15.3185 27.4895C11.7949 25.2505 8.80754 22.2631 6.56851 18.7395C4.10389 14.935 2.57011 10.6035 2.09143 6.09575C2.05498 5.69247 2.10291 5.28603 2.23216 4.90229C2.3614 4.51855 2.56913 4.16592 2.84213 3.86687C3.11512 3.56781 3.44739 3.32887 3.81779 3.16526C4.18818 3.00166 4.58859 2.91697 4.99351 2.91659H9.36851C10.0762 2.90962 10.7624 3.16024 11.299 3.62174C11.8356 4.08323 12.1861 4.72411 12.2852 5.42492C12.4698 6.82502 12.8123 8.19973 13.306 9.52284C13.5022 10.0448 13.5447 10.6121 13.4284 11.1575C13.3121 11.7028 13.0419 12.2034 12.6498 12.5999L10.7977 14.452C12.8737 18.103 15.8967 21.126 19.5477 23.202L21.3998 21.3499C21.7963 20.9578 22.2969 20.6876 22.8422 20.5713C23.3876 20.455 23.9549 20.4975 24.4768 20.6937C25.7999 21.1874 27.1747 21.5298 28.5748 21.7145C29.2832 21.8144 29.9301 22.1713 30.3926 22.7171C30.8551 23.2629 31.1008 23.9597 31.0831 24.6749Z" stroke="#1E1E1E" stroke-width="3" stroke-linecap="round" stroke-linejoin="round"/>
</svg>
