<svg width="24" height="24" viewBox="0 0 24 24" fill="none" xmlns="http://www.w3.org/2000/svg">
<rect width="24" height="24" rx="12" fill="#FFD6CE"/>
<path d="M7.18829 7.18829C7.43934 6.93724 7.84637 6.93724 8.09743 7.18829L11.5 10.5909L14.9026 7.18829C15.1536 6.93724 15.5607 6.93724 15.8117 7.18829C16.0628 7.43934 16.0628 7.84637 15.8117 8.09743L12.4091 11.5L15.8117 14.9026C16.0628 15.1536 16.0628 15.5607 15.8117 15.8117C15.5607 16.0628 15.1536 16.0628 14.9026 15.8117L11.5 12.4091L8.09743 15.8117C7.84637 16.0628 7.43934 16.0628 7.18829 15.8117C6.93724 15.5607 6.93724 15.1536 7.18829 14.9026L10.5909 11.5L7.18829 8.09743C6.93724 7.84637 6.93724 7.43934 7.18829 7.18829Z" fill="#F03A17"/>
</svg>
