<svg width="27" height="36" viewBox="0 0 27 36" fill="none" xmlns="http://www.w3.org/2000/svg">
<path d="M11.523 6.5802C11.172 6.5802 10.8848 6.29299 10.8848 5.94195V0.63825C10.8848 0.28721 11.172 0 11.523 0C11.8741 0 12.1613 0.28721 12.1613 0.63825V5.94195C12.1613 6.29299 11.8741 6.5802 11.523 6.5802Z" fill="#2382BC"/>
<path d="M14.4533 6.58005C14.2874 6.58005 14.1278 6.51623 14.0002 6.39496C13.7512 6.14604 13.7512 5.74393 14.0002 5.49504L15.6532 3.84196C15.9022 3.59304 16.3043 3.59304 16.5532 3.84196C16.8021 4.09088 16.8021 4.493 16.5532 4.74188L14.9001 6.39496C14.7724 6.52261 14.6129 6.58005 14.4469 6.58005H14.4533Z" fill="#2382BC"/>
<path d="M8.58786 6.58004C8.42191 6.58004 8.26235 6.51621 8.13469 6.39495L6.48161 4.74187C6.23269 4.49295 6.23269 4.09084 6.48161 3.84195C6.73053 3.59306 7.13265 3.59303 7.38153 3.84195L9.03461 5.49503C9.28353 5.74395 9.28353 6.14606 9.03461 6.39495C8.90696 6.5226 8.7474 6.58004 8.58144 6.58004H8.58786Z" fill="#2382BC"/>
<path d="M12.5896 33.8975L10.8855 35.6016C10.7195 35.7676 10.4387 35.7676 10.2727 35.6016L0.124459 25.4533C-0.0414862 25.2874 -0.0414862 25.013 0.124459 24.8406L1.8286 23.1365C1.99454 22.9705 2.26898 22.9705 2.44132 23.1365L12.5896 33.2848C12.7555 33.4507 12.7555 33.7251 12.5896 33.8975ZM25.8778 21.3812L20.057 27.2086C19.3485 28.0192 17.1083 30.0042 15.27 29.4361C15.0466 29.3659 14.7977 29.4297 14.6318 29.5957L12.666 31.5551L4.0687 22.9578L7.08761 19.9389C7.20888 19.8176 7.2727 19.6517 7.2727 19.4857L7.20888 10.5629C7.20888 10.3268 7.24079 10.1417 7.30461 9.98851C7.63012 9.24814 8.38325 9.1907 8.40878 9.18429C8.7662 9.16514 9.07256 9.26726 9.33423 9.49703C9.62782 9.75233 9.80651 10.1608 9.82567 10.6076L9.9597 13.7159C9.97885 14.1499 10.2533 14.5329 10.6618 14.6924C11.0639 14.852 11.5298 14.7562 11.8362 14.4435L20.2545 6.01859C20.7715 5.50162 21.6204 5.50162 22.1374 6.01859L22.1948 6.07603C22.4437 6.32495 22.5842 6.66322 22.5842 7.01427C22.5842 7.36531 22.4437 7.70358 22.1948 7.9525L15.7229 14.4245C15.474 14.6734 15.474 15.0755 15.7229 15.3244C15.9718 15.5733 16.3739 15.5733 16.6228 15.3244L18.2184 13.7288C18.7162 13.2309 19.6034 13.2309 20.1012 13.7288L20.1587 13.7862C20.4076 14.0351 20.548 14.3734 20.548 14.7245C20.548 15.0755 20.4076 15.4138 20.1587 15.6627L18.5631 17.2583C18.3142 17.5072 18.3142 17.9093 18.5631 18.1582C18.6907 18.2859 18.8503 18.3433 19.0162 18.3433C19.1822 18.3433 19.3418 18.2795 19.4694 18.1582L21.065 16.5626C21.582 16.0456 22.4309 16.0456 22.9479 16.5626L23.0053 16.6201C23.5223 17.137 23.5223 17.9859 23.0053 18.5029L21.4161 20.0985C21.1672 20.3474 21.1672 20.7495 21.4161 20.9984C21.5437 21.1261 21.7033 21.1835 21.8692 21.1835C22.0352 21.1835 22.1948 21.1197 22.3224 20.9984L23.9116 19.4028C24.4286 18.8858 25.2775 18.8858 25.7945 19.4028L25.8519 19.4603C26.1008 19.7092 26.2413 20.0475 26.2413 20.3985C26.2413 20.7495 26.1008 21.0878 25.8519 21.3367L25.8778 21.3812Z" fill="#2382BC"/>
</svg>
