<svg width="50" height="22" viewBox="0 0 50 22" fill="none" xmlns="http://www.w3.org/2000/svg">
<path fill-rule="evenodd" clip-rule="evenodd" d="M36.4339 19.6414H49.5131C49.5131 8.79372 40.72 0 29.8718 0C19.0235 0 10.2305 8.79311 10.2305 19.6414H13.2815C13.2815 13.2483 18.4635 8.06391 24.8589 8.06391C28.1459 8.06391 31.1111 9.43212 33.2182 11.6322L37.7518 7.9376C38.1499 7.61343 38.7363 7.6754 39.058 8.07108C39.3798 8.46915 39.3202 9.05315 38.9245 9.3773L34.3909 13.0696C35.6781 14.9383 36.4339 17.2003 36.4339 19.6414Z" fill="#2382BC"/>
<path fill-rule="evenodd" clip-rule="evenodd" d="M26.604 18.2156C27.3906 19.181 27.2452 20.6016 26.2798 21.3882C25.3145 22.1748 23.8938 22.0294 23.1073 21.064C22.3206 20.0987 22.4661 18.678 23.4314 17.8914C24.3992 17.1048 25.8175 17.2502 26.604 18.2156Z" fill="#2382BC"/>
<path fill-rule="evenodd" clip-rule="evenodd" d="M38.1406 8.41692C38.2741 8.30727 38.472 8.32873 38.5792 8.46221C38.6889 8.59569 38.6674 8.79353 38.5339 8.9008L27.2829 18.0661C27.2257 17.9803 27.1661 17.8945 27.0994 17.8134C27.0327 17.7324 26.9635 17.6537 26.8896 17.5822L38.1406 8.41692Z" fill="#2382BC"/>
<path fill-rule="evenodd" clip-rule="evenodd" d="M13.9679 7.07751H6.96948C6.79548 7.07751 6.65723 6.93688 6.65723 6.76288C6.65723 6.58887 6.79786 6.44824 6.96948 6.44824H14.4848C14.3084 6.65561 14.1348 6.8654 13.9679 7.07751Z" fill="#2382BC"/>
<path fill-rule="evenodd" clip-rule="evenodd" d="M11.2745 11.5707H0.314635C0.140628 11.5707 0 11.43 0 11.256C0 11.082 0.140634 10.9414 0.314635 10.9414H11.5607C11.4606 11.1512 11.3675 11.3609 11.2745 11.5707Z" fill="#2382BC"/>
<path fill-rule="evenodd" clip-rule="evenodd" d="M9.91876 16.0687H6.60077C6.42676 16.0687 6.28613 15.9281 6.28613 15.7541C6.28613 15.5801 6.42677 15.4395 6.60077 15.4395H10.0403C9.99741 15.6492 9.95452 15.8566 9.91876 16.0687Z" fill="#2382BC"/>
</svg>
