<svg width="34" height="26" viewBox="0 0 34 26" fill="none" xmlns="http://www.w3.org/2000/svg">
<path fill-rule="evenodd" clip-rule="evenodd" d="M4.18882 0.0585938H29.8207C30.9722 0.0585938 32.0189 0.535214 32.7755 1.30417C33.5339 2.07312 34.0039 3.13263 34.0039 4.30028V20.8169C34.0039 21.9845 33.5339 23.0458 32.7755 23.813C32.0189 24.5802 30.9723 25.0586 29.8207 25.0586H4.18882C3.03732 25.0586 1.99064 24.582 1.23404 23.813C0.475698 23.0458 0.00565317 21.9846 0.00565317 20.8169L0.00390625 4.30028C0.00390625 3.13268 0.473951 2.07312 1.23229 1.30417C1.99064 0.535214 3.03554 0.0585938 4.18882 0.0585938ZM30.9601 22.6101L20.9915 13.9426L19.6076 15.1457C18.8877 15.7711 17.9494 16.0883 17.0198 16.0936C16.0867 16.0989 15.1501 15.7888 14.4319 15.1669L13.0253 13.9444L3.0532 22.6154C3.38171 22.8281 3.77138 22.9538 4.189 22.9538H29.8209C30.2385 22.9538 30.6298 22.8262 30.9601 22.6101ZM2.08149 20.693L11.435 12.5585L2.08149 4.42402V20.693ZM3.05303 2.50357L13.6908 11.7543L13.7065 11.7667L15.7771 13.5686C16.1073 13.8557 16.5547 13.9974 17.0107 13.9956C17.4685 13.9939 17.9228 13.845 18.2601 13.5509L20.308 11.7703L20.3254 11.7543L30.9582 2.50721C30.6297 2.29105 30.2383 2.16348 29.819 2.16348H4.18883C3.77121 2.16348 3.38154 2.28918 3.05303 2.50357ZM31.9262 4.43128L22.5813 12.5585L31.9262 20.6857V4.43128Z" fill="black"/>
</svg>
