<svg width="23" height="32" viewBox="0 0 23 32" fill="none" xmlns="http://www.w3.org/2000/svg">
<path d="M8.0005 31.8108H17.6564L18.3143 27.9424H7.34082L8.0005 31.8108Z" fill="#2382BC"/>
<path d="M0 13.8564H1.47126V18.3433H0V13.8564Z" fill="#2382BC"/>
<path d="M16.0575 10.4459L17.6581 12.0464L19.2605 10.444C19.2811 10.4028 19.3074 10.3653 19.3374 10.3278C19.6222 9.97918 19.6054 9.48813 19.2999 9.18265C18.9869 8.86965 18.4902 8.85653 18.1416 9.15078C17.8623 9.38694 17.4538 9.38694 17.1745 9.15078C16.8259 8.85653 16.3293 8.86965 16.0162 9.18077C15.7107 9.48627 15.6957 9.97921 15.9788 10.3259C16.0087 10.3634 16.035 10.4028 16.0575 10.4421L16.0575 10.4459Z" fill="#2382BC"/>
<path d="M2.98659 13.1064V19.0928C2.98659 19.121 2.97347 19.1453 2.96973 19.1734V26.4433H5.56553L5.55991 26.4096H20.0983L20.0927 26.4433H22.4992V5.75586H2.97182V13.0258C2.97557 13.0539 2.98869 13.0764 2.98869 13.1064L2.98659 13.1064ZM14.9571 8.12272C15.6843 7.39367 16.7694 7.24186 17.6578 7.6879C18.5481 7.24184 19.6314 7.39365 20.3604 8.12272C21.1532 8.91549 21.2601 10.145 20.6472 11.0746C20.6116 11.1758 20.5535 11.2714 20.471 11.3538L18.1882 13.6366C18.0477 13.7772 17.8565 13.8559 17.6578 13.8559C17.4591 13.8559 17.268 13.7772 17.1274 13.6366L14.8465 11.3557C14.764 11.2733 14.7059 11.1777 14.6684 11.0746C14.0575 10.145 14.1624 8.91549 14.9571 8.12272ZM5.44748 15.7112H7.86711L9.38711 12.3301C9.52205 12.0284 9.84255 11.8485 10.1668 11.8934C10.4948 11.9347 10.7553 12.1858 10.8115 12.5119L11.6737 17.6228L12.9219 14.028C13.0194 13.745 13.2762 13.5482 13.5742 13.5257C13.8722 13.5032 14.1552 13.6607 14.2939 13.9249L15.2497 15.7523H19.3374C19.7516 15.7523 20.0871 16.0878 20.0871 16.502C20.0871 16.9162 19.7516 17.2516 19.3374 17.2516H14.7962C14.5169 17.2516 14.2601 17.0961 14.1327 16.8487L13.771 16.1571L12.131 20.8802C12.0261 21.1838 11.7393 21.3843 11.4226 21.3843C11.4019 21.3843 11.3813 21.3843 11.3588 21.3825C11.0177 21.3543 10.7385 21.0976 10.6822 20.7602L9.74326 15.1974L9.03666 16.7699C8.91671 17.0397 8.64869 17.2122 8.35256 17.2122H5.44752C5.03332 17.2122 4.69783 16.8767 4.69783 16.4625C4.69783 16.0483 5.03332 15.7128 5.44752 15.7128L5.44748 15.7112Z" fill="#2382BC"/>
<path d="M17.5625 0.189453H7.90655L7.24121 4.09156H18.2262L17.5625 0.189453Z" fill="#2382BC"/>
</svg>
