<svg width="78" height="78" viewBox="0 0 78 78" fill="none" xmlns="http://www.w3.org/2000/svg">
<circle cx="39" cy="39" r="39" fill="#F6F6F6"/>
<path fill-rule="evenodd" clip-rule="evenodd" d="M41.6912 23.0444L21.5003 43.234C20.5399 44.1945 20 45.497 20 46.8558C20 48.2146 20.5399 49.517 21.5003 50.4775C22.2105 51.1877 22.964 51.9412 23.6742 52.6514C24.6346 53.6118 25.9384 54.1517 27.2959 54.1517C28.6547 54.1517 29.9572 53.6118 30.9177 52.6514C37.2951 46.274 51.1073 32.4605 51.1073 32.4605C51.3641 32.205 51.3641 31.7909 51.1073 31.5341L42.6176 23.0444C42.3621 22.7876 41.9467 22.7876 41.6912 23.0444ZM28.259 38.3294L22.4267 44.1604C21.7126 44.8759 21.3103 45.8455 21.3103 46.8558C21.3103 47.866 21.7126 48.8357 22.4267 49.5511L24.6006 51.725C25.316 52.4391 26.2857 52.8414 27.2959 52.8414C28.3062 52.8414 29.2758 52.4391 29.9913 51.725L36.2494 45.4668C36.5521 44.0359 36.4761 43.1279 36.0699 42.5159C35.6571 41.8948 34.9338 41.6197 34.111 41.3668C32.2123 40.7811 29.8458 40.3827 28.259 38.3294ZM29.1946 37.3939C30.5835 39.3332 32.7875 39.5874 34.4975 40.1141C35.6375 40.4653 36.5901 40.9304 37.1614 41.7913C37.5165 42.3246 37.7366 43.0244 37.7353 43.9809L41.2274 40.4876L39.5685 38.8287C39.313 38.5732 39.313 38.1578 39.5685 37.9023C39.824 37.6468 40.2394 37.6468 40.4949 37.9023L42.1538 39.5612L44.4115 37.3048L41.6912 34.5832C41.4357 34.3277 41.4357 33.9123 41.6912 33.6568C41.9467 33.4013 42.3621 33.4013 42.6176 33.6568L45.3379 36.377L47.5956 34.1207L45.9354 32.4605C45.6799 32.205 45.6799 31.7896 45.9354 31.5341C46.1922 31.2785 46.6063 31.2785 46.8631 31.5341L48.522 33.1943L49.7183 31.9979L42.1538 24.4334L29.1946 37.3939Z" fill="black"/>
<path fill-rule="evenodd" clip-rule="evenodd" d="M51.8819 35.3395C51.7603 35.1624 51.5577 35.0558 51.343 35.0558C51.1284 35.0558 50.9258 35.1624 50.8042 35.3395C50.8042 35.3395 47.8295 39.647 46.0449 43.3812C45.2374 45.0712 44.6836 46.6577 44.6836 47.7188C44.6836 51.3945 47.6674 54.3782 51.343 54.3782C55.0187 54.3782 58.0025 51.3945 58.0025 47.7188C58.0025 46.6577 57.4487 45.0712 56.6412 43.3812C54.8566 39.647 51.8819 35.3395 51.8819 35.3395ZM51.343 36.8854C52.2676 38.2812 54.1767 41.265 55.4585 43.9471C56.1639 45.4224 56.6907 46.7927 56.6907 47.7188C56.6907 50.671 54.2953 53.0665 51.343 53.0665C48.3908 53.0665 45.9954 50.671 45.9954 47.7188C45.9954 46.7927 46.5222 45.4224 47.2276 43.9471C48.5094 41.265 50.4185 38.2812 51.343 36.8854Z" fill="black"/>
</svg>
