<svg width="102" height="126" viewBox="0 0 102 126" fill="none" xmlns="http://www.w3.org/2000/svg">
<path fill-rule="evenodd" clip-rule="evenodd" d="M30.2727 37.1819C29.4044 37.1819 28.5731 36.8372 27.9578 36.2241C27.3447 35.6088 27 34.7775 27 33.9092V25.1819C27 24.3135 27.3447 23.4823 27.9578 22.867C28.5731 22.2539 29.4044 21.9092 30.2727 21.9092H45.5455C46.4138 21.9092 47.2451 22.2539 47.8604 22.867C48.4735 23.4823 48.8182 24.3135 48.8182 25.1819V33.9092C48.8182 34.7775 48.4735 35.6088 47.8604 36.2241C47.2451 36.8372 46.4138 37.1819 45.5455 37.1819V73.1819C45.5455 77.3994 42.1265 80.8183 37.9091 80.8183C33.6916 80.8183 30.2727 77.3994 30.2727 73.1819V37.1819ZM43.9091 35.0001H45.5455C45.8356 35.0001 46.1127 34.8845 46.3178 34.6816C46.5207 34.4765 46.6364 34.1994 46.6364 33.9092V25.1819C46.6364 24.8917 46.5207 24.6146 46.3178 24.4095C46.1127 24.2066 45.8356 24.091 45.5455 24.091H43.9091V35.0001ZM41.7273 24.091H39V35.0001H41.7273V24.091ZM36.8182 24.091H34.0909V35.0001H36.8182V24.091ZM31.9091 24.091H30.2727C29.9825 24.091 29.7055 24.2066 29.5004 24.4095C29.2975 24.6146 29.1818 24.8917 29.1818 25.1819V33.9092C29.1818 34.1994 29.2975 34.4765 29.5004 34.6816C29.7055 34.8845 29.9825 35.0001 30.2727 35.0001H31.9091V24.091ZM32.4545 37.1819V44.1899C33.3447 43.5572 34.4029 43.2299 35.7862 43.3041C36.9295 43.3652 37.7891 43.891 38.5898 44.5368C39.3382 45.1412 39.9862 45.9506 41.1665 45.9092C42.4735 45.8655 43.104 45.1106 43.3636 44.5892V37.1819H32.4545ZM32.4545 47.3361V73.1819C32.4545 76.195 34.896 78.6365 37.9091 78.6365C40.9222 78.6365 43.3636 76.195 43.3636 73.1819V47.5739C42.7964 47.8619 42.0982 48.0605 41.2429 48.091C39.6916 48.1434 38.6531 47.4234 37.6778 46.6117C37.0756 46.1121 36.5302 45.5274 35.6684 45.4815C34.128 45.3986 33.264 46.1841 32.4545 47.3361ZM64.6276 33.7717C65.9149 43.9237 69.2945 47.2314 71.7796 50.6568C73.6036 53.1703 75 55.7405 75 60.6365C75 66.9594 69.8684 72.091 63.5455 72.091C57.2225 72.091 52.0909 66.9594 52.0909 60.6365C52.0909 55.7208 53.4895 53.1485 55.3156 50.6394C57.8073 47.2205 61.1869 43.9325 62.4633 33.7739C62.5309 33.2285 62.9956 32.8183 63.5455 32.8183C64.0953 32.8183 64.5578 33.2263 64.6276 33.7717ZM63.5476 39.7979C62.2015 44.9296 60.2225 47.7616 58.4116 50.1572C56.2298 53.0437 54.2727 55.219 54.2727 60.6365C54.2727 65.755 58.4269 69.9092 63.5455 69.9092C68.664 69.9092 72.8182 65.755 72.8182 60.6365C72.8182 55.2408 70.8655 53.0634 68.6836 50.1681C66.8771 47.7659 64.8982 44.9274 63.5476 39.7979ZM62.0945 65.5892C62.6727 65.7594 63.0044 66.3659 62.8342 66.9441C62.6662 67.5201 62.0596 67.8517 61.4815 67.6837C58.4335 66.7914 56.2036 63.9725 56.2036 60.6365C56.2036 59.5565 56.2931 58.5921 56.4502 57.715C56.5571 57.1237 57.1265 56.7288 57.7178 56.8357C58.3113 56.9426 58.7062 57.5099 58.5993 58.1034C58.4618 58.8648 58.3855 59.6983 58.3855 60.6365C58.3855 62.9797 59.952 64.963 62.0945 65.5892Z" fill="#F5F5F5"/>
<circle cx="51" cy="51" r="50.5" stroke="white"/>
<path d="M10.333 111.17C10.7614 111.17 11.167 111.213 11.5498 111.3C11.9326 111.382 12.2653 111.514 12.5479 111.696C12.835 111.879 13.0605 112.113 13.2246 112.4C13.3932 112.688 13.4775 113.034 13.4775 113.439C13.4775 113.722 13.4479 113.975 13.3887 114.198C13.334 114.422 13.252 114.622 13.1426 114.8C13.0378 114.973 12.9102 115.126 12.7598 115.258C12.6094 115.39 12.4385 115.504 12.2471 115.6V115.668C12.4613 115.718 12.6709 115.807 12.876 115.935C13.0856 116.062 13.2725 116.226 13.4365 116.427C13.6006 116.627 13.7327 116.862 13.833 117.131C13.9378 117.395 13.9902 117.689 13.9902 118.013C13.9902 118.56 13.9014 119.024 13.7236 119.407C13.5459 119.785 13.2998 120.093 12.9854 120.33C12.6755 120.562 12.3063 120.733 11.8779 120.843C11.4495 120.948 10.9847 121 10.4834 121H6.66895V111.17H10.333ZM9.69043 115.025C10.0322 115.025 10.3239 115.003 10.5654 114.957C10.807 114.911 11.0029 114.839 11.1533 114.738C11.3083 114.638 11.4222 114.508 11.4951 114.349C11.568 114.189 11.6045 113.995 11.6045 113.768C11.6045 113.535 11.568 113.339 11.4951 113.18C11.4222 113.02 11.3083 112.89 11.1533 112.79C11.0029 112.69 10.807 112.617 10.5654 112.571C10.3239 112.526 10.0322 112.503 9.69043 112.503H8.54199V115.025H9.69043ZM9.93652 119.667C10.6566 119.667 11.1989 119.539 11.5635 119.284C11.9326 119.029 12.1172 118.605 12.1172 118.013C12.1172 117.42 11.9326 116.996 11.5635 116.741C11.1989 116.486 10.6566 116.358 9.93652 116.358H8.54199V119.667H9.93652ZM17.2578 118.211C17.2578 118.589 17.2601 118.906 17.2646 119.161C17.2738 119.416 17.2874 119.64 17.3057 119.831C17.3148 119.931 17.3239 120.02 17.333 120.098C17.3421 120.171 17.3512 120.243 17.3604 120.316C17.3695 120.385 17.3809 120.455 17.3945 120.528C17.4128 120.597 17.4333 120.674 17.4561 120.761C17.1553 120.852 16.8545 120.932 16.5537 121C16.2529 121.064 15.9453 121.118 15.6309 121.164C15.5625 120.959 15.5033 120.743 15.4531 120.515C15.4076 120.282 15.3848 120.029 15.3848 119.756V111.156H17.2578V118.211ZM22.3096 113.733C22.9066 113.733 23.4238 113.827 23.8613 114.014C24.2988 114.201 24.6589 114.46 24.9414 114.793C25.2285 115.121 25.4404 115.513 25.5771 115.969C25.7184 116.42 25.7891 116.912 25.7891 117.445C25.7891 117.979 25.7184 118.473 25.5771 118.929C25.4404 119.384 25.2285 119.779 24.9414 120.111C24.6589 120.439 24.2988 120.697 23.8613 120.884C23.4238 121.071 22.9066 121.164 22.3096 121.164C21.7126 121.164 21.1953 121.071 20.7578 120.884C20.3203 120.697 19.958 120.439 19.6709 120.111C19.3883 119.779 19.1764 119.384 19.0352 118.929C18.8984 118.473 18.8301 117.979 18.8301 117.445C18.8301 116.912 18.8984 116.42 19.0352 115.969C19.1764 115.513 19.3883 115.121 19.6709 114.793C19.958 114.46 20.3203 114.201 20.7578 114.014C21.1953 113.827 21.7126 113.733 22.3096 113.733ZM22.3096 115.073C21.9814 115.073 21.7126 115.135 21.5029 115.258C21.2933 115.381 21.1292 115.549 21.0107 115.764C20.8923 115.978 20.8102 116.231 20.7646 116.522C20.7236 116.81 20.7031 117.117 20.7031 117.445C20.7031 117.778 20.7236 118.09 20.7646 118.382C20.8102 118.669 20.8923 118.92 21.0107 119.134C21.1292 119.348 21.2933 119.517 21.5029 119.64C21.7126 119.763 21.9814 119.824 22.3096 119.824C22.6377 119.824 22.9066 119.763 23.1162 119.64C23.3258 119.517 23.4899 119.348 23.6084 119.134C23.7269 118.92 23.8066 118.669 23.8477 118.382C23.8932 118.09 23.916 117.778 23.916 117.445C23.916 117.117 23.8932 116.81 23.8477 116.522C23.8066 116.231 23.7269 115.978 23.6084 115.764C23.4899 115.549 23.3258 115.381 23.1162 115.258C22.9066 115.135 22.6377 115.073 22.3096 115.073ZM30.6084 113.733C31.2054 113.733 31.7227 113.827 32.1602 114.014C32.5977 114.201 32.9577 114.46 33.2402 114.793C33.5273 115.121 33.7393 115.513 33.876 115.969C34.0173 116.42 34.0879 116.912 34.0879 117.445C34.0879 117.979 34.0173 118.473 33.876 118.929C33.7393 119.384 33.5273 119.779 33.2402 120.111C32.9577 120.439 32.5977 120.697 32.1602 120.884C31.7227 121.071 31.2054 121.164 30.6084 121.164C30.0114 121.164 29.4941 121.071 29.0566 120.884C28.6191 120.697 28.2568 120.439 27.9697 120.111C27.6872 119.779 27.4753 119.384 27.334 118.929C27.1973 118.473 27.1289 117.979 27.1289 117.445C27.1289 116.912 27.1973 116.42 27.334 115.969C27.4753 115.513 27.6872 115.121 27.9697 114.793C28.2568 114.46 28.6191 114.201 29.0566 114.014C29.4941 113.827 30.0114 113.733 30.6084 113.733ZM30.6084 115.073C30.2803 115.073 30.0114 115.135 29.8018 115.258C29.5921 115.381 29.4281 115.549 29.3096 115.764C29.1911 115.978 29.109 116.231 29.0635 116.522C29.0225 116.81 29.002 117.117 29.002 117.445C29.002 117.778 29.0225 118.09 29.0635 118.382C29.109 118.669 29.1911 118.92 29.3096 119.134C29.4281 119.348 29.5921 119.517 29.8018 119.64C30.0114 119.763 30.2803 119.824 30.6084 119.824C30.9365 119.824 31.2054 119.763 31.415 119.64C31.6247 119.517 31.7887 119.348 31.9072 119.134C32.0257 118.92 32.1055 118.669 32.1465 118.382C32.1921 118.09 32.2148 117.778 32.2148 117.445C32.2148 117.117 32.1921 116.81 32.1465 116.522C32.1055 116.231 32.0257 115.978 31.9072 115.764C31.7887 115.549 31.6247 115.381 31.415 115.258C31.2054 115.135 30.9365 115.073 30.6084 115.073ZM41.9766 111.156V118.683V118.977C41.9766 119.332 41.988 119.653 42.0107 119.94C42.0335 120.223 42.0837 120.51 42.1611 120.802C42.0153 120.843 41.874 120.882 41.7373 120.918C41.6006 120.95 41.4639 120.979 41.3271 121.007C41.195 121.039 41.0605 121.066 40.9238 121.089C40.7871 121.116 40.6436 121.141 40.4932 121.164C40.4567 121.068 40.4248 120.977 40.3975 120.891C40.3747 120.804 40.3519 120.711 40.3291 120.61C40.3109 120.51 40.2949 120.401 40.2812 120.282C40.2676 120.164 40.2562 120.025 40.2471 119.865H40.1719C39.6432 120.731 38.8958 121.164 37.9297 121.164C37.4512 121.164 37.0479 121.071 36.7197 120.884C36.3916 120.697 36.125 120.446 35.9199 120.132C35.7194 119.813 35.5736 119.446 35.4824 119.031C35.3958 118.612 35.3525 118.17 35.3525 117.705C35.3525 117.049 35.4391 116.475 35.6123 115.982C35.79 115.486 36.0384 115.071 36.3574 114.738C36.6764 114.406 37.057 114.155 37.499 113.986C37.9456 113.818 38.4378 113.733 38.9756 113.733C39.1715 113.733 39.3607 113.743 39.543 113.761C39.7298 113.779 39.9167 113.802 40.1035 113.829V111.156H41.9766ZM40.124 115.237C39.7594 115.146 39.4199 115.101 39.1055 115.101C38.8366 115.101 38.5859 115.137 38.3535 115.21C38.1257 115.283 37.9274 115.401 37.7588 115.565C37.5902 115.729 37.458 115.941 37.3623 116.201C37.2712 116.461 37.2256 116.778 37.2256 117.151C37.2256 117.539 37.2393 117.894 37.2666 118.218C37.2985 118.541 37.3623 118.822 37.458 119.059C37.5537 119.291 37.6904 119.473 37.8682 119.605C38.0459 119.733 38.2829 119.797 38.5791 119.797C38.7933 119.797 38.9801 119.754 39.1396 119.667C39.3037 119.58 39.4518 119.46 39.584 119.305C39.6842 119.195 39.7777 119.072 39.8643 118.936C39.9508 118.794 40.0374 118.644 40.124 118.484V115.237ZM48.2246 119.298C48.6029 119.444 49.0062 119.567 49.4346 119.667C49.8675 119.763 50.3369 119.811 50.8428 119.811C51.1709 119.811 51.4717 119.781 51.7451 119.722C52.0186 119.662 52.2533 119.569 52.4492 119.441C52.6497 119.314 52.8047 119.152 52.9141 118.956C53.028 118.756 53.085 118.516 53.085 118.238C53.085 117.938 53.0234 117.698 52.9004 117.521C52.7819 117.343 52.6133 117.197 52.3945 117.083C52.1758 116.969 51.9115 116.873 51.6016 116.796C51.2917 116.718 50.9476 116.632 50.5693 116.536C50.1455 116.427 49.7581 116.301 49.4072 116.16C49.0609 116.019 48.7646 115.837 48.5186 115.613C48.2725 115.39 48.0811 115.114 47.9443 114.786C47.8076 114.458 47.7393 114.052 47.7393 113.569C47.7393 113.246 47.7917 112.956 47.8965 112.701C48.0059 112.446 48.1517 112.225 48.334 112.038C48.5163 111.847 48.7259 111.685 48.9629 111.553C49.2044 111.421 49.4551 111.313 49.7148 111.231C49.9792 111.149 50.248 111.09 50.5215 111.054C50.7949 111.017 51.0547 110.999 51.3008 110.999C51.474 110.999 51.6813 111.008 51.9229 111.026C52.1689 111.045 52.4287 111.079 52.7021 111.129C52.9801 111.174 53.265 111.236 53.5566 111.313C53.8529 111.391 54.1377 111.489 54.4111 111.607L53.9258 112.797C53.5612 112.665 53.1807 112.558 52.7842 112.476C52.3923 112.394 51.9798 112.353 51.5469 112.353C51.2734 112.353 51.0228 112.375 50.7949 112.421C50.5671 112.462 50.3688 112.53 50.2002 112.626C50.0361 112.722 49.9085 112.847 49.8174 113.002C49.7262 113.157 49.6807 113.344 49.6807 113.562C49.6807 113.845 49.7354 114.066 49.8447 114.226C49.9587 114.385 50.1204 114.515 50.3301 114.615C50.5397 114.715 50.7949 114.802 51.0957 114.875C51.401 114.943 51.7451 115.028 52.1279 115.128C52.5472 115.237 52.9323 115.367 53.2832 115.518C53.6387 115.663 53.944 115.855 54.1992 116.092C54.459 116.324 54.6618 116.614 54.8076 116.96C54.9535 117.306 55.0264 117.732 55.0264 118.238C55.0264 118.685 54.9557 119.068 54.8145 119.387C54.6732 119.706 54.4886 119.975 54.2607 120.193C54.0329 120.408 53.7731 120.578 53.4814 120.706C53.1898 120.834 52.8936 120.932 52.5928 121C52.292 121.068 52.0003 121.112 51.7178 121.13C51.4352 121.153 51.1868 121.164 50.9727 121.164C50.763 121.16 50.526 121.146 50.2617 121.123C50.002 121.1 49.7285 121.064 49.4414 121.014C49.1543 120.964 48.8626 120.897 48.5664 120.815C48.2747 120.729 47.9922 120.624 47.7188 120.501L48.2246 119.298ZM56.9951 114.239C57.1637 114.171 57.3551 114.107 57.5693 114.048C57.7881 113.989 58.0182 113.936 58.2598 113.891C58.5059 113.84 58.7588 113.802 59.0186 113.774C59.2829 113.747 59.5495 113.733 59.8184 113.733C60.1966 113.733 60.5498 113.763 60.8779 113.822C61.2106 113.882 61.4863 113.979 61.7051 114.116C61.9238 114.253 62.0947 114.44 62.2178 114.677C62.3408 114.909 62.4023 115.203 62.4023 115.559V118.334C62.4023 118.653 62.4046 118.938 62.4092 119.188C62.4137 119.435 62.4229 119.676 62.4365 119.913C62.4456 120 62.4548 120.079 62.4639 120.152C62.473 120.221 62.4821 120.289 62.4912 120.357C62.5049 120.421 62.5186 120.49 62.5322 120.562C62.5505 120.635 62.571 120.715 62.5938 120.802C62.3112 120.866 62.0286 120.927 61.7461 120.986C61.4681 121.046 61.1855 121.103 60.8984 121.157C60.8483 121.03 60.8073 120.9 60.7754 120.768C60.748 120.631 60.723 120.476 60.7002 120.303H60.5977C60.4382 120.467 60.2786 120.604 60.1191 120.713C59.9596 120.822 59.7933 120.911 59.6201 120.979C59.4469 121.048 59.2669 121.096 59.0801 121.123C58.8932 121.15 58.6973 121.164 58.4922 121.164C58.1777 121.164 57.8861 121.125 57.6172 121.048C57.3483 120.975 57.1136 120.861 56.9131 120.706C56.7171 120.551 56.5622 120.355 56.4482 120.118C56.3389 119.877 56.2842 119.594 56.2842 119.271C56.2842 118.997 56.3115 118.753 56.3662 118.539C56.4255 118.325 56.5075 118.133 56.6123 117.965C56.7171 117.796 56.8424 117.648 56.9883 117.521C57.1341 117.393 57.2959 117.281 57.4736 117.186C57.8291 116.994 58.2256 116.864 58.6631 116.796C59.1006 116.723 59.5472 116.687 60.0029 116.687H60.5908V115.798C60.5908 115.629 60.5635 115.497 60.5088 115.401C60.4587 115.301 60.388 115.226 60.2969 115.176C60.2103 115.126 60.1077 115.094 59.9893 115.08C59.8708 115.062 59.7432 115.053 59.6064 115.053C59.2373 115.053 58.8636 115.101 58.4854 115.196C58.1117 115.287 57.7539 115.401 57.4121 115.538L56.9951 114.239ZM60.5908 117.691H60.4541C60.1305 117.696 59.8206 117.721 59.5244 117.767C59.2327 117.808 58.9753 117.881 58.752 117.985C58.5286 118.09 58.3486 118.229 58.2119 118.402C58.0798 118.571 58.0137 118.785 58.0137 119.045C58.0137 119.332 58.0957 119.553 58.2598 119.708C58.4284 119.863 58.6631 119.94 58.9639 119.94C59.1051 119.94 59.251 119.922 59.4014 119.886C59.5518 119.845 59.6999 119.79 59.8457 119.722C59.9915 119.649 60.1283 119.56 60.2559 119.455C60.3835 119.35 60.4951 119.229 60.5908 119.093V117.691ZM71.1045 115.415C71.2549 115.123 71.4098 114.873 71.5693 114.663C71.7288 114.449 71.8997 114.273 72.082 114.137C72.2689 114 72.4694 113.9 72.6836 113.836C72.9023 113.768 73.1484 113.733 73.4219 113.733C73.9915 113.733 74.4382 113.868 74.7617 114.137C75.0898 114.401 75.3223 114.788 75.459 115.299C75.5729 115.727 75.6299 116.242 75.6299 116.844V121H73.7568V116.311C73.7568 116.133 73.7409 115.978 73.709 115.846C73.6816 115.709 73.6406 115.593 73.5859 115.497C73.5085 115.356 73.4036 115.256 73.2715 115.196C73.1439 115.132 72.9935 115.101 72.8203 115.101C72.6517 115.101 72.4899 115.146 72.335 115.237C72.18 115.324 72.0319 115.436 71.8906 115.572C71.7539 115.709 71.6263 115.862 71.5078 116.03C71.3893 116.199 71.2822 116.363 71.1865 116.522C71.1911 116.573 71.1934 116.623 71.1934 116.673C71.1934 116.723 71.1934 116.775 71.1934 116.83V121H69.3203V116.311C69.3203 116.133 69.3044 115.978 69.2725 115.846C69.2451 115.709 69.2041 115.593 69.1494 115.497C69.0719 115.356 68.9671 115.256 68.835 115.196C68.7074 115.132 68.557 115.101 68.3838 115.101C68.2197 115.101 68.0625 115.146 67.9121 115.237C67.7617 115.324 67.6182 115.436 67.4814 115.572C67.3447 115.709 67.2171 115.862 67.0986 116.03C66.9801 116.199 66.873 116.363 66.7773 116.522V121H64.9043V116.618C64.9043 116.354 64.902 116.108 64.8975 115.88C64.8929 115.647 64.8838 115.431 64.8701 115.23C64.8564 115.025 64.8359 114.832 64.8086 114.649C64.7812 114.467 64.7448 114.289 64.6992 114.116C64.9954 114.039 65.2894 113.97 65.5811 113.911C65.8773 113.847 66.1758 113.788 66.4766 113.733C66.5085 113.829 66.5381 113.925 66.5654 114.021C66.5928 114.112 66.6156 114.212 66.6338 114.321C66.652 114.426 66.668 114.542 66.6816 114.67C66.6953 114.798 66.709 114.943 66.7227 115.107H66.8115C66.9574 114.889 67.1032 114.695 67.249 114.526C67.3994 114.353 67.5589 114.21 67.7275 114.096C67.8962 113.977 68.083 113.888 68.2881 113.829C68.4932 113.765 68.7256 113.733 68.9854 113.733C69.5732 113.733 70.0312 113.877 70.3594 114.164C70.6921 114.451 70.9222 114.868 71.0498 115.415H71.1045ZM79.417 115.032C79.9456 114.166 80.693 113.733 81.6592 113.733C82.1377 113.733 82.541 113.827 82.8691 114.014C83.1973 114.201 83.4616 114.453 83.6621 114.772C83.8672 115.087 84.013 115.454 84.0996 115.873C84.1908 116.288 84.2363 116.728 84.2363 117.192C84.2363 117.849 84.1475 118.425 83.9697 118.922C83.7965 119.414 83.5505 119.826 83.2314 120.159C82.9124 120.492 82.5296 120.743 82.083 120.911C81.641 121.08 81.151 121.164 80.6133 121.164C80.4173 121.164 80.2259 121.155 80.0391 121.137C79.8568 121.118 79.6722 121.096 79.4854 121.068V123.741H77.6191V116.215C77.6191 116.001 77.6169 115.8 77.6123 115.613C77.6123 115.426 77.6055 115.249 77.5918 115.08C77.5781 114.911 77.5576 114.747 77.5303 114.588C77.5075 114.424 77.4733 114.26 77.4277 114.096C77.7194 114.014 77.9951 113.945 78.2549 113.891C78.5146 113.836 78.7949 113.784 79.0957 113.733C79.1276 113.829 79.1572 113.92 79.1846 114.007C79.2119 114.093 79.2347 114.187 79.2529 114.287C79.2757 114.387 79.2939 114.497 79.3076 114.615C79.3213 114.734 79.3327 114.873 79.3418 115.032H79.417ZM79.4648 119.66C79.8294 119.751 80.1689 119.797 80.4834 119.797C80.7523 119.797 81.0007 119.76 81.2285 119.688C81.4609 119.615 81.6592 119.496 81.8232 119.332C81.9919 119.168 82.124 118.956 82.2197 118.696C82.3154 118.437 82.3633 118.12 82.3633 117.746C82.3633 117.359 82.3473 117.003 82.3154 116.68C82.2835 116.356 82.2197 116.078 82.124 115.846C82.0283 115.609 81.8916 115.426 81.7139 115.299C81.5361 115.167 81.3014 115.101 81.0098 115.101C80.7956 115.101 80.6064 115.144 80.4424 115.23C80.2829 115.317 80.137 115.438 80.0049 115.593C79.9046 115.702 79.8112 115.827 79.7246 115.969C79.638 116.105 79.5514 116.254 79.4648 116.413V119.66ZM87.4766 118.211C87.4766 118.589 87.4788 118.906 87.4834 119.161C87.4925 119.416 87.5062 119.64 87.5244 119.831C87.5335 119.931 87.5426 120.02 87.5518 120.098C87.5609 120.171 87.57 120.243 87.5791 120.316C87.5882 120.385 87.5996 120.455 87.6133 120.528C87.6315 120.597 87.652 120.674 87.6748 120.761C87.374 120.852 87.0732 120.932 86.7725 121C86.4717 121.064 86.1641 121.118 85.8496 121.164C85.7812 120.959 85.722 120.743 85.6719 120.515C85.6263 120.282 85.6035 120.029 85.6035 119.756V111.156H87.4766V118.211ZM95.3994 120.679C95.2126 120.756 95.0075 120.825 94.7842 120.884C94.5654 120.943 94.3353 120.993 94.0938 121.034C93.8522 121.075 93.6061 121.107 93.3555 121.13C93.1094 121.153 92.8678 121.164 92.6309 121.164C91.4323 121.164 90.5254 120.877 89.9102 120.303C89.2995 119.724 88.9941 118.84 88.9941 117.65C88.9941 117.122 89.0557 116.62 89.1787 116.146C89.3018 115.673 89.5 115.258 89.7734 114.902C90.0514 114.542 90.4137 114.257 90.8604 114.048C91.3115 113.838 91.863 113.733 92.5146 113.733C93.654 113.733 94.5039 114.036 95.0645 114.643C95.625 115.244 95.9053 116.165 95.9053 117.404V117.944H90.8535C90.8626 118.254 90.8991 118.528 90.9629 118.765C91.0267 119.002 91.1315 119.202 91.2773 119.366C91.4277 119.526 91.6237 119.649 91.8652 119.735C92.1068 119.817 92.4098 119.858 92.7744 119.858C93.0934 119.858 93.4375 119.82 93.8066 119.742C94.1758 119.66 94.5609 119.544 94.9619 119.394L95.3994 120.679ZM94.0322 116.728C94.0003 115.602 93.4945 115.039 92.5146 115.039C92.0088 115.039 91.6237 115.185 91.3594 115.477C91.0996 115.768 90.9401 116.185 90.8809 116.728H94.0322Z" fill="white"/>
</svg>
