<svg width="23" height="23" viewBox="0 0 23 23" fill="none" xmlns="http://www.w3.org/2000/svg">
<path d="M0.524561 0.524562C1.22395 -0.174824 2.35795 -0.174854 3.05737 0.524562L11.5 8.96722L19.9427 0.524562C20.6421 -0.174848 21.776 -0.17486 22.4754 0.524562C23.1748 1.22395 23.1749 2.35792 22.4754 3.05734L14.0328 11.5L22.4755 19.9426C23.1749 20.642 23.1748 21.776 22.4754 22.4755C21.776 23.1749 20.6421 23.1748 19.9427 22.4755L11.5 14.0328L3.05736 22.4755C2.35795 23.1748 1.22396 23.1748 0.524567 22.4755C-0.174861 21.776 -0.174849 20.642 0.524567 19.9426L8.96722 11.5L0.524567 3.05734C-0.174843 2.35793 -0.174867 1.224 0.524561 0.524562Z" fill="black"/>
</svg>
