<svg width="30" height="22" viewBox="0 0 30 22" fill="none" xmlns="http://www.w3.org/2000/svg">
<path fill-rule="evenodd" clip-rule="evenodd" d="M3.69257 0H26.309C27.325 0 28.2485 0.419426 28.9161 1.0961C29.5853 1.77278 30 2.70516 30 3.73269V18.2673C30 19.2948 29.5853 20.2288 28.9161 20.9039C28.2485 21.579 27.325 22 26.309 22H3.69257C2.67655 22 1.753 21.5806 1.08541 20.9039C0.416287 20.2288 0.0015414 19.2948 0.0015414 18.2673L0 3.73269C0 2.7052 0.414745 1.77278 1.08387 1.0961C1.753 0.419426 2.67497 0 3.69257 0ZM27.3143 19.8453L18.5185 12.218L17.2974 13.2766C16.6622 13.827 15.8342 14.1061 15.014 14.1108C14.1907 14.1154 13.3643 13.8426 12.7306 13.2953L11.4895 12.2195L2.69056 19.85C2.98041 20.0371 3.32424 20.1478 3.69273 20.1478H26.3091C26.6776 20.1478 27.0229 20.0355 27.3143 19.8453ZM1.83316 18.1583L10.0862 10.9999L1.83316 3.84157V18.1583ZM2.6904 2.15158L12.0766 10.2922L12.0905 10.3031L13.9175 11.8888C14.2089 12.1414 14.6036 12.2662 15.006 12.2646C15.4099 12.263 15.8108 12.1321 16.1084 11.8733L17.9153 10.3063L17.9308 10.2922L27.3126 2.15478C27.0228 1.96456 26.6774 1.8523 26.3074 1.8523H3.69258C3.32409 1.8523 2.98026 1.96291 2.6904 2.15158ZM28.1668 3.84796L19.9212 10.9999L28.1668 18.1519V3.84796Z" fill="#4CA7DE"/>
</svg>
