<svg width="22" height="22" viewBox="0 0 22 22" fill="none" xmlns="http://www.w3.org/2000/svg">
<path fill-rule="evenodd" clip-rule="evenodd" d="M14.1605 10.8927L13.1945 11.8388C12.4554 12.5634 12.0306 13.5726 12.0306 14.608H9.96808C9.96808 13.0226 10.6185 11.4764 11.7508 10.3654L12.7091 9.427C13.257 8.87838 13.5011 8.107 13.3718 7.31707C13.2165 6.37175 12.4582 5.57632 11.5294 5.38244C10.7828 5.22638 10.056 5.39825 9.48334 5.86507C8.91752 6.32432 8.59308 7.00562 8.59308 7.73299H6.53058C6.53058 6.38137 7.1328 5.11775 8.18261 4.26387C9.23173 3.41068 10.6026 3.0855 11.9501 3.36325C13.7225 3.73244 15.112 5.1872 15.4069 6.98295C15.6448 8.43701 15.1903 9.8615 14.1605 10.8927ZM10.9993 18.733C10.2403 18.733 9.62433 18.1177 9.62433 17.358C9.62433 16.599 10.2403 15.983 10.9993 15.983C11.759 15.983 12.3743 16.599 12.3743 17.358C12.3743 18.1177 11.759 18.733 10.9993 18.733ZM11 0C4.92456 0 0 4.92456 0 11C0 17.0748 4.92456 22 11 22C17.0748 22 22 17.0748 22 11C22 4.92456 17.0748 0 11 0Z" fill="white"/>
</svg>
