<svg width="102" height="126" viewBox="0 0 102 126" fill="none" xmlns="http://www.w3.org/2000/svg">
<path d="M19.4512 111.17V112.571H15.4795V114.8H18.2891V116.201H15.4795V121H13.5723V111.17H19.4512ZM21.2764 114.239C21.445 114.171 21.6364 114.107 21.8506 114.048C22.0693 113.989 22.2995 113.936 22.541 113.891C22.7871 113.84 23.04 113.802 23.2998 113.774C23.5641 113.747 23.8307 113.733 24.0996 113.733C24.4779 113.733 24.8311 113.763 25.1592 113.822C25.4919 113.882 25.7676 113.979 25.9863 114.116C26.2051 114.253 26.376 114.44 26.499 114.677C26.6221 114.909 26.6836 115.203 26.6836 115.559V118.334C26.6836 118.653 26.6859 118.938 26.6904 119.188C26.695 119.435 26.7041 119.676 26.7178 119.913C26.7269 120 26.736 120.079 26.7451 120.152C26.7542 120.221 26.7633 120.289 26.7725 120.357C26.7861 120.421 26.7998 120.49 26.8135 120.562C26.8317 120.635 26.8522 120.715 26.875 120.802C26.5924 120.866 26.3099 120.927 26.0273 120.986C25.7493 121.046 25.4668 121.103 25.1797 121.157C25.1296 121.03 25.0885 120.9 25.0566 120.768C25.0293 120.631 25.0042 120.476 24.9814 120.303H24.8789C24.7194 120.467 24.5599 120.604 24.4004 120.713C24.2409 120.822 24.0745 120.911 23.9014 120.979C23.7282 121.048 23.5482 121.096 23.3613 121.123C23.1745 121.15 22.9785 121.164 22.7734 121.164C22.459 121.164 22.1673 121.125 21.8984 121.048C21.6296 120.975 21.3949 120.861 21.1943 120.706C20.9984 120.551 20.8434 120.355 20.7295 120.118C20.6201 119.877 20.5654 119.594 20.5654 119.271C20.5654 118.997 20.5928 118.753 20.6475 118.539C20.7067 118.325 20.7887 118.133 20.8936 117.965C20.9984 117.796 21.1237 117.648 21.2695 117.521C21.4154 117.393 21.5771 117.281 21.7549 117.186C22.1104 116.994 22.5068 116.864 22.9443 116.796C23.3818 116.723 23.8285 116.687 24.2842 116.687H24.8721V115.798C24.8721 115.629 24.8447 115.497 24.79 115.401C24.7399 115.301 24.6693 115.226 24.5781 115.176C24.4915 115.126 24.389 115.094 24.2705 115.08C24.152 115.062 24.0244 115.053 23.8877 115.053C23.5186 115.053 23.1449 115.101 22.7666 115.196C22.3929 115.287 22.0352 115.401 21.6934 115.538L21.2764 114.239ZM24.8721 117.691H24.7354C24.4118 117.696 24.1019 117.721 23.8057 117.767C23.514 117.808 23.2565 117.881 23.0332 117.985C22.8099 118.09 22.6299 118.229 22.4932 118.402C22.361 118.571 22.2949 118.785 22.2949 119.045C22.2949 119.332 22.377 119.553 22.541 119.708C22.7096 119.863 22.9443 119.94 23.2451 119.94C23.3864 119.94 23.5322 119.922 23.6826 119.886C23.833 119.845 23.9811 119.79 24.127 119.722C24.2728 119.649 24.4095 119.56 24.5371 119.455C24.6647 119.35 24.7764 119.229 24.8721 119.093V117.691ZM31.4688 113.74C31.9062 113.74 32.3346 113.779 32.7539 113.856C33.1732 113.934 33.54 114.036 33.8545 114.164C33.7907 114.346 33.7155 114.531 33.6289 114.718C33.5469 114.905 33.4626 115.082 33.376 115.251C33.1436 115.174 32.8724 115.107 32.5625 115.053C32.2572 114.998 31.9541 114.971 31.6533 114.971C31.4801 114.971 31.3138 114.984 31.1543 115.012C30.9993 115.035 30.8626 115.073 30.7441 115.128C30.6302 115.183 30.5391 115.256 30.4707 115.347C30.4023 115.433 30.3682 115.54 30.3682 115.668C30.3682 115.846 30.4115 115.987 30.498 116.092C30.5892 116.192 30.7077 116.274 30.8535 116.338C31.0039 116.402 31.1771 116.454 31.373 116.495C31.569 116.536 31.7741 116.582 31.9883 116.632C32.321 116.709 32.6309 116.807 32.918 116.926C33.2096 117.044 33.4603 117.197 33.6699 117.384C33.8841 117.566 34.0482 117.792 34.1621 118.061C34.2806 118.325 34.3376 118.644 34.333 119.018C34.3239 119.419 34.2282 119.756 34.0459 120.029C33.8682 120.303 33.6312 120.524 33.335 120.692C33.0433 120.861 32.7083 120.982 32.3301 121.055C31.9564 121.128 31.5736 121.164 31.1816 121.164C30.9219 121.164 30.6621 121.15 30.4023 121.123C30.1426 121.096 29.8942 121.055 29.6572 121C29.4202 120.95 29.1992 120.891 28.9941 120.822C28.7891 120.749 28.609 120.67 28.4541 120.583C28.5316 120.405 28.6182 120.221 28.7139 120.029C28.8096 119.838 28.903 119.66 28.9941 119.496C29.1217 119.551 29.2676 119.605 29.4316 119.66C29.6003 119.71 29.7757 119.756 29.958 119.797C30.1449 119.833 30.334 119.865 30.5254 119.893C30.7214 119.915 30.9128 119.927 31.0996 119.927C31.291 119.927 31.4733 119.911 31.6465 119.879C31.8197 119.847 31.9701 119.797 32.0977 119.729C32.2298 119.656 32.3324 119.562 32.4053 119.448C32.4827 119.33 32.5215 119.186 32.5215 119.018C32.5215 118.826 32.4759 118.674 32.3848 118.56C32.2982 118.446 32.1797 118.354 32.0293 118.286C31.8789 118.218 31.7057 118.163 31.5098 118.122C31.3138 118.081 31.111 118.04 30.9014 117.999C30.5824 117.935 30.2793 117.844 29.9922 117.726C29.7051 117.607 29.4544 117.454 29.2402 117.268C29.026 117.081 28.8551 116.855 28.7275 116.591C28.6045 116.322 28.5475 116.007 28.5566 115.647C28.5612 115.292 28.6478 114.993 28.8164 114.752C28.985 114.506 29.2038 114.31 29.4727 114.164C29.7415 114.014 30.0492 113.907 30.3955 113.843C30.7419 113.774 31.0996 113.74 31.4688 113.74ZM38.6533 112.264V113.891H41.0459V115.258H38.6533V118.669C38.6533 118.892 38.6624 119.077 38.6807 119.223C38.7035 119.368 38.7422 119.485 38.7969 119.571C38.8516 119.653 38.9268 119.713 39.0225 119.749C39.1182 119.781 39.2412 119.797 39.3916 119.797C39.5374 119.797 39.7061 119.781 39.8975 119.749C40.0934 119.717 40.3236 119.672 40.5879 119.612C40.6152 119.694 40.6449 119.79 40.6768 119.899C40.7132 120.009 40.7474 120.123 40.7793 120.241C40.8158 120.355 40.8499 120.467 40.8818 120.576C40.9137 120.681 40.9434 120.774 40.9707 120.856C40.8431 120.902 40.6927 120.945 40.5195 120.986C40.3509 121.023 40.1732 121.055 39.9863 121.082C39.7995 121.109 39.6104 121.13 39.4189 121.144C39.2275 121.157 39.0475 121.164 38.8789 121.164C38.7194 121.164 38.5622 121.157 38.4072 121.144C38.2523 121.13 38.1042 121.105 37.9629 121.068C37.8262 121.036 37.6986 120.993 37.5801 120.938C37.4616 120.884 37.359 120.813 37.2725 120.727C37.0719 120.531 36.9398 120.262 36.876 119.92C36.8122 119.574 36.7803 119.134 36.7803 118.601V115.258H35.7549V113.891H36.7803V112.264H38.6533ZM50.3564 111.17C50.7985 111.17 51.2064 111.227 51.5801 111.341C51.9538 111.45 52.2773 111.617 52.5508 111.84C52.8242 112.063 53.0361 112.346 53.1865 112.688C53.3415 113.029 53.4189 113.428 53.4189 113.884C53.4189 114.253 53.3574 114.59 53.2344 114.896C53.1113 115.201 52.9382 115.467 52.7148 115.695C52.4915 115.919 52.2272 116.101 51.9219 116.242C51.6165 116.383 51.2793 116.477 50.9102 116.522L50.9033 116.543C51.0856 116.648 51.2633 116.796 51.4365 116.987C51.6097 117.174 51.776 117.379 51.9355 117.603C52.0996 117.826 52.2546 118.054 52.4004 118.286C52.5508 118.519 52.6875 118.733 52.8105 118.929L54.1641 121H52.0107C51.8512 120.736 51.6712 120.435 51.4707 120.098C51.2747 119.756 51.0765 119.416 50.876 119.079C50.68 118.742 50.4932 118.43 50.3154 118.143C50.1423 117.851 50.001 117.623 49.8916 117.459C49.7868 117.309 49.6888 117.181 49.5977 117.076C49.5111 116.971 49.4222 116.887 49.3311 116.823C49.2399 116.759 49.1419 116.714 49.0371 116.687C48.9368 116.659 48.8229 116.643 48.6953 116.639H48.6406V121H46.7334V111.17H50.3564ZM49.625 115.326C49.9212 115.326 50.1833 115.303 50.4111 115.258C50.6436 115.208 50.8372 115.128 50.9922 115.019C51.1517 114.905 51.2725 114.757 51.3545 114.574C51.4365 114.392 51.4775 114.169 51.4775 113.904C51.4775 113.64 51.4365 113.417 51.3545 113.234C51.2725 113.052 51.1517 112.906 50.9922 112.797C50.8372 112.683 50.6436 112.603 50.4111 112.558C50.1833 112.507 49.9212 112.482 49.625 112.482H48.6406V115.326H49.625ZM61.5811 120.679C61.3942 120.756 61.1891 120.825 60.9658 120.884C60.7471 120.943 60.5169 120.993 60.2754 121.034C60.0339 121.075 59.7878 121.107 59.5371 121.13C59.291 121.153 59.0495 121.164 58.8125 121.164C57.6139 121.164 56.707 120.877 56.0918 120.303C55.4811 119.724 55.1758 118.84 55.1758 117.65C55.1758 117.122 55.2373 116.62 55.3604 116.146C55.4834 115.673 55.6816 115.258 55.9551 114.902C56.2331 114.542 56.5954 114.257 57.042 114.048C57.4932 113.838 58.0446 113.733 58.6963 113.733C59.8356 113.733 60.6855 114.036 61.2461 114.643C61.8066 115.244 62.0869 116.165 62.0869 117.404V117.944H57.0352C57.0443 118.254 57.0807 118.528 57.1445 118.765C57.2083 119.002 57.3132 119.202 57.459 119.366C57.6094 119.526 57.8053 119.649 58.0469 119.735C58.2884 119.817 58.5915 119.858 58.9561 119.858C59.2751 119.858 59.6191 119.82 59.9883 119.742C60.3574 119.66 60.7425 119.544 61.1436 119.394L61.5811 120.679ZM60.2139 116.728C60.182 115.602 59.6761 115.039 58.6963 115.039C58.1904 115.039 57.8053 115.185 57.541 115.477C57.2812 115.768 57.1217 116.185 57.0625 116.728H60.2139ZM66.4277 113.74C66.8652 113.74 67.2936 113.779 67.7129 113.856C68.1322 113.934 68.499 114.036 68.8135 114.164C68.7497 114.346 68.6745 114.531 68.5879 114.718C68.5059 114.905 68.4215 115.082 68.335 115.251C68.1025 115.174 67.8314 115.107 67.5215 115.053C67.2161 114.998 66.9131 114.971 66.6123 114.971C66.4391 114.971 66.2728 114.984 66.1133 115.012C65.9583 115.035 65.8216 115.073 65.7031 115.128C65.5892 115.183 65.498 115.256 65.4297 115.347C65.3613 115.433 65.3271 115.54 65.3271 115.668C65.3271 115.846 65.3704 115.987 65.457 116.092C65.5482 116.192 65.6667 116.274 65.8125 116.338C65.9629 116.402 66.1361 116.454 66.332 116.495C66.528 116.536 66.7331 116.582 66.9473 116.632C67.2799 116.709 67.5898 116.807 67.877 116.926C68.1686 117.044 68.4193 117.197 68.6289 117.384C68.8431 117.566 69.0072 117.792 69.1211 118.061C69.2396 118.325 69.2965 118.644 69.292 119.018C69.2829 119.419 69.1872 119.756 69.0049 120.029C68.8271 120.303 68.5902 120.524 68.2939 120.692C68.0023 120.861 67.6673 120.982 67.2891 121.055C66.9154 121.128 66.5326 121.164 66.1406 121.164C65.8809 121.164 65.6211 121.15 65.3613 121.123C65.1016 121.096 64.8532 121.055 64.6162 121C64.3792 120.95 64.1582 120.891 63.9531 120.822C63.748 120.749 63.568 120.67 63.4131 120.583C63.4906 120.405 63.5771 120.221 63.6729 120.029C63.7686 119.838 63.862 119.66 63.9531 119.496C64.0807 119.551 64.2266 119.605 64.3906 119.66C64.5592 119.71 64.7347 119.756 64.917 119.797C65.1038 119.833 65.293 119.865 65.4844 119.893C65.6803 119.915 65.8717 119.927 66.0586 119.927C66.25 119.927 66.4323 119.911 66.6055 119.879C66.7786 119.847 66.929 119.797 67.0566 119.729C67.1888 119.656 67.2913 119.562 67.3643 119.448C67.4417 119.33 67.4805 119.186 67.4805 119.018C67.4805 118.826 67.4349 118.674 67.3438 118.56C67.2572 118.446 67.1387 118.354 66.9883 118.286C66.8379 118.218 66.6647 118.163 66.4688 118.122C66.2728 118.081 66.07 118.04 65.8604 117.999C65.5413 117.935 65.2383 117.844 64.9512 117.726C64.6641 117.607 64.4134 117.454 64.1992 117.268C63.985 117.081 63.8141 116.855 63.6865 116.591C63.5635 116.322 63.5065 116.007 63.5156 115.647C63.5202 115.292 63.6068 114.993 63.7754 114.752C63.944 114.506 64.1628 114.31 64.4316 114.164C64.7005 114.014 65.0081 113.907 65.3545 113.843C65.7008 113.774 66.0586 113.74 66.4277 113.74ZM77.502 113.891V118.279C77.502 118.648 77.5042 118.958 77.5088 119.209C77.5179 119.455 77.5316 119.674 77.5498 119.865C77.5589 119.961 77.568 120.045 77.5771 120.118C77.5863 120.191 77.5954 120.262 77.6045 120.33C77.6182 120.398 77.6318 120.469 77.6455 120.542C77.6637 120.615 77.6842 120.695 77.707 120.781C77.4108 120.859 77.1146 120.929 76.8184 120.993C76.5267 121.052 76.2305 121.109 75.9297 121.164C75.8932 121.068 75.8613 120.975 75.834 120.884C75.8112 120.788 75.7907 120.688 75.7725 120.583C75.7542 120.474 75.7383 120.355 75.7246 120.228C75.7109 120.1 75.6973 119.954 75.6836 119.79H75.5947C75.4443 120.018 75.2871 120.218 75.123 120.392C74.9635 120.56 74.7904 120.704 74.6035 120.822C74.4212 120.936 74.2184 121.021 73.9951 121.075C73.7764 121.134 73.5326 121.164 73.2637 121.164C72.694 121.164 72.2451 121.05 71.917 120.822C71.5934 120.59 71.3587 120.262 71.2129 119.838C71.1263 119.592 71.0648 119.321 71.0283 119.024C70.9919 118.728 70.9736 118.405 70.9736 118.054V113.891H72.8467V118.594C72.8467 118.986 72.9355 119.284 73.1133 119.489C73.2956 119.694 73.5417 119.797 73.8516 119.797C74.0247 119.797 74.1934 119.756 74.3574 119.674C74.526 119.592 74.6878 119.485 74.8428 119.353C74.9977 119.22 75.1413 119.07 75.2734 118.901C75.4056 118.728 75.5241 118.555 75.6289 118.382V113.891H77.502ZM81.207 118.211C81.207 118.589 81.2093 118.906 81.2139 119.161C81.223 119.416 81.2367 119.64 81.2549 119.831C81.264 119.931 81.2731 120.02 81.2822 120.098C81.2913 120.171 81.3005 120.243 81.3096 120.316C81.3187 120.385 81.3301 120.455 81.3438 120.528C81.362 120.597 81.3825 120.674 81.4053 120.761C81.1045 120.852 80.8037 120.932 80.5029 121C80.2021 121.064 79.8945 121.118 79.5801 121.164C79.5117 120.959 79.4525 120.743 79.4023 120.515C79.3568 120.282 79.334 120.029 79.334 119.756V111.156H81.207V118.211ZM85.7256 112.264V113.891H88.1182V115.258H85.7256V118.669C85.7256 118.892 85.7347 119.077 85.7529 119.223C85.7757 119.368 85.8145 119.485 85.8691 119.571C85.9238 119.653 85.999 119.713 86.0947 119.749C86.1904 119.781 86.3135 119.797 86.4639 119.797C86.6097 119.797 86.7783 119.781 86.9697 119.749C87.1657 119.717 87.3958 119.672 87.6602 119.612C87.6875 119.694 87.7171 119.79 87.749 119.899C87.7855 120.009 87.8197 120.123 87.8516 120.241C87.888 120.355 87.9222 120.467 87.9541 120.576C87.986 120.681 88.0156 120.774 88.043 120.856C87.9154 120.902 87.765 120.945 87.5918 120.986C87.4232 121.023 87.2454 121.055 87.0586 121.082C86.8717 121.109 86.6826 121.13 86.4912 121.144C86.2998 121.157 86.1198 121.164 85.9512 121.164C85.7917 121.164 85.6344 121.157 85.4795 121.144C85.3245 121.13 85.1764 121.105 85.0352 121.068C84.8984 121.036 84.7708 120.993 84.6523 120.938C84.5339 120.884 84.4313 120.813 84.3447 120.727C84.1442 120.531 84.012 120.262 83.9482 119.92C83.8844 119.574 83.8525 119.134 83.8525 118.601V115.258H82.8271V113.891H83.8525V112.264H85.7256Z" fill="white"/>
<path d="M27.1579 57.8331C28.3649 63.6674 31.6844 68.7974 36.4121 72.4187C40.7375 75.6376 45.8676 77.4482 51.2995 77.4482C52.406 77.4482 53.613 77.3476 54.7195 77.247C61.2579 76.3417 67.0921 72.9216 71.0151 67.5904L69.808 66.6851C66.0862 71.614 60.6543 74.8329 54.5183 75.7382C53.4119 75.9393 52.3054 75.9393 51.1989 75.9393C46.1694 75.9393 41.3411 74.3299 37.2169 71.2116C32.6903 67.7915 29.6726 62.9632 28.4655 57.4308L31.785 59.5432L32.5897 58.2355L27.1579 54.7148L23.6372 60.1467L24.9449 60.9514L27.1579 57.8331Z" fill="white" stroke="white" stroke-width="0.6"/>
<path d="M75.743 32.6856L79.9678 33.3898L80.2695 31.8809L73.2282 30.6738L72.0212 37.7151L73.53 38.0169L74.3347 33.3898C83.3878 44.0523 83.8908 59.5432 75.3406 70.8092C65.3822 83.9865 46.4713 86.7025 33.294 76.7441C26.8562 71.7146 22.7321 64.5727 21.6256 56.6261C21.4244 55.1172 21.3238 53.6084 21.3238 52.2001H19.8149C19.8149 53.8095 19.9155 55.3184 20.1167 56.9278C21.2232 65.1762 25.6492 72.7205 32.3887 77.8505C38.0217 82.1759 44.7613 84.1877 51.2996 84.1877C60.8557 84.1877 70.3111 79.8624 76.5477 71.614C85.3996 59.8449 84.9973 43.8511 75.743 32.6856Z" fill="white" stroke="white" stroke-width="0.6"/>
<path d="M39.028 60.6502L40.2351 62.7626L40.4363 60.3484C40.6375 57.9342 42.6493 55.9224 44.3593 54.9165C44.6611 55.6207 44.8622 56.3248 45.164 57.0289L45.3652 57.4313H49.7912L50.1935 60.9519H55.4242L55.8266 57.4313H60.2525L60.4537 57.0289C60.7555 56.3248 61.0572 55.6207 61.2584 54.9165C62.9685 55.8219 64.9803 57.9342 65.1814 60.2478L65.3826 62.662L66.5897 60.5496C67.3944 59.1413 67.8974 57.4313 67.998 55.7213C68.1991 52.1 65.6844 48.68 62.9685 47.3723C63.2702 45.3605 63.3708 43.2481 63.3708 41.1357C63.3708 28.7631 53.8148 18.9053 53.3118 18.503L52.8089 18L52.3059 18.503C51.9036 18.9053 42.2469 28.7631 42.2469 41.1357C42.2469 43.2481 42.3475 45.3605 42.6493 47.3723C39.9333 48.68 37.318 52.1 37.6198 55.7213C37.6198 57.6325 38.1227 59.3425 39.028 60.6502ZM51.5012 59.5437L50.5959 51.6977C50.4953 51.1947 50.6965 50.7923 50.9982 50.39C51.3 49.9876 51.803 49.7864 52.2053 49.7864H53.3118C53.8148 49.7864 54.2171 49.9876 54.5189 50.39C54.8207 50.7923 55.0218 51.1947 54.9213 51.6977L54.0159 59.5437H51.5012ZM66.4891 55.7213C66.3885 56.526 66.2879 57.2301 66.0867 58.0348C65.1814 55.9224 63.2702 54.313 61.7614 53.5083C62.1637 52.1 62.4655 50.5912 62.7673 49.0823C64.5779 50.1888 66.6903 52.8041 66.4891 55.7213ZM52.8089 20.213C54.8207 22.5266 61.862 31.0767 61.862 41.2363C61.862 46.7687 60.9567 51.9994 59.2466 56.023H55.9272L56.4301 51.7983C56.5307 50.8929 56.2289 49.9876 55.6254 49.2835C55.0218 48.5794 54.1165 48.177 53.2112 48.177H52.1047C51.1994 48.177 50.2941 48.5794 49.6906 49.2835C49.087 49.9876 48.7853 50.8929 48.8858 51.7983L49.3888 56.023H46.1699C44.4599 51.9994 43.5546 46.7687 43.5546 41.2363C43.7558 31.0767 50.7971 22.5266 52.8089 20.213ZM42.8504 49.0823C43.1522 50.5912 43.454 52.1 43.8563 53.5083C42.2469 54.313 40.4363 55.9224 39.4304 58.0348C39.2292 57.3307 39.028 56.526 39.028 55.7213C38.8268 52.8041 40.9392 50.1888 42.8504 49.0823Z" fill="white" stroke="white" stroke-width="0.6"/>
<path d="M52.8085 40.8343C55.2226 40.8343 57.2344 38.8225 57.2344 36.4084C57.2344 33.9942 55.2226 31.9824 52.8085 31.9824C50.3943 31.9824 48.3825 33.9942 48.3825 36.4084C48.2819 38.8225 50.2937 40.8343 52.8085 40.8343ZM52.8085 33.3907C54.4179 33.3907 55.7256 34.6984 55.7256 36.3078C55.7256 37.9172 54.4179 39.2249 52.8085 39.2249C51.199 39.2249 49.8914 37.9172 49.8914 36.3078C49.7908 34.6984 51.0985 33.3907 52.8085 33.3907Z" fill="white" stroke="white" stroke-width="0.6"/>
<path d="M48.3829 62.3604H46.874V67.7922H48.3829V62.3604Z" fill="white" stroke="white" stroke-width="0.6"/>
<path d="M53.5125 65.377H52.0037V70.6076H53.5125V65.377Z" fill="white" stroke="white" stroke-width="0.6"/>
<path d="M58.6424 62.3604H57.1335V67.7922H58.6424V62.3604Z" fill="white" stroke="white" stroke-width="0.6"/>
<circle cx="51" cy="51" r="50.5" stroke="white"/>
</svg>
