<svg width="102" height="102" viewBox="0 0 102 102" fill="none" xmlns="http://www.w3.org/2000/svg">
<path fill-rule="evenodd" clip-rule="evenodd" d="M41.1177 76.9386L41.0915 75.5566C41.0875 75.3181 41.0523 75.081 40.9869 74.851L40.1514 71.819H34.3104C33.6982 71.8177 33.1114 71.58 32.6784 71.158C32.2454 70.736 32.0015 70.1641 32 69.5672V25.2518C32.0015 24.6549 32.2454 24.0829 32.6784 23.661C33.1114 23.239 33.6982 23.0013 34.3104 23H67.6896C68.3019 23.0013 68.8886 23.239 69.3216 23.661C69.7546 24.0829 69.9985 24.6549 70 25.2518V69.5672C69.9985 70.1641 69.7546 70.736 69.3216 71.158C68.8886 71.58 68.3019 71.8177 67.6896 71.819H63.568L61.9813 74.7434C61.7424 75.1701 61.6208 75.6498 61.6284 76.1359V76.8969C61.6309 77.1731 61.5771 77.4471 61.4701 77.7029C61.3631 77.9587 61.2049 78.1912 61.0049 78.3869C60.8049 78.5826 60.567 78.7375 60.305 78.8428C60.043 78.948 59.7622 79.0015 59.4788 79H43.2679C42.7042 78.9989 42.1634 78.7826 41.7615 78.3973C41.3595 78.0121 41.1284 77.488 41.1177 76.9386ZM47.1279 40.4842C47.489 41.1839 48.0424 41.772 48.7263 42.1829C49.4103 42.5938 50.1979 42.8115 51.0013 42.8115C51.8047 42.8115 52.5923 42.5938 53.2762 42.1829C53.9602 41.772 54.5136 41.1839 54.8747 40.4842C54.9172 40.4073 54.9434 40.3227 54.9518 40.2357C54.9603 40.1487 54.9508 40.0609 54.9238 39.9775C54.8969 39.8941 54.8531 39.8168 54.795 39.7502C54.737 39.6836 54.6658 39.629 54.5857 39.5896C54.5056 39.5503 54.4183 39.5269 54.3288 39.521C54.2394 39.5151 54.1496 39.5267 54.0648 39.5552C53.98 39.5837 53.9019 39.6284 53.8352 39.6868C53.7684 39.7451 53.7143 39.8159 53.6761 39.895C53.4253 40.3766 53.0427 40.7811 52.5706 41.0636C52.0984 41.3462 51.5553 41.4958 51.0013 41.4958C50.4473 41.4958 49.9041 41.3462 49.432 41.0636C48.9599 40.7811 48.5772 40.3766 48.3265 39.895C48.2882 39.8159 48.2341 39.7451 48.1674 39.6868C48.1006 39.6284 48.0225 39.5837 47.9377 39.5552C47.853 39.5267 47.7632 39.5151 47.6737 39.521C47.5843 39.5269 47.4969 39.5503 47.4168 39.5896C47.3368 39.629 47.2656 39.6836 47.2075 39.7502C47.1495 39.8168 47.1057 39.8941 47.0787 39.9775C47.0518 40.0609 47.0423 40.1487 47.0507 40.2357C47.0592 40.3227 47.0854 40.4073 47.1279 40.4842ZM53.671 38.0999C53.8459 38.0947 54.0118 38.0232 54.1336 37.9008C54.2555 37.7783 54.3236 37.6144 54.3236 37.4438C54.3236 37.2732 54.2555 37.1093 54.1336 36.9868C54.0118 36.8643 53.8459 36.7929 53.671 36.7877C53.5809 36.785 53.4911 36.7999 53.407 36.8317C53.3229 36.8634 53.2463 36.9113 53.1815 36.9725C53.1168 37.0337 53.0653 37.107 53.0302 37.1879C52.995 37.2689 52.9769 37.3559 52.9769 37.4438C52.9769 37.5317 52.995 37.6187 53.0302 37.6997C53.0653 37.7806 53.1168 37.8539 53.1815 37.915C53.2463 37.9762 53.3229 38.0241 53.407 38.0559C53.4911 38.0876 53.5809 38.1026 53.671 38.0999ZM48.3309 38.0999C48.4211 38.1026 48.5108 38.0876 48.5949 38.0559C48.679 38.0241 48.7557 37.9762 48.8204 37.915C48.8851 37.8539 48.9366 37.7806 48.9717 37.6997C49.0069 37.6187 49.025 37.5317 49.025 37.4438C49.025 37.3559 49.0069 37.2689 48.9717 37.1879C48.9366 37.107 48.8851 37.0337 48.8204 36.9725C48.7557 36.9113 48.679 36.8634 48.5949 36.8317C48.5108 36.7999 48.4211 36.785 48.3309 36.7877C48.2408 36.785 48.151 36.7999 48.067 36.8317C47.9829 36.8634 47.9062 36.9113 47.8415 36.9725C47.7767 37.0337 47.7253 37.107 47.6901 37.1879C47.655 37.2689 47.6369 37.3559 47.6369 37.4438C47.6369 37.5317 47.655 37.6187 47.6901 37.6997C47.7253 37.7806 47.7767 37.8539 47.8415 37.915C47.9062 37.9762 47.9829 38.0241 48.067 38.0559C48.151 38.0876 48.2408 38.1026 48.3309 38.0999ZM45.5406 44.0651C44.3826 42.8425 43.6915 41.2686 43.5834 39.6079C43.4753 37.9471 43.9568 36.3007 44.947 34.9452C45.9372 33.5898 47.3758 32.6079 49.021 32.1645C50.6663 31.7212 52.4179 31.8434 53.9816 32.5107C55.5453 33.178 56.8258 34.3496 57.6079 35.8287C58.39 37.3079 58.626 39.0044 58.2764 40.6332C57.9268 42.262 57.0128 43.7239 55.6879 44.7732C54.3631 45.8225 52.7082 46.3953 51.0013 46.3953C50.8577 46.3953 50.7134 46.3916 50.5698 46.3835V54.7031C51.1317 54.3489 51.8013 54.1937 52.4666 54.2633C53.1319 54.333 53.7524 54.6233 54.2243 55.0858C54.5076 55.3622 54.7304 55.6917 54.8791 56.0545C55.2596 55.7699 55.7057 55.5804 56.1786 55.5027C56.6515 55.4249 57.1367 55.4613 57.5919 55.6087C58.047 55.756 58.4582 56.0098 58.7894 56.3478C59.1207 56.6859 59.362 57.0979 59.4922 57.5479C59.9308 57.2458 60.446 57.067 60.9817 57.031C61.5174 56.995 62.0529 57.103 62.5299 57.3435C63.0069 57.5839 63.4069 57.9474 63.6864 58.3944C63.9659 58.8414 64.1142 59.3546 64.1149 59.8781V61.7777H64.5355C64.7084 61.7769 64.8739 61.7096 64.9963 61.5906C65.1186 61.4716 65.1879 61.3103 65.1891 61.1418V28.399C65.1884 28.2301 65.1193 28.0684 64.9969 27.9489C64.8745 27.8295 64.7087 27.762 64.5355 27.7612H37.467C37.2939 27.7622 37.128 27.8297 37.0056 27.9491C36.8831 28.0685 36.8139 28.2301 36.8129 28.399V61.1418C36.8139 61.3106 36.8831 61.4723 37.0056 61.5917C37.128 61.7111 37.2939 61.7786 37.467 61.7795H38.1582C38.2226 61.6259 38.2974 61.4767 38.3823 61.3328C38.6208 60.9264 38.9394 60.5701 39.3197 60.2841C39.7 59.9981 40.1345 59.7883 40.5982 59.6665C41.3754 59.467 42.1983 59.5216 42.9407 59.8218C43.6831 60.122 44.3041 60.6512 44.7084 61.3284V46.0574C44.7076 45.3136 45.0054 44.5989 45.5381 44.0663L45.5406 44.0651ZM50.3835 45.0538L50.4811 45.0625C50.6503 45.0768 50.8232 45.0837 51.0013 45.0837C52.4145 45.0851 53.7844 44.6085 54.8773 43.7351C55.9703 42.8618 56.7186 41.6458 56.9947 40.2947C57.2707 38.9435 57.0573 37.5408 56.391 36.3258C55.7246 35.1109 54.6465 34.159 53.3406 33.6325C52.0347 33.1059 50.5819 33.0374 49.23 33.4386C47.878 33.8398 46.7107 34.6858 45.9272 35.8324C45.1437 36.979 44.7925 38.355 44.9334 39.7259C45.0744 41.0967 45.6989 42.3774 46.7003 43.3495C47.2176 43.1783 47.7739 43.1519 48.3058 43.2734C48.8378 43.395 49.3241 43.6595 49.7095 44.0371C50.0055 44.3256 50.2352 44.6722 50.3835 45.0538ZM37.8889 63.0893H37.467C36.9374 63.0882 36.4297 62.8827 36.0549 62.5178C35.6801 62.1529 35.4687 61.6582 35.4668 61.1418V28.399C35.4677 27.882 35.6787 27.3865 36.0536 27.021C36.4286 26.6555 36.9368 26.4498 37.467 26.4489H64.5355C65.0657 26.4498 65.574 26.6555 65.9489 27.021C66.3239 27.3865 66.5349 27.882 66.5357 28.399V61.1418C66.5345 61.6586 66.3234 62.1539 65.9486 62.5194C65.5737 62.8848 65.0656 63.0906 64.5355 63.0918H64.1149V69.7563C64.1162 70.0078 64.0948 70.2589 64.0511 70.5067H67.6935C67.9486 70.5054 68.193 70.406 68.3734 70.2301C68.5539 70.0542 68.6558 69.816 68.6572 69.5672V25.2518C68.656 25.003 68.5541 24.7648 68.3736 24.5889C68.1931 24.4131 67.9486 24.3139 67.6935 24.3129H34.3142C34.059 24.3139 33.8146 24.4131 33.6341 24.5889C33.4536 24.7648 33.3517 25.003 33.3505 25.2518V69.5672C33.3518 69.816 33.4538 70.0542 33.6342 70.2301C33.8147 70.406 34.059 70.5054 34.3142 70.5067H39.7966L38.0127 64.0301C37.9285 63.7233 37.8869 63.4069 37.8889 63.0893ZM42.4324 75.5336L42.4593 76.9156C42.4639 77.1214 42.5512 77.3173 42.7024 77.4611C42.8536 77.6049 43.0567 77.6851 43.2679 77.6846H59.4788C59.6388 77.684 59.7951 77.6379 59.9285 77.5519C60.062 77.4659 60.1668 77.3438 60.23 77.2005C60.2695 77.1031 60.289 76.9991 60.2875 76.8944V76.1334C60.2773 75.4346 60.4514 74.745 60.7929 74.1305L62.4179 71.1358C62.6559 70.7129 62.7767 70.2368 62.7683 69.7545V59.8774C62.7599 59.4731 62.5894 59.0881 62.2931 58.8051C61.9969 58.522 61.5986 58.3635 61.1839 58.3635C60.7691 58.3635 60.3708 58.522 60.0746 58.8051C59.7784 59.0881 59.6078 59.4731 59.5995 59.8774H58.2534V58.3138C58.2451 57.9095 58.0745 57.5245 57.7783 57.2415C57.4821 56.9584 57.0838 56.7999 56.669 56.7999C56.2543 56.7999 55.856 56.9584 55.5598 57.2415C55.2636 57.5245 55.093 57.9095 55.0846 58.3138H53.7386V57.1042C53.7303 56.6999 53.5597 56.3149 53.2635 56.0319C52.9673 55.7488 52.569 55.5903 52.1542 55.5903C51.7394 55.5903 51.3412 55.7488 51.045 56.0319C50.7487 56.3149 50.5782 56.6999 50.5698 57.1042H49.2238V46.0574C49.2155 45.6531 49.0449 45.2681 48.7487 44.9851C48.4525 44.702 48.0542 44.5435 47.6394 44.5435C47.2246 44.5435 46.8264 44.702 46.5302 44.9851C46.2339 45.2681 46.0633 45.6531 46.055 46.0574V65.8395C46.0555 65.9988 45.9964 66.1528 45.8888 66.2727C45.7812 66.3925 45.6325 66.4701 45.4705 66.4908C45.3085 66.5116 45.1443 66.4741 45.0086 66.3854C44.8729 66.2966 44.775 66.1627 44.7333 66.0087L43.7842 62.5604C43.7772 62.5393 43.7714 62.5175 43.7663 62.4951C43.6019 61.9312 43.2187 61.4519 42.6979 61.1588C42.1772 60.8656 41.5598 60.7816 40.9767 60.9246C40.9562 60.9308 40.9352 60.9364 40.9128 60.9408C40.3291 61.1032 39.8342 61.4827 39.5346 61.9974C39.2351 62.5122 39.155 63.1211 39.3115 63.6929L42.2857 74.5138C42.3786 74.8476 42.4279 75.1915 42.4324 75.5373V75.5336Z" fill="white" stroke="white" stroke-width="0.5"/>
<circle cx="51" cy="51" r="50.5" stroke="white"/>
</svg>
