<svg width="102" height="126" viewBox="0 0 102 126" fill="none" xmlns="http://www.w3.org/2000/svg">
<mask id="path-1-inside-1_327_73" fill="white">
<path d="M77.6972 49.9509C77.6972 64.4876 65.9129 76.2719 51.3762 76.2719C36.8395 76.2719 25.0552 64.4876 25.0552 49.9509C25.0552 35.4142 36.8395 23.6299 51.3762 23.6299C65.9129 23.6299 77.6972 35.4142 77.6972 49.9509ZM27.2459 49.9509C27.2459 63.2777 38.0494 74.0812 51.3762 74.0812C64.703 74.0812 75.5065 63.2777 75.5065 49.9509C75.5065 36.6241 64.703 25.8206 51.3762 25.8206C38.0494 25.8206 27.2459 36.6241 27.2459 49.9509Z"/>
</mask>
<path d="M77.6972 49.9509C77.6972 64.4876 65.9129 76.2719 51.3762 76.2719C36.8395 76.2719 25.0552 64.4876 25.0552 49.9509C25.0552 35.4142 36.8395 23.6299 51.3762 23.6299C65.9129 23.6299 77.6972 35.4142 77.6972 49.9509ZM27.2459 49.9509C27.2459 63.2777 38.0494 74.0812 51.3762 74.0812C64.703 74.0812 75.5065 63.2777 75.5065 49.9509C75.5065 36.6241 64.703 25.8206 51.3762 25.8206C38.0494 25.8206 27.2459 36.6241 27.2459 49.9509Z" fill="white" stroke="white" stroke-width="2" mask="url(#path-1-inside-1_327_73)"/>
<path d="M73.1194 49.9505C73.1194 61.959 63.3846 71.6939 51.376 71.6939C39.3674 71.6939 29.6326 61.959 29.6326 49.9505C29.6326 37.9419 39.3674 28.207 51.376 28.207C63.3846 28.207 73.1194 37.9419 73.1194 49.9505ZM31.8196 49.9505C31.8196 60.7511 40.5753 69.5068 51.376 69.5068C62.1767 69.5068 70.9324 60.7511 70.9324 49.9505C70.9324 39.1498 62.1767 30.3941 51.376 30.3941C40.5753 30.3941 31.8196 39.1498 31.8196 49.9505Z" fill="white"/>
<mask id="path-3-inside-2_327_73" fill="white">
<path d="M68.5422 49.9491C68.5422 59.4295 60.8568 67.1149 51.3763 67.1149C41.8959 67.1149 34.2104 59.4295 34.2104 49.9491C34.2104 40.4686 41.8959 32.7832 51.3763 32.7832C60.8568 32.7832 68.5422 40.4686 68.5422 49.9491ZM36.331 49.9491C36.331 58.2584 43.067 64.9944 51.3763 64.9944C59.6856 64.9944 66.4217 58.2584 66.4217 49.9491C66.4217 41.6398 59.6856 34.9037 51.3763 34.9037C43.067 34.9037 36.331 41.6398 36.331 49.9491Z"/>
</mask>
<path d="M68.5422 49.9491C68.5422 59.4295 60.8568 67.1149 51.3763 67.1149C41.8959 67.1149 34.2104 59.4295 34.2104 49.9491C34.2104 40.4686 41.8959 32.7832 51.3763 32.7832C60.8568 32.7832 68.5422 40.4686 68.5422 49.9491ZM36.331 49.9491C36.331 58.2584 43.067 64.9944 51.3763 64.9944C59.6856 64.9944 66.4217 58.2584 66.4217 49.9491C66.4217 41.6398 59.6856 34.9037 51.3763 34.9037C43.067 34.9037 36.331 41.6398 36.331 49.9491Z" fill="white" stroke="white" stroke-width="2" mask="url(#path-3-inside-2_327_73)"/>
<rect x="48.4688" y="15" width="5.05171" height="19.5473" rx="2.52586" fill="#2382BC" stroke="white" stroke-width="2"/>
<rect x="86.708" y="47.4238" width="5.05171" height="19.5473" rx="2.52586" transform="rotate(90 86.708 47.4238)" fill="#2382BC" stroke="white" stroke-width="2"/>
<rect x="35.592" y="47.4238" width="5.05171" height="19.5473" rx="2.52586" transform="rotate(90 35.592 47.4238)" fill="#2382BC" stroke="white" stroke-width="2"/>
<rect x="48.4688" y="65.3525" width="5.05171" height="19.5473" rx="2.52586" fill="#2382BC" stroke="white" stroke-width="2"/>
<path d="M52.5377 55.8677L52.535 55.865L41.6485 44.9751C41.6031 44.9296 41.5762 44.8653 41.5762 44.7993C41.5762 44.7348 41.602 44.6721 41.6485 44.6257L44.7442 41.5284H44.7484L44.8953 41.3792C44.9384 41.3355 44.9985 41.3096 45.0659 41.3096C45.1327 41.3096 45.1945 41.3351 45.2412 41.3818L52.3567 48.5031L52.7104 48.8571L53.0641 48.5031L75.8205 25.7294C75.8205 25.7294 75.8205 25.7294 75.8205 25.7294C75.8672 25.6827 75.929 25.6572 75.9957 25.6572C76.0632 25.6572 76.1232 25.6831 76.1663 25.7268L76.169 25.7296L79.4132 28.9733C79.4596 29.0198 79.4855 29.0825 79.4855 29.1469C79.4855 29.2129 79.4586 29.2773 79.4132 29.3227L79.7668 29.6761L79.4132 29.3227L52.8836 55.8677C52.8836 55.8677 52.8836 55.8677 52.8836 55.8677C52.8405 55.9108 52.7792 55.9373 52.7103 55.9373C52.6414 55.9373 52.5797 55.9104 52.5377 55.8677ZM42.5261 44.4461L42.1729 44.7996L42.5261 45.153L52.3567 54.9885L52.7103 55.3424L53.064 54.9885L78.5354 29.5L78.8886 29.1466L78.5353 28.7931L76.3488 26.6055L75.9952 26.2517L75.6415 26.6055L52.883 49.3776C52.883 49.3776 52.883 49.3776 52.883 49.3777C52.7868 49.4739 52.6308 49.4739 52.5345 49.3776L45.419 42.2585L45.0653 41.9046L44.7116 42.2585L42.5261 44.4461Z" fill="white" stroke="white"/>
<rect x="70.883" y="32.796" width="2.09325" height="11.1611" transform="rotate(45.0214 70.883 32.796)" fill="#2382BC" stroke="#2382BC"/>
<path d="M9.70898 111.17V121H7.80176V116.208H3.4541V121H1.54688V111.17H3.4541V114.807H7.80176V111.17H9.70898ZM13.1338 110.425C13.2887 110.425 13.4346 110.454 13.5713 110.514C13.7126 110.573 13.8333 110.655 13.9336 110.76C14.0384 110.86 14.1204 110.981 14.1797 111.122C14.2389 111.259 14.2686 111.405 14.2686 111.56C14.2686 111.719 14.2389 111.867 14.1797 112.004C14.1204 112.141 14.0384 112.261 13.9336 112.366C13.8333 112.471 13.7126 112.553 13.5713 112.612C13.4346 112.672 13.2887 112.701 13.1338 112.701C12.9743 112.701 12.8262 112.672 12.6895 112.612C12.5527 112.553 12.432 112.471 12.3271 112.366C12.2223 112.261 12.1403 112.141 12.0811 112.004C12.0218 111.867 11.9922 111.719 11.9922 111.56C11.9922 111.405 12.0218 111.259 12.0811 111.122C12.1403 110.981 12.2223 110.86 12.3271 110.76C12.432 110.655 12.5527 110.573 12.6895 110.514C12.8262 110.454 12.9743 110.425 13.1338 110.425ZM14.0635 113.891V121H12.1904V113.891H14.0635ZM21.0361 113.884C21.2549 113.884 21.4417 113.882 21.5967 113.877C21.7516 113.872 21.8997 113.861 22.041 113.843C22.1823 113.825 22.3304 113.797 22.4854 113.761C22.6403 113.724 22.8271 113.676 23.0459 113.617C23.1143 113.827 23.1849 114.046 23.2578 114.273C23.3307 114.497 23.3991 114.72 23.4629 114.943C23.3125 114.998 23.1735 115.044 23.0459 115.08C22.9229 115.117 22.8021 115.148 22.6836 115.176C22.5697 115.199 22.4557 115.217 22.3418 115.23C22.2324 115.24 22.1139 115.246 21.9863 115.251C22.0729 115.447 22.1322 115.641 22.1641 115.832C22.196 116.019 22.2119 116.217 22.2119 116.427C22.2119 116.864 22.1458 117.247 22.0137 117.575C21.8815 117.899 21.6924 118.174 21.4463 118.402C21.2959 118.539 21.125 118.653 20.9336 118.744C20.7422 118.835 20.5417 118.91 20.332 118.97C20.1224 119.024 19.9082 119.063 19.6895 119.086C19.4753 119.109 19.2679 119.12 19.0674 119.12C18.6982 119.12 18.361 119.093 18.0557 119.038C17.9782 119.257 17.9395 119.43 17.9395 119.558C17.9395 119.644 17.9554 119.719 17.9873 119.783C18.0238 119.842 18.0807 119.895 18.1582 119.94C18.2767 120.004 18.418 120.045 18.582 120.063C18.7507 120.082 18.9352 120.091 19.1357 120.091C19.195 120.091 19.2702 120.091 19.3613 120.091C19.457 120.091 19.555 120.091 19.6553 120.091C19.7555 120.086 19.8512 120.084 19.9424 120.084C20.0381 120.084 20.1201 120.084 20.1885 120.084C20.5531 120.084 20.8835 120.118 21.1797 120.187C21.4759 120.25 21.7288 120.355 21.9385 120.501C22.1527 120.647 22.3167 120.84 22.4307 121.082C22.5492 121.324 22.6084 121.618 22.6084 121.964C22.6084 122.36 22.5104 122.693 22.3145 122.962C22.123 123.235 21.8678 123.456 21.5488 123.625C21.2298 123.794 20.8652 123.914 20.4551 123.987C20.0449 124.065 19.6211 124.104 19.1836 124.104C18.8691 124.104 18.5547 124.085 18.2402 124.049C17.9303 124.017 17.6296 123.974 17.3379 123.919C17.11 123.873 16.8936 123.821 16.6885 123.762C16.488 123.707 16.3011 123.648 16.1279 123.584C16.1872 123.443 16.2738 123.263 16.3877 123.044C16.5062 122.825 16.6361 122.59 16.7773 122.34C17.2422 122.504 17.6842 122.625 18.1035 122.702C18.5228 122.78 18.9056 122.818 19.252 122.818C19.4661 122.818 19.6667 122.805 19.8535 122.777C20.0404 122.75 20.2021 122.704 20.3389 122.641C20.4756 122.577 20.5827 122.49 20.6602 122.381C20.7422 122.276 20.7832 122.142 20.7832 121.978C20.7832 121.85 20.7559 121.747 20.7012 121.67C20.6465 121.597 20.5713 121.54 20.4756 121.499C20.3799 121.458 20.266 121.431 20.1338 121.417C20.0062 121.408 19.8672 121.403 19.7168 121.403C19.653 121.403 19.5869 121.403 19.5186 121.403C19.4502 121.408 19.3818 121.41 19.3135 121.41H19.0947C18.8851 121.41 18.6755 121.406 18.4658 121.396C18.2607 121.392 18.0625 121.374 17.8711 121.342C17.6797 121.31 17.502 121.262 17.3379 121.198C17.1738 121.139 17.0303 121.057 16.9072 120.952C16.7887 120.843 16.693 120.708 16.6201 120.549C16.5518 120.385 16.5176 120.189 16.5176 119.961C16.5176 119.738 16.5609 119.512 16.6475 119.284C16.734 119.052 16.8434 118.822 16.9756 118.594C16.8525 118.512 16.7295 118.405 16.6064 118.272C16.488 118.14 16.3809 117.985 16.2852 117.808C16.194 117.625 16.1188 117.42 16.0596 117.192C16.0049 116.965 15.9775 116.709 15.9775 116.427C15.9775 115.998 16.0436 115.62 16.1758 115.292C16.3125 114.959 16.5039 114.677 16.75 114.444C16.8958 114.308 17.0599 114.194 17.2422 114.103C17.4245 114.011 17.6159 113.938 17.8164 113.884C18.0169 113.829 18.2243 113.79 18.4385 113.768C18.6527 113.745 18.8623 113.733 19.0674 113.733C19.3271 113.733 19.571 113.749 19.7988 113.781C20.0267 113.809 20.2272 113.843 20.4004 113.884H21.0361ZM19.0947 114.998C18.6937 114.998 18.377 115.119 18.1445 115.36C17.9121 115.602 17.7959 115.957 17.7959 116.427C17.7959 116.91 17.9121 117.27 18.1445 117.507C18.3815 117.739 18.6982 117.855 19.0947 117.855C19.4958 117.855 19.8125 117.735 20.0449 117.493C20.2773 117.252 20.3936 116.896 20.3936 116.427C20.3936 115.953 20.2728 115.597 20.0312 115.36C19.7943 115.119 19.4821 114.998 19.0947 114.998ZM26.792 111.156V115.107H26.8398C26.9811 114.898 27.127 114.709 27.2773 114.54C27.4277 114.371 27.5941 114.228 27.7764 114.109C27.9632 113.986 28.1683 113.893 28.3916 113.829C28.6149 113.765 28.8678 113.733 29.1504 113.733C29.6927 113.733 30.1279 113.843 30.4561 114.062C30.7887 114.276 31.0348 114.604 31.1943 115.046C31.2809 115.283 31.3424 115.549 31.3789 115.846C31.4199 116.142 31.4404 116.475 31.4404 116.844V121H29.5674V116.304C29.5674 115.935 29.4808 115.643 29.3076 115.429C29.1344 115.21 28.8861 115.101 28.5625 115.101C28.3802 115.101 28.2025 115.146 28.0293 115.237C27.8561 115.328 27.6921 115.442 27.5371 115.579C27.3822 115.716 27.2409 115.866 27.1133 116.03C26.9857 116.194 26.8786 116.352 26.792 116.502V121H24.9121V111.156H26.792ZM42.1592 111.17L45.8711 121H43.9434L42.8223 117.979H39.582L38.4609 121H36.5332L40.2451 111.17H42.1592ZM41.2021 113.2L40.0879 116.604H42.3164L41.2021 113.2ZM52.8916 120.733C52.7048 120.802 52.4997 120.863 52.2764 120.918C52.0531 120.973 51.8252 121.018 51.5928 121.055C51.3649 121.091 51.1393 121.118 50.916 121.137C50.6927 121.155 50.4876 121.164 50.3008 121.164C49.64 121.164 49.0817 121.087 48.626 120.932C48.1702 120.777 47.8011 120.549 47.5186 120.248C47.2406 119.943 47.04 119.567 46.917 119.12C46.7939 118.674 46.7324 118.161 46.7324 117.582C46.7324 116.976 46.8099 116.434 46.9648 115.955C47.1243 115.477 47.3613 115.073 47.6758 114.745C47.9902 114.417 48.3822 114.166 48.8516 113.993C49.321 113.82 49.8701 113.733 50.499 113.733C50.8636 113.733 51.2259 113.763 51.5859 113.822C51.946 113.877 52.29 113.952 52.6182 114.048L52.1602 115.401C51.8867 115.31 51.6201 115.237 51.3604 115.183C51.1051 115.128 50.8454 115.101 50.5811 115.101C50.2301 115.101 49.9294 115.16 49.6787 115.278C49.4326 115.392 49.2298 115.554 49.0703 115.764C48.9108 115.969 48.7923 116.215 48.7148 116.502C48.6419 116.789 48.6055 117.104 48.6055 117.445C48.6055 118.238 48.7422 118.828 49.0156 119.216C49.2936 119.603 49.7516 119.797 50.3896 119.797C50.7816 119.797 51.1416 119.756 51.4697 119.674C51.8024 119.592 52.1328 119.494 52.4609 119.38L52.8916 120.733ZM60.165 120.733C59.9782 120.802 59.7731 120.863 59.5498 120.918C59.3265 120.973 59.0986 121.018 58.8662 121.055C58.6383 121.091 58.4128 121.118 58.1895 121.137C57.9661 121.155 57.7611 121.164 57.5742 121.164C56.9134 121.164 56.3551 121.087 55.8994 120.932C55.4437 120.777 55.0745 120.549 54.792 120.248C54.514 119.943 54.3135 119.567 54.1904 119.12C54.0674 118.674 54.0059 118.161 54.0059 117.582C54.0059 116.976 54.0833 116.434 54.2383 115.955C54.3978 115.477 54.6348 115.073 54.9492 114.745C55.2637 114.417 55.6556 114.166 56.125 113.993C56.5944 113.82 57.1436 113.733 57.7725 113.733C58.137 113.733 58.4993 113.763 58.8594 113.822C59.2194 113.877 59.5635 113.952 59.8916 114.048L59.4336 115.401C59.1602 115.31 58.8936 115.237 58.6338 115.183C58.3786 115.128 58.1188 115.101 57.8545 115.101C57.5036 115.101 57.2028 115.16 56.9521 115.278C56.7061 115.392 56.5033 115.554 56.3438 115.764C56.1842 115.969 56.0658 116.215 55.9883 116.502C55.9154 116.789 55.8789 117.104 55.8789 117.445C55.8789 118.238 56.0156 118.828 56.2891 119.216C56.5671 119.603 57.0251 119.797 57.6631 119.797C58.055 119.797 58.415 119.756 58.7432 119.674C59.0758 119.592 59.4062 119.494 59.7344 119.38L60.165 120.733ZM68.252 113.891V118.279C68.252 118.648 68.2542 118.958 68.2588 119.209C68.2679 119.455 68.2816 119.674 68.2998 119.865C68.3089 119.961 68.318 120.045 68.3271 120.118C68.3363 120.191 68.3454 120.262 68.3545 120.33C68.3682 120.398 68.3818 120.469 68.3955 120.542C68.4137 120.615 68.4342 120.695 68.457 120.781C68.1608 120.859 67.8646 120.929 67.5684 120.993C67.2767 121.052 66.9805 121.109 66.6797 121.164C66.6432 121.068 66.6113 120.975 66.584 120.884C66.5612 120.788 66.5407 120.688 66.5225 120.583C66.5042 120.474 66.4883 120.355 66.4746 120.228C66.4609 120.1 66.4473 119.954 66.4336 119.79H66.3447C66.1943 120.018 66.0371 120.218 65.873 120.392C65.7135 120.56 65.5404 120.704 65.3535 120.822C65.1712 120.936 64.9684 121.021 64.7451 121.075C64.5264 121.134 64.2826 121.164 64.0137 121.164C63.444 121.164 62.9951 121.05 62.667 120.822C62.3434 120.59 62.1087 120.262 61.9629 119.838C61.8763 119.592 61.8148 119.321 61.7783 119.024C61.7419 118.728 61.7236 118.405 61.7236 118.054V113.891H63.5967V118.594C63.5967 118.986 63.6855 119.284 63.8633 119.489C64.0456 119.694 64.2917 119.797 64.6016 119.797C64.7747 119.797 64.9434 119.756 65.1074 119.674C65.276 119.592 65.4378 119.485 65.5928 119.353C65.7477 119.22 65.8913 119.07 66.0234 118.901C66.1556 118.728 66.2741 118.555 66.3789 118.382V113.891H68.252ZM72.4424 115.107C72.6064 114.866 72.7591 114.668 72.9004 114.513C73.0371 114.362 73.1807 114.239 73.3311 114.144C73.4814 114.043 73.6318 113.964 73.7822 113.904C73.9372 113.84 74.0921 113.797 74.2471 113.774C74.402 113.747 74.5547 113.733 74.7051 113.733C74.8327 113.733 74.9557 113.743 75.0742 113.761C75.1973 113.774 75.3112 113.793 75.416 113.815C75.4023 113.943 75.3841 114.08 75.3613 114.226C75.3385 114.367 75.3135 114.51 75.2861 114.656C75.2588 114.802 75.2269 114.946 75.1904 115.087C75.1585 115.228 75.1243 115.36 75.0879 115.483C74.8281 115.433 74.6025 115.392 74.4111 115.36C74.2197 115.324 74.0488 115.306 73.8984 115.306C73.7572 115.306 73.6273 115.326 73.5088 115.367C73.3949 115.404 73.2809 115.47 73.167 115.565C73.0531 115.661 72.9346 115.789 72.8115 115.948C72.693 116.103 72.5586 116.299 72.4082 116.536V121H70.5352V116.618C70.5352 116.354 70.5329 116.108 70.5283 115.88C70.5238 115.647 70.5146 115.431 70.501 115.23C70.4873 115.025 70.4668 114.832 70.4395 114.649C70.4121 114.467 70.3757 114.289 70.3301 114.116C70.6263 114.039 70.9202 113.968 71.2119 113.904C71.5081 113.84 71.8066 113.784 72.1074 113.733C72.1393 113.829 72.1689 113.925 72.1963 114.021C72.2236 114.112 72.2464 114.212 72.2646 114.321C72.2829 114.426 72.2988 114.542 72.3125 114.67C72.3262 114.798 72.3398 114.943 72.3535 115.107H72.4424ZM77.1045 114.239C77.2731 114.171 77.4645 114.107 77.6787 114.048C77.8975 113.989 78.1276 113.936 78.3691 113.891C78.6152 113.84 78.8682 113.802 79.1279 113.774C79.3923 113.747 79.6589 113.733 79.9277 113.733C80.306 113.733 80.6592 113.763 80.9873 113.822C81.32 113.882 81.5957 113.979 81.8145 114.116C82.0332 114.253 82.2041 114.44 82.3271 114.677C82.4502 114.909 82.5117 115.203 82.5117 115.559V118.334C82.5117 118.653 82.514 118.938 82.5186 119.188C82.5231 119.435 82.5322 119.676 82.5459 119.913C82.555 120 82.5641 120.079 82.5732 120.152C82.5824 120.221 82.5915 120.289 82.6006 120.357C82.6143 120.421 82.6279 120.49 82.6416 120.562C82.6598 120.635 82.6803 120.715 82.7031 120.802C82.4206 120.866 82.138 120.927 81.8555 120.986C81.5775 121.046 81.2949 121.103 81.0078 121.157C80.9577 121.03 80.9167 120.9 80.8848 120.768C80.8574 120.631 80.8324 120.476 80.8096 120.303H80.707C80.5475 120.467 80.388 120.604 80.2285 120.713C80.069 120.822 79.9027 120.911 79.7295 120.979C79.5563 121.048 79.3763 121.096 79.1895 121.123C79.0026 121.15 78.8066 121.164 78.6016 121.164C78.2871 121.164 77.9954 121.125 77.7266 121.048C77.4577 120.975 77.223 120.861 77.0225 120.706C76.8265 120.551 76.6715 120.355 76.5576 120.118C76.4482 119.877 76.3936 119.594 76.3936 119.271C76.3936 118.997 76.4209 118.753 76.4756 118.539C76.5348 118.325 76.6169 118.133 76.7217 117.965C76.8265 117.796 76.9518 117.648 77.0977 117.521C77.2435 117.393 77.4053 117.281 77.583 117.186C77.9385 116.994 78.335 116.864 78.7725 116.796C79.21 116.723 79.6566 116.687 80.1123 116.687H80.7002V115.798C80.7002 115.629 80.6729 115.497 80.6182 115.401C80.568 115.301 80.4974 115.226 80.4062 115.176C80.3197 115.126 80.2171 115.094 80.0986 115.08C79.9801 115.062 79.8525 115.053 79.7158 115.053C79.3467 115.053 78.973 115.101 78.5947 115.196C78.221 115.287 77.8633 115.401 77.5215 115.538L77.1045 114.239ZM80.7002 117.691H80.5635C80.2399 117.696 79.93 117.721 79.6338 117.767C79.3421 117.808 79.0846 117.881 78.8613 117.985C78.638 118.09 78.458 118.229 78.3213 118.402C78.1891 118.571 78.123 118.785 78.123 119.045C78.123 119.332 78.2051 119.553 78.3691 119.708C78.5378 119.863 78.7725 119.94 79.0732 119.94C79.2145 119.94 79.3604 119.922 79.5107 119.886C79.6611 119.845 79.8092 119.79 79.9551 119.722C80.1009 119.649 80.2376 119.56 80.3652 119.455C80.4928 119.35 80.6045 119.229 80.7002 119.093V117.691ZM90.3389 120.733C90.152 120.802 89.9469 120.863 89.7236 120.918C89.5003 120.973 89.2725 121.018 89.04 121.055C88.8122 121.091 88.5866 121.118 88.3633 121.137C88.14 121.155 87.9349 121.164 87.748 121.164C87.0872 121.164 86.529 121.087 86.0732 120.932C85.6175 120.777 85.2484 120.549 84.9658 120.248C84.6878 119.943 84.4873 119.567 84.3643 119.12C84.2412 118.674 84.1797 118.161 84.1797 117.582C84.1797 116.976 84.2572 116.434 84.4121 115.955C84.5716 115.477 84.8086 115.073 85.123 114.745C85.4375 114.417 85.8294 114.166 86.2988 113.993C86.7682 113.82 87.3174 113.733 87.9463 113.733C88.3109 113.733 88.6732 113.763 89.0332 113.822C89.3932 113.877 89.7373 113.952 90.0654 114.048L89.6074 115.401C89.334 115.31 89.0674 115.237 88.8076 115.183C88.5524 115.128 88.2926 115.101 88.0283 115.101C87.6774 115.101 87.3766 115.16 87.126 115.278C86.8799 115.392 86.6771 115.554 86.5176 115.764C86.3581 115.969 86.2396 116.215 86.1621 116.502C86.0892 116.789 86.0527 117.104 86.0527 117.445C86.0527 118.238 86.1895 118.828 86.4629 119.216C86.7409 119.603 87.1989 119.797 87.8369 119.797C88.2288 119.797 88.5889 119.756 88.917 119.674C89.2497 119.592 89.5801 119.494 89.9082 119.38L90.3389 120.733ZM98.5146 113.891V120.945C98.5146 121.479 98.4281 121.93 98.2549 122.299C98.0863 122.673 97.8447 122.976 97.5303 123.208C97.2204 123.44 96.8467 123.609 96.4092 123.714C95.9762 123.819 95.4977 123.871 94.9736 123.871C94.568 123.871 94.1556 123.835 93.7363 123.762C93.3216 123.693 92.9365 123.589 92.5811 123.447C92.6768 123.219 92.7747 122.996 92.875 122.777C92.9753 122.559 93.0778 122.34 93.1826 122.121C93.5107 122.226 93.8434 122.315 94.1807 122.388C94.5179 122.465 94.8438 122.504 95.1582 122.504C95.2493 122.504 95.3473 122.499 95.4521 122.49C95.5615 122.486 95.6709 122.47 95.7803 122.442C95.8896 122.415 95.9967 122.372 96.1016 122.312C96.2064 122.258 96.2975 122.18 96.375 122.08C96.457 121.984 96.5231 121.861 96.5732 121.711C96.6234 121.565 96.6507 121.387 96.6553 121.178V119.79H96.5938C96.4434 120.018 96.2861 120.218 96.1221 120.392C95.9626 120.56 95.7894 120.704 95.6025 120.822C95.4157 120.936 95.2106 121.021 94.9873 121.075C94.764 121.134 94.5156 121.164 94.2422 121.164C93.7956 121.164 93.4264 121.093 93.1348 120.952C92.8431 120.811 92.6084 120.608 92.4307 120.344C92.2575 120.07 92.1344 119.742 92.0615 119.359C91.9886 118.977 91.9521 118.541 91.9521 118.054V113.891H93.8252V118.594C93.8252 118.986 93.9163 119.284 94.0986 119.489C94.2809 119.694 94.5316 119.797 94.8506 119.797C95.0238 119.797 95.1924 119.756 95.3564 119.674C95.5251 119.592 95.6868 119.485 95.8418 119.353C95.9967 119.22 96.1403 119.07 96.2725 118.901C96.4046 118.728 96.5231 118.555 96.6279 118.382V113.891H98.5146Z" fill="white"/>
<circle cx="51" cy="51" r="50.5" stroke="white"/>
</svg>
