<svg width="147" height="126" viewBox="0 0 147 126" fill="none" xmlns="http://www.w3.org/2000/svg">
<path d="M9.84375 111.17V121H7.73145L3.43164 113.651V121H1.52441V111.17H3.63672L7.93652 118.519V111.17H9.84375ZM15.2236 113.733C15.8206 113.733 16.3379 113.827 16.7754 114.014C17.2129 114.201 17.5729 114.46 17.8555 114.793C18.1426 115.121 18.3545 115.513 18.4912 115.969C18.6325 116.42 18.7031 116.912 18.7031 117.445C18.7031 117.979 18.6325 118.473 18.4912 118.929C18.3545 119.384 18.1426 119.779 17.8555 120.111C17.5729 120.439 17.2129 120.697 16.7754 120.884C16.3379 121.071 15.8206 121.164 15.2236 121.164C14.6266 121.164 14.1094 121.071 13.6719 120.884C13.2344 120.697 12.8721 120.439 12.585 120.111C12.3024 119.779 12.0905 119.384 11.9492 118.929C11.8125 118.473 11.7441 117.979 11.7441 117.445C11.7441 116.912 11.8125 116.42 11.9492 115.969C12.0905 115.513 12.3024 115.121 12.585 114.793C12.8721 114.46 13.2344 114.201 13.6719 114.014C14.1094 113.827 14.6266 113.733 15.2236 113.733ZM15.2236 115.073C14.8955 115.073 14.6266 115.135 14.417 115.258C14.2074 115.381 14.0433 115.549 13.9248 115.764C13.8063 115.978 13.7243 116.231 13.6787 116.522C13.6377 116.81 13.6172 117.117 13.6172 117.445C13.6172 117.778 13.6377 118.09 13.6787 118.382C13.7243 118.669 13.8063 118.92 13.9248 119.134C14.0433 119.348 14.2074 119.517 14.417 119.64C14.6266 119.763 14.8955 119.824 15.2236 119.824C15.5518 119.824 15.8206 119.763 16.0303 119.64C16.2399 119.517 16.404 119.348 16.5225 119.134C16.641 118.92 16.7207 118.669 16.7617 118.382C16.8073 118.09 16.8301 117.778 16.8301 117.445C16.8301 117.117 16.8073 116.81 16.7617 116.522C16.7207 116.231 16.641 115.978 16.5225 115.764C16.404 115.549 16.2399 115.381 16.0303 115.258C15.8206 115.135 15.5518 115.073 15.2236 115.073ZM26.5576 111.17V121H24.6504V111.17H26.5576ZM31.0215 115.107C31.1719 114.88 31.3268 114.681 31.4863 114.513C31.6504 114.34 31.8236 114.196 32.0059 114.082C32.1927 113.964 32.3955 113.877 32.6143 113.822C32.8376 113.763 33.0837 113.733 33.3525 113.733C33.6533 113.733 33.9199 113.768 34.1523 113.836C34.3848 113.9 34.5853 113.995 34.7539 114.123C34.9225 114.246 35.0638 114.401 35.1777 114.588C35.2962 114.77 35.3896 114.978 35.458 115.21C35.5218 115.442 35.5674 115.695 35.5947 115.969C35.6266 116.238 35.6426 116.529 35.6426 116.844V121H33.7695V116.304C33.7695 115.912 33.6784 115.613 33.4961 115.408C33.3184 115.203 33.0745 115.101 32.7646 115.101C32.5915 115.101 32.4206 115.142 32.252 115.224C32.0879 115.306 31.9284 115.415 31.7734 115.552C31.6185 115.684 31.4749 115.834 31.3428 116.003C31.2106 116.172 31.0921 116.342 30.9873 116.516V121H29.1143V116.618C29.1143 116.249 29.1097 115.941 29.1006 115.695C29.096 115.445 29.0846 115.224 29.0664 115.032C29.0573 114.937 29.0482 114.852 29.0391 114.779C29.0299 114.706 29.0186 114.636 29.0049 114.567C28.9958 114.499 28.9821 114.431 28.9639 114.362C28.9502 114.289 28.932 114.207 28.9092 114.116C29.2054 114.039 29.4993 113.97 29.791 113.911C30.0872 113.847 30.3857 113.788 30.6865 113.733C30.7184 113.829 30.748 113.925 30.7754 114.021C30.8027 114.112 30.8255 114.212 30.8438 114.321C30.862 114.426 30.8779 114.542 30.8916 114.67C30.9053 114.798 30.9189 114.943 30.9326 115.107H31.0215ZM40.1543 113.74C40.5918 113.74 41.0202 113.779 41.4395 113.856C41.8587 113.934 42.2256 114.036 42.54 114.164C42.4762 114.346 42.401 114.531 42.3145 114.718C42.2324 114.905 42.1481 115.082 42.0615 115.251C41.8291 115.174 41.5579 115.107 41.248 115.053C40.9427 114.998 40.6396 114.971 40.3389 114.971C40.1657 114.971 39.9993 114.984 39.8398 115.012C39.6849 115.035 39.5482 115.073 39.4297 115.128C39.3158 115.183 39.2246 115.256 39.1562 115.347C39.0879 115.433 39.0537 115.54 39.0537 115.668C39.0537 115.846 39.097 115.987 39.1836 116.092C39.2747 116.192 39.3932 116.274 39.5391 116.338C39.6895 116.402 39.8626 116.454 40.0586 116.495C40.2546 116.536 40.4596 116.582 40.6738 116.632C41.0065 116.709 41.3164 116.807 41.6035 116.926C41.8952 117.044 42.1458 117.197 42.3555 117.384C42.5697 117.566 42.7337 117.792 42.8477 118.061C42.9661 118.325 43.0231 118.644 43.0186 119.018C43.0094 119.419 42.9137 119.756 42.7314 120.029C42.5537 120.303 42.3167 120.524 42.0205 120.692C41.7288 120.861 41.3939 120.982 41.0156 121.055C40.6419 121.128 40.2591 121.164 39.8672 121.164C39.6074 121.164 39.3477 121.15 39.0879 121.123C38.8281 121.096 38.5798 121.055 38.3428 121C38.1058 120.95 37.8848 120.891 37.6797 120.822C37.4746 120.749 37.2946 120.67 37.1396 120.583C37.2171 120.405 37.3037 120.221 37.3994 120.029C37.4951 119.838 37.5885 119.66 37.6797 119.496C37.8073 119.551 37.9531 119.605 38.1172 119.66C38.2858 119.71 38.4613 119.756 38.6436 119.797C38.8304 119.833 39.0195 119.865 39.2109 119.893C39.4069 119.915 39.5983 119.927 39.7852 119.927C39.9766 119.927 40.1589 119.911 40.332 119.879C40.5052 119.847 40.6556 119.797 40.7832 119.729C40.9154 119.656 41.0179 119.562 41.0908 119.448C41.1683 119.33 41.207 119.186 41.207 119.018C41.207 118.826 41.1615 118.674 41.0703 118.56C40.9837 118.446 40.8652 118.354 40.7148 118.286C40.5645 118.218 40.3913 118.163 40.1953 118.122C39.9993 118.081 39.7965 118.04 39.5869 117.999C39.2679 117.935 38.9648 117.844 38.6777 117.726C38.3906 117.607 38.14 117.454 37.9258 117.268C37.7116 117.081 37.5407 116.855 37.4131 116.591C37.29 116.322 37.2331 116.007 37.2422 115.647C37.2467 115.292 37.3333 114.993 37.502 114.752C37.6706 114.506 37.8893 114.31 38.1582 114.164C38.4271 114.014 38.7347 113.907 39.0811 113.843C39.4274 113.774 39.7852 113.74 40.1543 113.74ZM51.2285 113.891V118.279C51.2285 118.648 51.2308 118.958 51.2354 119.209C51.2445 119.455 51.2581 119.674 51.2764 119.865C51.2855 119.961 51.2946 120.045 51.3037 120.118C51.3128 120.191 51.3219 120.262 51.3311 120.33C51.3447 120.398 51.3584 120.469 51.3721 120.542C51.3903 120.615 51.4108 120.695 51.4336 120.781C51.1374 120.859 50.8411 120.929 50.5449 120.993C50.2533 121.052 49.957 121.109 49.6562 121.164C49.6198 121.068 49.5879 120.975 49.5605 120.884C49.5378 120.788 49.5173 120.688 49.499 120.583C49.4808 120.474 49.4648 120.355 49.4512 120.228C49.4375 120.1 49.4238 119.954 49.4102 119.79H49.3213C49.1709 120.018 49.0137 120.218 48.8496 120.392C48.6901 120.56 48.5169 120.704 48.3301 120.822C48.1478 120.936 47.945 121.021 47.7217 121.075C47.5029 121.134 47.2591 121.164 46.9902 121.164C46.4206 121.164 45.9717 121.05 45.6436 120.822C45.32 120.59 45.0853 120.262 44.9395 119.838C44.8529 119.592 44.7913 119.321 44.7549 119.024C44.7184 118.728 44.7002 118.405 44.7002 118.054V113.891H46.5732V118.594C46.5732 118.986 46.6621 119.284 46.8398 119.489C47.0221 119.694 47.2682 119.797 47.5781 119.797C47.7513 119.797 47.9199 119.756 48.084 119.674C48.2526 119.592 48.4144 119.485 48.5693 119.353C48.7243 119.22 48.8678 119.07 49 118.901C49.1322 118.728 49.2507 118.555 49.3555 118.382V113.891H51.2285ZM55.4189 115.107C55.583 114.866 55.7357 114.668 55.877 114.513C56.0137 114.362 56.1572 114.239 56.3076 114.144C56.458 114.043 56.6084 113.964 56.7588 113.904C56.9137 113.84 57.0687 113.797 57.2236 113.774C57.3786 113.747 57.5312 113.733 57.6816 113.733C57.8092 113.733 57.9323 113.743 58.0508 113.761C58.1738 113.774 58.2878 113.793 58.3926 113.815C58.3789 113.943 58.3607 114.08 58.3379 114.226C58.3151 114.367 58.29 114.51 58.2627 114.656C58.2354 114.802 58.2035 114.946 58.167 115.087C58.1351 115.228 58.1009 115.36 58.0645 115.483C57.8047 115.433 57.5791 115.392 57.3877 115.36C57.1963 115.324 57.0254 115.306 56.875 115.306C56.7337 115.306 56.6038 115.326 56.4854 115.367C56.3714 115.404 56.2575 115.47 56.1436 115.565C56.0296 115.661 55.9111 115.789 55.7881 115.948C55.6696 116.103 55.5352 116.299 55.3848 116.536V121H53.5117V116.618C53.5117 116.354 53.5094 116.108 53.5049 115.88C53.5003 115.647 53.4912 115.431 53.4775 115.23C53.4639 115.025 53.4434 114.832 53.416 114.649C53.3887 114.467 53.3522 114.289 53.3066 114.116C53.6029 114.039 53.8968 113.968 54.1885 113.904C54.4847 113.84 54.7832 113.784 55.084 113.733C55.1159 113.829 55.1455 113.925 55.1729 114.021C55.2002 114.112 55.223 114.212 55.2412 114.321C55.2594 114.426 55.2754 114.542 55.2891 114.67C55.3027 114.798 55.3164 114.943 55.3301 115.107H55.4189ZM60.0811 114.239C60.2497 114.171 60.4411 114.107 60.6553 114.048C60.874 113.989 61.1042 113.936 61.3457 113.891C61.5918 113.84 61.8447 113.802 62.1045 113.774C62.3688 113.747 62.6354 113.733 62.9043 113.733C63.2826 113.733 63.6357 113.763 63.9639 113.822C64.2965 113.882 64.5723 113.979 64.791 114.116C65.0098 114.253 65.1807 114.44 65.3037 114.677C65.4268 114.909 65.4883 115.203 65.4883 115.559V118.334C65.4883 118.653 65.4906 118.938 65.4951 119.188C65.4997 119.435 65.5088 119.676 65.5225 119.913C65.5316 120 65.5407 120.079 65.5498 120.152C65.5589 120.221 65.568 120.289 65.5771 120.357C65.5908 120.421 65.6045 120.49 65.6182 120.562C65.6364 120.635 65.6569 120.715 65.6797 120.802C65.3971 120.866 65.1146 120.927 64.832 120.986C64.554 121.046 64.2715 121.103 63.9844 121.157C63.9342 121.03 63.8932 120.9 63.8613 120.768C63.834 120.631 63.8089 120.476 63.7861 120.303H63.6836C63.5241 120.467 63.3646 120.604 63.2051 120.713C63.0456 120.822 62.8792 120.911 62.7061 120.979C62.5329 121.048 62.3529 121.096 62.166 121.123C61.9792 121.15 61.7832 121.164 61.5781 121.164C61.2637 121.164 60.972 121.125 60.7031 121.048C60.4342 120.975 60.1995 120.861 59.999 120.706C59.8031 120.551 59.6481 120.355 59.5342 120.118C59.4248 119.877 59.3701 119.594 59.3701 119.271C59.3701 118.997 59.3975 118.753 59.4521 118.539C59.5114 118.325 59.5934 118.133 59.6982 117.965C59.8031 117.796 59.9284 117.648 60.0742 117.521C60.2201 117.393 60.3818 117.281 60.5596 117.186C60.915 116.994 61.3115 116.864 61.749 116.796C62.1865 116.723 62.6331 116.687 63.0889 116.687H63.6768V115.798C63.6768 115.629 63.6494 115.497 63.5947 115.401C63.5446 115.301 63.474 115.226 63.3828 115.176C63.2962 115.126 63.1937 115.094 63.0752 115.08C62.9567 115.062 62.8291 115.053 62.6924 115.053C62.3232 115.053 61.9495 115.101 61.5713 115.196C61.1976 115.287 60.8398 115.401 60.498 115.538L60.0811 114.239ZM63.6768 117.691H63.54C63.2165 117.696 62.9066 117.721 62.6104 117.767C62.3187 117.808 62.0612 117.881 61.8379 117.985C61.6146 118.09 61.4346 118.229 61.2979 118.402C61.1657 118.571 61.0996 118.785 61.0996 119.045C61.0996 119.332 61.1816 119.553 61.3457 119.708C61.5143 119.863 61.749 119.94 62.0498 119.94C62.1911 119.94 62.3369 119.922 62.4873 119.886C62.6377 119.845 62.7858 119.79 62.9316 119.722C63.0775 119.649 63.2142 119.56 63.3418 119.455C63.4694 119.35 63.5811 119.229 63.6768 119.093V117.691ZM69.6719 115.107C69.8223 114.88 69.9772 114.681 70.1367 114.513C70.3008 114.34 70.474 114.196 70.6562 114.082C70.8431 113.964 71.0459 113.877 71.2646 113.822C71.488 113.763 71.734 113.733 72.0029 113.733C72.3037 113.733 72.5703 113.768 72.8027 113.836C73.0352 113.9 73.2357 113.995 73.4043 114.123C73.5729 114.246 73.7142 114.401 73.8281 114.588C73.9466 114.77 74.04 114.978 74.1084 115.21C74.1722 115.442 74.2178 115.695 74.2451 115.969C74.277 116.238 74.293 116.529 74.293 116.844V121H72.4199V116.304C72.4199 115.912 72.3288 115.613 72.1465 115.408C71.9688 115.203 71.7249 115.101 71.415 115.101C71.2419 115.101 71.071 115.142 70.9023 115.224C70.7383 115.306 70.5788 115.415 70.4238 115.552C70.2689 115.684 70.1253 115.834 69.9932 116.003C69.861 116.172 69.7425 116.342 69.6377 116.516V121H67.7646V116.618C67.7646 116.249 67.7601 115.941 67.751 115.695C67.7464 115.445 67.735 115.224 67.7168 115.032C67.7077 114.937 67.6986 114.852 67.6895 114.779C67.6803 114.706 67.6689 114.636 67.6553 114.567C67.6462 114.499 67.6325 114.431 67.6143 114.362C67.6006 114.289 67.5824 114.207 67.5596 114.116C67.8558 114.039 68.1497 113.97 68.4414 113.911C68.7376 113.847 69.0361 113.788 69.3369 113.733C69.3688 113.829 69.3984 113.925 69.4258 114.021C69.4531 114.112 69.4759 114.212 69.4941 114.321C69.5124 114.426 69.5283 114.542 69.542 114.67C69.5557 114.798 69.5693 114.943 69.583 115.107H69.6719ZM81.8467 120.733C81.6598 120.802 81.4548 120.863 81.2314 120.918C81.0081 120.973 80.7803 121.018 80.5479 121.055C80.32 121.091 80.0944 121.118 79.8711 121.137C79.6478 121.155 79.4427 121.164 79.2559 121.164C78.5951 121.164 78.0368 121.087 77.5811 120.932C77.1253 120.777 76.7562 120.549 76.4736 120.248C76.1956 119.943 75.9951 119.567 75.8721 119.12C75.749 118.674 75.6875 118.161 75.6875 117.582C75.6875 116.976 75.765 116.434 75.9199 115.955C76.0794 115.477 76.3164 115.073 76.6309 114.745C76.9453 114.417 77.3372 114.166 77.8066 113.993C78.276 113.82 78.8252 113.733 79.4541 113.733C79.8187 113.733 80.181 113.763 80.541 113.822C80.901 113.877 81.2451 113.952 81.5732 114.048L81.1152 115.401C80.8418 115.31 80.5752 115.237 80.3154 115.183C80.0602 115.128 79.8005 115.101 79.5361 115.101C79.1852 115.101 78.8844 115.16 78.6338 115.278C78.3877 115.392 78.1849 115.554 78.0254 115.764C77.8659 115.969 77.7474 116.215 77.6699 116.502C77.597 116.789 77.5605 117.104 77.5605 117.445C77.5605 118.238 77.6973 118.828 77.9707 119.216C78.2487 119.603 78.7067 119.797 79.3447 119.797C79.7367 119.797 80.0967 119.756 80.4248 119.674C80.7575 119.592 81.0879 119.494 81.416 119.38L81.8467 120.733ZM89.4482 120.679C89.2614 120.756 89.0563 120.825 88.833 120.884C88.6143 120.943 88.3841 120.993 88.1426 121.034C87.901 121.075 87.6549 121.107 87.4043 121.13C87.1582 121.153 86.9167 121.164 86.6797 121.164C85.4811 121.164 84.5742 120.877 83.959 120.303C83.3483 119.724 83.043 118.84 83.043 117.65C83.043 117.122 83.1045 116.62 83.2275 116.146C83.3506 115.673 83.5488 115.258 83.8223 114.902C84.1003 114.542 84.4626 114.257 84.9092 114.048C85.3604 113.838 85.9118 113.733 86.5635 113.733C87.7028 113.733 88.5527 114.036 89.1133 114.643C89.6738 115.244 89.9541 116.165 89.9541 117.404V117.944H84.9023C84.9115 118.254 84.9479 118.528 85.0117 118.765C85.0755 119.002 85.1803 119.202 85.3262 119.366C85.4766 119.526 85.6725 119.649 85.9141 119.735C86.1556 119.817 86.4587 119.858 86.8232 119.858C87.1423 119.858 87.4863 119.82 87.8555 119.742C88.2246 119.66 88.6097 119.544 89.0107 119.394L89.4482 120.679ZM88.0811 116.728C88.0492 115.602 87.5433 115.039 86.5635 115.039C86.0576 115.039 85.6725 115.185 85.4082 115.477C85.1484 115.768 84.9889 116.185 84.9297 116.728H88.0811ZM104.07 111.17V121H101.958L97.6582 113.651V121H95.751V111.17H97.8633L102.163 118.519V111.17H104.07ZM112.321 120.679C112.134 120.756 111.929 120.825 111.706 120.884C111.487 120.943 111.257 120.993 111.016 121.034C110.774 121.075 110.528 121.107 110.277 121.13C110.031 121.153 109.79 121.164 109.553 121.164C108.354 121.164 107.447 120.877 106.832 120.303C106.221 119.724 105.916 118.84 105.916 117.65C105.916 117.122 105.978 116.62 106.101 116.146C106.224 115.673 106.422 115.258 106.695 114.902C106.973 114.542 107.336 114.257 107.782 114.048C108.233 113.838 108.785 113.733 109.437 113.733C110.576 113.733 111.426 114.036 111.986 114.643C112.547 115.244 112.827 116.165 112.827 117.404V117.944H107.775C107.785 118.254 107.821 118.528 107.885 118.765C107.949 119.002 108.053 119.202 108.199 119.366C108.35 119.526 108.546 119.649 108.787 119.735C109.029 119.817 109.332 119.858 109.696 119.858C110.015 119.858 110.359 119.82 110.729 119.742C111.098 119.66 111.483 119.544 111.884 119.394L112.321 120.679ZM110.954 116.728C110.922 115.602 110.416 115.039 109.437 115.039C108.931 115.039 108.546 115.185 108.281 115.477C108.021 115.768 107.862 116.185 107.803 116.728H110.954ZM120.538 120.679C120.351 120.756 120.146 120.825 119.923 120.884C119.704 120.943 119.474 120.993 119.232 121.034C118.991 121.075 118.745 121.107 118.494 121.13C118.248 121.153 118.007 121.164 117.77 121.164C116.571 121.164 115.664 120.877 115.049 120.303C114.438 119.724 114.133 118.84 114.133 117.65C114.133 117.122 114.194 116.62 114.317 116.146C114.44 115.673 114.639 115.258 114.912 114.902C115.19 114.542 115.552 114.257 115.999 114.048C116.45 113.838 117.002 113.733 117.653 113.733C118.793 113.733 119.643 114.036 120.203 114.643C120.764 115.244 121.044 116.165 121.044 117.404V117.944H115.992C116.001 118.254 116.038 118.528 116.102 118.765C116.165 119.002 116.27 119.202 116.416 119.366C116.566 119.526 116.762 119.649 117.004 119.735C117.245 119.817 117.549 119.858 117.913 119.858C118.232 119.858 118.576 119.82 118.945 119.742C119.314 119.66 119.7 119.544 120.101 119.394L120.538 120.679ZM119.171 116.728C119.139 115.602 118.633 115.039 117.653 115.039C117.147 115.039 116.762 115.185 116.498 115.477C116.238 115.768 116.079 116.185 116.02 116.728H119.171ZM128.953 111.156V118.683V118.977C128.953 119.332 128.965 119.653 128.987 119.94C129.01 120.223 129.06 120.51 129.138 120.802C128.992 120.843 128.851 120.882 128.714 120.918C128.577 120.95 128.44 120.979 128.304 121.007C128.172 121.039 128.037 121.066 127.9 121.089C127.764 121.116 127.62 121.141 127.47 121.164C127.433 121.068 127.401 120.977 127.374 120.891C127.351 120.804 127.328 120.711 127.306 120.61C127.287 120.51 127.271 120.401 127.258 120.282C127.244 120.164 127.233 120.025 127.224 119.865H127.148C126.62 120.731 125.872 121.164 124.906 121.164C124.428 121.164 124.024 121.071 123.696 120.884C123.368 120.697 123.102 120.446 122.896 120.132C122.696 119.813 122.55 119.446 122.459 119.031C122.372 118.612 122.329 118.17 122.329 117.705C122.329 117.049 122.416 116.475 122.589 115.982C122.767 115.486 123.015 115.071 123.334 114.738C123.653 114.406 124.034 114.155 124.476 113.986C124.922 113.818 125.414 113.733 125.952 113.733C126.148 113.733 126.337 113.743 126.52 113.761C126.706 113.779 126.893 113.802 127.08 113.829V111.156H128.953ZM127.101 115.237C126.736 115.146 126.396 115.101 126.082 115.101C125.813 115.101 125.562 115.137 125.33 115.21C125.102 115.283 124.904 115.401 124.735 115.565C124.567 115.729 124.435 115.941 124.339 116.201C124.248 116.461 124.202 116.778 124.202 117.151C124.202 117.539 124.216 117.894 124.243 118.218C124.275 118.541 124.339 118.822 124.435 119.059C124.53 119.291 124.667 119.473 124.845 119.605C125.022 119.733 125.259 119.797 125.556 119.797C125.77 119.797 125.957 119.754 126.116 119.667C126.28 119.58 126.428 119.46 126.561 119.305C126.661 119.195 126.754 119.072 126.841 118.936C126.927 118.794 127.014 118.644 127.101 118.484V115.237ZM137.136 120.679C136.949 120.756 136.744 120.825 136.521 120.884C136.302 120.943 136.072 120.993 135.83 121.034C135.589 121.075 135.342 121.107 135.092 121.13C134.846 121.153 134.604 121.164 134.367 121.164C133.169 121.164 132.262 120.877 131.646 120.303C131.036 119.724 130.73 118.84 130.73 117.65C130.73 117.122 130.792 116.62 130.915 116.146C131.038 115.673 131.236 115.258 131.51 114.902C131.788 114.542 132.15 114.257 132.597 114.048C133.048 113.838 133.599 113.733 134.251 113.733C135.39 113.733 136.24 114.036 136.801 114.643C137.361 115.244 137.642 116.165 137.642 117.404V117.944H132.59C132.599 118.254 132.635 118.528 132.699 118.765C132.763 119.002 132.868 119.202 133.014 119.366C133.164 119.526 133.36 119.649 133.602 119.735C133.843 119.817 134.146 119.858 134.511 119.858C134.83 119.858 135.174 119.82 135.543 119.742C135.912 119.66 136.297 119.544 136.698 119.394L137.136 120.679ZM135.769 116.728C135.737 115.602 135.231 115.039 134.251 115.039C133.745 115.039 133.36 115.185 133.096 115.477C132.836 115.768 132.676 116.185 132.617 116.728H135.769ZM145.551 111.156V118.683V118.977C145.551 119.332 145.562 119.653 145.585 119.94C145.608 120.223 145.658 120.51 145.735 120.802C145.59 120.843 145.448 120.882 145.312 120.918C145.175 120.95 145.038 120.979 144.901 121.007C144.769 121.039 144.635 121.066 144.498 121.089C144.361 121.116 144.218 121.141 144.067 121.164C144.031 121.068 143.999 120.977 143.972 120.891C143.949 120.804 143.926 120.711 143.903 120.61C143.885 120.51 143.869 120.401 143.855 120.282C143.842 120.164 143.83 120.025 143.821 119.865H143.746C143.217 120.731 142.47 121.164 141.504 121.164C141.025 121.164 140.622 121.071 140.294 120.884C139.966 120.697 139.699 120.446 139.494 120.132C139.294 119.813 139.148 119.446 139.057 119.031C138.97 118.612 138.927 118.17 138.927 117.705C138.927 117.049 139.013 116.475 139.187 115.982C139.364 115.486 139.613 115.071 139.932 114.738C140.251 114.406 140.631 114.155 141.073 113.986C141.52 113.818 142.012 113.733 142.55 113.733C142.746 113.733 142.935 113.743 143.117 113.761C143.304 113.779 143.491 113.802 143.678 113.829V111.156H145.551ZM143.698 115.237C143.334 115.146 142.994 115.101 142.68 115.101C142.411 115.101 142.16 115.137 141.928 115.21C141.7 115.283 141.502 115.401 141.333 115.565C141.164 115.729 141.032 115.941 140.937 116.201C140.845 116.461 140.8 116.778 140.8 117.151C140.8 117.539 140.813 117.894 140.841 118.218C140.873 118.541 140.937 118.822 141.032 119.059C141.128 119.291 141.265 119.473 141.442 119.605C141.62 119.733 141.857 119.797 142.153 119.797C142.368 119.797 142.554 119.754 142.714 119.667C142.878 119.58 143.026 119.46 143.158 119.305C143.258 119.195 143.352 119.072 143.438 118.936C143.525 118.794 143.612 118.644 143.698 118.484V115.237Z" fill="white"/>
<path d="M91.6971 53.9852C92.5609 51.0404 92.9998 47.9874 93.0005 44.9185V33.2851C93.0075 32.6327 92.7583 32.0035 92.3064 31.5329C91.8545 31.0623 91.2359 30.7878 90.5838 30.7684C79.9537 30.4751 73.4412 27.2801 71.6903 26.3025C71.3237 26.1032 70.9128 25.9991 70.4955 26C70.0782 26.0009 69.6677 26.1066 69.302 26.3075C67.5594 27.2801 61.0469 30.4742 50.4177 30.7684C49.7653 30.7876 49.1466 31.062 48.6945 31.5326C48.2424 32.0033 47.9931 32.6325 48.0001 33.2851V44.9185C47.9834 50.7084 49.5291 56.3955 52.4743 61.3803C55.4195 66.3652 59.655 70.4631 64.7344 73.242L69.2103 75.6804C69.6075 75.8915 70.0505 76.002 70.5003 76.0021C70.9542 76.0014 71.4011 75.8899 71.802 75.6771L76.2728 73.242C76.8562 72.9212 77.3637 72.6162 77.8479 72.3154C79.0095 73.5532 80.4275 74.5223 82.0028 75.155C83.578 75.7876 85.2725 76.0685 86.9676 75.9781C88.6628 75.8876 90.3177 75.428 91.8166 74.6313C93.3156 73.8345 94.6225 72.72 95.6458 71.3656C96.6691 70.0112 97.3842 68.4495 97.7411 66.7899C98.098 65.1303 98.0881 63.4128 97.712 61.7574C97.3359 60.1021 96.6028 58.5488 95.5638 57.2064C94.5249 55.8639 93.2052 54.7645 91.6971 53.9852ZM75.4687 71.7787L71.0103 74.2079C70.8548 74.291 70.6814 74.3348 70.5051 74.3357C70.3288 74.3366 70.1549 74.2944 69.9986 74.2129L65.5319 71.7787C60.7158 69.1427 56.7 65.2563 53.9079 60.529C51.1157 55.8018 49.6505 50.4088 49.6668 44.9185V33.2851C49.6623 33.0673 49.7432 32.8563 49.8923 32.6975C50.0413 32.5386 50.2467 32.4444 50.4643 32.4351C61.1719 32.1393 67.7736 29.0692 70.1061 27.7684C70.2259 27.704 70.3596 27.6699 70.4955 27.669C70.6315 27.6681 70.7656 27.7005 70.8861 27.7634C73.227 29.0692 79.8287 32.1393 90.5354 32.4351C90.7532 32.4442 90.9588 32.5383 91.108 32.6972C91.2573 32.8561 91.3383 33.0671 91.3338 33.2851V44.9185C91.3279 47.7604 90.926 50.5876 90.1396 53.3186C89.6172 53.1353 89.0822 52.9902 88.5388 52.8844C89.2822 50.2942 89.6619 47.6133 89.6671 44.9185V35.6518C89.6637 35.2289 89.5013 34.8228 89.2123 34.514C88.9233 34.2053 88.5288 34.0165 88.1071 33.9851C82.2625 33.6902 76.5291 32.2739 71.2195 29.8134C70.9915 29.7074 70.7429 29.6531 70.4915 29.6543C70.2401 29.6556 69.9921 29.7125 69.7653 29.8209C64.4578 32.2785 58.7274 33.693 52.886 33.9876C52.4658 34.0201 52.0732 34.2092 51.7857 34.5174C51.4982 34.8255 51.3368 35.2304 51.3335 35.6518V44.9185C51.3168 50.1079 52.7007 55.2057 55.3392 59.6744C57.9777 64.143 61.7732 67.8169 66.3253 70.3087L69.3086 71.9379C69.6765 72.134 70.0871 72.2366 70.504 72.2366C70.921 72.2366 71.3316 72.134 71.6995 71.9379L74.6728 70.3137C75.1145 70.0745 75.5262 69.8312 75.927 69.5845C76.1773 70.0821 76.4631 70.5611 76.782 71.0179C76.3745 71.262 75.947 71.5145 75.4687 71.7787ZM75.2728 68.0203C74.8312 68.3003 74.3745 68.5753 73.8762 68.8453L70.9086 70.4662C70.7846 70.5331 70.6459 70.5684 70.505 70.5692C70.364 70.5699 70.2251 70.536 70.1003 70.4703L67.1228 68.8453C62.8338 66.4967 59.258 63.0344 56.7724 58.8233C54.2868 54.6122 52.9836 49.8084 53.0002 44.9185L53.0077 35.6501C59.0623 35.3397 65.0009 33.8685 70.5003 31.3167C76.0025 33.8682 81.9434 35.3393 88.0004 35.6501V44.9185C87.9965 47.5519 87.6134 50.171 86.8629 52.6952C86.6862 52.6877 86.5121 52.6686 86.3337 52.6686C84.4845 52.665 82.661 53.1018 81.0142 53.943C79.3674 54.7842 77.9446 56.0055 76.8636 57.5059C75.7826 59.0063 75.0745 60.7425 74.7978 62.5709C74.5212 64.3993 74.684 66.2673 75.2728 68.0203ZM86.3337 74.3354C84.3559 74.3354 82.4225 73.7489 80.778 72.6501C79.1335 71.5512 77.8518 69.9894 77.0949 68.1622C76.338 66.3349 76.14 64.3242 76.5258 62.3844C76.9117 60.4446 77.8641 58.6627 79.2626 57.2642C80.6612 55.8657 82.443 54.9132 84.3828 54.5274C86.3226 54.1415 88.3333 54.3396 90.1606 55.0964C91.9879 55.8533 93.5497 57.1351 94.6485 58.7796C95.7473 60.4241 96.3338 62.3575 96.3338 64.3353C96.3309 66.9866 95.2764 69.5285 93.4017 71.4033C91.5269 73.278 88.985 74.3325 86.3337 74.3354Z" fill="white" stroke="white" stroke-width="0.3"/>
<path d="M81.7145 50.2007C83.071 48.8038 83.8298 46.9333 83.8298 44.9861C83.8298 43.0389 83.071 41.1684 81.7145 39.7715C81.0372 39.0986 80.2335 38.5663 79.3496 38.2053C78.4657 37.8443 77.5192 37.6618 76.5644 37.6681C75.6115 37.6627 74.6668 37.8458 73.7849 38.2067C72.9029 38.5677 72.101 39.0995 71.4252 39.7715L70.5002 40.709L69.5836 39.7715C68.9067 39.0987 68.1034 38.5665 67.22 38.2055C66.3365 37.8445 65.3904 37.6619 64.436 37.6681C63.4827 37.6623 62.5376 37.845 61.6552 38.2059C60.7728 38.5667 59.9704 39.0985 59.2943 39.7706C57.9353 41.1667 57.1748 43.0382 57.1748 44.9865C57.1748 46.9349 57.9353 48.8063 59.2943 50.2024L69.4802 60.5708C69.6117 60.7065 69.7691 60.8145 69.9429 60.8885C70.1168 60.9625 70.3038 61.001 70.4927 61.0016H70.5002C70.6903 61.0016 70.8785 60.9637 71.0538 60.8902C71.229 60.8166 71.3879 60.7089 71.5211 60.5733L81.7128 50.2024L81.7145 50.2007ZM70.5002 59.2324L60.4802 49.0349C59.4255 47.9515 58.8354 46.4993 58.8354 44.9873C58.8354 43.4754 59.4255 42.0232 60.4802 40.9398C61.0006 40.4248 61.6177 40.0179 62.2961 39.7424C62.9744 39.4669 63.7006 39.3284 64.4327 39.3348C65.1653 39.3284 65.892 39.4669 66.5709 39.7424C67.2498 40.0178 67.8675 40.4248 68.3886 40.9398L69.9011 42.4823C69.9785 42.5614 70.071 42.6242 70.173 42.6671C70.275 42.71 70.3846 42.7322 70.4952 42.7323C70.6059 42.7322 70.7155 42.71 70.8175 42.6671C70.9195 42.6242 71.0119 42.5614 71.0894 42.4823L72.6069 40.939C73.1277 40.4239 73.7453 40.0169 74.4241 39.7416C75.1029 39.4663 75.8295 39.328 76.5619 39.3348C77.2953 39.3281 78.0227 39.4666 78.7024 39.7422C79.382 40.0178 80.0004 40.4251 80.522 40.9407C81.5746 42.0249 82.1634 43.4766 82.1634 44.9878C82.1634 46.4989 81.5746 47.9506 80.522 49.0349L70.5002 59.2324Z" fill="white" stroke="white" stroke-width="0.3"/>
<path d="M91.0891 59.579C90.9329 59.4227 90.7209 59.335 90.5 59.335C90.279 59.335 90.0671 59.4227 89.9108 59.579L86.3333 63.1565L82.7557 59.579C82.5986 59.4272 82.3881 59.3432 82.1696 59.3451C81.9511 59.347 81.7421 59.4346 81.5876 59.5891C81.433 59.7436 81.3454 59.9526 81.3435 60.1711C81.3416 60.3896 81.4256 60.6001 81.5774 60.7573L85.1549 64.3348L81.5774 67.9123C81.4978 67.9892 81.4343 68.0812 81.3907 68.1828C81.347 68.2845 81.324 68.3939 81.323 68.5045C81.3221 68.6152 81.3432 68.7249 81.3851 68.8273C81.427 68.9297 81.4888 69.0228 81.5671 69.101C81.6453 69.1793 81.7384 69.2411 81.8408 69.283C81.9432 69.3249 82.0529 69.346 82.1636 69.3451C82.2742 69.3441 82.3836 69.3211 82.4852 69.2774C82.5869 69.2338 82.6789 69.1703 82.7557 69.0907L86.3333 65.5132L89.9108 69.0907C90.068 69.2425 90.2785 69.3265 90.497 69.3246C90.7155 69.3227 90.9245 69.235 91.079 69.0805C91.2335 68.926 91.3211 68.717 91.323 68.4985C91.3249 68.28 91.2409 68.0695 91.0891 67.9123L87.5116 64.3348L91.0891 60.7573C91.2454 60.601 91.3331 60.3891 91.3331 60.1681C91.3331 59.9472 91.2454 59.7352 91.0891 59.579Z" fill="white" stroke="white" stroke-width="0.3"/>
<path d="M76.3335 47.669H73.8334C73.6786 47.6689 73.5268 47.712 73.395 47.7934C73.2633 47.8748 73.1568 47.9913 73.0876 48.1298L72.1176 50.0707L69.5567 45.5856C69.4859 45.4628 69.3849 45.3601 69.2633 45.2872C69.1417 45.2142 69.0035 45.1736 68.8617 45.169C68.7196 45.1619 68.578 45.1923 68.4513 45.2573C68.3246 45.3222 68.2173 45.4194 68.1401 45.539L66.7209 47.669H64.6667C64.4457 47.669 64.2337 47.7568 64.0775 47.9131C63.9212 48.0694 63.8334 48.2813 63.8334 48.5023C63.8334 48.7234 63.9212 48.9353 64.0775 49.0916C64.2337 49.2479 64.4457 49.3357 64.6667 49.3357H67.1667C67.3039 49.3357 67.4389 49.3019 67.5599 49.2372C67.6808 49.1725 67.7839 49.0789 67.8601 48.9648L68.7767 47.5865L71.4434 52.249C71.5163 52.3766 71.6216 52.4826 71.7486 52.5564C71.8756 52.6301 72.0199 52.669 72.1668 52.669H72.1893C72.3403 52.665 72.4874 52.62 72.6148 52.5388C72.7422 52.4576 72.8451 52.3434 72.9126 52.2082L74.3484 49.3357H76.3335C76.5545 49.3357 76.7664 49.2479 76.9227 49.0916C77.079 48.9353 77.1668 48.7234 77.1668 48.5023C77.1668 48.2813 77.079 48.0694 76.9227 47.9131C76.7664 47.7568 76.5545 47.669 76.3335 47.669Z" fill="white" stroke="white" stroke-width="0.3"/>
<circle cx="73" cy="51" r="50.5" stroke="white"/>
</svg>
