<svg width="102" height="126" viewBox="0 0 102 126" fill="none" xmlns="http://www.w3.org/2000/svg">
<path d="M15.8779 111.17V121H13.7656L9.46582 113.651V121H7.55859V111.17H9.6709L13.9707 118.519V111.17H15.8779ZM21.2578 113.733C21.8548 113.733 22.3721 113.827 22.8096 114.014C23.2471 114.201 23.6071 114.46 23.8896 114.793C24.1768 115.121 24.3887 115.513 24.5254 115.969C24.6667 116.42 24.7373 116.912 24.7373 117.445C24.7373 117.979 24.6667 118.473 24.5254 118.929C24.3887 119.384 24.1768 119.779 23.8896 120.111C23.6071 120.439 23.2471 120.697 22.8096 120.884C22.3721 121.071 21.8548 121.164 21.2578 121.164C20.6608 121.164 20.1436 121.071 19.7061 120.884C19.2686 120.697 18.9062 120.439 18.6191 120.111C18.3366 119.779 18.1247 119.384 17.9834 118.929C17.8467 118.473 17.7783 117.979 17.7783 117.445C17.7783 116.912 17.8467 116.42 17.9834 115.969C18.1247 115.513 18.3366 115.121 18.6191 114.793C18.9062 114.46 19.2686 114.201 19.7061 114.014C20.1436 113.827 20.6608 113.733 21.2578 113.733ZM21.2578 115.073C20.9297 115.073 20.6608 115.135 20.4512 115.258C20.2415 115.381 20.0775 115.549 19.959 115.764C19.8405 115.978 19.7585 116.231 19.7129 116.522C19.6719 116.81 19.6514 117.117 19.6514 117.445C19.6514 117.778 19.6719 118.09 19.7129 118.382C19.7585 118.669 19.8405 118.92 19.959 119.134C20.0775 119.348 20.2415 119.517 20.4512 119.64C20.6608 119.763 20.9297 119.824 21.2578 119.824C21.5859 119.824 21.8548 119.763 22.0645 119.64C22.2741 119.517 22.4382 119.348 22.5566 119.134C22.6751 118.92 22.7549 118.669 22.7959 118.382C22.8415 118.09 22.8643 117.778 22.8643 117.445C22.8643 117.117 22.8415 116.81 22.7959 116.522C22.7549 116.231 22.6751 115.978 22.5566 115.764C22.4382 115.549 22.2741 115.381 22.0645 115.258C21.8548 115.135 21.5859 115.073 21.2578 115.073ZM32.5918 111.17V121H30.6846V111.17H32.5918ZM37.0557 115.107C37.2061 114.88 37.361 114.681 37.5205 114.513C37.6846 114.34 37.8577 114.196 38.04 114.082C38.2269 113.964 38.4297 113.877 38.6484 113.822C38.8717 113.763 39.1178 113.733 39.3867 113.733C39.6875 113.733 39.9541 113.768 40.1865 113.836C40.4189 113.9 40.6195 113.995 40.7881 114.123C40.9567 114.246 41.098 114.401 41.2119 114.588C41.3304 114.77 41.4238 114.978 41.4922 115.21C41.556 115.442 41.6016 115.695 41.6289 115.969C41.6608 116.238 41.6768 116.529 41.6768 116.844V121H39.8037V116.304C39.8037 115.912 39.7126 115.613 39.5303 115.408C39.3525 115.203 39.1087 115.101 38.7988 115.101C38.6257 115.101 38.4548 115.142 38.2861 115.224C38.1221 115.306 37.9626 115.415 37.8076 115.552C37.6527 115.684 37.5091 115.834 37.377 116.003C37.2448 116.172 37.1263 116.342 37.0215 116.516V121H35.1484V116.618C35.1484 116.249 35.1439 115.941 35.1348 115.695C35.1302 115.445 35.1188 115.224 35.1006 115.032C35.0915 114.937 35.0824 114.852 35.0732 114.779C35.0641 114.706 35.0527 114.636 35.0391 114.567C35.0299 114.499 35.0163 114.431 34.998 114.362C34.9844 114.289 34.9661 114.207 34.9434 114.116C35.2396 114.039 35.5335 113.97 35.8252 113.911C36.1214 113.847 36.4199 113.788 36.7207 113.733C36.7526 113.829 36.7822 113.925 36.8096 114.021C36.8369 114.112 36.8597 114.212 36.8779 114.321C36.8962 114.426 36.9121 114.542 36.9258 114.67C36.9395 114.798 36.9531 114.943 36.9668 115.107H37.0557ZM46.1885 113.74C46.626 113.74 47.0544 113.779 47.4736 113.856C47.8929 113.934 48.2598 114.036 48.5742 114.164C48.5104 114.346 48.4352 114.531 48.3486 114.718C48.2666 114.905 48.1823 115.082 48.0957 115.251C47.8633 115.174 47.5921 115.107 47.2822 115.053C46.9769 114.998 46.6738 114.971 46.373 114.971C46.1999 114.971 46.0335 114.984 45.874 115.012C45.7191 115.035 45.5824 115.073 45.4639 115.128C45.3499 115.183 45.2588 115.256 45.1904 115.347C45.1221 115.433 45.0879 115.54 45.0879 115.668C45.0879 115.846 45.1312 115.987 45.2178 116.092C45.3089 116.192 45.4274 116.274 45.5732 116.338C45.7236 116.402 45.8968 116.454 46.0928 116.495C46.2887 116.536 46.4938 116.582 46.708 116.632C47.0407 116.709 47.3506 116.807 47.6377 116.926C47.9294 117.044 48.18 117.197 48.3896 117.384C48.6038 117.566 48.7679 117.792 48.8818 118.061C49.0003 118.325 49.0573 118.644 49.0527 119.018C49.0436 119.419 48.9479 119.756 48.7656 120.029C48.5879 120.303 48.3509 120.524 48.0547 120.692C47.763 120.861 47.4281 120.982 47.0498 121.055C46.6761 121.128 46.2933 121.164 45.9014 121.164C45.6416 121.164 45.3818 121.15 45.1221 121.123C44.8623 121.096 44.6139 121.055 44.377 121C44.14 120.95 43.9189 120.891 43.7139 120.822C43.5088 120.749 43.3288 120.67 43.1738 120.583C43.2513 120.405 43.3379 120.221 43.4336 120.029C43.5293 119.838 43.6227 119.66 43.7139 119.496C43.8415 119.551 43.9873 119.605 44.1514 119.66C44.32 119.71 44.4954 119.756 44.6777 119.797C44.8646 119.833 45.0537 119.865 45.2451 119.893C45.4411 119.915 45.6325 119.927 45.8193 119.927C46.0107 119.927 46.193 119.911 46.3662 119.879C46.5394 119.847 46.6898 119.797 46.8174 119.729C46.9495 119.656 47.0521 119.562 47.125 119.448C47.2025 119.33 47.2412 119.186 47.2412 119.018C47.2412 118.826 47.1956 118.674 47.1045 118.56C47.0179 118.446 46.8994 118.354 46.749 118.286C46.5986 118.218 46.4255 118.163 46.2295 118.122C46.0335 118.081 45.8307 118.04 45.6211 117.999C45.3021 117.935 44.999 117.844 44.7119 117.726C44.4248 117.607 44.1742 117.454 43.96 117.268C43.7458 117.081 43.5749 116.855 43.4473 116.591C43.3242 116.322 43.2673 116.007 43.2764 115.647C43.2809 115.292 43.3675 114.993 43.5361 114.752C43.7048 114.506 43.9235 114.31 44.1924 114.164C44.4613 114.014 44.7689 113.907 45.1152 113.843C45.4616 113.774 45.8193 113.74 46.1885 113.74ZM57.2627 113.891V118.279C57.2627 118.648 57.265 118.958 57.2695 119.209C57.2786 119.455 57.2923 119.674 57.3105 119.865C57.3197 119.961 57.3288 120.045 57.3379 120.118C57.347 120.191 57.3561 120.262 57.3652 120.33C57.3789 120.398 57.3926 120.469 57.4062 120.542C57.4245 120.615 57.445 120.695 57.4678 120.781C57.1715 120.859 56.8753 120.929 56.5791 120.993C56.2874 121.052 55.9912 121.109 55.6904 121.164C55.654 121.068 55.6221 120.975 55.5947 120.884C55.5719 120.788 55.5514 120.688 55.5332 120.583C55.515 120.474 55.499 120.355 55.4854 120.228C55.4717 120.1 55.458 119.954 55.4443 119.79H55.3555C55.2051 120.018 55.0479 120.218 54.8838 120.392C54.7243 120.56 54.5511 120.704 54.3643 120.822C54.182 120.936 53.9792 121.021 53.7559 121.075C53.5371 121.134 53.2933 121.164 53.0244 121.164C52.4548 121.164 52.0059 121.05 51.6777 120.822C51.3542 120.59 51.1195 120.262 50.9736 119.838C50.887 119.592 50.8255 119.321 50.7891 119.024C50.7526 118.728 50.7344 118.405 50.7344 118.054V113.891H52.6074V118.594C52.6074 118.986 52.6963 119.284 52.874 119.489C53.0563 119.694 53.3024 119.797 53.6123 119.797C53.7855 119.797 53.9541 119.756 54.1182 119.674C54.2868 119.592 54.4486 119.485 54.6035 119.353C54.7585 119.22 54.902 119.07 55.0342 118.901C55.1663 118.728 55.2848 118.555 55.3896 118.382V113.891H57.2627ZM61.4531 115.107C61.6172 114.866 61.7699 114.668 61.9111 114.513C62.0479 114.362 62.1914 114.239 62.3418 114.144C62.4922 114.043 62.6426 113.964 62.793 113.904C62.9479 113.84 63.1029 113.797 63.2578 113.774C63.4128 113.747 63.5654 113.733 63.7158 113.733C63.8434 113.733 63.9665 113.743 64.085 113.761C64.208 113.774 64.3219 113.793 64.4268 113.815C64.4131 113.943 64.3949 114.08 64.3721 114.226C64.3493 114.367 64.3242 114.51 64.2969 114.656C64.2695 114.802 64.2376 114.946 64.2012 115.087C64.1693 115.228 64.1351 115.36 64.0986 115.483C63.8389 115.433 63.6133 115.392 63.4219 115.36C63.2305 115.324 63.0596 115.306 62.9092 115.306C62.7679 115.306 62.638 115.326 62.5195 115.367C62.4056 115.404 62.2917 115.47 62.1777 115.565C62.0638 115.661 61.9453 115.789 61.8223 115.948C61.7038 116.103 61.5693 116.299 61.4189 116.536V121H59.5459V116.618C59.5459 116.354 59.5436 116.108 59.5391 115.88C59.5345 115.647 59.5254 115.431 59.5117 115.23C59.498 115.025 59.4775 114.832 59.4502 114.649C59.4229 114.467 59.3864 114.289 59.3408 114.116C59.637 114.039 59.931 113.968 60.2227 113.904C60.5189 113.84 60.8174 113.784 61.1182 113.733C61.1501 113.829 61.1797 113.925 61.207 114.021C61.2344 114.112 61.2572 114.212 61.2754 114.321C61.2936 114.426 61.3096 114.542 61.3232 114.67C61.3369 114.798 61.3506 114.943 61.3643 115.107H61.4531ZM66.1152 114.239C66.2839 114.171 66.4753 114.107 66.6895 114.048C66.9082 113.989 67.1383 113.936 67.3799 113.891C67.626 113.84 67.8789 113.802 68.1387 113.774C68.403 113.747 68.6696 113.733 68.9385 113.733C69.3167 113.733 69.6699 113.763 69.998 113.822C70.3307 113.882 70.6064 113.979 70.8252 114.116C71.0439 114.253 71.2148 114.44 71.3379 114.677C71.4609 114.909 71.5225 115.203 71.5225 115.559V118.334C71.5225 118.653 71.5247 118.938 71.5293 119.188C71.5339 119.435 71.543 119.676 71.5566 119.913C71.5658 120 71.5749 120.079 71.584 120.152C71.5931 120.221 71.6022 120.289 71.6113 120.357C71.625 120.421 71.6387 120.49 71.6523 120.562C71.6706 120.635 71.6911 120.715 71.7139 120.802C71.4313 120.866 71.1488 120.927 70.8662 120.986C70.5882 121.046 70.3057 121.103 70.0186 121.157C69.9684 121.03 69.9274 120.9 69.8955 120.768C69.8682 120.631 69.8431 120.476 69.8203 120.303H69.7178C69.5583 120.467 69.3988 120.604 69.2393 120.713C69.0798 120.822 68.9134 120.911 68.7402 120.979C68.5671 121.048 68.387 121.096 68.2002 121.123C68.0133 121.15 67.8174 121.164 67.6123 121.164C67.2979 121.164 67.0062 121.125 66.7373 121.048C66.4684 120.975 66.2337 120.861 66.0332 120.706C65.8372 120.551 65.6823 120.355 65.5684 120.118C65.459 119.877 65.4043 119.594 65.4043 119.271C65.4043 118.997 65.4316 118.753 65.4863 118.539C65.5456 118.325 65.6276 118.133 65.7324 117.965C65.8372 117.796 65.9626 117.648 66.1084 117.521C66.2542 117.393 66.416 117.281 66.5938 117.186C66.9492 116.994 67.3457 116.864 67.7832 116.796C68.2207 116.723 68.6673 116.687 69.123 116.687H69.7109V115.798C69.7109 115.629 69.6836 115.497 69.6289 115.401C69.5788 115.301 69.5081 115.226 69.417 115.176C69.3304 115.126 69.2279 115.094 69.1094 115.08C68.9909 115.062 68.8633 115.053 68.7266 115.053C68.3574 115.053 67.9837 115.101 67.6055 115.196C67.2318 115.287 66.874 115.401 66.5322 115.538L66.1152 114.239ZM69.7109 117.691H69.5742C69.2507 117.696 68.9408 117.721 68.6445 117.767C68.3529 117.808 68.0954 117.881 67.8721 117.985C67.6488 118.09 67.4688 118.229 67.332 118.402C67.1999 118.571 67.1338 118.785 67.1338 119.045C67.1338 119.332 67.2158 119.553 67.3799 119.708C67.5485 119.863 67.7832 119.94 68.084 119.94C68.2253 119.94 68.3711 119.922 68.5215 119.886C68.6719 119.845 68.82 119.79 68.9658 119.722C69.1117 119.649 69.2484 119.56 69.376 119.455C69.5036 119.35 69.6152 119.229 69.7109 119.093V117.691ZM75.7061 115.107C75.8564 114.88 76.0114 114.681 76.1709 114.513C76.335 114.34 76.5081 114.196 76.6904 114.082C76.8773 113.964 77.0801 113.877 77.2988 113.822C77.5221 113.763 77.7682 113.733 78.0371 113.733C78.3379 113.733 78.6045 113.768 78.8369 113.836C79.0693 113.9 79.2699 113.995 79.4385 114.123C79.6071 114.246 79.7484 114.401 79.8623 114.588C79.9808 114.77 80.0742 114.978 80.1426 115.21C80.2064 115.442 80.252 115.695 80.2793 115.969C80.3112 116.238 80.3271 116.529 80.3271 116.844V121H78.4541V116.304C78.4541 115.912 78.363 115.613 78.1807 115.408C78.0029 115.203 77.7591 115.101 77.4492 115.101C77.276 115.101 77.1051 115.142 76.9365 115.224C76.7725 115.306 76.613 115.415 76.458 115.552C76.3031 115.684 76.1595 115.834 76.0273 116.003C75.8952 116.172 75.7767 116.342 75.6719 116.516V121H73.7988V116.618C73.7988 116.249 73.7943 115.941 73.7852 115.695C73.7806 115.445 73.7692 115.224 73.751 115.032C73.7419 114.937 73.7327 114.852 73.7236 114.779C73.7145 114.706 73.7031 114.636 73.6895 114.567C73.6803 114.499 73.6667 114.431 73.6484 114.362C73.6348 114.289 73.6165 114.207 73.5938 114.116C73.89 114.039 74.1839 113.97 74.4756 113.911C74.7718 113.847 75.0703 113.788 75.3711 113.733C75.403 113.829 75.4326 113.925 75.46 114.021C75.4873 114.112 75.5101 114.212 75.5283 114.321C75.5465 114.426 75.5625 114.542 75.5762 114.67C75.5898 114.798 75.6035 114.943 75.6172 115.107H75.7061ZM87.8809 120.733C87.694 120.802 87.4889 120.863 87.2656 120.918C87.0423 120.973 86.8145 121.018 86.582 121.055C86.3542 121.091 86.1286 121.118 85.9053 121.137C85.682 121.155 85.4769 121.164 85.29 121.164C84.6292 121.164 84.071 121.087 83.6152 120.932C83.1595 120.777 82.7904 120.549 82.5078 120.248C82.2298 119.943 82.0293 119.567 81.9062 119.12C81.7832 118.674 81.7217 118.161 81.7217 117.582C81.7217 116.976 81.7992 116.434 81.9541 115.955C82.1136 115.477 82.3506 115.073 82.665 114.745C82.9795 114.417 83.3714 114.166 83.8408 113.993C84.3102 113.82 84.8594 113.733 85.4883 113.733C85.8529 113.733 86.2152 113.763 86.5752 113.822C86.9352 113.877 87.2793 113.952 87.6074 114.048L87.1494 115.401C86.876 115.31 86.6094 115.237 86.3496 115.183C86.0944 115.128 85.8346 115.101 85.5703 115.101C85.2194 115.101 84.9186 115.16 84.668 115.278C84.4219 115.392 84.2191 115.554 84.0596 115.764C83.9001 115.969 83.7816 116.215 83.7041 116.502C83.6312 116.789 83.5947 117.104 83.5947 117.445C83.5947 118.238 83.7314 118.828 84.0049 119.216C84.2829 119.603 84.7409 119.797 85.3789 119.797C85.7708 119.797 86.1309 119.756 86.459 119.674C86.7917 119.592 87.1221 119.494 87.4502 119.38L87.8809 120.733ZM95.4824 120.679C95.2956 120.756 95.0905 120.825 94.8672 120.884C94.6484 120.943 94.4183 120.993 94.1768 121.034C93.9352 121.075 93.6891 121.107 93.4385 121.13C93.1924 121.153 92.9508 121.164 92.7139 121.164C91.5153 121.164 90.6084 120.877 89.9932 120.303C89.3825 119.724 89.0771 118.84 89.0771 117.65C89.0771 117.122 89.1387 116.62 89.2617 116.146C89.3848 115.673 89.583 115.258 89.8564 114.902C90.1344 114.542 90.4967 114.257 90.9434 114.048C91.3945 113.838 91.946 113.733 92.5977 113.733C93.737 113.733 94.5869 114.036 95.1475 114.643C95.708 115.244 95.9883 116.165 95.9883 117.404V117.944H90.9365C90.9456 118.254 90.9821 118.528 91.0459 118.765C91.1097 119.002 91.2145 119.202 91.3604 119.366C91.5107 119.526 91.7067 119.649 91.9482 119.735C92.1898 119.817 92.4928 119.858 92.8574 119.858C93.1764 119.858 93.5205 119.82 93.8896 119.742C94.2588 119.66 94.6439 119.544 95.0449 119.394L95.4824 120.679ZM94.1152 116.728C94.0833 115.602 93.5775 115.039 92.5977 115.039C92.0918 115.039 91.7067 115.185 91.4424 115.477C91.1826 115.768 91.0231 116.185 90.9639 116.728H94.1152Z" fill="white"/>
<path d="M69.6971 53.9852C70.5609 51.0404 70.9998 47.9874 71.0005 44.9185V33.2851C71.0075 32.6327 70.7583 32.0035 70.3064 31.5329C69.8545 31.0623 69.2359 30.7878 68.5838 30.7684C57.9537 30.4751 51.4412 27.2801 49.6903 26.3025C49.3237 26.1032 48.9128 25.9991 48.4955 26C48.0782 26.0009 47.6677 26.1066 47.302 26.3075C45.5594 27.2801 39.0469 30.4742 28.4177 30.7684C27.7653 30.7876 27.1466 31.062 26.6945 31.5326C26.2424 32.0033 25.9931 32.6325 26.0001 33.2851V44.9185C25.9834 50.7084 27.5291 56.3955 30.4743 61.3803C33.4195 66.3652 37.655 70.4631 42.7344 73.242L47.2103 75.6804C47.6075 75.8915 48.0505 76.002 48.5003 76.0021C48.9542 76.0014 49.4011 75.8899 49.802 75.6771L54.2728 73.242C54.8562 72.9212 55.3637 72.6162 55.8479 72.3154C57.0095 73.5532 58.4275 74.5223 60.0028 75.155C61.578 75.7876 63.2725 76.0685 64.9676 75.9781C66.6628 75.8876 68.3177 75.428 69.8166 74.6313C71.3156 73.8345 72.6225 72.72 73.6458 71.3656C74.6691 70.0112 75.3842 68.4495 75.7411 66.7899C76.098 65.1303 76.0881 63.4128 75.712 61.7574C75.3359 60.1021 74.6028 58.5488 73.5638 57.2064C72.5249 55.8639 71.2052 54.7645 69.6971 53.9852ZM53.4687 71.7787L49.0103 74.2079C48.8548 74.291 48.6814 74.3348 48.5051 74.3357C48.3288 74.3366 48.1549 74.2944 47.9986 74.2129L43.5319 71.7787C38.7158 69.1427 34.7 65.2563 31.9079 60.529C29.1157 55.8018 27.6505 50.4088 27.6668 44.9185V33.2851C27.6623 33.0673 27.7432 32.8563 27.8923 32.6975C28.0413 32.5386 28.2467 32.4444 28.4643 32.4351C39.1719 32.1393 45.7736 29.0692 48.1061 27.7684C48.2259 27.704 48.3596 27.6699 48.4955 27.669C48.6315 27.6681 48.7656 27.7005 48.8861 27.7634C51.227 29.0692 57.8287 32.1393 68.5354 32.4351C68.7532 32.4442 68.9588 32.5383 69.108 32.6972C69.2573 32.8561 69.3383 33.0671 69.3338 33.2851V44.9185C69.3279 47.7604 68.926 50.5876 68.1396 53.3186C67.6172 53.1353 67.0822 52.9902 66.5388 52.8844C67.2822 50.2942 67.6619 47.6133 67.6671 44.9185V35.6518C67.6637 35.2289 67.5013 34.8228 67.2123 34.514C66.9233 34.2053 66.5288 34.0165 66.1071 33.9851C60.2625 33.6902 54.5291 32.2739 49.2195 29.8134C48.9915 29.7074 48.7429 29.6531 48.4915 29.6543C48.2401 29.6556 47.9921 29.7125 47.7653 29.8209C42.4578 32.2785 36.7274 33.693 30.886 33.9876C30.4658 34.0201 30.0732 34.2092 29.7857 34.5174C29.4982 34.8255 29.3368 35.2304 29.3335 35.6518V44.9185C29.3168 50.1079 30.7007 55.2057 33.3392 59.6744C35.9777 64.143 39.7732 67.8169 44.3253 70.3087L47.3086 71.9379C47.6765 72.134 48.0871 72.2366 48.504 72.2366C48.921 72.2366 49.3316 72.134 49.6995 71.9379L52.6728 70.3137C53.1145 70.0745 53.5262 69.8312 53.927 69.5845C54.1773 70.0821 54.4631 70.5611 54.782 71.0179C54.3745 71.262 53.947 71.5145 53.4687 71.7787ZM53.2728 68.0203C52.8312 68.3003 52.3745 68.5753 51.8762 68.8453L48.9086 70.4662C48.7846 70.5331 48.6459 70.5684 48.505 70.5692C48.364 70.5699 48.2251 70.536 48.1003 70.4703L45.1228 68.8453C40.8338 66.4967 37.258 63.0344 34.7724 58.8233C32.2868 54.6122 30.9836 49.8084 31.0002 44.9185L31.0077 35.6501C37.0623 35.3397 43.0009 33.8685 48.5003 31.3167C54.0025 33.8682 59.9434 35.3393 66.0004 35.6501V44.9185C65.9965 47.5519 65.6134 50.171 64.8629 52.6952C64.6862 52.6877 64.5121 52.6686 64.3337 52.6686C62.4845 52.665 60.661 53.1018 59.0142 53.943C57.3674 54.7842 55.9446 56.0055 54.8636 57.5059C53.7826 59.0063 53.0745 60.7425 52.7978 62.5709C52.5212 64.3993 52.684 66.2673 53.2728 68.0203ZM64.3337 74.3354C62.3559 74.3354 60.4225 73.7489 58.778 72.6501C57.1335 71.5512 55.8518 69.9894 55.0949 68.1622C54.338 66.3349 54.14 64.3242 54.5258 62.3844C54.9117 60.4446 55.8641 58.6627 57.2626 57.2642C58.6612 55.8657 60.443 54.9132 62.3828 54.5274C64.3226 54.1415 66.3333 54.3396 68.1606 55.0964C69.9879 55.8533 71.5497 57.1351 72.6485 58.7796C73.7473 60.4241 74.3338 62.3575 74.3338 64.3353C74.3309 66.9866 73.2764 69.5285 71.4017 71.4033C69.5269 73.278 66.985 74.3325 64.3337 74.3354Z" fill="white" stroke="white" stroke-width="0.3"/>
<path d="M59.7145 50.2007C61.071 48.8038 61.8298 46.9333 61.8298 44.9861C61.8298 43.0389 61.071 41.1684 59.7145 39.7715C59.0372 39.0986 58.2335 38.5663 57.3496 38.2053C56.4657 37.8443 55.5192 37.6618 54.5644 37.6681C53.6115 37.6627 52.6668 37.8458 51.7849 38.2067C50.9029 38.5677 50.101 39.0995 49.4252 39.7715L48.5002 40.709L47.5836 39.7715C46.9067 39.0987 46.1034 38.5665 45.22 38.2055C44.3365 37.8445 43.3904 37.6619 42.436 37.6681C41.4827 37.6623 40.5376 37.845 39.6552 38.2059C38.7728 38.5667 37.9704 39.0985 37.2943 39.7706C35.9353 41.1667 35.1748 43.0382 35.1748 44.9865C35.1748 46.9349 35.9353 48.8063 37.2943 50.2024L47.4802 60.5708C47.6117 60.7065 47.7691 60.8145 47.9429 60.8885C48.1168 60.9625 48.3038 61.001 48.4927 61.0016H48.5002C48.6903 61.0016 48.8785 60.9637 49.0538 60.8902C49.229 60.8166 49.3879 60.7089 49.5211 60.5733L59.7128 50.2024L59.7145 50.2007ZM48.5002 59.2324L38.4802 49.0349C37.4255 47.9515 36.8354 46.4993 36.8354 44.9873C36.8354 43.4754 37.4255 42.0232 38.4802 40.9398C39.0006 40.4248 39.6177 40.0179 40.2961 39.7424C40.9744 39.4669 41.7006 39.3284 42.4327 39.3348C43.1653 39.3284 43.892 39.4669 44.5709 39.7424C45.2498 40.0178 45.8675 40.4248 46.3886 40.9398L47.9011 42.4823C47.9785 42.5614 48.071 42.6242 48.173 42.6671C48.275 42.71 48.3846 42.7322 48.4952 42.7323C48.6059 42.7322 48.7155 42.71 48.8175 42.6671C48.9195 42.6242 49.0119 42.5614 49.0894 42.4823L50.6069 40.939C51.1277 40.4239 51.7453 40.0169 52.4241 39.7416C53.1029 39.4663 53.8295 39.328 54.5619 39.3348C55.2953 39.3281 56.0227 39.4666 56.7024 39.7422C57.382 40.0178 58.0004 40.4251 58.522 40.9407C59.5746 42.0249 60.1634 43.4766 60.1634 44.9878C60.1634 46.4989 59.5746 47.9506 58.522 49.0349L48.5002 59.2324Z" fill="white" stroke="white" stroke-width="0.3"/>
<path d="M69.0891 59.579C68.9329 59.4227 68.7209 59.335 68.5 59.335C68.279 59.335 68.0671 59.4227 67.9108 59.579L64.3333 63.1565L60.7557 59.579C60.5986 59.4272 60.3881 59.3432 60.1696 59.3451C59.9511 59.347 59.7421 59.4346 59.5876 59.5891C59.433 59.7436 59.3454 59.9526 59.3435 60.1711C59.3416 60.3896 59.4256 60.6001 59.5774 60.7573L63.1549 64.3348L59.5774 67.9123C59.4978 67.9892 59.4343 68.0812 59.3907 68.1828C59.347 68.2845 59.324 68.3939 59.323 68.5045C59.3221 68.6152 59.3432 68.7249 59.3851 68.8273C59.427 68.9297 59.4888 69.0228 59.5671 69.101C59.6453 69.1793 59.7384 69.2411 59.8408 69.283C59.9432 69.3249 60.0529 69.346 60.1636 69.3451C60.2742 69.3441 60.3836 69.3211 60.4852 69.2774C60.5869 69.2338 60.6789 69.1703 60.7557 69.0907L64.3333 65.5132L67.9108 69.0907C68.068 69.2425 68.2785 69.3265 68.497 69.3246C68.7155 69.3227 68.9245 69.235 69.079 69.0805C69.2335 68.926 69.3211 68.717 69.323 68.4985C69.3249 68.28 69.2409 68.0695 69.0891 67.9123L65.5116 64.3348L69.0891 60.7573C69.2454 60.601 69.3331 60.3891 69.3331 60.1681C69.3331 59.9472 69.2454 59.7352 69.0891 59.579Z" fill="white" stroke="white" stroke-width="0.3"/>
<path d="M54.3335 47.669H51.8334C51.6786 47.6689 51.5268 47.712 51.395 47.7934C51.2633 47.8748 51.1568 47.9913 51.0876 48.1298L50.1176 50.0707L47.5567 45.5856C47.4859 45.4628 47.3849 45.3601 47.2633 45.2872C47.1417 45.2142 47.0035 45.1736 46.8617 45.169C46.7196 45.1619 46.578 45.1923 46.4513 45.2573C46.3246 45.3222 46.2173 45.4194 46.1401 45.539L44.7209 47.669H42.6667C42.4457 47.669 42.2337 47.7568 42.0775 47.9131C41.9212 48.0694 41.8334 48.2813 41.8334 48.5023C41.8334 48.7234 41.9212 48.9353 42.0775 49.0916C42.2337 49.2479 42.4457 49.3357 42.6667 49.3357H45.1667C45.3039 49.3357 45.4389 49.3019 45.5599 49.2372C45.6808 49.1725 45.7839 49.0789 45.8601 48.9648L46.7767 47.5865L49.4434 52.249C49.5163 52.3766 49.6216 52.4826 49.7486 52.5564C49.8756 52.6301 50.0199 52.669 50.1668 52.669H50.1893C50.3403 52.665 50.4874 52.62 50.6148 52.5388C50.7422 52.4576 50.8451 52.3434 50.9126 52.2082L52.3484 49.3357H54.3335C54.5545 49.3357 54.7664 49.2479 54.9227 49.0916C55.079 48.9353 55.1668 48.7234 55.1668 48.5023C55.1668 48.2813 55.079 48.0694 54.9227 47.9131C54.7664 47.7568 54.5545 47.669 54.3335 47.669Z" fill="white" stroke="white" stroke-width="0.3"/>
<circle cx="51" cy="51" r="50.5" stroke="white"/>
</svg>
