<svg width="74" height="74" viewBox="0 0 74 74" fill="none" xmlns="http://www.w3.org/2000/svg">
<circle cx="37" cy="37" r="37" fill="#DFF3FF"/>
<path fill-rule="evenodd" clip-rule="evenodd" d="M13.375 37C13.375 50.0477 23.9523 60.625 37 60.625C50.0477 60.625 60.625 50.0477 60.625 37C60.625 23.9523 50.0477 13.375 37 13.375C23.9523 13.375 13.375 23.9523 13.375 37ZM64 37C64 51.9117 51.9117 64 37 64C22.0883 64 10 51.9117 10 37C10 22.0883 22.0883 10 37 10C51.9117 10 64 22.0883 64 37ZM25.1875 35.3125C24.2555 35.3125 23.5 36.068 23.5 37C23.5 37.932 24.2555 38.6875 25.1875 38.6875H44.7385L37.4943 45.9318C36.8352 46.5908 36.8352 47.6592 37.4943 48.3182C38.1533 48.9773 39.2217 48.9773 39.8807 48.3182L50.0057 38.1932C50.6648 37.5342 50.6648 36.4658 50.0057 35.8068L39.8807 25.6818C39.2217 25.0227 38.1533 25.0227 37.4943 25.6818C36.8352 26.3408 36.8352 27.4092 37.4943 28.0682L44.7385 35.3125H25.1875Z" fill="#2382BC"/>
</svg>
