<svg width="35" height="23" viewBox="0 0 35 23" fill="none" xmlns="http://www.w3.org/2000/svg">
<path fill-rule="evenodd" clip-rule="evenodd" d="M0 21.7222C0 21.0165 0.712274 20.4444 1.59091 20.4444H33.4091C34.2877 20.4444 35 21.0165 35 21.7222C35 22.4279 34.2877 23 33.4091 23H1.59091C0.712274 23 0 22.4279 0 21.7222Z" fill="black"/>
<path fill-rule="evenodd" clip-rule="evenodd" d="M0 11.5C0 10.7943 0.712274 10.2222 1.59091 10.2222H33.4091C34.2877 10.2222 35 10.7943 35 11.5C35 12.2057 34.2877 12.7778 33.4091 12.7778H1.59091C0.712274 12.7778 0 12.2057 0 11.5Z" fill="black"/>
<path fill-rule="evenodd" clip-rule="evenodd" d="M0 1.27778C0 0.572081 0.712274 0 1.59091 0H33.4091C34.2877 0 35 0.572081 35 1.27778C35 1.98347 34.2877 2.55556 33.4091 2.55556H1.59091C0.712274 2.55556 0 1.98347 0 1.27778Z" fill="black"/>
</svg>
