<svg width="20" height="22" viewBox="0 0 20 22" fill="none" xmlns="http://www.w3.org/2000/svg">
<path d="M9.24275 10.1925C12.0573 10.1925 14.339 7.91086 14.339 5.09627C14.339 2.28168 12.0573 0 9.24275 0C6.42816 0 4.14648 2.28168 4.14648 5.09627C4.14648 7.91086 6.42816 10.1925 9.24275 10.1925Z" fill="white"/>
<path d="M13.4568 21.9805H0C0 16.8756 4.13658 12.7393 9.24126 12.7393C10.8577 12.7393 12.3772 13.1555 13.6989 13.8868C12.3179 14.7421 11.3987 16.2702 11.3987 18.0139C11.3987 19.6531 12.2117 21.1029 13.4568 21.9805Z" fill="white"/>
<path d="M17.2756 14.4219H15.2285V21.6247H17.2756V14.4219Z" fill="white"/>
<path d="M19.8493 16.9971H12.6465V19.0441H19.8493V16.9971Z" fill="white"/>
</svg>
