<svg width="40" height="27" viewBox="0 0 40 27" fill="none" xmlns="http://www.w3.org/2000/svg">
<path d="M14.95 3.70098C14.95 3.15098 14.5 2.75098 14 2.75098H5.95C5.4 2.75098 5 3.20098 5 3.70098C5 4.25098 5.45 4.65098 5.95 4.65098H14C14.5 4.70098 14.9 4.25098 14.95 3.70098Z" fill="#2382BC"/>
<path d="M10.9501 8.80059C10.9501 8.25059 10.5001 7.85059 10.0001 7.85059H3.5501C3.0001 7.85059 2.6001 8.30059 2.6001 8.80059C2.6001 9.30059 3.0501 9.75059 3.5501 9.75059H10.0001C10.5001 9.80059 10.9501 9.35059 10.9501 8.80059Z" fill="#2382BC"/>
<path d="M0.950002 14.8502H8.85002C9.40002 14.8502 9.80002 14.4002 9.80002 13.9002C9.80002 13.4002 9.35002 12.9502 8.85002 12.9502H0.950002C0.400001 12.9502 0 13.4002 0 13.9002C0 14.4002 0.450001 14.8502 0.950002 14.8502Z" fill="#2382BC"/>
<path d="M2.6001 19.001C2.6001 19.551 3.0501 19.951 3.5501 19.951H10.0001C10.5501 19.951 10.9501 19.501 10.9501 19.001C10.9501 18.501 10.5001 18.001 10.0001 18.001H3.5501C3.0001 18.001 2.6001 18.451 2.6001 19.001Z" fill="#2382BC"/>
<path d="M27.0501 0.950195C19.9001 0.950195 14.1001 6.75021 14.1001 13.9002C14.1001 21.0502 19.9001 26.8503 27.0501 26.8503C34.2001 26.8503 40.0002 21.0502 40.0002 13.9002C40.0002 6.75021 34.2001 0.950195 27.0501 0.950195ZM27.0501 24.9003C20.9501 24.9003 16.0501 19.9502 16.0501 13.9002C16.0501 7.85021 21.0001 2.9002 27.0501 2.9002C33.1501 2.9002 38.0502 7.85021 38.0502 13.9002C38.0502 19.9502 33.1501 24.9003 27.0501 24.9003Z" fill="#2382BC"/>
<path d="M28.0001 13.5008V6.00078C28.0001 5.45078 27.5501 5.05078 27.0501 5.05078C26.5501 5.05078 26.1001 5.50078 26.1001 6.00078V13.9008C26.1001 14.0008 26.1501 14.1508 26.1501 14.2508C26.2001 14.3508 26.2501 14.4508 26.3501 14.5508L31.1001 19.3008C31.3001 19.5008 31.5501 19.6008 31.8001 19.6008C32.0501 19.6008 32.3001 19.5008 32.5001 19.3008C32.8501 18.9508 32.8501 18.3008 32.5001 17.9508L28.0001 13.5008Z" fill="#2382BC"/>
<path d="M5.9002 25.0006H13.9502C14.5002 25.0006 14.9002 24.5506 14.9002 24.0506C14.9002 23.5006 14.4502 23.1006 13.9502 23.1006H5.9002C5.3502 23.1006 4.9502 23.5506 4.9502 24.0506C4.9502 24.6006 5.4002 25.0006 5.9002 25.0006Z" fill="#2382BC"/>
</svg>
