<svg width="18" height="22" viewBox="0 0 18 22" fill="none" xmlns="http://www.w3.org/2000/svg">
<path d="M2.40568 0.318455C1.08003 0.318455 0 1.39831 0 2.72413V19.5623C0.000232286 19.5772 0.00129469 19.5921 0.0031823 19.6069C0.0274437 20.9124 1.09672 21.9695 2.40729 21.9695H17.2392C17.4607 21.9695 17.6409 21.7909 17.6417 21.5693V19.5622V17.5575V0.717743C17.6413 0.6114 17.5986 0.509569 17.5231 0.434671C17.4477 0.359774 17.3455 0.317945 17.2392 0.318362L2.40568 0.318455ZM8.80908 2.72487C8.8627 2.72309 8.91613 2.73211 8.96621 2.75136C9.01629 2.77062 9.06199 2.79972 9.10062 2.83697C9.13925 2.87421 9.17001 2.91881 9.19109 2.96817C9.21217 3.01752 9.22314 3.07063 9.22334 3.12429V7.53625H12.9885C13.0586 7.53655 13.1275 7.55522 13.1881 7.59045C13.2488 7.62569 13.2991 7.67626 13.3342 7.73705C13.3692 7.79784 13.3877 7.86676 13.3877 7.93693C13.3878 8.00709 13.3695 8.07603 13.3346 8.13689L9.16774 15.3586C9.12312 15.4342 9.05493 15.4931 8.97363 15.5262C8.89233 15.5593 8.80241 15.5648 8.71768 15.5419C8.63295 15.519 8.55808 15.4689 8.50457 15.3993C8.45106 15.3297 8.42186 15.2444 8.42145 15.1566V10.7454H4.65396C4.58382 10.7451 4.515 10.7264 4.45435 10.6912C4.3937 10.6559 4.34334 10.6054 4.30832 10.5446C4.27329 10.4838 4.25481 10.4149 4.25472 10.3448C4.25464 10.2746 4.27295 10.2056 4.30783 10.1448L8.4747 2.92303C8.50907 2.86435 8.55779 2.81539 8.61629 2.78073C8.67478 2.74607 8.74112 2.72683 8.80908 2.72487ZM2.40646 17.9601H16.839V18.7017L16.8398 21.1669H2.40649C1.51116 21.1669 0.801913 20.4581 0.801913 19.5623C0.801913 18.6665 1.51114 17.9601 2.40646 17.9601Z" fill="white"/>
</svg>
