<svg width="28" height="32" viewBox="0 0 28 32" fill="none" xmlns="http://www.w3.org/2000/svg">
<path d="M13.9002 5.30715C15.2735 5.30715 16.3867 4.19387 16.3867 2.82057C16.3867 1.44727 15.2735 0.333984 13.9002 0.333984C12.5269 0.333984 11.4136 1.44727 11.4136 2.82057C11.4136 4.19387 12.5269 5.30715 13.9002 5.30715Z" fill="#2382BC"/>
<path d="M2.48658 11.896C3.85988 11.896 4.97317 10.7827 4.97317 9.40943C4.97317 8.03613 3.85988 6.92285 2.48658 6.92285C1.11328 6.92285 0 8.03613 0 9.40943C0 10.7827 1.11328 11.896 2.48658 11.896Z" fill="#2382BC"/>
<path d="M2.48658 25.0747C3.85988 25.0747 4.97317 23.9614 4.97317 22.5881C4.97317 21.2148 3.85988 20.1016 2.48658 20.1016C1.11328 20.1016 0 21.2148 0 22.5881C0 23.9614 1.11328 25.0747 2.48658 25.0747Z" fill="#2382BC"/>
<path d="M25.3132 25.0747C26.6865 25.0747 27.7998 23.9614 27.7998 22.5881C27.7998 21.2148 26.6865 20.1016 25.3132 20.1016C23.9399 20.1016 22.8267 21.2148 22.8267 22.5881C22.8267 23.9614 23.9399 25.0747 25.3132 25.0747Z" fill="#2382BC"/>
<path d="M25.3132 11.896C26.6865 11.896 27.7998 10.7827 27.7998 9.40943C27.7998 8.03613 26.6865 6.92285 25.3132 6.92285C23.9399 6.92285 22.8267 8.03613 22.8267 9.40943C22.8267 10.7827 23.9399 11.896 25.3132 11.896Z" fill="#2382BC"/>
<path d="M7.68359 15.9997C7.68359 19.4311 10.4686 22.2161 13.9001 22.2161C17.3315 22.2161 20.1165 19.4311 20.1165 15.9997C20.1165 12.5682 17.3315 9.7832 13.9001 9.7832C10.4686 9.7832 7.68359 12.5682 7.68359 15.9997ZM13.9001 12.2698C15.9639 12.2698 17.6299 13.9358 17.6299 15.9997C17.6299 18.0635 15.9639 19.7295 13.9001 19.7295C11.8362 19.7295 10.1702 18.0635 10.1702 15.9997C10.1702 13.9358 11.8362 12.2698 13.9001 12.2698Z" fill="#2382BC"/>
<path d="M4.27734 31.018L6.68933 31.6645C7.55963 28.4071 10.5187 26.1194 13.9004 26.1194C17.2822 26.1194 20.2412 28.4071 21.1115 31.6645L23.5235 31.018C22.3548 26.6664 18.4011 23.6328 13.9004 23.6328C9.3997 23.6328 5.44604 26.6664 4.27734 31.018Z" fill="#2382BC"/>
</svg>
