<svg width="28" height="28" viewBox="0 0 28 28" fill="none" xmlns="http://www.w3.org/2000/svg">
<path d="M14 24.5C11.1006 24.5 8.4756 23.3247 6.57545 21.4245L10.5 17.5H0V28L4.1006 23.8994C6.6339 26.433 10.1339 28 14 28C21.7318 28 28 21.7322 28 14H24.5C24.5 19.7991 19.7991 24.5 14 24.5Z" fill="#2382BC"/>
<path d="M14 0C6.26815 0 0 6.2678 0 14H3.5C3.5 8.20085 8.20085 3.5 14 3.5C16.8994 3.5 19.5244 4.6753 21.4245 6.57545L17.5 10.5H28V0L23.8994 4.1006C21.3661 1.56695 17.8661 0 14 0Z" fill="#2382BC"/>
</svg>
