<svg width="132" height="126" viewBox="0 0 132 126" fill="none" xmlns="http://www.w3.org/2000/svg">
<path d="M8.50293 111.17V112.571H5.63184V121H3.72461V112.571H0.826172V111.17H8.50293ZM12.2354 115.107C12.3994 114.866 12.5521 114.668 12.6934 114.513C12.8301 114.362 12.9736 114.239 13.124 114.144C13.2744 114.043 13.4248 113.964 13.5752 113.904C13.7301 113.84 13.8851 113.797 14.04 113.774C14.195 113.747 14.3477 113.733 14.498 113.733C14.6257 113.733 14.7487 113.743 14.8672 113.761C14.9902 113.774 15.1042 113.793 15.209 113.815C15.1953 113.943 15.1771 114.08 15.1543 114.226C15.1315 114.367 15.1064 114.51 15.0791 114.656C15.0518 114.802 15.0199 114.946 14.9834 115.087C14.9515 115.228 14.9173 115.36 14.8809 115.483C14.6211 115.433 14.3955 115.392 14.2041 115.36C14.0127 115.324 13.8418 115.306 13.6914 115.306C13.5501 115.306 13.4202 115.326 13.3018 115.367C13.1878 115.404 13.0739 115.47 12.96 115.565C12.846 115.661 12.7275 115.789 12.6045 115.948C12.486 116.103 12.3516 116.299 12.2012 116.536V121H10.3281V116.618C10.3281 116.354 10.3258 116.108 10.3213 115.88C10.3167 115.647 10.3076 115.431 10.2939 115.23C10.2803 115.025 10.2598 114.832 10.2324 114.649C10.2051 114.467 10.1686 114.289 10.123 114.116C10.4193 114.039 10.7132 113.968 11.0049 113.904C11.3011 113.84 11.5996 113.784 11.9004 113.733C11.9323 113.829 11.9619 113.925 11.9893 114.021C12.0166 114.112 12.0394 114.212 12.0576 114.321C12.0758 114.426 12.0918 114.542 12.1055 114.67C12.1191 114.798 12.1328 114.943 12.1465 115.107H12.2354ZM16.8975 114.239C17.0661 114.171 17.2575 114.107 17.4717 114.048C17.6904 113.989 17.9206 113.936 18.1621 113.891C18.4082 113.84 18.6611 113.802 18.9209 113.774C19.1852 113.747 19.4518 113.733 19.7207 113.733C20.099 113.733 20.4521 113.763 20.7803 113.822C21.113 113.882 21.3887 113.979 21.6074 114.116C21.8262 114.253 21.9971 114.44 22.1201 114.677C22.2432 114.909 22.3047 115.203 22.3047 115.559V118.334C22.3047 118.653 22.307 118.938 22.3115 119.188C22.3161 119.435 22.3252 119.676 22.3389 119.913C22.348 120 22.3571 120.079 22.3662 120.152C22.3753 120.221 22.3844 120.289 22.3936 120.357C22.4072 120.421 22.4209 120.49 22.4346 120.562C22.4528 120.635 22.4733 120.715 22.4961 120.802C22.2135 120.866 21.931 120.927 21.6484 120.986C21.3704 121.046 21.0879 121.103 20.8008 121.157C20.7507 121.03 20.7096 120.9 20.6777 120.768C20.6504 120.631 20.6253 120.476 20.6025 120.303H20.5C20.3405 120.467 20.181 120.604 20.0215 120.713C19.862 120.822 19.6956 120.911 19.5225 120.979C19.3493 121.048 19.1693 121.096 18.9824 121.123C18.7956 121.15 18.5996 121.164 18.3945 121.164C18.0801 121.164 17.7884 121.125 17.5195 121.048C17.2507 120.975 17.016 120.861 16.8154 120.706C16.6195 120.551 16.4645 120.355 16.3506 120.118C16.2412 119.877 16.1865 119.594 16.1865 119.271C16.1865 118.997 16.2139 118.753 16.2686 118.539C16.3278 118.325 16.4098 118.133 16.5146 117.965C16.6195 117.796 16.7448 117.648 16.8906 117.521C17.0365 117.393 17.1982 117.281 17.376 117.186C17.7314 116.994 18.1279 116.864 18.5654 116.796C19.0029 116.723 19.4495 116.687 19.9053 116.687H20.4932V115.798C20.4932 115.629 20.4658 115.497 20.4111 115.401C20.361 115.301 20.2904 115.226 20.1992 115.176C20.1126 115.126 20.0101 115.094 19.8916 115.08C19.7731 115.062 19.6455 115.053 19.5088 115.053C19.1396 115.053 18.766 115.101 18.3877 115.196C18.014 115.287 17.6562 115.401 17.3145 115.538L16.8975 114.239ZM20.4932 117.691H20.3564C20.0329 117.696 19.723 117.721 19.4268 117.767C19.1351 117.808 18.8776 117.881 18.6543 117.985C18.431 118.09 18.251 118.229 18.1143 118.402C17.9821 118.571 17.916 118.785 17.916 119.045C17.916 119.332 17.998 119.553 18.1621 119.708C18.3307 119.863 18.5654 119.94 18.8662 119.94C19.0075 119.94 19.1533 119.922 19.3037 119.886C19.4541 119.845 19.6022 119.79 19.748 119.722C19.8939 119.649 20.0306 119.56 20.1582 119.455C20.2858 119.35 20.3975 119.229 20.4932 119.093V117.691ZM30.1318 120.733C29.945 120.802 29.7399 120.863 29.5166 120.918C29.2933 120.973 29.0654 121.018 28.833 121.055C28.6051 121.091 28.3796 121.118 28.1562 121.137C27.9329 121.155 27.7279 121.164 27.541 121.164C26.8802 121.164 26.3219 121.087 25.8662 120.932C25.4105 120.777 25.0413 120.549 24.7588 120.248C24.4808 119.943 24.2803 119.567 24.1572 119.12C24.0342 118.674 23.9727 118.161 23.9727 117.582C23.9727 116.976 24.0501 116.434 24.2051 115.955C24.3646 115.477 24.6016 115.073 24.916 114.745C25.2305 114.417 25.6224 114.166 26.0918 113.993C26.5612 113.82 27.1104 113.733 27.7393 113.733C28.1038 113.733 28.4661 113.763 28.8262 113.822C29.1862 113.877 29.5303 113.952 29.8584 114.048L29.4004 115.401C29.127 115.31 28.8604 115.237 28.6006 115.183C28.3454 115.128 28.0856 115.101 27.8213 115.101C27.4704 115.101 27.1696 115.16 26.9189 115.278C26.6729 115.392 26.4701 115.554 26.3105 115.764C26.151 115.969 26.0326 116.215 25.9551 116.502C25.8822 116.789 25.8457 117.104 25.8457 117.445C25.8457 118.238 25.9824 118.828 26.2559 119.216C26.5339 119.603 26.9919 119.797 27.6299 119.797C28.0218 119.797 28.3818 119.756 28.71 119.674C29.0426 119.592 29.373 119.494 29.7012 119.38L30.1318 120.733ZM33.7139 111.156V116.358L36.5645 113.733L37.6035 114.861L35.0742 117.186L38.3418 121H36.0586L33.7139 118.163V121H31.8408V111.156H33.7139ZM40.6592 110.425C40.8141 110.425 40.96 110.454 41.0967 110.514C41.238 110.573 41.3587 110.655 41.459 110.76C41.5638 110.86 41.6458 110.981 41.7051 111.122C41.7643 111.259 41.7939 111.405 41.7939 111.56C41.7939 111.719 41.7643 111.867 41.7051 112.004C41.6458 112.141 41.5638 112.261 41.459 112.366C41.3587 112.471 41.238 112.553 41.0967 112.612C40.96 112.672 40.8141 112.701 40.6592 112.701C40.4997 112.701 40.3516 112.672 40.2148 112.612C40.0781 112.553 39.9574 112.471 39.8525 112.366C39.7477 112.261 39.6657 112.141 39.6064 112.004C39.5472 111.867 39.5176 111.719 39.5176 111.56C39.5176 111.405 39.5472 111.259 39.6064 111.122C39.6657 110.981 39.7477 110.86 39.8525 110.76C39.9574 110.655 40.0781 110.573 40.2148 110.514C40.3516 110.454 40.4997 110.425 40.6592 110.425ZM41.5889 113.891V121H39.7158V113.891H41.5889ZM45.9023 115.107C46.0527 114.88 46.2077 114.681 46.3672 114.513C46.5312 114.34 46.7044 114.196 46.8867 114.082C47.0736 113.964 47.2764 113.877 47.4951 113.822C47.7184 113.763 47.9645 113.733 48.2334 113.733C48.5342 113.733 48.8008 113.768 49.0332 113.836C49.2656 113.9 49.4661 113.995 49.6348 114.123C49.8034 114.246 49.9447 114.401 50.0586 114.588C50.1771 114.77 50.2705 114.978 50.3389 115.21C50.4027 115.442 50.4482 115.695 50.4756 115.969C50.5075 116.238 50.5234 116.529 50.5234 116.844V121H48.6504V116.304C48.6504 115.912 48.5592 115.613 48.377 115.408C48.1992 115.203 47.9554 115.101 47.6455 115.101C47.4723 115.101 47.3014 115.142 47.1328 115.224C46.9688 115.306 46.8092 115.415 46.6543 115.552C46.4993 115.684 46.3558 115.834 46.2236 116.003C46.0915 116.172 45.973 116.342 45.8682 116.516V121H43.9951V116.618C43.9951 116.249 43.9906 115.941 43.9814 115.695C43.9769 115.445 43.9655 115.224 43.9473 115.032C43.9382 114.937 43.929 114.852 43.9199 114.779C43.9108 114.706 43.8994 114.636 43.8857 114.567C43.8766 114.499 43.863 114.431 43.8447 114.362C43.8311 114.289 43.8128 114.207 43.79 114.116C44.0863 114.039 44.3802 113.97 44.6719 113.911C44.9681 113.847 45.2666 113.788 45.5674 113.733C45.5993 113.829 45.6289 113.925 45.6562 114.021C45.6836 114.112 45.7064 114.212 45.7246 114.321C45.7428 114.426 45.7588 114.542 45.7725 114.67C45.7861 114.798 45.7998 114.943 45.8135 115.107H45.9023ZM57.0928 113.884C57.3115 113.884 57.4984 113.882 57.6533 113.877C57.8083 113.872 57.9564 113.861 58.0977 113.843C58.2389 113.825 58.387 113.797 58.542 113.761C58.6969 113.724 58.8838 113.676 59.1025 113.617C59.1709 113.827 59.2415 114.046 59.3145 114.273C59.3874 114.497 59.4557 114.72 59.5195 114.943C59.3691 114.998 59.2301 115.044 59.1025 115.08C58.9795 115.117 58.8587 115.148 58.7402 115.176C58.6263 115.199 58.5124 115.217 58.3984 115.23C58.2891 115.24 58.1706 115.246 58.043 115.251C58.1296 115.447 58.1888 115.641 58.2207 115.832C58.2526 116.019 58.2686 116.217 58.2686 116.427C58.2686 116.864 58.2025 117.247 58.0703 117.575C57.9382 117.899 57.749 118.174 57.5029 118.402C57.3525 118.539 57.1816 118.653 56.9902 118.744C56.7988 118.835 56.5983 118.91 56.3887 118.97C56.179 119.024 55.9648 119.063 55.7461 119.086C55.5319 119.109 55.3245 119.12 55.124 119.12C54.7549 119.12 54.4176 119.093 54.1123 119.038C54.0348 119.257 53.9961 119.43 53.9961 119.558C53.9961 119.644 54.012 119.719 54.0439 119.783C54.0804 119.842 54.1374 119.895 54.2148 119.94C54.3333 120.004 54.4746 120.045 54.6387 120.063C54.8073 120.082 54.9919 120.091 55.1924 120.091C55.2516 120.091 55.3268 120.091 55.418 120.091C55.5137 120.091 55.6117 120.091 55.7119 120.091C55.8122 120.086 55.9079 120.084 55.999 120.084C56.0947 120.084 56.1768 120.084 56.2451 120.084C56.6097 120.084 56.9401 120.118 57.2363 120.187C57.5326 120.25 57.7855 120.355 57.9951 120.501C58.2093 120.647 58.3734 120.84 58.4873 121.082C58.6058 121.324 58.665 121.618 58.665 121.964C58.665 122.36 58.5671 122.693 58.3711 122.962C58.1797 123.235 57.9245 123.456 57.6055 123.625C57.2865 123.794 56.9219 123.914 56.5117 123.987C56.1016 124.065 55.6777 124.104 55.2402 124.104C54.9258 124.104 54.6113 124.085 54.2969 124.049C53.987 124.017 53.6862 123.974 53.3945 123.919C53.1667 123.873 52.9502 123.821 52.7451 123.762C52.5446 123.707 52.3577 123.648 52.1846 123.584C52.2438 123.443 52.3304 123.263 52.4443 123.044C52.5628 122.825 52.6927 122.59 52.834 122.34C53.2988 122.504 53.7409 122.625 54.1602 122.702C54.5794 122.78 54.9622 122.818 55.3086 122.818C55.5228 122.818 55.7233 122.805 55.9102 122.777C56.097 122.75 56.2588 122.704 56.3955 122.641C56.5322 122.577 56.6393 122.49 56.7168 122.381C56.7988 122.276 56.8398 122.142 56.8398 121.978C56.8398 121.85 56.8125 121.747 56.7578 121.67C56.7031 121.597 56.6279 121.54 56.5322 121.499C56.4365 121.458 56.3226 121.431 56.1904 121.417C56.0628 121.408 55.9238 121.403 55.7734 121.403C55.7096 121.403 55.6436 121.403 55.5752 121.403C55.5068 121.408 55.4385 121.41 55.3701 121.41H55.1514C54.9417 121.41 54.7321 121.406 54.5225 121.396C54.3174 121.392 54.1191 121.374 53.9277 121.342C53.7363 121.31 53.5586 121.262 53.3945 121.198C53.2305 121.139 53.0869 121.057 52.9639 120.952C52.8454 120.843 52.7497 120.708 52.6768 120.549C52.6084 120.385 52.5742 120.189 52.5742 119.961C52.5742 119.738 52.6175 119.512 52.7041 119.284C52.7907 119.052 52.9001 118.822 53.0322 118.594C52.9092 118.512 52.7861 118.405 52.6631 118.272C52.5446 118.14 52.4375 117.985 52.3418 117.808C52.2507 117.625 52.1755 117.42 52.1162 117.192C52.0615 116.965 52.0342 116.709 52.0342 116.427C52.0342 115.998 52.1003 115.62 52.2324 115.292C52.3691 114.959 52.5605 114.677 52.8066 114.444C52.9525 114.308 53.1165 114.194 53.2988 114.103C53.4811 114.011 53.6725 113.938 53.873 113.884C54.0736 113.829 54.2809 113.79 54.4951 113.768C54.7093 113.745 54.9189 113.733 55.124 113.733C55.3838 113.733 55.6276 113.749 55.8555 113.781C56.0833 113.809 56.2839 113.843 56.457 113.884H57.0928ZM55.1514 114.998C54.7503 114.998 54.4336 115.119 54.2012 115.36C53.9688 115.602 53.8525 115.957 53.8525 116.427C53.8525 116.91 53.9688 117.27 54.2012 117.507C54.4382 117.739 54.7549 117.855 55.1514 117.855C55.5524 117.855 55.8691 117.735 56.1016 117.493C56.334 117.252 56.4502 116.896 56.4502 116.427C56.4502 115.953 56.3294 115.597 56.0879 115.36C55.8509 115.119 55.5387 114.998 55.1514 114.998ZM74.2852 119.339C74.0755 119.703 73.8864 120.004 73.7178 120.241C73.5492 120.478 73.3851 120.665 73.2256 120.802C73.0661 120.938 72.9043 121.034 72.7402 121.089C72.5762 121.144 72.3962 121.171 72.2002 121.171C72.0361 121.171 71.8812 121.157 71.7354 121.13C71.5895 121.107 71.4437 121.059 71.2979 120.986C71.1566 120.913 71.0062 120.813 70.8467 120.686C70.6917 120.558 70.5231 120.394 70.3408 120.193C70.1813 120.344 69.9945 120.48 69.7803 120.604C69.5706 120.722 69.3428 120.822 69.0967 120.904C68.8506 120.986 68.5908 121.05 68.3174 121.096C68.0485 121.141 67.7773 121.164 67.5039 121.164C66.9753 121.164 66.515 121.096 66.123 120.959C65.7311 120.818 65.403 120.624 65.1387 120.378C64.8789 120.132 64.6829 119.84 64.5508 119.503C64.4232 119.166 64.3594 118.799 64.3594 118.402C64.3594 118.092 64.4141 117.785 64.5234 117.479C64.6328 117.17 64.8037 116.871 65.0361 116.584C65.2048 116.379 65.4076 116.174 65.6445 115.969C65.8861 115.759 66.1686 115.538 66.4922 115.306C66.3327 115.087 66.1868 114.886 66.0547 114.704C65.9271 114.517 65.8177 114.337 65.7266 114.164C65.64 113.986 65.5716 113.811 65.5215 113.638C65.4759 113.46 65.4531 113.271 65.4531 113.07C65.4531 112.824 65.4941 112.585 65.5762 112.353C65.6582 112.12 65.7858 111.917 65.959 111.744C66.0866 111.607 66.2347 111.493 66.4033 111.402C66.5765 111.307 66.7611 111.231 66.957 111.177C67.1576 111.122 67.3672 111.083 67.5859 111.061C67.8047 111.033 68.028 111.02 68.2559 111.02C68.6751 111.02 69.0921 111.049 69.5068 111.108C69.9261 111.168 70.3066 111.236 70.6484 111.313L70.1562 112.694C70.0378 112.667 69.9102 112.637 69.7734 112.605C69.6367 112.574 69.4954 112.546 69.3496 112.523C69.2083 112.501 69.0648 112.482 68.9189 112.469C68.7731 112.451 68.6318 112.441 68.4951 112.441C68.3447 112.441 68.2012 112.453 68.0645 112.476C67.9323 112.498 67.8161 112.537 67.7158 112.592C67.6201 112.642 67.5426 112.713 67.4834 112.804C67.4287 112.89 67.4014 113 67.4014 113.132C67.4014 113.241 67.4128 113.348 67.4355 113.453C67.4629 113.553 67.5062 113.66 67.5654 113.774C67.6247 113.888 67.6999 114.014 67.791 114.15C67.8822 114.287 67.9938 114.44 68.126 114.608L70.5254 117.705C70.6302 117.514 70.7236 117.297 70.8057 117.056C70.8923 116.814 70.9538 116.563 70.9902 116.304H70.0674V115.162H73.8135V116.304H72.5693C72.4645 116.869 72.3232 117.382 72.1455 117.842C71.9678 118.298 71.7695 118.694 71.5508 119.031C71.6146 119.118 71.6807 119.204 71.749 119.291C71.8174 119.378 71.8857 119.455 71.9541 119.523C72.0225 119.592 72.0885 119.646 72.1523 119.688C72.2161 119.729 72.2799 119.749 72.3438 119.749C72.3984 119.749 72.4531 119.731 72.5078 119.694C72.5671 119.658 72.6309 119.596 72.6992 119.51C72.7721 119.423 72.8542 119.307 72.9453 119.161C73.0365 119.011 73.1458 118.826 73.2734 118.607L74.2852 119.339ZM67.333 116.406C67.1416 116.525 66.973 116.659 66.8271 116.81C66.6813 116.955 66.5583 117.113 66.458 117.281C66.3577 117.445 66.2826 117.614 66.2324 117.787C66.1823 117.96 66.1572 118.131 66.1572 118.3C66.1572 118.496 66.1914 118.68 66.2598 118.854C66.3281 119.027 66.4329 119.179 66.5742 119.312C66.7201 119.444 66.9001 119.549 67.1143 119.626C67.333 119.703 67.5905 119.742 67.8867 119.742C68.1647 119.742 68.4404 119.69 68.7139 119.585C68.9919 119.48 69.2311 119.332 69.4316 119.141L67.333 116.406ZM80.0684 119.298C80.4466 119.444 80.8499 119.567 81.2783 119.667C81.7113 119.763 82.1807 119.811 82.6865 119.811C83.0146 119.811 83.3154 119.781 83.5889 119.722C83.8623 119.662 84.097 119.569 84.293 119.441C84.4935 119.314 84.6484 119.152 84.7578 118.956C84.8717 118.756 84.9287 118.516 84.9287 118.238C84.9287 117.938 84.8672 117.698 84.7441 117.521C84.6257 117.343 84.457 117.197 84.2383 117.083C84.0195 116.969 83.7552 116.873 83.4453 116.796C83.1354 116.718 82.7913 116.632 82.4131 116.536C81.9893 116.427 81.6019 116.301 81.251 116.16C80.9046 116.019 80.6084 115.837 80.3623 115.613C80.1162 115.39 79.9248 115.114 79.7881 114.786C79.6514 114.458 79.583 114.052 79.583 113.569C79.583 113.246 79.6354 112.956 79.7402 112.701C79.8496 112.446 79.9954 112.225 80.1777 112.038C80.36 111.847 80.5697 111.685 80.8066 111.553C81.0482 111.421 81.2988 111.313 81.5586 111.231C81.8229 111.149 82.0918 111.09 82.3652 111.054C82.6387 111.017 82.8984 110.999 83.1445 110.999C83.3177 110.999 83.5251 111.008 83.7666 111.026C84.0127 111.045 84.2725 111.079 84.5459 111.129C84.8239 111.174 85.1087 111.236 85.4004 111.313C85.6966 111.391 85.9814 111.489 86.2549 111.607L85.7695 112.797C85.4049 112.665 85.0244 112.558 84.6279 112.476C84.236 112.394 83.8236 112.353 83.3906 112.353C83.1172 112.353 82.8665 112.375 82.6387 112.421C82.4108 112.462 82.2126 112.53 82.0439 112.626C81.8799 112.722 81.7523 112.847 81.6611 113.002C81.57 113.157 81.5244 113.344 81.5244 113.562C81.5244 113.845 81.5791 114.066 81.6885 114.226C81.8024 114.385 81.9642 114.515 82.1738 114.615C82.3835 114.715 82.6387 114.802 82.9395 114.875C83.2448 114.943 83.5889 115.028 83.9717 115.128C84.391 115.237 84.776 115.367 85.127 115.518C85.4824 115.663 85.7878 115.855 86.043 116.092C86.3027 116.324 86.5055 116.614 86.6514 116.96C86.7972 117.306 86.8701 117.732 86.8701 118.238C86.8701 118.685 86.7995 119.068 86.6582 119.387C86.5169 119.706 86.3324 119.975 86.1045 120.193C85.8766 120.408 85.6169 120.578 85.3252 120.706C85.0335 120.834 84.7373 120.932 84.4365 121C84.1357 121.068 83.8441 121.112 83.5615 121.13C83.279 121.153 83.0306 121.164 82.8164 121.164C82.6068 121.16 82.3698 121.146 82.1055 121.123C81.8457 121.1 81.5723 121.064 81.2852 121.014C80.998 120.964 80.7064 120.897 80.4102 120.815C80.1185 120.729 79.8359 120.624 79.5625 120.501L80.0684 119.298ZM90.6162 111.156V115.107H90.6641C90.8053 114.898 90.9512 114.709 91.1016 114.54C91.252 114.371 91.4183 114.228 91.6006 114.109C91.7874 113.986 91.9925 113.893 92.2158 113.829C92.4391 113.765 92.6921 113.733 92.9746 113.733C93.5169 113.733 93.9521 113.843 94.2803 114.062C94.613 114.276 94.859 114.604 95.0186 115.046C95.1051 115.283 95.1667 115.549 95.2031 115.846C95.2441 116.142 95.2646 116.475 95.2646 116.844V121H93.3916V116.304C93.3916 115.935 93.305 115.643 93.1318 115.429C92.9587 115.21 92.7103 115.101 92.3867 115.101C92.2044 115.101 92.0267 115.146 91.8535 115.237C91.6803 115.328 91.5163 115.442 91.3613 115.579C91.2064 115.716 91.0651 115.866 90.9375 116.03C90.8099 116.194 90.7028 116.352 90.6162 116.502V121H88.7363V111.156H90.6162ZM97.4521 114.239C97.6208 114.171 97.8122 114.107 98.0264 114.048C98.2451 113.989 98.4753 113.936 98.7168 113.891C98.9629 113.84 99.2158 113.802 99.4756 113.774C99.7399 113.747 100.007 113.733 100.275 113.733C100.654 113.733 101.007 113.763 101.335 113.822C101.668 113.882 101.943 113.979 102.162 114.116C102.381 114.253 102.552 114.44 102.675 114.677C102.798 114.909 102.859 115.203 102.859 115.559V118.334C102.859 118.653 102.862 118.938 102.866 119.188C102.871 119.435 102.88 119.676 102.894 119.913C102.903 120 102.912 120.079 102.921 120.152C102.93 120.221 102.939 120.289 102.948 120.357C102.962 120.421 102.976 120.49 102.989 120.562C103.007 120.635 103.028 120.715 103.051 120.802C102.768 120.866 102.486 120.927 102.203 120.986C101.925 121.046 101.643 121.103 101.355 121.157C101.305 121.03 101.264 120.9 101.232 120.768C101.205 120.631 101.18 120.476 101.157 120.303H101.055C100.895 120.467 100.736 120.604 100.576 120.713C100.417 120.822 100.25 120.911 100.077 120.979C99.904 121.048 99.724 121.096 99.5371 121.123C99.3503 121.15 99.1543 121.164 98.9492 121.164C98.6348 121.164 98.3431 121.125 98.0742 121.048C97.8053 120.975 97.5706 120.861 97.3701 120.706C97.1742 120.551 97.0192 120.355 96.9053 120.118C96.7959 119.877 96.7412 119.594 96.7412 119.271C96.7412 118.997 96.7686 118.753 96.8232 118.539C96.8825 118.325 96.9645 118.133 97.0693 117.965C97.1742 117.796 97.2995 117.648 97.4453 117.521C97.5911 117.393 97.7529 117.281 97.9307 117.186C98.2861 116.994 98.6826 116.864 99.1201 116.796C99.5576 116.723 100.004 116.687 100.46 116.687H101.048V115.798C101.048 115.629 101.021 115.497 100.966 115.401C100.916 115.301 100.845 115.226 100.754 115.176C100.667 115.126 100.565 115.094 100.446 115.08C100.328 115.062 100.2 115.053 100.063 115.053C99.6943 115.053 99.3206 115.101 98.9424 115.196C98.5687 115.287 98.2109 115.401 97.8691 115.538L97.4521 114.239ZM101.048 117.691H100.911C100.588 117.696 100.278 117.721 99.9814 117.767C99.6898 117.808 99.4323 117.881 99.209 117.985C98.9857 118.09 98.8057 118.229 98.6689 118.402C98.5368 118.571 98.4707 118.785 98.4707 119.045C98.4707 119.332 98.5527 119.553 98.7168 119.708C98.8854 119.863 99.1201 119.94 99.4209 119.94C99.5622 119.94 99.708 119.922 99.8584 119.886C100.009 119.845 100.157 119.79 100.303 119.722C100.449 119.649 100.585 119.56 100.713 119.455C100.84 119.35 100.952 119.229 101.048 119.093V117.691ZM107.091 115.107C107.255 114.866 107.408 114.668 107.549 114.513C107.686 114.362 107.829 114.239 107.979 114.144C108.13 114.043 108.28 113.964 108.431 113.904C108.586 113.84 108.741 113.797 108.896 113.774C109.05 113.747 109.203 113.733 109.354 113.733C109.481 113.733 109.604 113.743 109.723 113.761C109.846 113.774 109.96 113.793 110.064 113.815C110.051 113.943 110.033 114.08 110.01 114.226C109.987 114.367 109.962 114.51 109.935 114.656C109.907 114.802 109.875 114.946 109.839 115.087C109.807 115.228 109.773 115.36 109.736 115.483C109.477 115.433 109.251 115.392 109.06 115.36C108.868 115.324 108.697 115.306 108.547 115.306C108.406 115.306 108.276 115.326 108.157 115.367C108.043 115.404 107.929 115.47 107.815 115.565C107.701 115.661 107.583 115.789 107.46 115.948C107.341 116.103 107.207 116.299 107.057 116.536V121H105.184V116.618C105.184 116.354 105.181 116.108 105.177 115.88C105.172 115.647 105.163 115.431 105.149 115.23C105.136 115.025 105.115 114.832 105.088 114.649C105.061 114.467 105.024 114.289 104.979 114.116C105.275 114.039 105.569 113.968 105.86 113.904C106.157 113.84 106.455 113.784 106.756 113.733C106.788 113.829 106.817 113.925 106.845 114.021C106.872 114.112 106.895 114.212 106.913 114.321C106.931 114.426 106.947 114.542 106.961 114.67C106.975 114.798 106.988 114.943 107.002 115.107H107.091ZM112.655 110.425C112.81 110.425 112.956 110.454 113.093 110.514C113.234 110.573 113.355 110.655 113.455 110.76C113.56 110.86 113.642 110.981 113.701 111.122C113.76 111.259 113.79 111.405 113.79 111.56C113.79 111.719 113.76 111.867 113.701 112.004C113.642 112.141 113.56 112.261 113.455 112.366C113.355 112.471 113.234 112.553 113.093 112.612C112.956 112.672 112.81 112.701 112.655 112.701C112.496 112.701 112.348 112.672 112.211 112.612C112.074 112.553 111.953 112.471 111.849 112.366C111.744 112.261 111.662 112.141 111.603 112.004C111.543 111.867 111.514 111.719 111.514 111.56C111.514 111.405 111.543 111.259 111.603 111.122C111.662 110.981 111.744 110.86 111.849 110.76C111.953 110.655 112.074 110.573 112.211 110.514C112.348 110.454 112.496 110.425 112.655 110.425ZM113.585 113.891V121H111.712V113.891H113.585ZM117.898 115.107C118.049 114.88 118.204 114.681 118.363 114.513C118.527 114.34 118.701 114.196 118.883 114.082C119.07 113.964 119.272 113.877 119.491 113.822C119.715 113.763 119.961 113.733 120.229 113.733C120.53 113.733 120.797 113.768 121.029 113.836C121.262 113.9 121.462 113.995 121.631 114.123C121.799 114.246 121.941 114.401 122.055 114.588C122.173 114.77 122.267 114.978 122.335 115.21C122.399 115.442 122.444 115.695 122.472 115.969C122.504 116.238 122.52 116.529 122.52 116.844V121H120.646V116.304C120.646 115.912 120.555 115.613 120.373 115.408C120.195 115.203 119.951 115.101 119.642 115.101C119.468 115.101 119.298 115.142 119.129 115.224C118.965 115.306 118.805 115.415 118.65 115.552C118.495 115.684 118.352 115.834 118.22 116.003C118.088 116.172 117.969 116.342 117.864 116.516V121H115.991V116.618C115.991 116.249 115.987 115.941 115.978 115.695C115.973 115.445 115.962 115.224 115.943 115.032C115.934 114.937 115.925 114.852 115.916 114.779C115.907 114.706 115.896 114.636 115.882 114.567C115.873 114.499 115.859 114.431 115.841 114.362C115.827 114.289 115.809 114.207 115.786 114.116C116.082 114.039 116.376 113.97 116.668 113.911C116.964 113.847 117.263 113.788 117.563 113.733C117.595 113.829 117.625 113.925 117.652 114.021C117.68 114.112 117.702 114.212 117.721 114.321C117.739 114.426 117.755 114.542 117.769 114.67C117.782 114.798 117.796 114.943 117.81 115.107H117.898ZM129.089 113.884C129.308 113.884 129.494 113.882 129.649 113.877C129.804 113.872 129.952 113.861 130.094 113.843C130.235 113.825 130.383 113.797 130.538 113.761C130.693 113.724 130.88 113.676 131.099 113.617C131.167 113.827 131.238 114.046 131.311 114.273C131.383 114.497 131.452 114.72 131.516 114.943C131.365 114.998 131.226 115.044 131.099 115.08C130.976 115.117 130.855 115.148 130.736 115.176C130.622 115.199 130.508 115.217 130.395 115.23C130.285 115.24 130.167 115.246 130.039 115.251C130.126 115.447 130.185 115.641 130.217 115.832C130.249 116.019 130.265 116.217 130.265 116.427C130.265 116.864 130.199 117.247 130.066 117.575C129.934 117.899 129.745 118.174 129.499 118.402C129.349 118.539 129.178 118.653 128.986 118.744C128.795 118.835 128.594 118.91 128.385 118.97C128.175 119.024 127.961 119.063 127.742 119.086C127.528 119.109 127.321 119.12 127.12 119.12C126.751 119.12 126.414 119.093 126.108 119.038C126.031 119.257 125.992 119.43 125.992 119.558C125.992 119.644 126.008 119.719 126.04 119.783C126.076 119.842 126.133 119.895 126.211 119.94C126.329 120.004 126.471 120.045 126.635 120.063C126.803 120.082 126.988 120.091 127.188 120.091C127.248 120.091 127.323 120.091 127.414 120.091C127.51 120.091 127.608 120.091 127.708 120.091C127.808 120.086 127.904 120.084 127.995 120.084C128.091 120.084 128.173 120.084 128.241 120.084C128.606 120.084 128.936 120.118 129.232 120.187C129.529 120.25 129.782 120.355 129.991 120.501C130.205 120.647 130.369 120.84 130.483 121.082C130.602 121.324 130.661 121.618 130.661 121.964C130.661 122.36 130.563 122.693 130.367 122.962C130.176 123.235 129.921 123.456 129.602 123.625C129.283 123.794 128.918 123.914 128.508 123.987C128.098 124.065 127.674 124.104 127.236 124.104C126.922 124.104 126.607 124.085 126.293 124.049C125.983 124.017 125.682 123.974 125.391 123.919C125.163 123.873 124.946 123.821 124.741 123.762C124.541 123.707 124.354 123.648 124.181 123.584C124.24 123.443 124.326 123.263 124.44 123.044C124.559 122.825 124.689 122.59 124.83 122.34C125.295 122.504 125.737 122.625 126.156 122.702C126.576 122.78 126.958 122.818 127.305 122.818C127.519 122.818 127.719 122.805 127.906 122.777C128.093 122.75 128.255 122.704 128.392 122.641C128.528 122.577 128.635 122.49 128.713 122.381C128.795 122.276 128.836 122.142 128.836 121.978C128.836 121.85 128.809 121.747 128.754 121.67C128.699 121.597 128.624 121.54 128.528 121.499C128.433 121.458 128.319 121.431 128.187 121.417C128.059 121.408 127.92 121.403 127.77 121.403C127.706 121.403 127.64 121.403 127.571 121.403C127.503 121.408 127.435 121.41 127.366 121.41H127.147C126.938 121.41 126.728 121.406 126.519 121.396C126.313 121.392 126.115 121.374 125.924 121.342C125.732 121.31 125.555 121.262 125.391 121.198C125.227 121.139 125.083 121.057 124.96 120.952C124.841 120.843 124.746 120.708 124.673 120.549C124.604 120.385 124.57 120.189 124.57 119.961C124.57 119.738 124.614 119.512 124.7 119.284C124.787 119.052 124.896 118.822 125.028 118.594C124.905 118.512 124.782 118.405 124.659 118.272C124.541 118.14 124.434 117.985 124.338 117.808C124.247 117.625 124.172 117.42 124.112 117.192C124.058 116.965 124.03 116.709 124.03 116.427C124.03 115.998 124.096 115.62 124.229 115.292C124.365 114.959 124.557 114.677 124.803 114.444C124.949 114.308 125.113 114.194 125.295 114.103C125.477 114.011 125.669 113.938 125.869 113.884C126.07 113.829 126.277 113.79 126.491 113.768C126.705 113.745 126.915 113.733 127.12 113.733C127.38 113.733 127.624 113.749 127.852 113.781C128.079 113.809 128.28 113.843 128.453 113.884H129.089ZM127.147 114.998C126.746 114.998 126.43 115.119 126.197 115.36C125.965 115.602 125.849 115.957 125.849 116.427C125.849 116.91 125.965 117.27 126.197 117.507C126.434 117.739 126.751 117.855 127.147 117.855C127.549 117.855 127.865 117.735 128.098 117.493C128.33 117.252 128.446 116.896 128.446 116.427C128.446 115.953 128.326 115.597 128.084 115.36C127.847 115.119 127.535 114.998 127.147 114.998Z" fill="white"/>
<path d="M85.7996 60.5526C85.7996 62.5529 83.6069 64.5714 78.7079 64.5714H52.0699C51.8171 64.5714 51.5747 64.472 51.396 64.295C51.2173 64.1181 51.1168 63.878 51.1168 63.6278C51.1168 63.3775 51.2173 63.1375 51.396 62.9605C51.5747 62.7835 51.8171 62.6841 52.0699 62.6841H78.7079C82.2846 62.6841 83.8935 61.4371 83.8935 60.5526C83.8935 59.668 82.2846 58.4236 78.7079 58.4236H68.0663C63.1673 58.4236 60.9746 56.4051 60.9746 54.4047C60.9746 52.4044 63.1673 50.3852 68.0663 50.3852H82.8493C83.0978 50.3917 83.334 50.4939 83.5075 50.6703C83.6809 50.8466 83.778 51.083 83.778 51.3292C83.778 51.5754 83.6809 51.8118 83.5075 51.9881C83.334 52.1644 83.0978 52.2667 82.8493 52.2732H68.0663C64.4896 52.2732 62.8807 53.5195 62.8807 54.4047C62.8807 55.2899 64.4896 56.5356 68.0663 56.5356H78.7079C83.6069 56.533 85.7996 58.5535 85.7996 60.5526ZM81.0449 44.0471H83.4993V42.0987C83.4985 41.9804 83.5208 41.8631 83.5649 41.7532L82.2708 40.4718L80.9786 41.7519C81.0223 41.8624 81.0446 41.98 81.0442 42.0987L81.0449 44.0471ZM88.6404 40.6497C89.0995 43.5106 87.7877 47.4983 82.7116 50.1085C82.5757 50.1781 82.425 50.2144 82.2721 50.2144C82.1192 50.2144 81.9685 50.1781 81.8326 50.1085C76.2875 47.2554 75.2591 42.8345 76.0606 39.9197C76.459 38.5182 77.3291 37.2935 78.5268 36.4487C79.7245 35.604 81.1778 35.1899 82.6457 35.2751C84.1137 35.3603 85.5082 35.9397 86.598 36.9172C87.6878 37.8947 88.4075 39.2117 88.6378 40.6497H88.6404ZM79.1388 43.0313V44.9907C79.1388 45.241 79.2392 45.481 79.4179 45.658C79.5967 45.835 79.8391 45.9344 80.0918 45.9344H84.4524C84.7051 45.9344 84.9475 45.835 85.1263 45.658C85.305 45.481 85.4054 45.241 85.4054 44.9907V43.0313C85.5797 43.005 85.7433 42.9314 85.8779 42.8187C86.0125 42.7059 86.1129 42.5584 86.168 42.3925C86.223 42.2267 86.2306 42.0489 86.1897 41.8791C86.1489 41.7092 86.0613 41.5539 85.9367 41.4304L82.9464 38.4695C82.8579 38.3817 82.7528 38.312 82.6371 38.2644C82.5214 38.2169 82.3974 38.1924 82.2721 38.1924C82.1468 38.1924 82.0228 38.2169 81.9071 38.2644C81.7914 38.312 81.6863 38.3817 81.5978 38.4695L78.6075 41.4304C78.4827 41.5538 78.3949 41.7091 78.3539 41.8791C78.3129 42.049 78.3204 42.2268 78.3755 42.3928C78.4306 42.5587 78.5311 42.7063 78.6658 42.819C78.8006 42.9318 78.9643 43.0053 79.1388 43.0313ZM42.0665 41.4499C41.8141 41.4507 41.5722 41.5507 41.3941 41.7278C41.2159 41.905 41.116 42.1448 41.1161 42.3948V58.4704C41.1226 58.7165 41.226 58.9503 41.404 59.122C41.5821 59.2938 41.8209 59.3899 42.0695 59.3899C42.3181 59.3899 42.5569 59.2938 42.735 59.122C42.913 58.9503 43.0164 58.7165 43.0229 58.4704V42.3948C43.0229 42.2706 42.9981 42.1476 42.95 42.0329C42.9019 41.9181 42.8314 41.8139 42.7426 41.7262C42.6538 41.6385 42.5483 41.569 42.4323 41.5216C42.3163 41.4743 42.192 41.4495 42.0665 41.4499ZM97 36.0528V64.9475C96.9979 66.7153 96.2877 68.4102 95.0253 69.6602C93.7628 70.9103 92.0511 71.6135 90.2657 71.6155H42.7343C40.9489 71.6135 39.2372 70.9103 37.9747 69.6602C36.7123 68.4102 36.0021 66.7153 36 64.9475V36.0528C36.0021 34.285 36.7123 32.5901 37.9747 31.3401C39.2372 30.09 40.9489 29.3868 42.7343 29.3848H90.2657C92.0511 29.3868 93.7628 30.09 95.0253 31.3401C96.2877 32.5901 96.9979 34.285 97 36.0528ZM95.0939 58.675H93.0101C92.7573 58.675 92.5149 58.5755 92.3362 58.3986C92.1574 58.2216 92.057 57.9816 92.057 57.7313V42.4299C92.057 42.1796 92.1574 41.9396 92.3362 41.7626C92.5149 41.5857 92.7573 41.4862 93.0101 41.4862H95.0939V36.0528C95.0924 34.7854 94.5832 33.5703 93.678 32.6741C92.7729 31.7778 91.5458 31.2737 90.2657 31.2721H42.7343C41.4542 31.2737 40.2271 31.7778 39.322 32.6741C38.4168 33.5703 37.9076 34.7854 37.9061 36.0528V64.9475C37.9075 66.215 38.4166 67.4302 39.3218 68.3264C40.2269 69.2227 41.4542 69.7268 42.7343 69.7282H90.2657C91.5458 69.7268 92.7731 69.2227 93.6782 68.3264C94.5834 67.4302 95.0925 66.215 95.0939 64.9475V58.675Z" fill="white"/>
<path d="M51.9183 45.1329C48.9604 45.4634 46.6215 47.8527 46.3498 50.8163C46.1089 53.4801 47.5234 55.8442 49.683 56.9898C49.7587 57.029 49.8203 57.0906 49.8567 57.169L52.2852 62.2362C52.4281 62.5359 52.8538 62.5359 52.9967 62.2362L55.4252 57.169C55.4616 57.0906 55.5232 57.029 55.5989 56.9898C57.596 55.931 58.9573 53.8274 58.9573 51.4101C58.9573 47.6847 55.7277 44.71 51.9183 45.1329ZM52.6409 56.1271C50.0388 56.1271 47.924 54.0123 47.924 51.4101C47.924 48.8079 50.0388 46.6931 52.6409 46.6931C55.2431 46.6931 57.3579 48.8079 57.3579 51.4101C57.3579 54.0123 55.2431 56.1271 52.6409 56.1271Z" fill="white"/>
<path d="M55.0975 52.8685C54.7642 52.6865 54.3692 52.7201 54.0779 52.9218L51.6158 51.5492C51.627 51.4568 51.627 51.3644 51.613 51.2719L54.0667 49.9022C54.3608 50.1011 54.753 50.1319 55.0863 49.947C55.5541 49.6865 55.7221 49.0927 55.4616 48.6249C55.2011 48.1572 54.6073 47.9891 54.1395 48.2496C53.7922 48.4429 53.6101 48.8182 53.6466 49.1908L51.1424 50.5885C50.8567 50.4204 50.4898 50.4064 50.1789 50.5801C49.7951 50.7958 49.613 51.2299 49.7027 51.6389C49.7223 51.7285 49.7559 51.8181 49.8035 51.9022C49.8511 51.9862 49.91 52.0618 49.9744 52.1263C50.2741 52.4176 50.7419 52.4932 51.1256 52.2775C51.1396 52.2691 51.1536 52.2579 51.1676 52.2495L53.6634 53.6416C53.6326 54.0142 53.8174 54.3867 54.1648 54.5772C54.6353 54.8349 55.2264 54.6612 55.4841 54.1906C55.7417 53.7201 55.5681 53.129 55.0975 52.8713V52.8685Z" fill="white"/>
<circle cx="66" cy="51" r="50.5" stroke="white"/>
</svg>
