<svg width="102" height="126" viewBox="0 0 102 126" fill="none" xmlns="http://www.w3.org/2000/svg">
<path d="M10.709 111.17V112.571H7.83789V121H5.93066V112.571H3.03223V111.17H10.709ZM14.4414 115.107C14.6055 114.866 14.7581 114.668 14.8994 114.513C15.0361 114.362 15.1797 114.239 15.3301 114.144C15.4805 114.043 15.6309 113.964 15.7812 113.904C15.9362 113.84 16.0911 113.797 16.2461 113.774C16.401 113.747 16.5537 113.733 16.7041 113.733C16.8317 113.733 16.9548 113.743 17.0732 113.761C17.1963 113.774 17.3102 113.793 17.415 113.815C17.4014 113.943 17.3831 114.08 17.3604 114.226C17.3376 114.367 17.3125 114.51 17.2852 114.656C17.2578 114.802 17.2259 114.946 17.1895 115.087C17.1576 115.228 17.1234 115.36 17.0869 115.483C16.8271 115.433 16.6016 115.392 16.4102 115.36C16.2188 115.324 16.0479 115.306 15.8975 115.306C15.7562 115.306 15.6263 115.326 15.5078 115.367C15.3939 115.404 15.2799 115.47 15.166 115.565C15.0521 115.661 14.9336 115.789 14.8105 115.948C14.6921 116.103 14.5576 116.299 14.4072 116.536V121H12.5342V116.618C12.5342 116.354 12.5319 116.108 12.5273 115.88C12.5228 115.647 12.5137 115.431 12.5 115.23C12.4863 115.025 12.4658 114.832 12.4385 114.649C12.4111 114.467 12.3747 114.289 12.3291 114.116C12.6253 114.039 12.9193 113.968 13.2109 113.904C13.5072 113.84 13.8057 113.784 14.1064 113.733C14.1383 113.829 14.168 113.925 14.1953 114.021C14.2227 114.112 14.2454 114.212 14.2637 114.321C14.2819 114.426 14.2979 114.542 14.3115 114.67C14.3252 114.798 14.3389 114.943 14.3525 115.107H14.4414ZM19.1035 114.239C19.2721 114.171 19.4635 114.107 19.6777 114.048C19.8965 113.989 20.1266 113.936 20.3682 113.891C20.6143 113.84 20.8672 113.802 21.127 113.774C21.3913 113.747 21.6579 113.733 21.9268 113.733C22.305 113.733 22.6582 113.763 22.9863 113.822C23.319 113.882 23.5947 113.979 23.8135 114.116C24.0322 114.253 24.2031 114.44 24.3262 114.677C24.4492 114.909 24.5107 115.203 24.5107 115.559V118.334C24.5107 118.653 24.513 118.938 24.5176 119.188C24.5221 119.435 24.5312 119.676 24.5449 119.913C24.554 120 24.5632 120.079 24.5723 120.152C24.5814 120.221 24.5905 120.289 24.5996 120.357C24.6133 120.421 24.627 120.49 24.6406 120.562C24.6589 120.635 24.6794 120.715 24.7021 120.802C24.4196 120.866 24.137 120.927 23.8545 120.986C23.5765 121.046 23.2939 121.103 23.0068 121.157C22.9567 121.03 22.9157 120.9 22.8838 120.768C22.8564 120.631 22.8314 120.476 22.8086 120.303H22.7061C22.5465 120.467 22.387 120.604 22.2275 120.713C22.068 120.822 21.9017 120.911 21.7285 120.979C21.5553 121.048 21.3753 121.096 21.1885 121.123C21.0016 121.15 20.8057 121.164 20.6006 121.164C20.2861 121.164 19.9945 121.125 19.7256 121.048C19.4567 120.975 19.222 120.861 19.0215 120.706C18.8255 120.551 18.6706 120.355 18.5566 120.118C18.4473 119.877 18.3926 119.594 18.3926 119.271C18.3926 118.997 18.4199 118.753 18.4746 118.539C18.5339 118.325 18.6159 118.133 18.7207 117.965C18.8255 117.796 18.9508 117.648 19.0967 117.521C19.2425 117.393 19.4043 117.281 19.582 117.186C19.9375 116.994 20.334 116.864 20.7715 116.796C21.209 116.723 21.6556 116.687 22.1113 116.687H22.6992V115.798C22.6992 115.629 22.6719 115.497 22.6172 115.401C22.5671 115.301 22.4964 115.226 22.4053 115.176C22.3187 115.126 22.2161 115.094 22.0977 115.08C21.9792 115.062 21.8516 115.053 21.7148 115.053C21.3457 115.053 20.972 115.101 20.5938 115.196C20.2201 115.287 19.8623 115.401 19.5205 115.538L19.1035 114.239ZM22.6992 117.691H22.5625C22.2389 117.696 21.929 117.721 21.6328 117.767C21.3411 117.808 21.0837 117.881 20.8604 117.985C20.637 118.09 20.457 118.229 20.3203 118.402C20.1882 118.571 20.1221 118.785 20.1221 119.045C20.1221 119.332 20.2041 119.553 20.3682 119.708C20.5368 119.863 20.7715 119.94 21.0723 119.94C21.2135 119.94 21.3594 119.922 21.5098 119.886C21.6602 119.845 21.8083 119.79 21.9541 119.722C22.0999 119.649 22.2367 119.56 22.3643 119.455C22.4919 119.35 22.6035 119.229 22.6992 119.093V117.691ZM32.3379 120.733C32.151 120.802 31.946 120.863 31.7227 120.918C31.4993 120.973 31.2715 121.018 31.0391 121.055C30.8112 121.091 30.5856 121.118 30.3623 121.137C30.139 121.155 29.9339 121.164 29.7471 121.164C29.0863 121.164 28.528 121.087 28.0723 120.932C27.6165 120.777 27.2474 120.549 26.9648 120.248C26.6868 119.943 26.4863 119.567 26.3633 119.12C26.2402 118.674 26.1787 118.161 26.1787 117.582C26.1787 116.976 26.2562 116.434 26.4111 115.955C26.5706 115.477 26.8076 115.073 27.1221 114.745C27.4365 114.417 27.8285 114.166 28.2979 113.993C28.7673 113.82 29.3164 113.733 29.9453 113.733C30.3099 113.733 30.6722 113.763 31.0322 113.822C31.3923 113.877 31.7363 113.952 32.0645 114.048L31.6064 115.401C31.333 115.31 31.0664 115.237 30.8066 115.183C30.5514 115.128 30.2917 115.101 30.0273 115.101C29.6764 115.101 29.3757 115.16 29.125 115.278C28.8789 115.392 28.6761 115.554 28.5166 115.764C28.3571 115.969 28.2386 116.215 28.1611 116.502C28.0882 116.789 28.0518 117.104 28.0518 117.445C28.0518 118.238 28.1885 118.828 28.4619 119.216C28.7399 119.603 29.1979 119.797 29.8359 119.797C30.2279 119.797 30.5879 119.756 30.916 119.674C31.2487 119.592 31.5791 119.494 31.9072 119.38L32.3379 120.733ZM35.9199 111.156V116.358L38.7705 113.733L39.8096 114.861L37.2803 117.186L40.5479 121H38.2646L35.9199 118.163V121H34.0469V111.156H35.9199ZM55.1768 119.339C54.9671 119.703 54.778 120.004 54.6094 120.241C54.4408 120.478 54.2767 120.665 54.1172 120.802C53.9577 120.938 53.7959 121.034 53.6318 121.089C53.4678 121.144 53.2878 121.171 53.0918 121.171C52.9277 121.171 52.7728 121.157 52.627 121.13C52.4811 121.107 52.3353 121.059 52.1895 120.986C52.0482 120.913 51.8978 120.813 51.7383 120.686C51.5833 120.558 51.4147 120.394 51.2324 120.193C51.0729 120.344 50.8861 120.48 50.6719 120.604C50.4622 120.722 50.2344 120.822 49.9883 120.904C49.7422 120.986 49.4824 121.05 49.209 121.096C48.9401 121.141 48.6689 121.164 48.3955 121.164C47.8669 121.164 47.4066 121.096 47.0146 120.959C46.6227 120.818 46.2946 120.624 46.0303 120.378C45.7705 120.132 45.5745 119.84 45.4424 119.503C45.3148 119.166 45.251 118.799 45.251 118.402C45.251 118.092 45.3057 117.785 45.415 117.479C45.5244 117.17 45.6953 116.871 45.9277 116.584C46.0964 116.379 46.2992 116.174 46.5361 115.969C46.7777 115.759 47.0602 115.538 47.3838 115.306C47.2243 115.087 47.0785 114.886 46.9463 114.704C46.8187 114.517 46.7093 114.337 46.6182 114.164C46.5316 113.986 46.4632 113.811 46.4131 113.638C46.3675 113.46 46.3447 113.271 46.3447 113.07C46.3447 112.824 46.3857 112.585 46.4678 112.353C46.5498 112.12 46.6774 111.917 46.8506 111.744C46.9782 111.607 47.1263 111.493 47.2949 111.402C47.4681 111.307 47.6527 111.231 47.8486 111.177C48.0492 111.122 48.2588 111.083 48.4775 111.061C48.6963 111.033 48.9196 111.02 49.1475 111.02C49.5667 111.02 49.9837 111.049 50.3984 111.108C50.8177 111.168 51.1982 111.236 51.54 111.313L51.0479 112.694C50.9294 112.667 50.8018 112.637 50.665 112.605C50.5283 112.574 50.387 112.546 50.2412 112.523C50.0999 112.501 49.9564 112.482 49.8105 112.469C49.6647 112.451 49.5234 112.441 49.3867 112.441C49.2363 112.441 49.0928 112.453 48.9561 112.476C48.8239 112.498 48.7077 112.537 48.6074 112.592C48.5117 112.642 48.4342 112.713 48.375 112.804C48.3203 112.89 48.293 113 48.293 113.132C48.293 113.241 48.3044 113.348 48.3271 113.453C48.3545 113.553 48.3978 113.66 48.457 113.774C48.5163 113.888 48.5915 114.014 48.6826 114.15C48.7738 114.287 48.8854 114.44 49.0176 114.608L51.417 117.705C51.5218 117.514 51.6152 117.297 51.6973 117.056C51.7839 116.814 51.8454 116.563 51.8818 116.304H50.959V115.162H54.7051V116.304H53.4609C53.3561 116.869 53.2148 117.382 53.0371 117.842C52.8594 118.298 52.6611 118.694 52.4424 119.031C52.5062 119.118 52.5723 119.204 52.6406 119.291C52.709 119.378 52.7773 119.455 52.8457 119.523C52.9141 119.592 52.9801 119.646 53.0439 119.688C53.1077 119.729 53.1715 119.749 53.2354 119.749C53.29 119.749 53.3447 119.731 53.3994 119.694C53.4587 119.658 53.5225 119.596 53.5908 119.51C53.6637 119.423 53.7458 119.307 53.8369 119.161C53.9281 119.011 54.0374 118.826 54.165 118.607L55.1768 119.339ZM48.2246 116.406C48.0332 116.525 47.8646 116.659 47.7188 116.81C47.5729 116.955 47.4499 117.113 47.3496 117.281C47.2493 117.445 47.1742 117.614 47.124 117.787C47.0739 117.96 47.0488 118.131 47.0488 118.3C47.0488 118.496 47.083 118.68 47.1514 118.854C47.2197 119.027 47.3245 119.179 47.4658 119.312C47.6117 119.444 47.7917 119.549 48.0059 119.626C48.2246 119.703 48.4821 119.742 48.7783 119.742C49.0563 119.742 49.332 119.69 49.6055 119.585C49.8835 119.48 50.1227 119.332 50.3232 119.141L48.2246 116.406ZM60.96 119.298C61.3382 119.444 61.7415 119.567 62.1699 119.667C62.6029 119.763 63.0723 119.811 63.5781 119.811C63.9062 119.811 64.207 119.781 64.4805 119.722C64.7539 119.662 64.9886 119.569 65.1846 119.441C65.3851 119.314 65.54 119.152 65.6494 118.956C65.7633 118.756 65.8203 118.516 65.8203 118.238C65.8203 117.938 65.7588 117.698 65.6357 117.521C65.5173 117.343 65.3486 117.197 65.1299 117.083C64.9111 116.969 64.6468 116.873 64.3369 116.796C64.027 116.718 63.6829 116.632 63.3047 116.536C62.8809 116.427 62.4935 116.301 62.1426 116.16C61.7962 116.019 61.5 115.837 61.2539 115.613C61.0078 115.39 60.8164 115.114 60.6797 114.786C60.543 114.458 60.4746 114.052 60.4746 113.569C60.4746 113.246 60.527 112.956 60.6318 112.701C60.7412 112.446 60.887 112.225 61.0693 112.038C61.2516 111.847 61.4613 111.685 61.6982 111.553C61.9398 111.421 62.1904 111.313 62.4502 111.231C62.7145 111.149 62.9834 111.09 63.2568 111.054C63.5303 111.017 63.79 110.999 64.0361 110.999C64.2093 110.999 64.4167 111.008 64.6582 111.026C64.9043 111.045 65.1641 111.079 65.4375 111.129C65.7155 111.174 66.0003 111.236 66.292 111.313C66.5882 111.391 66.873 111.489 67.1465 111.607L66.6611 112.797C66.2965 112.665 65.916 112.558 65.5195 112.476C65.1276 112.394 64.7152 112.353 64.2822 112.353C64.0088 112.353 63.7581 112.375 63.5303 112.421C63.3024 112.462 63.1042 112.53 62.9355 112.626C62.7715 112.722 62.6439 112.847 62.5527 113.002C62.4616 113.157 62.416 113.344 62.416 113.562C62.416 113.845 62.4707 114.066 62.5801 114.226C62.694 114.385 62.8558 114.515 63.0654 114.615C63.2751 114.715 63.5303 114.802 63.8311 114.875C64.1364 114.943 64.4805 115.028 64.8633 115.128C65.2826 115.237 65.6676 115.367 66.0186 115.518C66.374 115.663 66.6794 115.855 66.9346 116.092C67.1943 116.324 67.3971 116.614 67.543 116.96C67.6888 117.306 67.7617 117.732 67.7617 118.238C67.7617 118.685 67.6911 119.068 67.5498 119.387C67.4085 119.706 67.224 119.975 66.9961 120.193C66.7682 120.408 66.5085 120.578 66.2168 120.706C65.9251 120.834 65.6289 120.932 65.3281 121C65.0273 121.068 64.7357 121.112 64.4531 121.13C64.1706 121.153 63.9222 121.164 63.708 121.164C63.4984 121.16 63.2614 121.146 62.9971 121.123C62.7373 121.1 62.4639 121.064 62.1768 121.014C61.8896 120.964 61.598 120.897 61.3018 120.815C61.0101 120.729 60.7275 120.624 60.4541 120.501L60.96 119.298ZM71.5078 111.156V115.107H71.5557C71.6969 114.898 71.8428 114.709 71.9932 114.54C72.1436 114.371 72.3099 114.228 72.4922 114.109C72.679 113.986 72.8841 113.893 73.1074 113.829C73.3307 113.765 73.5837 113.733 73.8662 113.733C74.4085 113.733 74.8438 113.843 75.1719 114.062C75.5046 114.276 75.7507 114.604 75.9102 115.046C75.9967 115.283 76.0583 115.549 76.0947 115.846C76.1357 116.142 76.1562 116.475 76.1562 116.844V121H74.2832V116.304C74.2832 115.935 74.1966 115.643 74.0234 115.429C73.8503 115.21 73.6019 115.101 73.2783 115.101C73.096 115.101 72.9183 115.146 72.7451 115.237C72.5719 115.328 72.4079 115.442 72.2529 115.579C72.098 115.716 71.9567 115.866 71.8291 116.03C71.7015 116.194 71.5944 116.352 71.5078 116.502V121H69.6279V111.156H71.5078ZM78.3438 114.239C78.5124 114.171 78.7038 114.107 78.918 114.048C79.1367 113.989 79.3669 113.936 79.6084 113.891C79.8545 113.84 80.1074 113.802 80.3672 113.774C80.6315 113.747 80.8981 113.733 81.167 113.733C81.5452 113.733 81.8984 113.763 82.2266 113.822C82.5592 113.882 82.835 113.979 83.0537 114.116C83.2725 114.253 83.4434 114.44 83.5664 114.677C83.6895 114.909 83.751 115.203 83.751 115.559V118.334C83.751 118.653 83.7533 118.938 83.7578 119.188C83.7624 119.435 83.7715 119.676 83.7852 119.913C83.7943 120 83.8034 120.079 83.8125 120.152C83.8216 120.221 83.8307 120.289 83.8398 120.357C83.8535 120.421 83.8672 120.49 83.8809 120.562C83.8991 120.635 83.9196 120.715 83.9424 120.802C83.6598 120.866 83.3773 120.927 83.0947 120.986C82.8167 121.046 82.5342 121.103 82.2471 121.157C82.1969 121.03 82.1559 120.9 82.124 120.768C82.0967 120.631 82.0716 120.476 82.0488 120.303H81.9463C81.7868 120.467 81.6273 120.604 81.4678 120.713C81.3083 120.822 81.1419 120.911 80.9688 120.979C80.7956 121.048 80.6156 121.096 80.4287 121.123C80.2419 121.15 80.0459 121.164 79.8408 121.164C79.5264 121.164 79.2347 121.125 78.9658 121.048C78.6969 120.975 78.4622 120.861 78.2617 120.706C78.0658 120.551 77.9108 120.355 77.7969 120.118C77.6875 119.877 77.6328 119.594 77.6328 119.271C77.6328 118.997 77.6602 118.753 77.7148 118.539C77.7741 118.325 77.8561 118.133 77.9609 117.965C78.0658 117.796 78.1911 117.648 78.3369 117.521C78.4827 117.393 78.6445 117.281 78.8223 117.186C79.1777 116.994 79.5742 116.864 80.0117 116.796C80.4492 116.723 80.8958 116.687 81.3516 116.687H81.9395V115.798C81.9395 115.629 81.9121 115.497 81.8574 115.401C81.8073 115.301 81.7367 115.226 81.6455 115.176C81.5589 115.126 81.4564 115.094 81.3379 115.08C81.2194 115.062 81.0918 115.053 80.9551 115.053C80.5859 115.053 80.2122 115.101 79.834 115.196C79.4603 115.287 79.1025 115.401 78.7607 115.538L78.3438 114.239ZM81.9395 117.691H81.8027C81.4792 117.696 81.1693 117.721 80.873 117.767C80.5814 117.808 80.3239 117.881 80.1006 117.985C79.8773 118.09 79.6973 118.229 79.5605 118.402C79.4284 118.571 79.3623 118.785 79.3623 119.045C79.3623 119.332 79.4443 119.553 79.6084 119.708C79.777 119.863 80.0117 119.94 80.3125 119.94C80.4538 119.94 80.5996 119.922 80.75 119.886C80.9004 119.845 81.0485 119.79 81.1943 119.722C81.3402 119.649 81.4769 119.56 81.6045 119.455C81.7321 119.35 81.8438 119.229 81.9395 119.093V117.691ZM87.9824 115.107C88.1465 114.866 88.2992 114.668 88.4404 114.513C88.5771 114.362 88.7207 114.239 88.8711 114.144C89.0215 114.043 89.1719 113.964 89.3223 113.904C89.4772 113.84 89.6322 113.797 89.7871 113.774C89.9421 113.747 90.0947 113.733 90.2451 113.733C90.3727 113.733 90.4958 113.743 90.6143 113.761C90.7373 113.774 90.8512 113.793 90.9561 113.815C90.9424 113.943 90.9242 114.08 90.9014 114.226C90.8786 114.367 90.8535 114.51 90.8262 114.656C90.7988 114.802 90.7669 114.946 90.7305 115.087C90.6986 115.228 90.6644 115.36 90.6279 115.483C90.3682 115.433 90.1426 115.392 89.9512 115.36C89.7598 115.324 89.5889 115.306 89.4385 115.306C89.2972 115.306 89.1673 115.326 89.0488 115.367C88.9349 115.404 88.821 115.47 88.707 115.565C88.5931 115.661 88.4746 115.789 88.3516 115.948C88.2331 116.103 88.0986 116.299 87.9482 116.536V121H86.0752V116.618C86.0752 116.354 86.0729 116.108 86.0684 115.88C86.0638 115.647 86.0547 115.431 86.041 115.23C86.0273 115.025 86.0068 114.832 85.9795 114.649C85.9521 114.467 85.9157 114.289 85.8701 114.116C86.1663 114.039 86.4603 113.968 86.752 113.904C87.0482 113.84 87.3467 113.784 87.6475 113.733C87.6794 113.829 87.709 113.925 87.7363 114.021C87.7637 114.112 87.7865 114.212 87.8047 114.321C87.8229 114.426 87.8389 114.542 87.8525 114.67C87.8662 114.798 87.8799 114.943 87.8936 115.107H87.9824ZM98.4004 120.679C98.2135 120.756 98.0085 120.825 97.7852 120.884C97.5664 120.943 97.3363 120.993 97.0947 121.034C96.8532 121.075 96.6071 121.107 96.3564 121.13C96.1104 121.153 95.8688 121.164 95.6318 121.164C94.4333 121.164 93.5264 120.877 92.9111 120.303C92.3005 119.724 91.9951 118.84 91.9951 117.65C91.9951 117.122 92.0566 116.62 92.1797 116.146C92.3027 115.673 92.501 115.258 92.7744 114.902C93.0524 114.542 93.4147 114.257 93.8613 114.048C94.3125 113.838 94.8639 113.733 95.5156 113.733C96.6549 113.733 97.5049 114.036 98.0654 114.643C98.626 115.244 98.9062 116.165 98.9062 117.404V117.944H93.8545C93.8636 118.254 93.9001 118.528 93.9639 118.765C94.0277 119.002 94.1325 119.202 94.2783 119.366C94.4287 119.526 94.6247 119.649 94.8662 119.735C95.1077 119.817 95.4108 119.858 95.7754 119.858C96.0944 119.858 96.4385 119.82 96.8076 119.742C97.1768 119.66 97.5618 119.544 97.9629 119.394L98.4004 120.679ZM97.0332 116.728C97.0013 115.602 96.4954 115.039 95.5156 115.039C95.0098 115.039 94.6247 115.185 94.3604 115.477C94.1006 115.768 93.9411 116.185 93.8818 116.728H97.0332Z" fill="white"/>
<path d="M70.7996 60.5526C70.7996 62.5529 68.6069 64.5714 63.7079 64.5714H37.0699C36.8171 64.5714 36.5747 64.472 36.396 64.295C36.2173 64.1181 36.1168 63.878 36.1168 63.6278C36.1168 63.3775 36.2173 63.1375 36.396 62.9605C36.5747 62.7835 36.8171 62.6841 37.0699 62.6841H63.7079C67.2846 62.6841 68.8935 61.4371 68.8935 60.5526C68.8935 59.668 67.2846 58.4236 63.7079 58.4236H53.0663C48.1673 58.4236 45.9746 56.4051 45.9746 54.4047C45.9746 52.4044 48.1673 50.3852 53.0663 50.3852H67.8493C68.0978 50.3917 68.334 50.4939 68.5075 50.6703C68.6809 50.8466 68.778 51.083 68.778 51.3292C68.778 51.5754 68.6809 51.8118 68.5075 51.9881C68.334 52.1644 68.0978 52.2667 67.8493 52.2732H53.0663C49.4896 52.2732 47.8807 53.5195 47.8807 54.4047C47.8807 55.2899 49.4896 56.5356 53.0663 56.5356H63.7079C68.6069 56.533 70.7996 58.5535 70.7996 60.5526ZM66.0449 44.0471H68.4993V42.0987C68.4985 41.9804 68.5208 41.8631 68.5649 41.7532L67.2708 40.4718L65.9786 41.7519C66.0223 41.8624 66.0446 41.98 66.0442 42.0987L66.0449 44.0471ZM73.6404 40.6497C74.0995 43.5106 72.7877 47.4983 67.7116 50.1085C67.5757 50.1781 67.425 50.2144 67.2721 50.2144C67.1192 50.2144 66.9685 50.1781 66.8326 50.1085C61.2875 47.2554 60.2591 42.8345 61.0606 39.9197C61.459 38.5182 62.3291 37.2935 63.5268 36.4487C64.7245 35.604 66.1778 35.1899 67.6457 35.2751C69.1137 35.3603 70.5082 35.9397 71.598 36.9172C72.6878 37.8947 73.4075 39.2117 73.6378 40.6497H73.6404ZM64.1388 43.0313V44.9907C64.1388 45.241 64.2392 45.481 64.4179 45.658C64.5967 45.835 64.8391 45.9344 65.0918 45.9344H69.4524C69.7051 45.9344 69.9475 45.835 70.1263 45.658C70.305 45.481 70.4054 45.241 70.4054 44.9907V43.0313C70.5797 43.005 70.7433 42.9314 70.8779 42.8187C71.0125 42.7059 71.1129 42.5584 71.168 42.3925C71.223 42.2267 71.2306 42.0489 71.1897 41.8791C71.1489 41.7092 71.0613 41.5539 70.9367 41.4304L67.9464 38.4695C67.8579 38.3817 67.7528 38.312 67.6371 38.2644C67.5214 38.2169 67.3974 38.1924 67.2721 38.1924C67.1468 38.1924 67.0228 38.2169 66.9071 38.2644C66.7914 38.312 66.6863 38.3817 66.5978 38.4695L63.6075 41.4304C63.4827 41.5538 63.3949 41.7091 63.3539 41.8791C63.3129 42.049 63.3204 42.2268 63.3755 42.3928C63.4306 42.5587 63.5311 42.7063 63.6658 42.819C63.8006 42.9318 63.9643 43.0053 64.1388 43.0313ZM27.0665 41.4499C26.8141 41.4507 26.5722 41.5507 26.3941 41.7278C26.2159 41.905 26.116 42.1448 26.1161 42.3948V58.4704C26.1226 58.7165 26.226 58.9503 26.404 59.122C26.5821 59.2938 26.8209 59.3899 27.0695 59.3899C27.3181 59.3899 27.5569 59.2938 27.735 59.122C27.913 58.9503 28.0164 58.7165 28.0229 58.4704V42.3948C28.0229 42.2706 27.9981 42.1476 27.95 42.0329C27.9019 41.9181 27.8314 41.8139 27.7426 41.7262C27.6538 41.6385 27.5483 41.569 27.4323 41.5216C27.3163 41.4743 27.192 41.4495 27.0665 41.4499ZM82 36.0528V64.9475C81.9979 66.7153 81.2877 68.4102 80.0253 69.6602C78.7628 70.9103 77.0511 71.6135 75.2657 71.6155H27.7343C25.9489 71.6135 24.2372 70.9103 22.9747 69.6602C21.7123 68.4102 21.0021 66.7153 21 64.9475V36.0528C21.0021 34.285 21.7123 32.5901 22.9747 31.3401C24.2372 30.09 25.9489 29.3868 27.7343 29.3848H75.2657C77.0511 29.3868 78.7628 30.09 80.0253 31.3401C81.2877 32.5901 81.9979 34.285 82 36.0528ZM80.0939 58.675H78.0101C77.7573 58.675 77.5149 58.5755 77.3362 58.3986C77.1574 58.2216 77.057 57.9816 77.057 57.7313V42.4299C77.057 42.1796 77.1574 41.9396 77.3362 41.7626C77.5149 41.5857 77.7573 41.4862 78.0101 41.4862H80.0939V36.0528C80.0924 34.7854 79.5832 33.5703 78.678 32.6741C77.7729 31.7778 76.5458 31.2737 75.2657 31.2721H27.7343C26.4542 31.2737 25.2271 31.7778 24.322 32.6741C23.4168 33.5703 22.9076 34.7854 22.9061 36.0528V64.9475C22.9075 66.215 23.4166 67.4302 24.3218 68.3264C25.2269 69.2227 26.4542 69.7268 27.7343 69.7282H75.2657C76.5458 69.7268 77.7731 69.2227 78.6782 68.3264C79.5834 67.4302 80.0925 66.215 80.0939 64.9475V58.675Z" fill="white"/>
<path d="M36.9183 45.1329C33.9604 45.4634 31.6215 47.8527 31.3498 50.8163C31.1089 53.4801 32.5234 55.8442 34.683 56.9898C34.7587 57.029 34.8203 57.0906 34.8567 57.169L37.2852 62.2362C37.4281 62.5359 37.8538 62.5359 37.9967 62.2362L40.4252 57.169C40.4616 57.0906 40.5232 57.029 40.5989 56.9898C42.596 55.931 43.9573 53.8274 43.9573 51.4101C43.9573 47.6847 40.7277 44.71 36.9183 45.1329ZM37.6409 56.1271C35.0388 56.1271 32.924 54.0123 32.924 51.4101C32.924 48.8079 35.0388 46.6931 37.6409 46.6931C40.2431 46.6931 42.3579 48.8079 42.3579 51.4101C42.3579 54.0123 40.2431 56.1271 37.6409 56.1271Z" fill="white"/>
<path d="M40.0975 52.8685C39.7642 52.6865 39.3692 52.7201 39.0779 52.9218L36.6158 51.5492C36.627 51.4568 36.627 51.3644 36.613 51.2719L39.0667 49.9022C39.3608 50.1011 39.753 50.1319 40.0863 49.947C40.5541 49.6865 40.7221 49.0927 40.4616 48.6249C40.2011 48.1572 39.6073 47.9891 39.1395 48.2496C38.7922 48.4429 38.6101 48.8182 38.6466 49.1908L36.1424 50.5885C35.8567 50.4204 35.4898 50.4064 35.1789 50.5801C34.7951 50.7958 34.613 51.2299 34.7027 51.6389C34.7223 51.7285 34.7559 51.8181 34.8035 51.9022C34.8511 51.9862 34.91 52.0618 34.9744 52.1263C35.2741 52.4176 35.7419 52.4932 36.1256 52.2775C36.1396 52.2691 36.1536 52.2579 36.1676 52.2495L38.6634 53.6416C38.6326 54.0142 38.8174 54.3867 39.1648 54.5772C39.6353 54.8349 40.2264 54.6612 40.4841 54.1906C40.7417 53.7201 40.5681 53.129 40.0975 52.8713V52.8685Z" fill="white"/>
<circle cx="51" cy="51" r="50.5" stroke="white"/>
</svg>
