<svg width="103" height="126" viewBox="0 0 103 126" fill="none" xmlns="http://www.w3.org/2000/svg">
<path d="M8.55664 111.17V112.571H5.68555V121H3.77832V112.571H0.879883V111.17H8.55664ZM12.2891 115.107C12.4531 114.866 12.6058 114.668 12.7471 114.513C12.8838 114.362 13.0273 114.239 13.1777 114.144C13.3281 114.043 13.4785 113.964 13.6289 113.904C13.7839 113.84 13.9388 113.797 14.0938 113.774C14.2487 113.747 14.4014 113.733 14.5518 113.733C14.6794 113.733 14.8024 113.743 14.9209 113.761C15.0439 113.774 15.1579 113.793 15.2627 113.815C15.249 113.943 15.2308 114.08 15.208 114.226C15.1852 114.367 15.1602 114.51 15.1328 114.656C15.1055 114.802 15.0736 114.946 15.0371 115.087C15.0052 115.228 14.971 115.36 14.9346 115.483C14.6748 115.433 14.4492 115.392 14.2578 115.36C14.0664 115.324 13.8955 115.306 13.7451 115.306C13.6038 115.306 13.474 115.326 13.3555 115.367C13.2415 115.404 13.1276 115.47 13.0137 115.565C12.8997 115.661 12.7812 115.789 12.6582 115.948C12.5397 116.103 12.4053 116.299 12.2549 116.536V121H10.3818V116.618C10.3818 116.354 10.3796 116.108 10.375 115.88C10.3704 115.647 10.3613 115.431 10.3477 115.23C10.334 115.025 10.3135 114.832 10.2861 114.649C10.2588 114.467 10.2223 114.289 10.1768 114.116C10.473 114.039 10.7669 113.968 11.0586 113.904C11.3548 113.84 11.6533 113.784 11.9541 113.733C11.986 113.829 12.0156 113.925 12.043 114.021C12.0703 114.112 12.0931 114.212 12.1113 114.321C12.1296 114.426 12.1455 114.542 12.1592 114.67C12.1729 114.798 12.1865 114.943 12.2002 115.107H12.2891ZM16.9512 114.239C17.1198 114.171 17.3112 114.107 17.5254 114.048C17.7441 113.989 17.9743 113.936 18.2158 113.891C18.4619 113.84 18.7148 113.802 18.9746 113.774C19.2389 113.747 19.5055 113.733 19.7744 113.733C20.1527 113.733 20.5059 113.763 20.834 113.822C21.1667 113.882 21.4424 113.979 21.6611 114.116C21.8799 114.253 22.0508 114.44 22.1738 114.677C22.2969 114.909 22.3584 115.203 22.3584 115.559V118.334C22.3584 118.653 22.3607 118.938 22.3652 119.188C22.3698 119.435 22.3789 119.676 22.3926 119.913C22.4017 120 22.4108 120.079 22.4199 120.152C22.429 120.221 22.4382 120.289 22.4473 120.357C22.4609 120.421 22.4746 120.49 22.4883 120.562C22.5065 120.635 22.527 120.715 22.5498 120.802C22.2673 120.866 21.9847 120.927 21.7021 120.986C21.4242 121.046 21.1416 121.103 20.8545 121.157C20.8044 121.03 20.7633 120.9 20.7314 120.768C20.7041 120.631 20.679 120.476 20.6562 120.303H20.5537C20.3942 120.467 20.2347 120.604 20.0752 120.713C19.9157 120.822 19.7493 120.911 19.5762 120.979C19.403 121.048 19.223 121.096 19.0361 121.123C18.8493 121.15 18.6533 121.164 18.4482 121.164C18.1338 121.164 17.8421 121.125 17.5732 121.048C17.3044 120.975 17.0697 120.861 16.8691 120.706C16.6732 120.551 16.5182 120.355 16.4043 120.118C16.2949 119.877 16.2402 119.594 16.2402 119.271C16.2402 118.997 16.2676 118.753 16.3223 118.539C16.3815 118.325 16.4635 118.133 16.5684 117.965C16.6732 117.796 16.7985 117.648 16.9443 117.521C17.0902 117.393 17.252 117.281 17.4297 117.186C17.7852 116.994 18.1816 116.864 18.6191 116.796C19.0566 116.723 19.5033 116.687 19.959 116.687H20.5469V115.798C20.5469 115.629 20.5195 115.497 20.4648 115.401C20.4147 115.301 20.3441 115.226 20.2529 115.176C20.1663 115.126 20.0638 115.094 19.9453 115.08C19.8268 115.062 19.6992 115.053 19.5625 115.053C19.1934 115.053 18.8197 115.101 18.4414 115.196C18.0677 115.287 17.71 115.401 17.3682 115.538L16.9512 114.239ZM20.5469 117.691H20.4102C20.0866 117.696 19.7767 117.721 19.4805 117.767C19.1888 117.808 18.9313 117.881 18.708 117.985C18.4847 118.09 18.3047 118.229 18.168 118.402C18.0358 118.571 17.9697 118.785 17.9697 119.045C17.9697 119.332 18.0518 119.553 18.2158 119.708C18.3844 119.863 18.6191 119.94 18.9199 119.94C19.0612 119.94 19.207 119.922 19.3574 119.886C19.5078 119.845 19.6559 119.79 19.8018 119.722C19.9476 119.649 20.0843 119.56 20.2119 119.455C20.3395 119.35 20.4512 119.229 20.5469 119.093V117.691ZM30.8076 113.891L28.4424 121.068H26.1865L23.8213 113.891H25.7764L27.3145 119.722L28.8525 113.891H30.8076ZM38.1836 120.679C37.9967 120.756 37.7917 120.825 37.5684 120.884C37.3496 120.943 37.1195 120.993 36.8779 121.034C36.6364 121.075 36.3903 121.107 36.1396 121.13C35.8936 121.153 35.652 121.164 35.415 121.164C34.2165 121.164 33.3096 120.877 32.6943 120.303C32.0837 119.724 31.7783 118.84 31.7783 117.65C31.7783 117.122 31.8398 116.62 31.9629 116.146C32.0859 115.673 32.2842 115.258 32.5576 114.902C32.8356 114.542 33.1979 114.257 33.6445 114.048C34.0957 113.838 34.6471 113.733 35.2988 113.733C36.4382 113.733 37.2881 114.036 37.8486 114.643C38.4092 115.244 38.6895 116.165 38.6895 117.404V117.944H33.6377C33.6468 118.254 33.6833 118.528 33.7471 118.765C33.8109 119.002 33.9157 119.202 34.0615 119.366C34.2119 119.526 34.4079 119.649 34.6494 119.735C34.891 119.817 35.194 119.858 35.5586 119.858C35.8776 119.858 36.2217 119.82 36.5908 119.742C36.96 119.66 37.3451 119.544 37.7461 119.394L38.1836 120.679ZM36.8164 116.728C36.7845 115.602 36.2786 115.039 35.2988 115.039C34.793 115.039 34.4079 115.185 34.1436 115.477C33.8838 115.768 33.7243 116.185 33.665 116.728H36.8164ZM41.9912 118.211C41.9912 118.589 41.9935 118.906 41.998 119.161C42.0072 119.416 42.0208 119.64 42.0391 119.831C42.0482 119.931 42.0573 120.02 42.0664 120.098C42.0755 120.171 42.0846 120.243 42.0938 120.316C42.1029 120.385 42.1143 120.455 42.1279 120.528C42.1462 120.597 42.1667 120.674 42.1895 120.761C41.8887 120.852 41.5879 120.932 41.2871 121C40.9863 121.064 40.6787 121.118 40.3643 121.164C40.2959 120.959 40.2367 120.743 40.1865 120.515C40.141 120.282 40.1182 120.029 40.1182 119.756V111.156H41.9912V118.211ZM53.8994 111.17V112.571H49.9277V114.8H52.7373V116.201H49.9277V121H48.0205V111.17H53.8994ZM57.5566 115.107C57.7207 114.866 57.8734 114.668 58.0146 114.513C58.1514 114.362 58.2949 114.239 58.4453 114.144C58.5957 114.043 58.7461 113.964 58.8965 113.904C59.0514 113.84 59.2064 113.797 59.3613 113.774C59.5163 113.747 59.6689 113.733 59.8193 113.733C59.9469 113.733 60.07 113.743 60.1885 113.761C60.3115 113.774 60.4255 113.793 60.5303 113.815C60.5166 113.943 60.4984 114.08 60.4756 114.226C60.4528 114.367 60.4277 114.51 60.4004 114.656C60.373 114.802 60.3411 114.946 60.3047 115.087C60.2728 115.228 60.2386 115.36 60.2021 115.483C59.9424 115.433 59.7168 115.392 59.5254 115.36C59.334 115.324 59.1631 115.306 59.0127 115.306C58.8714 115.306 58.7415 115.326 58.623 115.367C58.5091 115.404 58.3952 115.47 58.2812 115.565C58.1673 115.661 58.0488 115.789 57.9258 115.948C57.8073 116.103 57.6729 116.299 57.5225 116.536V121H55.6494V116.618C55.6494 116.354 55.6471 116.108 55.6426 115.88C55.638 115.647 55.6289 115.431 55.6152 115.23C55.6016 115.025 55.5811 114.832 55.5537 114.649C55.5264 114.467 55.4899 114.289 55.4443 114.116C55.7406 114.039 56.0345 113.968 56.3262 113.904C56.6224 113.84 56.9209 113.784 57.2217 113.733C57.2536 113.829 57.2832 113.925 57.3105 114.021C57.3379 114.112 57.3607 114.212 57.3789 114.321C57.3971 114.426 57.4131 114.542 57.4268 114.67C57.4404 114.798 57.4541 114.943 57.4678 115.107H57.5566ZM63.1211 110.425C63.276 110.425 63.4219 110.454 63.5586 110.514C63.6999 110.573 63.8206 110.655 63.9209 110.76C64.0257 110.86 64.1077 110.981 64.167 111.122C64.2262 111.259 64.2559 111.405 64.2559 111.56C64.2559 111.719 64.2262 111.867 64.167 112.004C64.1077 112.141 64.0257 112.261 63.9209 112.366C63.8206 112.471 63.6999 112.553 63.5586 112.612C63.4219 112.672 63.276 112.701 63.1211 112.701C62.9616 112.701 62.8135 112.672 62.6768 112.612C62.54 112.553 62.4193 112.471 62.3145 112.366C62.2096 112.261 62.1276 112.141 62.0684 112.004C62.0091 111.867 61.9795 111.719 61.9795 111.56C61.9795 111.405 62.0091 111.259 62.0684 111.122C62.1276 110.981 62.2096 110.86 62.3145 110.76C62.4193 110.655 62.54 110.573 62.6768 110.514C62.8135 110.454 62.9616 110.425 63.1211 110.425ZM64.0508 113.891V121H62.1777V113.891H64.0508ZM72.3359 120.679C72.1491 120.756 71.944 120.825 71.7207 120.884C71.502 120.943 71.2718 120.993 71.0303 121.034C70.7887 121.075 70.5426 121.107 70.292 121.13C70.0459 121.153 69.8044 121.164 69.5674 121.164C68.3688 121.164 67.4619 120.877 66.8467 120.303C66.236 119.724 65.9307 118.84 65.9307 117.65C65.9307 117.122 65.9922 116.62 66.1152 116.146C66.2383 115.673 66.4365 115.258 66.71 114.902C66.988 114.542 67.3503 114.257 67.7969 114.048C68.248 113.838 68.7995 113.733 69.4512 113.733C70.5905 113.733 71.4404 114.036 72.001 114.643C72.5615 115.244 72.8418 116.165 72.8418 117.404V117.944H67.79C67.7992 118.254 67.8356 118.528 67.8994 118.765C67.9632 119.002 68.068 119.202 68.2139 119.366C68.3643 119.526 68.5602 119.649 68.8018 119.735C69.0433 119.817 69.3464 119.858 69.7109 119.858C70.0299 119.858 70.374 119.82 70.7432 119.742C71.1123 119.66 71.4974 119.544 71.8984 119.394L72.3359 120.679ZM70.9688 116.728C70.9368 115.602 70.431 115.039 69.4512 115.039C68.9453 115.039 68.5602 115.185 68.2959 115.477C68.0361 115.768 67.8766 116.185 67.8174 116.728H70.9688ZM76.5811 115.107C76.7314 114.88 76.8864 114.681 77.0459 114.513C77.21 114.34 77.3831 114.196 77.5654 114.082C77.7523 113.964 77.9551 113.877 78.1738 113.822C78.3971 113.763 78.6432 113.733 78.9121 113.733C79.2129 113.733 79.4795 113.768 79.7119 113.836C79.9443 113.9 80.1449 113.995 80.3135 114.123C80.4821 114.246 80.6234 114.401 80.7373 114.588C80.8558 114.77 80.9492 114.978 81.0176 115.21C81.0814 115.442 81.127 115.695 81.1543 115.969C81.1862 116.238 81.2021 116.529 81.2021 116.844V121H79.3291V116.304C79.3291 115.912 79.238 115.613 79.0557 115.408C78.8779 115.203 78.6341 115.101 78.3242 115.101C78.151 115.101 77.9801 115.142 77.8115 115.224C77.6475 115.306 77.488 115.415 77.333 115.552C77.1781 115.684 77.0345 115.834 76.9023 116.003C76.7702 116.172 76.6517 116.342 76.5469 116.516V121H74.6738V116.618C74.6738 116.249 74.6693 115.941 74.6602 115.695C74.6556 115.445 74.6442 115.224 74.626 115.032C74.6169 114.937 74.6077 114.852 74.5986 114.779C74.5895 114.706 74.5781 114.636 74.5645 114.567C74.5553 114.499 74.5417 114.431 74.5234 114.362C74.5098 114.289 74.4915 114.207 74.4688 114.116C74.765 114.039 75.0589 113.97 75.3506 113.911C75.6468 113.847 75.9453 113.788 76.2461 113.733C76.278 113.829 76.3076 113.925 76.335 114.021C76.3623 114.112 76.3851 114.212 76.4033 114.321C76.4215 114.426 76.4375 114.542 76.4512 114.67C76.4648 114.798 76.4785 114.943 76.4922 115.107H76.5811ZM89.2822 111.156V118.683V118.977C89.2822 119.332 89.2936 119.653 89.3164 119.94C89.3392 120.223 89.3893 120.51 89.4668 120.802C89.321 120.843 89.1797 120.882 89.043 120.918C88.9062 120.95 88.7695 120.979 88.6328 121.007C88.5007 121.039 88.3662 121.066 88.2295 121.089C88.0928 121.116 87.9492 121.141 87.7988 121.164C87.7624 121.068 87.7305 120.977 87.7031 120.891C87.6803 120.804 87.6576 120.711 87.6348 120.61C87.6165 120.51 87.6006 120.401 87.5869 120.282C87.5732 120.164 87.5618 120.025 87.5527 119.865H87.4775C86.9489 120.731 86.2015 121.164 85.2354 121.164C84.7568 121.164 84.3535 121.071 84.0254 120.884C83.6973 120.697 83.4307 120.446 83.2256 120.132C83.0251 119.813 82.8792 119.446 82.7881 119.031C82.7015 118.612 82.6582 118.17 82.6582 117.705C82.6582 117.049 82.7448 116.475 82.918 115.982C83.0957 115.486 83.3441 115.071 83.6631 114.738C83.9821 114.406 84.3626 114.155 84.8047 113.986C85.2513 113.818 85.7435 113.733 86.2812 113.733C86.4772 113.733 86.6663 113.743 86.8486 113.761C87.0355 113.779 87.2223 113.802 87.4092 113.829V111.156H89.2822ZM87.4297 115.237C87.0651 115.146 86.7256 115.101 86.4111 115.101C86.1423 115.101 85.8916 115.137 85.6592 115.21C85.4313 115.283 85.2331 115.401 85.0645 115.565C84.8958 115.729 84.7637 115.941 84.668 116.201C84.5768 116.461 84.5312 116.778 84.5312 117.151C84.5312 117.539 84.5449 117.894 84.5723 118.218C84.6042 118.541 84.668 118.822 84.7637 119.059C84.8594 119.291 84.9961 119.473 85.1738 119.605C85.3516 119.733 85.5885 119.797 85.8848 119.797C86.099 119.797 86.2858 119.754 86.4453 119.667C86.6094 119.58 86.7575 119.46 86.8896 119.305C86.9899 119.195 87.0833 119.072 87.1699 118.936C87.2565 118.794 87.3431 118.644 87.4297 118.484V115.237ZM93.0557 118.211C93.0557 118.589 93.0579 118.906 93.0625 119.161C93.0716 119.416 93.0853 119.64 93.1035 119.831C93.1126 119.931 93.1217 120.02 93.1309 120.098C93.14 120.171 93.1491 120.243 93.1582 120.316C93.1673 120.385 93.1787 120.455 93.1924 120.528C93.2106 120.597 93.2311 120.674 93.2539 120.761C92.9531 120.852 92.6523 120.932 92.3516 121C92.0508 121.064 91.7432 121.118 91.4287 121.164C91.3604 120.959 91.3011 120.743 91.251 120.515C91.2054 120.282 91.1826 120.029 91.1826 119.756V111.156H93.0557V118.211ZM101.553 113.891V120.945C101.553 121.479 101.466 121.93 101.293 122.299C101.124 122.673 100.883 122.976 100.568 123.208C100.258 123.44 99.8848 123.609 99.4473 123.714C99.0143 123.819 98.5358 123.871 98.0117 123.871C97.6061 123.871 97.1937 123.835 96.7744 123.762C96.3597 123.693 95.9746 123.589 95.6191 123.447C95.7148 123.219 95.8128 122.996 95.9131 122.777C96.0133 122.559 96.1159 122.34 96.2207 122.121C96.5488 122.226 96.8815 122.315 97.2188 122.388C97.556 122.465 97.8818 122.504 98.1963 122.504C98.2874 122.504 98.3854 122.499 98.4902 122.49C98.5996 122.486 98.709 122.47 98.8184 122.442C98.9277 122.415 99.0348 122.372 99.1396 122.312C99.2445 122.258 99.3356 122.18 99.4131 122.08C99.4951 121.984 99.5612 121.861 99.6113 121.711C99.6615 121.565 99.6888 121.387 99.6934 121.178V119.79H99.6318C99.4814 120.018 99.3242 120.218 99.1602 120.392C99.0007 120.56 98.8275 120.704 98.6406 120.822C98.4538 120.936 98.2487 121.021 98.0254 121.075C97.8021 121.134 97.5537 121.164 97.2803 121.164C96.8337 121.164 96.4645 121.093 96.1729 120.952C95.8812 120.811 95.6465 120.608 95.4688 120.344C95.2956 120.07 95.1725 119.742 95.0996 119.359C95.0267 118.977 94.9902 118.541 94.9902 118.054V113.891H96.8633V118.594C96.8633 118.986 96.9544 119.284 97.1367 119.489C97.319 119.694 97.5697 119.797 97.8887 119.797C98.0618 119.797 98.2305 119.756 98.3945 119.674C98.5632 119.592 98.7249 119.485 98.8799 119.353C99.0348 119.22 99.1784 119.07 99.3105 118.901C99.4427 118.728 99.5612 118.555 99.666 118.382V113.891H101.553Z" fill="white"/>
<path d="M34.8162 55.8086L48.2989 48.0424L31.9453 31.7323C31.6499 31.4406 31.647 30.9634 31.9423 30.6687C31.9896 30.6216 32.0427 30.5803 32.0989 30.5479L38.0767 27.1009C38.3307 26.9565 38.632 26.9712 38.8624 27.1186L60.5352 40.9947L71.1976 34.8549V34.852C72.6832 33.9976 74.5322 33.7295 76.3131 33.9858C78.0911 34.2421 79.8189 35.0258 81.0653 36.2661L81.1067 36.3133C81.4286 36.6432 81.6796 37.0086 81.8657 37.3945C82.3767 38.464 82.3826 39.6807 82.04 40.8474C81.7092 41.9699 81.0476 43.0541 80.197 43.8997L80.1527 43.9409C79.6358 44.4506 79.0451 44.8749 78.4101 45.1783L39.093 63.96C36.8986 65.0088 35.478 65.6216 34.0219 65.4831C32.551 65.3446 31.2279 64.4608 29.2845 62.5163L27.7398 60.9754L21.9391 55.1921C21.6437 54.9004 21.6437 54.4231 21.9361 54.1285C21.9834 54.0813 22.0365 54.0401 22.0926 54.0077L26.9069 51.2323C27.1579 51.085 27.4621 51.1027 27.6925 51.25L34.8162 55.8086ZM49.9056 48.8526L35.1942 57.3286C34.955 57.4759 34.639 57.4847 34.3879 57.3227L27.264 52.7649L23.6992 54.8184L28.797 59.9006L28.8088 59.9124L30.3535 61.4562C32.0281 63.1297 33.1002 63.8868 34.1635 63.987C35.2357 64.0901 36.485 63.5421 38.4432 62.6053L77.7603 43.8236C78.2358 43.5968 78.6877 43.2697 79.0893 42.8779L79.1277 42.8337C79.807 42.159 80.3328 41.3017 80.5927 40.4237C80.8378 39.5929 80.8437 38.7473 80.507 38.0433C80.3918 37.8046 80.2353 37.5778 80.0315 37.3686L79.9961 37.3332C78.986 36.3257 77.5683 35.6893 76.1004 35.4772C74.6355 35.2651 73.1351 35.4742 71.9537 36.1548H71.9507L60.9344 42.5009C60.6922 42.6629 60.3643 42.6747 60.1044 42.5097L38.4347 28.6336L33.7031 31.3617L50.0447 47.6567C50.0949 47.7038 50.1422 47.7628 50.1776 47.8276C50.3873 48.1841 50.2659 48.6463 49.9056 48.8526ZM21.7561 75C21.3397 75 21 74.6612 21 74.2458C21 73.8304 21.3397 73.4916 21.7561 73.4916H82.2439C82.6633 73.4916 83 73.8304 83 74.2458C83 74.6612 82.6633 75 82.2439 75H21.7561Z" fill="white" stroke="white"/>
<circle cx="52" cy="51" r="50.5" stroke="white"/>
</svg>
