<svg width="102" height="126" viewBox="0 0 102 126" fill="none" xmlns="http://www.w3.org/2000/svg">
<path d="M13.709 111.17V116.68C13.709 117.391 13.6361 118.024 13.4902 118.58C13.3444 119.136 13.1074 119.605 12.7793 119.988C12.4557 120.371 12.0319 120.663 11.5078 120.863C10.9883 121.059 10.3525 121.157 9.60059 121.157C8.83496 121.157 8.1901 121.055 7.66602 120.85C7.14648 120.645 6.72493 120.348 6.40137 119.961C6.08236 119.574 5.85221 119.104 5.71094 118.553C5.57422 117.997 5.50586 117.372 5.50586 116.68V111.17H7.44727V116.912C7.44727 117.345 7.48372 117.737 7.55664 118.088C7.63411 118.434 7.75716 118.73 7.92578 118.977C8.09896 119.218 8.32227 119.405 8.5957 119.537C8.86914 119.669 9.2041 119.735 9.60059 119.735C10.0062 119.735 10.348 119.669 10.626 119.537C10.904 119.405 11.1273 119.216 11.2959 118.97C11.4645 118.724 11.5853 118.427 11.6582 118.081C11.7311 117.73 11.7676 117.34 11.7676 116.912V111.17H13.709ZM18.5078 113.74C18.9453 113.74 19.3737 113.779 19.793 113.856C20.2122 113.934 20.5791 114.036 20.8936 114.164C20.8298 114.346 20.7546 114.531 20.668 114.718C20.5859 114.905 20.5016 115.082 20.415 115.251C20.1826 115.174 19.9115 115.107 19.6016 115.053C19.2962 114.998 18.9932 114.971 18.6924 114.971C18.5192 114.971 18.3529 114.984 18.1934 115.012C18.0384 115.035 17.9017 115.073 17.7832 115.128C17.6693 115.183 17.5781 115.256 17.5098 115.347C17.4414 115.433 17.4072 115.54 17.4072 115.668C17.4072 115.846 17.4505 115.987 17.5371 116.092C17.6283 116.192 17.7467 116.274 17.8926 116.338C18.043 116.402 18.2161 116.454 18.4121 116.495C18.6081 116.536 18.8132 116.582 19.0273 116.632C19.36 116.709 19.6699 116.807 19.957 116.926C20.2487 117.044 20.4993 117.197 20.709 117.384C20.9232 117.566 21.0872 117.792 21.2012 118.061C21.3197 118.325 21.3766 118.644 21.3721 119.018C21.363 119.419 21.2673 119.756 21.085 120.029C20.9072 120.303 20.6702 120.524 20.374 120.692C20.0824 120.861 19.7474 120.982 19.3691 121.055C18.9954 121.128 18.6126 121.164 18.2207 121.164C17.9609 121.164 17.7012 121.15 17.4414 121.123C17.1816 121.096 16.9333 121.055 16.6963 121C16.4593 120.95 16.2383 120.891 16.0332 120.822C15.8281 120.749 15.6481 120.67 15.4932 120.583C15.5706 120.405 15.6572 120.221 15.7529 120.029C15.8486 119.838 15.9421 119.66 16.0332 119.496C16.1608 119.551 16.3066 119.605 16.4707 119.66C16.6393 119.71 16.8148 119.756 16.9971 119.797C17.1839 119.833 17.373 119.865 17.5645 119.893C17.7604 119.915 17.9518 119.927 18.1387 119.927C18.3301 119.927 18.5124 119.911 18.6855 119.879C18.8587 119.847 19.0091 119.797 19.1367 119.729C19.2689 119.656 19.3714 119.562 19.4443 119.448C19.5218 119.33 19.5605 119.186 19.5605 119.018C19.5605 118.826 19.515 118.674 19.4238 118.56C19.3372 118.446 19.2188 118.354 19.0684 118.286C18.918 118.218 18.7448 118.163 18.5488 118.122C18.3529 118.081 18.1501 118.04 17.9404 117.999C17.6214 117.935 17.3184 117.844 17.0312 117.726C16.7441 117.607 16.4935 117.454 16.2793 117.268C16.0651 117.081 15.8942 116.855 15.7666 116.591C15.6436 116.322 15.5866 116.007 15.5957 115.647C15.6003 115.292 15.6868 114.993 15.8555 114.752C16.0241 114.506 16.2428 114.31 16.5117 114.164C16.7806 114.014 17.0882 113.907 17.4346 113.843C17.7809 113.774 18.1387 113.74 18.5078 113.74ZM29.0967 120.679C28.9098 120.756 28.7048 120.825 28.4814 120.884C28.2627 120.943 28.0326 120.993 27.791 121.034C27.5495 121.075 27.3034 121.107 27.0527 121.13C26.8066 121.153 26.5651 121.164 26.3281 121.164C25.1296 121.164 24.2227 120.877 23.6074 120.303C22.9967 119.724 22.6914 118.84 22.6914 117.65C22.6914 117.122 22.7529 116.62 22.876 116.146C22.999 115.673 23.1973 115.258 23.4707 114.902C23.7487 114.542 24.111 114.257 24.5576 114.048C25.0088 113.838 25.5602 113.733 26.2119 113.733C27.3512 113.733 28.2012 114.036 28.7617 114.643C29.3223 115.244 29.6025 116.165 29.6025 117.404V117.944H24.5508C24.5599 118.254 24.5964 118.528 24.6602 118.765C24.724 119.002 24.8288 119.202 24.9746 119.366C25.125 119.526 25.321 119.649 25.5625 119.735C25.804 119.817 26.1071 119.858 26.4717 119.858C26.7907 119.858 27.1348 119.82 27.5039 119.742C27.873 119.66 28.2581 119.544 28.6592 119.394L29.0967 120.679ZM27.7295 116.728C27.6976 115.602 27.1917 115.039 26.2119 115.039C25.7061 115.039 25.321 115.185 25.0566 115.477C24.7969 115.768 24.6374 116.185 24.5781 116.728H27.7295ZM33.3896 115.107C33.5537 114.866 33.7064 114.668 33.8477 114.513C33.9844 114.362 34.1279 114.239 34.2783 114.144C34.4287 114.043 34.5791 113.964 34.7295 113.904C34.8844 113.84 35.0394 113.797 35.1943 113.774C35.3493 113.747 35.502 113.733 35.6523 113.733C35.7799 113.733 35.903 113.743 36.0215 113.761C36.1445 113.774 36.2585 113.793 36.3633 113.815C36.3496 113.943 36.3314 114.08 36.3086 114.226C36.2858 114.367 36.2607 114.51 36.2334 114.656C36.2061 114.802 36.1742 114.946 36.1377 115.087C36.1058 115.228 36.0716 115.36 36.0352 115.483C35.7754 115.433 35.5498 115.392 35.3584 115.36C35.167 115.324 34.9961 115.306 34.8457 115.306C34.7044 115.306 34.5745 115.326 34.4561 115.367C34.3421 115.404 34.2282 115.47 34.1143 115.565C34.0003 115.661 33.8818 115.789 33.7588 115.948C33.6403 116.103 33.5059 116.299 33.3555 116.536V121H31.4824V116.618C31.4824 116.354 31.4801 116.108 31.4756 115.88C31.471 115.647 31.4619 115.431 31.4482 115.23C31.4346 115.025 31.4141 114.832 31.3867 114.649C31.3594 114.467 31.3229 114.289 31.2773 114.116C31.5736 114.039 31.8675 113.968 32.1592 113.904C32.4554 113.84 32.7539 113.784 33.0547 113.733C33.0866 113.829 33.1162 113.925 33.1436 114.021C33.1709 114.112 33.1937 114.212 33.2119 114.321C33.2301 114.426 33.2461 114.542 33.2598 114.67C33.2734 114.798 33.2871 114.943 33.3008 115.107H33.3896ZM47.793 111.17V112.571H43.8213V114.8H46.6309V116.201H43.8213V121H41.9141V111.17H47.793ZM51.4502 115.107C51.6143 114.866 51.7669 114.668 51.9082 114.513C52.0449 114.362 52.1885 114.239 52.3389 114.144C52.4893 114.043 52.6396 113.964 52.79 113.904C52.945 113.84 53.0999 113.797 53.2549 113.774C53.4098 113.747 53.5625 113.733 53.7129 113.733C53.8405 113.733 53.9635 113.743 54.082 113.761C54.2051 113.774 54.319 113.793 54.4238 113.815C54.4102 113.943 54.3919 114.08 54.3691 114.226C54.3464 114.367 54.3213 114.51 54.2939 114.656C54.2666 114.802 54.2347 114.946 54.1982 115.087C54.1663 115.228 54.1322 115.36 54.0957 115.483C53.8359 115.433 53.6104 115.392 53.4189 115.36C53.2275 115.324 53.0566 115.306 52.9062 115.306C52.765 115.306 52.6351 115.326 52.5166 115.367C52.4027 115.404 52.2887 115.47 52.1748 115.565C52.0609 115.661 51.9424 115.789 51.8193 115.948C51.7008 116.103 51.5664 116.299 51.416 116.536V121H49.543V116.618C49.543 116.354 49.5407 116.108 49.5361 115.88C49.5316 115.647 49.5225 115.431 49.5088 115.23C49.4951 115.025 49.4746 114.832 49.4473 114.649C49.4199 114.467 49.3835 114.289 49.3379 114.116C49.6341 114.039 49.9281 113.968 50.2197 113.904C50.516 113.84 50.8145 113.784 51.1152 113.733C51.1471 113.829 51.1768 113.925 51.2041 114.021C51.2314 114.112 51.2542 114.212 51.2725 114.321C51.2907 114.426 51.3066 114.542 51.3203 114.67C51.334 114.798 51.3477 114.943 51.3613 115.107H51.4502ZM57.0146 110.425C57.1696 110.425 57.3154 110.454 57.4521 110.514C57.5934 110.573 57.7142 110.655 57.8145 110.76C57.9193 110.86 58.0013 110.981 58.0605 111.122C58.1198 111.259 58.1494 111.405 58.1494 111.56C58.1494 111.719 58.1198 111.867 58.0605 112.004C58.0013 112.141 57.9193 112.261 57.8145 112.366C57.7142 112.471 57.5934 112.553 57.4521 112.612C57.3154 112.672 57.1696 112.701 57.0146 112.701C56.8551 112.701 56.707 112.672 56.5703 112.612C56.4336 112.553 56.3128 112.471 56.208 112.366C56.1032 112.261 56.0212 112.141 55.9619 112.004C55.9027 111.867 55.873 111.719 55.873 111.56C55.873 111.405 55.9027 111.259 55.9619 111.122C56.0212 110.981 56.1032 110.86 56.208 110.76C56.3128 110.655 56.4336 110.573 56.5703 110.514C56.707 110.454 56.8551 110.425 57.0146 110.425ZM57.9443 113.891V121H56.0713V113.891H57.9443ZM66.2295 120.679C66.0426 120.756 65.8376 120.825 65.6143 120.884C65.3955 120.943 65.1654 120.993 64.9238 121.034C64.6823 121.075 64.4362 121.107 64.1855 121.13C63.9395 121.153 63.6979 121.164 63.4609 121.164C62.2624 121.164 61.3555 120.877 60.7402 120.303C60.1296 119.724 59.8242 118.84 59.8242 117.65C59.8242 117.122 59.8857 116.62 60.0088 116.146C60.1318 115.673 60.3301 115.258 60.6035 114.902C60.8815 114.542 61.2438 114.257 61.6904 114.048C62.1416 113.838 62.693 113.733 63.3447 113.733C64.484 113.733 65.334 114.036 65.8945 114.643C66.4551 115.244 66.7354 116.165 66.7354 117.404V117.944H61.6836C61.6927 118.254 61.7292 118.528 61.793 118.765C61.8568 119.002 61.9616 119.202 62.1074 119.366C62.2578 119.526 62.4538 119.649 62.6953 119.735C62.9368 119.817 63.2399 119.858 63.6045 119.858C63.9235 119.858 64.2676 119.82 64.6367 119.742C65.0059 119.66 65.391 119.544 65.792 119.394L66.2295 120.679ZM64.8623 116.728C64.8304 115.602 64.3245 115.039 63.3447 115.039C62.8389 115.039 62.4538 115.185 62.1895 115.477C61.9297 115.768 61.7702 116.185 61.7109 116.728H64.8623ZM70.4746 115.107C70.625 114.88 70.7799 114.681 70.9395 114.513C71.1035 114.34 71.2767 114.196 71.459 114.082C71.6458 113.964 71.8486 113.877 72.0674 113.822C72.2907 113.763 72.5368 113.733 72.8057 113.733C73.1064 113.733 73.373 113.768 73.6055 113.836C73.8379 113.9 74.0384 113.995 74.207 114.123C74.3757 114.246 74.5169 114.401 74.6309 114.588C74.7493 114.77 74.8428 114.978 74.9111 115.21C74.9749 115.442 75.0205 115.695 75.0479 115.969C75.0798 116.238 75.0957 116.529 75.0957 116.844V121H73.2227V116.304C73.2227 115.912 73.1315 115.613 72.9492 115.408C72.7715 115.203 72.5277 115.101 72.2178 115.101C72.0446 115.101 71.8737 115.142 71.7051 115.224C71.541 115.306 71.3815 115.415 71.2266 115.552C71.0716 115.684 70.9281 115.834 70.7959 116.003C70.6637 116.172 70.5452 116.342 70.4404 116.516V121H68.5674V116.618C68.5674 116.249 68.5628 115.941 68.5537 115.695C68.5492 115.445 68.5378 115.224 68.5195 115.032C68.5104 114.937 68.5013 114.852 68.4922 114.779C68.4831 114.706 68.4717 114.636 68.458 114.567C68.4489 114.499 68.4352 114.431 68.417 114.362C68.4033 114.289 68.3851 114.207 68.3623 114.116C68.6585 114.039 68.9525 113.97 69.2441 113.911C69.5404 113.847 69.8389 113.788 70.1396 113.733C70.1715 113.829 70.2012 113.925 70.2285 114.021C70.2559 114.112 70.2786 114.212 70.2969 114.321C70.3151 114.426 70.3311 114.542 70.3447 114.67C70.3584 114.798 70.3721 114.943 70.3857 115.107H70.4746ZM83.1758 111.156V118.683V118.977C83.1758 119.332 83.1872 119.653 83.21 119.94C83.2327 120.223 83.2829 120.51 83.3604 120.802C83.2145 120.843 83.0732 120.882 82.9365 120.918C82.7998 120.95 82.6631 120.979 82.5264 121.007C82.3942 121.039 82.2598 121.066 82.123 121.089C81.9863 121.116 81.8428 121.141 81.6924 121.164C81.6559 121.068 81.624 120.977 81.5967 120.891C81.5739 120.804 81.5511 120.711 81.5283 120.61C81.5101 120.51 81.4941 120.401 81.4805 120.282C81.4668 120.164 81.4554 120.025 81.4463 119.865H81.3711C80.8424 120.731 80.0951 121.164 79.1289 121.164C78.6504 121.164 78.2471 121.071 77.9189 120.884C77.5908 120.697 77.3242 120.446 77.1191 120.132C76.9186 119.813 76.7728 119.446 76.6816 119.031C76.5951 118.612 76.5518 118.17 76.5518 117.705C76.5518 117.049 76.6383 116.475 76.8115 115.982C76.9893 115.486 77.2376 115.071 77.5566 114.738C77.8757 114.406 78.2562 114.155 78.6982 113.986C79.1449 113.818 79.637 113.733 80.1748 113.733C80.3708 113.733 80.5599 113.743 80.7422 113.761C80.929 113.779 81.1159 113.802 81.3027 113.829V111.156H83.1758ZM81.3232 115.237C80.9587 115.146 80.6191 115.101 80.3047 115.101C80.0358 115.101 79.7852 115.137 79.5527 115.21C79.3249 115.283 79.1266 115.401 78.958 115.565C78.7894 115.729 78.6572 115.941 78.5615 116.201C78.4704 116.461 78.4248 116.778 78.4248 117.151C78.4248 117.539 78.4385 117.894 78.4658 118.218C78.4977 118.541 78.5615 118.822 78.6572 119.059C78.7529 119.291 78.8896 119.473 79.0674 119.605C79.2451 119.733 79.4821 119.797 79.7783 119.797C79.9925 119.797 80.1794 119.754 80.3389 119.667C80.5029 119.58 80.651 119.46 80.7832 119.305C80.8835 119.195 80.9769 119.072 81.0635 118.936C81.1501 118.794 81.2367 118.644 81.3232 118.484V115.237ZM86.9492 118.211C86.9492 118.589 86.9515 118.906 86.9561 119.161C86.9652 119.416 86.9788 119.64 86.9971 119.831C87.0062 119.931 87.0153 120.02 87.0244 120.098C87.0335 120.171 87.0426 120.243 87.0518 120.316C87.0609 120.385 87.0723 120.455 87.0859 120.528C87.1042 120.597 87.1247 120.674 87.1475 120.761C86.8467 120.852 86.5459 120.932 86.2451 121C85.9443 121.064 85.6367 121.118 85.3223 121.164C85.2539 120.959 85.1947 120.743 85.1445 120.515C85.099 120.282 85.0762 120.029 85.0762 119.756V111.156H86.9492V118.211ZM95.4463 113.891V120.945C95.4463 121.479 95.3597 121.93 95.1865 122.299C95.0179 122.673 94.7764 122.976 94.4619 123.208C94.152 123.44 93.7783 123.609 93.3408 123.714C92.9079 123.819 92.4294 123.871 91.9053 123.871C91.4997 123.871 91.0872 123.835 90.668 123.762C90.2533 123.693 89.8682 123.589 89.5127 123.447C89.6084 123.219 89.7064 122.996 89.8066 122.777C89.9069 122.559 90.0094 122.34 90.1143 122.121C90.4424 122.226 90.7751 122.315 91.1123 122.388C91.4495 122.465 91.7754 122.504 92.0898 122.504C92.181 122.504 92.279 122.499 92.3838 122.49C92.4932 122.486 92.6025 122.47 92.7119 122.442C92.8213 122.415 92.9284 122.372 93.0332 122.312C93.138 122.258 93.2292 122.18 93.3066 122.08C93.3887 121.984 93.4548 121.861 93.5049 121.711C93.555 121.565 93.5824 121.387 93.5869 121.178V119.79H93.5254C93.375 120.018 93.2178 120.218 93.0537 120.392C92.8942 120.56 92.721 120.704 92.5342 120.822C92.3473 120.936 92.1423 121.021 91.9189 121.075C91.6956 121.134 91.4473 121.164 91.1738 121.164C90.7272 121.164 90.3581 121.093 90.0664 120.952C89.7747 120.811 89.54 120.608 89.3623 120.344C89.1891 120.07 89.0661 119.742 88.9932 119.359C88.9202 118.977 88.8838 118.541 88.8838 118.054V113.891H90.7568V118.594C90.7568 118.986 90.848 119.284 91.0303 119.489C91.2126 119.694 91.4632 119.797 91.7822 119.797C91.9554 119.797 92.124 119.756 92.2881 119.674C92.4567 119.592 92.6185 119.485 92.7734 119.353C92.9284 119.22 93.0719 119.07 93.2041 118.901C93.3363 118.728 93.4548 118.555 93.5596 118.382V113.891H95.4463Z" fill="white"/>
<path fill-rule="evenodd" clip-rule="evenodd" d="M41.1177 76.9386L41.0915 75.5566C41.0875 75.3181 41.0523 75.081 40.9869 74.851L40.1514 71.819H34.3104C33.6982 71.8177 33.1114 71.58 32.6784 71.158C32.2454 70.736 32.0015 70.1641 32 69.5672V25.2518C32.0015 24.6549 32.2454 24.0829 32.6784 23.661C33.1114 23.239 33.6982 23.0013 34.3104 23H67.6896C68.3019 23.0013 68.8886 23.239 69.3216 23.661C69.7546 24.0829 69.9985 24.6549 70 25.2518V69.5672C69.9985 70.1641 69.7546 70.736 69.3216 71.158C68.8886 71.58 68.3019 71.8177 67.6896 71.819H63.568L61.9813 74.7434C61.7424 75.1701 61.6208 75.6498 61.6284 76.1359V76.8969C61.6309 77.1731 61.5771 77.4471 61.4701 77.7029C61.3631 77.9587 61.2049 78.1912 61.0049 78.3869C60.8049 78.5826 60.567 78.7375 60.305 78.8428C60.043 78.948 59.7622 79.0015 59.4788 79H43.2679C42.7042 78.9989 42.1634 78.7826 41.7615 78.3973C41.3595 78.0121 41.1284 77.488 41.1177 76.9386ZM47.1279 40.4842C47.489 41.1839 48.0424 41.772 48.7263 42.1829C49.4103 42.5938 50.1979 42.8115 51.0013 42.8115C51.8047 42.8115 52.5923 42.5938 53.2762 42.1829C53.9602 41.772 54.5136 41.1839 54.8747 40.4842C54.9172 40.4073 54.9434 40.3227 54.9518 40.2357C54.9603 40.1487 54.9508 40.0609 54.9238 39.9775C54.8969 39.8941 54.8531 39.8168 54.795 39.7502C54.737 39.6836 54.6658 39.629 54.5857 39.5896C54.5056 39.5503 54.4183 39.5269 54.3288 39.521C54.2394 39.5151 54.1496 39.5267 54.0648 39.5552C53.98 39.5837 53.9019 39.6284 53.8352 39.6868C53.7684 39.7451 53.7143 39.8159 53.6761 39.895C53.4253 40.3766 53.0427 40.7811 52.5706 41.0636C52.0984 41.3462 51.5553 41.4958 51.0013 41.4958C50.4473 41.4958 49.9041 41.3462 49.432 41.0636C48.9599 40.7811 48.5772 40.3766 48.3265 39.895C48.2882 39.8159 48.2341 39.7451 48.1674 39.6868C48.1006 39.6284 48.0225 39.5837 47.9377 39.5552C47.853 39.5267 47.7632 39.5151 47.6737 39.521C47.5843 39.5269 47.4969 39.5503 47.4168 39.5896C47.3368 39.629 47.2656 39.6836 47.2075 39.7502C47.1495 39.8168 47.1057 39.8941 47.0787 39.9775C47.0518 40.0609 47.0423 40.1487 47.0507 40.2357C47.0592 40.3227 47.0854 40.4073 47.1279 40.4842ZM53.671 38.0999C53.8459 38.0947 54.0118 38.0232 54.1336 37.9008C54.2555 37.7783 54.3236 37.6144 54.3236 37.4438C54.3236 37.2732 54.2555 37.1093 54.1336 36.9868C54.0118 36.8643 53.8459 36.7929 53.671 36.7877C53.5809 36.785 53.4911 36.7999 53.407 36.8317C53.3229 36.8634 53.2463 36.9113 53.1815 36.9725C53.1168 37.0337 53.0653 37.107 53.0302 37.1879C52.995 37.2689 52.9769 37.3559 52.9769 37.4438C52.9769 37.5317 52.995 37.6187 53.0302 37.6997C53.0653 37.7806 53.1168 37.8539 53.1815 37.915C53.2463 37.9762 53.3229 38.0241 53.407 38.0559C53.4911 38.0876 53.5809 38.1026 53.671 38.0999ZM48.3309 38.0999C48.4211 38.1026 48.5108 38.0876 48.5949 38.0559C48.679 38.0241 48.7557 37.9762 48.8204 37.915C48.8851 37.8539 48.9366 37.7806 48.9717 37.6997C49.0069 37.6187 49.025 37.5317 49.025 37.4438C49.025 37.3559 49.0069 37.2689 48.9717 37.1879C48.9366 37.107 48.8851 37.0337 48.8204 36.9725C48.7557 36.9113 48.679 36.8634 48.5949 36.8317C48.5108 36.7999 48.4211 36.785 48.3309 36.7877C48.2408 36.785 48.151 36.7999 48.067 36.8317C47.9829 36.8634 47.9062 36.9113 47.8415 36.9725C47.7767 37.0337 47.7253 37.107 47.6901 37.1879C47.655 37.2689 47.6369 37.3559 47.6369 37.4438C47.6369 37.5317 47.655 37.6187 47.6901 37.6997C47.7253 37.7806 47.7767 37.8539 47.8415 37.915C47.9062 37.9762 47.9829 38.0241 48.067 38.0559C48.151 38.0876 48.2408 38.1026 48.3309 38.0999ZM45.5406 44.0651C44.3826 42.8425 43.6915 41.2686 43.5834 39.6079C43.4753 37.9471 43.9568 36.3007 44.947 34.9452C45.9372 33.5898 47.3758 32.6079 49.021 32.1645C50.6663 31.7212 52.4179 31.8434 53.9816 32.5107C55.5453 33.178 56.8258 34.3496 57.6079 35.8287C58.39 37.3079 58.626 39.0044 58.2764 40.6332C57.9268 42.262 57.0128 43.7239 55.6879 44.7732C54.3631 45.8225 52.7082 46.3953 51.0013 46.3953C50.8577 46.3953 50.7134 46.3916 50.5698 46.3835V54.7031C51.1317 54.3489 51.8013 54.1937 52.4666 54.2633C53.1319 54.333 53.7524 54.6233 54.2243 55.0858C54.5076 55.3622 54.7304 55.6917 54.8791 56.0545C55.2596 55.7699 55.7057 55.5804 56.1786 55.5027C56.6515 55.4249 57.1367 55.4613 57.5919 55.6087C58.047 55.756 58.4582 56.0098 58.7894 56.3478C59.1207 56.6859 59.362 57.0979 59.4922 57.5479C59.9308 57.2458 60.446 57.067 60.9817 57.031C61.5174 56.995 62.0529 57.103 62.5299 57.3435C63.0069 57.5839 63.4069 57.9474 63.6864 58.3944C63.9659 58.8414 64.1142 59.3546 64.1149 59.8781V61.7777H64.5355C64.7084 61.7769 64.8739 61.7096 64.9963 61.5906C65.1186 61.4716 65.1879 61.3103 65.1891 61.1418V28.399C65.1884 28.2301 65.1193 28.0684 64.9969 27.9489C64.8745 27.8295 64.7087 27.762 64.5355 27.7612H37.467C37.2939 27.7622 37.128 27.8297 37.0056 27.9491C36.8831 28.0685 36.8139 28.2301 36.8129 28.399V61.1418C36.8139 61.3106 36.8831 61.4723 37.0056 61.5917C37.128 61.7111 37.2939 61.7786 37.467 61.7795H38.1582C38.2226 61.6259 38.2974 61.4767 38.3823 61.3328C38.6208 60.9264 38.9394 60.5701 39.3197 60.2841C39.7 59.9981 40.1345 59.7883 40.5982 59.6665C41.3754 59.467 42.1983 59.5216 42.9407 59.8218C43.6831 60.122 44.3041 60.6512 44.7084 61.3284V46.0574C44.7076 45.3136 45.0054 44.5989 45.5381 44.0663L45.5406 44.0651ZM50.3835 45.0538L50.4811 45.0625C50.6503 45.0768 50.8232 45.0837 51.0013 45.0837C52.4145 45.0851 53.7844 44.6085 54.8773 43.7351C55.9703 42.8618 56.7186 41.6458 56.9947 40.2947C57.2707 38.9435 57.0573 37.5408 56.391 36.3258C55.7246 35.1109 54.6465 34.159 53.3406 33.6325C52.0347 33.1059 50.5819 33.0374 49.23 33.4386C47.878 33.8398 46.7107 34.6858 45.9272 35.8324C45.1437 36.979 44.7925 38.355 44.9334 39.7259C45.0744 41.0967 45.6989 42.3774 46.7003 43.3495C47.2176 43.1783 47.7739 43.1519 48.3058 43.2734C48.8378 43.395 49.3241 43.6595 49.7095 44.0371C50.0055 44.3256 50.2352 44.6722 50.3835 45.0538ZM37.8889 63.0893H37.467C36.9374 63.0882 36.4297 62.8827 36.0549 62.5178C35.6801 62.1529 35.4687 61.6582 35.4668 61.1418V28.399C35.4677 27.882 35.6787 27.3865 36.0536 27.021C36.4286 26.6555 36.9368 26.4498 37.467 26.4489H64.5355C65.0657 26.4498 65.574 26.6555 65.9489 27.021C66.3239 27.3865 66.5349 27.882 66.5357 28.399V61.1418C66.5345 61.6586 66.3234 62.1539 65.9486 62.5194C65.5737 62.8848 65.0656 63.0906 64.5355 63.0918H64.1149V69.7563C64.1162 70.0078 64.0948 70.2589 64.0511 70.5067H67.6935C67.9486 70.5054 68.193 70.406 68.3734 70.2301C68.5539 70.0542 68.6558 69.816 68.6572 69.5672V25.2518C68.656 25.003 68.5541 24.7648 68.3736 24.5889C68.1931 24.4131 67.9486 24.3139 67.6935 24.3129H34.3142C34.059 24.3139 33.8146 24.4131 33.6341 24.5889C33.4536 24.7648 33.3517 25.003 33.3505 25.2518V69.5672C33.3518 69.816 33.4538 70.0542 33.6342 70.2301C33.8147 70.406 34.059 70.5054 34.3142 70.5067H39.7966L38.0127 64.0301C37.9285 63.7233 37.8869 63.4069 37.8889 63.0893ZM42.4324 75.5336L42.4593 76.9156C42.4639 77.1214 42.5512 77.3173 42.7024 77.4611C42.8536 77.6049 43.0567 77.6851 43.2679 77.6846H59.4788C59.6388 77.684 59.7951 77.6379 59.9285 77.5519C60.062 77.4659 60.1668 77.3438 60.23 77.2005C60.2695 77.1031 60.289 76.9991 60.2875 76.8944V76.1334C60.2773 75.4346 60.4514 74.745 60.7929 74.1305L62.4179 71.1358C62.6559 70.7129 62.7767 70.2368 62.7683 69.7545V59.8774C62.7599 59.4731 62.5894 59.0881 62.2931 58.8051C61.9969 58.522 61.5986 58.3635 61.1839 58.3635C60.7691 58.3635 60.3708 58.522 60.0746 58.8051C59.7784 59.0881 59.6078 59.4731 59.5995 59.8774H58.2534V58.3138C58.2451 57.9095 58.0745 57.5245 57.7783 57.2415C57.4821 56.9584 57.0838 56.7999 56.669 56.7999C56.2543 56.7999 55.856 56.9584 55.5598 57.2415C55.2636 57.5245 55.093 57.9095 55.0846 58.3138H53.7386V57.1042C53.7303 56.6999 53.5597 56.3149 53.2635 56.0319C52.9673 55.7488 52.569 55.5903 52.1542 55.5903C51.7394 55.5903 51.3412 55.7488 51.045 56.0319C50.7487 56.3149 50.5782 56.6999 50.5698 57.1042H49.2238V46.0574C49.2155 45.6531 49.0449 45.2681 48.7487 44.9851C48.4525 44.702 48.0542 44.5435 47.6394 44.5435C47.2246 44.5435 46.8264 44.702 46.5302 44.9851C46.2339 45.2681 46.0633 45.6531 46.055 46.0574V65.8395C46.0555 65.9988 45.9964 66.1528 45.8888 66.2727C45.7812 66.3925 45.6325 66.4701 45.4705 66.4908C45.3085 66.5116 45.1443 66.4741 45.0086 66.3854C44.8729 66.2966 44.775 66.1627 44.7333 66.0087L43.7842 62.5604C43.7772 62.5393 43.7714 62.5175 43.7663 62.4951C43.6019 61.9312 43.2187 61.4519 42.6979 61.1588C42.1772 60.8656 41.5598 60.7816 40.9767 60.9246C40.9562 60.9308 40.9352 60.9364 40.9128 60.9408C40.3291 61.1032 39.8342 61.4827 39.5346 61.9974C39.2351 62.5122 39.155 63.1211 39.3115 63.6929L42.2857 74.5138C42.3786 74.8476 42.4279 75.1915 42.4324 75.5373V75.5336Z" fill="white" stroke="white" stroke-width="0.5"/>
<circle cx="51" cy="51" r="50.5" stroke="white"/>
</svg>
