<svg width="58" height="58" viewBox="0 0 58 58" fill="none" xmlns="http://www.w3.org/2000/svg">
<rect width="58" height="58" rx="29" fill="white"/>
<path d="M18.013 41.1776C18.8296 41.9538 20.1546 41.9538 20.9711 41.1776L36.4164 26.5168V33.2237C36.4164 34.3209 37.3533 35.2101 38.508 35.2101C39.6627 35.2101 40.6004 34.3209 40.6004 33.2237V21.7234C40.6004 21.1704 40.359 20.6737 39.9741 20.3142C39.5951 19.9497 39.0718 19.7209 38.4895 19.7209L26.3741 19.7197C25.2182 19.7197 24.2825 20.609 24.2825 21.7061C24.2825 22.8022 25.2185 23.6914 26.3741 23.6914H33.4765L18.013 38.3697C17.1962 39.1459 17.1962 40.4022 18.013 41.1776Z" fill="black"/>
</svg>
