<svg width="23" height="15" viewBox="0 0 23 15" fill="none" xmlns="http://www.w3.org/2000/svg">
<path d="M22.7926 1.63017C22.6633 1.55911 22.5051 1.56109 22.3799 1.63609L16.8393 4.82959V2.3625C16.8393 1.05989 15.7366 0 14.3812 0H2.45815C1.1028 0 0 1.05986 0 2.3625V12.6375C0 13.9401 1.10277 15 2.45815 15H14.3812C15.7365 15 16.8393 13.9401 16.8393 12.6375V10.1704L22.3778 13.3639C22.4435 13.4014 22.5154 13.4211 22.5893 13.4211C22.6591 13.4211 22.7289 13.4034 22.7926 13.3698C22.922 13.3008 23 13.1685 23 13.0264V1.97381C23 1.83171 22.92 1.69926 22.7926 1.63017ZM11.2883 8.00126L7.01479 10.642C6.91211 10.7052 6.79505 10.7387 6.68006 10.7387C6.57944 10.7387 6.47676 10.7131 6.3823 10.6637C6.17899 10.5571 6.05987 10.3618 6.05987 10.1407V4.8592C6.05987 4.63815 6.18103 4.44277 6.3823 4.33618C6.5856 4.2296 6.82177 4.2375 7.01479 4.35789L11.2905 6.99864C11.4691 7.10917 11.5759 7.29667 11.5759 7.49996C11.5759 7.70325 11.467 7.89073 11.2883 8.00126Z" fill="white"/>
</svg>
