<svg width="129" height="48" viewBox="0 0 129 48" fill="none" xmlns="http://www.w3.org/2000/svg">
<rect y="4" width="125" height="40" rx="20" fill="white"/>
<g filter="url(#filter0_d_141_65)">
<rect x="85" y="4" width="40" height="40" rx="20" fill="white"/>
</g>
<path d="M114.232 23.065C114.57 23.2565 114.57 23.7435 114.232 23.935L100.747 31.577C100.413 31.7659 100 31.5251 100 31.142L100 15.858C100 15.4749 100.413 15.2341 100.747 15.423L114.232 23.065Z" fill="black"/>
<path d="M14.3408 19.1699C14.792 19.1699 15.2135 19.2201 15.6055 19.3203C15.9974 19.416 16.3369 19.5755 16.624 19.7988C16.9157 20.0176 17.1436 20.3047 17.3076 20.6602C17.4762 21.0156 17.5605 21.4486 17.5605 21.959C17.5605 22.5286 17.4648 22.9935 17.2734 23.3535C17.082 23.7135 16.8223 23.9984 16.4941 24.208C16.1706 24.4176 15.7923 24.5612 15.3594 24.6387C14.931 24.7161 14.4775 24.7549 13.999 24.7549C13.7393 24.7549 13.484 24.7458 13.2334 24.7275C12.9873 24.7093 12.7549 24.6888 12.5361 24.666V29H11.2646V19.1699H14.3408ZM12.5361 23.6406C12.7549 23.668 12.9827 23.6908 13.2197 23.709C13.4613 23.7227 13.7028 23.7295 13.9443 23.7295C14.2907 23.7295 14.6074 23.709 14.8945 23.668C15.1862 23.6224 15.4346 23.5358 15.6396 23.4082C15.8447 23.2806 16.0042 23.1006 16.1182 22.8682C16.2321 22.6357 16.2891 22.3327 16.2891 21.959C16.2891 21.6172 16.2412 21.3346 16.1455 21.1113C16.0498 20.8835 15.9154 20.7012 15.7422 20.5645C15.5736 20.4277 15.3685 20.332 15.127 20.2773C14.89 20.2227 14.6279 20.1953 14.3408 20.1953H12.5361V23.6406ZM20.4727 26.2383C20.4727 26.612 20.4772 26.9264 20.4863 27.1816C20.4954 27.4323 20.5068 27.6533 20.5205 27.8447C20.5342 28.0361 20.5547 28.2093 20.582 28.3643C20.6139 28.5192 20.6527 28.6901 20.6982 28.877C20.5068 28.9271 20.3154 28.9727 20.124 29.0137C19.9326 29.0592 19.7412 29.098 19.5498 29.1299C19.4587 28.8337 19.3926 28.5625 19.3516 28.3164C19.3151 28.0703 19.2969 27.8288 19.2969 27.5918V19.1699H20.4727V26.2383ZM23.1592 23.1484L22.8584 22.1914C23.624 21.8861 24.4261 21.7334 25.2646 21.7334C25.9984 21.7334 26.5589 21.8564 26.9463 22.1025C27.3883 22.3851 27.6094 22.8659 27.6094 23.5449V26.3408C27.6094 26.7145 27.6139 27.0973 27.623 27.4893C27.6276 27.7217 27.6504 27.9632 27.6914 28.2139C27.7279 28.4508 27.7757 28.6764 27.835 28.8906L26.7139 29.1367C26.609 28.8314 26.543 28.4896 26.5156 28.1113L26.3789 28.0977C25.8138 28.8086 25.0938 29.1641 24.2188 29.1641C23.5807 29.1641 23.068 28.9886 22.6807 28.6377C22.2933 28.2822 22.0996 27.7832 22.0996 27.1406C22.0996 26.6621 22.2044 26.2702 22.4141 25.9648C22.6283 25.6595 22.929 25.402 23.3164 25.1924C23.9271 24.8597 24.7816 24.6934 25.8799 24.6934C26.0257 24.6934 26.2217 24.6979 26.4678 24.707V23.668C26.4678 23.3398 26.3675 23.1029 26.167 22.957C25.9665 22.8112 25.652 22.7383 25.2236 22.7383C24.5993 22.7383 23.9111 22.875 23.1592 23.1484ZM26.4678 27.0039V25.5684C26.3447 25.5592 26.1647 25.5547 25.9277 25.5547C25.5267 25.5547 25.1576 25.5889 24.8203 25.6572C24.319 25.7575 23.9294 25.917 23.6514 26.1357C23.3779 26.3499 23.2412 26.6598 23.2412 27.0654C23.2412 27.7946 23.6377 28.1592 24.4307 28.1592C24.8408 28.1592 25.2236 28.0498 25.5791 27.8311C25.8708 27.6488 26.167 27.373 26.4678 27.0039ZM35.6211 21.8906V29.1572C35.6211 29.6084 35.5459 29.998 35.3955 30.3262C35.2497 30.6543 35.0446 30.9255 34.7803 31.1396C34.5205 31.3538 34.2106 31.5111 33.8506 31.6113C33.4906 31.7161 33.0986 31.7686 32.6748 31.7686C32.292 31.7686 31.9069 31.7344 31.5195 31.666C31.1322 31.6022 30.763 31.5111 30.4121 31.3926C30.4714 31.2331 30.5329 31.0781 30.5967 30.9277C30.6605 30.7773 30.7243 30.627 30.7881 30.4766C30.8975 30.513 31.0273 30.5518 31.1777 30.5928C31.3327 30.6338 31.4945 30.6702 31.6631 30.7021C31.8363 30.7386 32.0117 30.766 32.1895 30.7842C32.3717 30.807 32.5472 30.8184 32.7158 30.8184C32.9801 30.8184 33.2194 30.7819 33.4336 30.709C33.6478 30.6406 33.8301 30.5358 33.9805 30.3945C34.1309 30.2533 34.2448 30.0778 34.3223 29.8682C34.4043 29.6631 34.4453 29.4261 34.4453 29.1572V27.6123H34.3154C34.1969 27.8265 34.0602 28.0293 33.9053 28.2207C33.7503 28.4076 33.5794 28.5716 33.3926 28.7129C33.2057 28.8542 33.0029 28.9635 32.7842 29.041C32.57 29.123 32.3421 29.1641 32.1006 29.1641C31.7679 29.1641 31.4785 29.1253 31.2324 29.0479C30.9863 28.9749 30.7744 28.8656 30.5967 28.7197C30.4235 28.5693 30.2799 28.3848 30.166 28.166C30.0566 27.9427 29.9723 27.6852 29.9131 27.3936C29.863 27.1338 29.8311 26.8558 29.8174 26.5596C29.8037 26.2633 29.7969 25.958 29.7969 25.6436V21.8906H30.9727V25.9717C30.9727 26.2679 30.9863 26.5459 31.0137 26.8057C31.041 27.0609 31.1003 27.2842 31.1914 27.4756C31.2871 27.6624 31.4261 27.8105 31.6084 27.9199C31.7907 28.0247 32.0391 28.0771 32.3535 28.0771C32.5859 28.0771 32.8047 28.0225 33.0098 27.9131C33.2148 27.7992 33.404 27.6556 33.5771 27.4824C33.7503 27.3092 33.9076 27.1178 34.0488 26.9082C34.1947 26.6986 34.3268 26.4935 34.4453 26.293V21.8906H35.6211ZM48.7051 19.1699H50.0518L46.3809 29.0137H45.2393L41.5615 19.1699H42.9082L45.8135 27.4346L48.7051 19.1699ZM52.6631 19.1357C52.8727 19.1357 53.055 19.2087 53.21 19.3545C53.3604 19.514 53.4355 19.7008 53.4355 19.915C53.4355 20.1338 53.3604 20.3184 53.21 20.4688C53.055 20.6237 52.8727 20.7012 52.6631 20.7012C52.4443 20.7012 52.2575 20.6237 52.1025 20.4688C51.9476 20.3229 51.8701 20.1383 51.8701 19.915C51.8701 19.6963 51.9476 19.5094 52.1025 19.3545C52.2575 19.2087 52.4443 19.1357 52.6631 19.1357ZM52.0615 21.8906H53.2373V29H52.0615V21.8906ZM59.8477 19.1562H61.0234V26.3135C61.0234 27.1156 61.0348 27.6419 61.0576 27.8926C61.0804 28.2025 61.1328 28.5352 61.2148 28.8906L60.0801 29.1436C60.0026 28.8883 59.9456 28.6309 59.9092 28.3711C59.8636 28.0521 59.8385 27.806 59.834 27.6328H59.7314C59.4945 28.125 59.2324 28.4873 58.9453 28.7197C58.599 29.016 58.1706 29.1641 57.6602 29.1641C57.2135 29.1641 56.8285 29.0684 56.5049 28.877C56.1813 28.681 55.9284 28.4098 55.7461 28.0635C55.5684 27.7171 55.4362 27.3366 55.3496 26.9219C55.2676 26.5072 55.2266 26.0492 55.2266 25.5479C55.2266 24.9827 55.2835 24.4746 55.3975 24.0234C55.516 23.5723 55.696 23.1735 55.9375 22.8271C56.179 22.4762 56.5026 22.2074 56.9082 22.0205C57.3138 21.8291 57.79 21.7334 58.3369 21.7334C58.7653 21.7334 59.2689 21.7904 59.8477 21.9043V19.1562ZM59.8477 26.1221V22.9434C59.3327 22.8066 58.8587 22.7383 58.4258 22.7383C58.0566 22.7383 57.7376 22.8066 57.4688 22.9434C57.2044 23.0755 56.9971 23.2646 56.8467 23.5107C56.6963 23.7523 56.5869 24.0234 56.5186 24.3242C56.4502 24.625 56.416 24.9622 56.416 25.3359C56.416 25.5911 56.4206 25.8167 56.4297 26.0127C56.4434 26.2041 56.4639 26.4137 56.4912 26.6416C56.5231 26.8649 56.571 27.0563 56.6348 27.2158C56.6986 27.3753 56.7783 27.5234 56.874 27.6602C56.9697 27.7969 57.0928 27.9017 57.2432 27.9746C57.3981 28.043 57.5758 28.0771 57.7764 28.0771C58.2594 28.0771 58.6787 27.8835 59.0342 27.4961C59.2894 27.2135 59.5605 26.7555 59.8477 26.1221ZM68.6934 28.6035C68.1875 28.804 67.7113 28.9476 67.2646 29.0342C66.8226 29.1208 66.4261 29.1641 66.0752 29.1641C65.5374 29.1641 65.068 29.0798 64.667 28.9111C64.266 28.738 63.931 28.4964 63.6621 28.1865C63.3978 27.8766 63.1973 27.5075 63.0605 27.0791C62.9284 26.6462 62.8623 26.1699 62.8623 25.6504C62.8623 25.3314 62.8851 25.0124 62.9307 24.6934C62.9762 24.3743 63.0492 24.0713 63.1494 23.7842C63.2497 23.4925 63.3796 23.2214 63.5391 22.9707C63.7031 22.7201 63.9014 22.5036 64.1338 22.3213C64.3662 22.139 64.6374 21.9954 64.9473 21.8906C65.2572 21.7858 65.6104 21.7334 66.0068 21.7334C67.0231 21.7334 67.7887 22.0524 68.3037 22.6904C68.8187 23.3239 69.0762 24.2331 69.0762 25.418V25.7939H64.0723C64.0723 26.1768 64.1133 26.5163 64.1953 26.8125C64.2773 27.1042 64.4027 27.3525 64.5713 27.5576C64.7445 27.7581 64.9609 27.9108 65.2207 28.0156C65.485 28.1204 65.7972 28.1729 66.1572 28.1729C66.3577 28.1729 66.556 28.1592 66.752 28.1318C66.9525 28.0999 67.1462 28.0612 67.333 28.0156C67.5199 27.9655 67.6976 27.9108 67.8662 27.8516C68.0394 27.7923 68.2012 27.7354 68.3516 27.6807L68.6934 28.6035ZM67.8936 24.8506C67.8571 24.1123 67.6794 23.5745 67.3604 23.2373C67.0459 22.8955 66.5947 22.7246 66.0068 22.7246C65.4189 22.7246 64.9701 22.8955 64.6602 23.2373C64.3548 23.5745 64.1702 24.1123 64.1064 24.8506H67.8936ZM73.5537 21.7334C73.777 21.7334 74.0094 21.7516 74.251 21.7881C74.4925 21.82 74.7295 21.8838 74.9619 21.9795C75.1943 22.0798 75.4131 22.2165 75.6182 22.3896C75.8278 22.5583 76.0124 22.7793 76.1719 23.0527C76.3314 23.3307 76.4567 23.6657 76.5479 24.0576C76.639 24.445 76.6846 24.9076 76.6846 25.4453C76.6846 25.9831 76.639 26.4479 76.5479 26.8398C76.4567 27.2272 76.3314 27.5576 76.1719 27.8311C76.0124 28.109 75.8278 28.3346 75.6182 28.5078C75.4131 28.681 75.1943 28.8154 74.9619 28.9111C74.7295 29.0114 74.4925 29.0775 74.251 29.1094C74.0094 29.1458 73.777 29.1641 73.5537 29.1641C73.335 29.1641 73.1048 29.1458 72.8633 29.1094C72.6263 29.0775 72.3916 29.0114 72.1592 28.9111C71.9268 28.8154 71.708 28.681 71.5029 28.5078C71.2979 28.3346 71.1156 28.109 70.9561 27.8311C70.7965 27.5576 70.6712 27.2272 70.5801 26.8398C70.4889 26.4479 70.4434 25.9831 70.4434 25.4453C70.4434 24.9076 70.4889 24.445 70.5801 24.0576C70.6712 23.6657 70.7965 23.3307 70.9561 23.0527C71.1156 22.7793 71.2979 22.5583 71.5029 22.3896C71.708 22.2165 71.9268 22.0798 72.1592 21.9795C72.3916 21.8838 72.6263 21.82 72.8633 21.7881C73.1003 21.7516 73.3304 21.7334 73.5537 21.7334ZM73.5537 22.6973C73.2939 22.6973 73.0479 22.7383 72.8154 22.8203C72.5876 22.9023 72.387 23.0459 72.2139 23.251C72.0361 23.4606 71.8949 23.7409 71.79 24.0918C71.6852 24.4427 71.6328 24.8939 71.6328 25.4453C71.6328 25.9922 71.6852 26.4434 71.79 26.7988C71.8949 27.1497 72.0361 27.4277 72.2139 27.6328C72.387 27.8424 72.5876 27.9883 72.8154 28.0703C73.0479 28.1478 73.2939 28.1865 73.5537 28.1865C73.818 28.1865 74.0664 28.1478 74.2988 28.0703C74.5358 27.9883 74.7432 27.8424 74.9209 27.6328C75.0986 27.4277 75.2376 27.1497 75.3379 26.7988C75.4427 26.4434 75.4951 25.9922 75.4951 25.4453C75.4951 24.8939 75.4427 24.4427 75.3379 24.0918C75.2376 23.7409 75.0986 23.4606 74.9209 23.251C74.7432 23.0459 74.5358 22.9023 74.2988 22.8203C74.0664 22.7383 73.818 22.6973 73.5537 22.6973Z" fill="black"/>
<defs>
<filter id="filter0_d_141_65" x="81" y="0" width="48" height="48" filterUnits="userSpaceOnUse" color-interpolation-filters="sRGB">
<feFlood flood-opacity="0" result="BackgroundImageFix"/>
<feColorMatrix in="SourceAlpha" type="matrix" values="0 0 0 0 0 0 0 0 0 0 0 0 0 0 0 0 0 0 127 0" result="hardAlpha"/>
<feOffset/>
<feGaussianBlur stdDeviation="2"/>
<feComposite in2="hardAlpha" operator="out"/>
<feColorMatrix type="matrix" values="0 0 0 0 0 0 0 0 0 0 0 0 0 0 0 0 0 0 0.25 0"/>
<feBlend mode="normal" in2="BackgroundImageFix" result="effect1_dropShadow_141_65"/>
<feBlend mode="normal" in="SourceGraphic" in2="effect1_dropShadow_141_65" result="shape"/>
</filter>
</defs>
</svg>
